<?xml version="1.0" encoding="utf-8" standalone="no"?>
<!DOCTYPE svg PUBLIC "-//W3C//DTD SVG 1.1//EN"
  "http://www.w3.org/Graphics/SVG/1.1/DTD/svg11.dtd">
<!-- Created with matplotlib (https://matplotlib.org/) -->
<svg height="432pt" version="1.1" viewBox="0 0 576 432" width="576pt" xmlns="http://www.w3.org/2000/svg" xmlns:xlink="http://www.w3.org/1999/xlink">
 <defs>
  <style type="text/css">
*{stroke-linecap:butt;stroke-linejoin:round;}
  </style>
 </defs>
 <g id="figure_1">
  <g id="patch_1">
   <path d="M 0 432 
L 576 432 
L 576 0 
L 0 0 
z
" style="fill:#ffffff;"/>
  </g>
  <g id="axes_1">
   <g id="patch_2">
    <path d="M 72 378 
L 518.4 378 
L 518.4 51.84 
L 72 51.84 
z
" style="fill:#ffffff;"/>
   </g>
   <g id="line2d_1">
    <path clip-path="url(#pd8212f4a37)" d="M 92.290909 79.02 
L 100.572913 95.92199 
L 108.854917 112.699776 
L 117.13692 129.35336 
L 125.418924 145.88274 
L 133.700928 162.287917 
L 141.982931 178.568891 
L 150.264935 194.725662 
L 158.546939 210.758229 
L 166.828942 226.666594 
L 175.110946 242.450755 
L 183.39295 258.110713 
L 191.674954 273.646468 
L 199.956957 289.058019 
L 208.238961 304.345368 
L 216.520965 319.508513 
L 224.802968 334.547455 
L 233.084972 349.462194 
L 241.366976 364.25273 
L 249.64898 378.919062 
L 257.930983 393.461192 
L 266.212987 407.879118 
L 274.494991 422.172841 
L 280.823404 433 
" style="fill:none;stroke:#dddddd;stroke-dasharray:5.55,2.4;stroke-dashoffset:0;stroke-width:1.5;"/>
   </g>
   <g id="matplotlib.axis_1">
    <g id="xtick_1">
     <g id="line2d_2">
      <defs>
       <path d="M 0 0 
L 0 3.5 
" id="m515c0eeafc" style="stroke:#000000;stroke-width:0.8;"/>
      </defs>
      <g>
       <use style="stroke:#000000;stroke-width:0.8;" x="95.547494" xlink:href="#m515c0eeafc" y="378"/>
      </g>
     </g>
     <g id="text_1">
      <!-- 0.50 -->
      <defs>
       <path d="M 31.78125 66.40625 
Q 24.171875 66.40625 20.328125 58.90625 
Q 16.5 51.421875 16.5 36.375 
Q 16.5 21.390625 20.328125 13.890625 
Q 24.171875 6.390625 31.78125 6.390625 
Q 39.453125 6.390625 43.28125 13.890625 
Q 47.125 21.390625 47.125 36.375 
Q 47.125 51.421875 43.28125 58.90625 
Q 39.453125 66.40625 31.78125 66.40625 
z
M 31.78125 74.21875 
Q 44.046875 74.21875 50.515625 64.515625 
Q 56.984375 54.828125 56.984375 36.375 
Q 56.984375 17.96875 50.515625 8.265625 
Q 44.046875 -1.421875 31.78125 -1.421875 
Q 19.53125 -1.421875 13.0625 8.265625 
Q 6.59375 17.96875 6.59375 36.375 
Q 6.59375 54.828125 13.0625 64.515625 
Q 19.53125 74.21875 31.78125 74.21875 
z
" id="DejaVuSans-48"/>
       <path d="M 10.6875 12.40625 
L 21 12.40625 
L 21 0 
L 10.6875 0 
z
" id="DejaVuSans-46"/>
       <path d="M 10.796875 72.90625 
L 49.515625 72.90625 
L 49.515625 64.59375 
L 19.828125 64.59375 
L 19.828125 46.734375 
Q 21.96875 47.46875 24.109375 47.828125 
Q 26.265625 48.1875 28.421875 48.1875 
Q 40.625 48.1875 47.75 41.5 
Q 54.890625 34.8125 54.890625 23.390625 
Q 54.890625 11.625 47.5625 5.09375 
Q 40.234375 -1.421875 26.90625 -1.421875 
Q 22.3125 -1.421875 17.546875 -0.640625 
Q 12.796875 0.140625 7.71875 1.703125 
L 7.71875 11.625 
Q 12.109375 9.234375 16.796875 8.0625 
Q 21.484375 6.890625 26.703125 6.890625 
Q 35.15625 6.890625 40.078125 11.328125 
Q 45.015625 15.765625 45.015625 23.390625 
Q 45.015625 31 40.078125 35.4375 
Q 35.15625 39.890625 26.703125 39.890625 
Q 22.75 39.890625 18.8125 39.015625 
Q 14.890625 38.140625 10.796875 36.28125 
z
" id="DejaVuSans-53"/>
      </defs>
      <g transform="translate(84.414681 392.598437)scale(0.1 -0.1)">
       <use xlink:href="#DejaVuSans-48"/>
       <use x="63.623047" xlink:href="#DejaVuSans-46"/>
       <use x="95.410156" xlink:href="#DejaVuSans-53"/>
       <use x="159.033203" xlink:href="#DejaVuSans-48"/>
      </g>
     </g>
    </g>
    <g id="xtick_2">
     <g id="line2d_3">
      <g>
       <use style="stroke:#000000;stroke-width:0.8;" x="152.155954" xlink:href="#m515c0eeafc" y="378"/>
      </g>
     </g>
     <g id="text_2">
      <!-- 0.75 -->
      <defs>
       <path d="M 8.203125 72.90625 
L 55.078125 72.90625 
L 55.078125 68.703125 
L 28.609375 0 
L 18.3125 0 
L 43.21875 64.59375 
L 8.203125 64.59375 
z
" id="DejaVuSans-55"/>
      </defs>
      <g transform="translate(141.023142 392.598437)scale(0.1 -0.1)">
       <use xlink:href="#DejaVuSans-48"/>
       <use x="63.623047" xlink:href="#DejaVuSans-46"/>
       <use x="95.410156" xlink:href="#DejaVuSans-55"/>
       <use x="159.033203" xlink:href="#DejaVuSans-53"/>
      </g>
     </g>
    </g>
    <g id="xtick_3">
     <g id="line2d_4">
      <g>
       <use style="stroke:#000000;stroke-width:0.8;" x="208.764415" xlink:href="#m515c0eeafc" y="378"/>
      </g>
     </g>
     <g id="text_3">
      <!-- 1.00 -->
      <defs>
       <path d="M 12.40625 8.296875 
L 28.515625 8.296875 
L 28.515625 63.921875 
L 10.984375 60.40625 
L 10.984375 69.390625 
L 28.421875 72.90625 
L 38.28125 72.90625 
L 38.28125 8.296875 
L 54.390625 8.296875 
L 54.390625 0 
L 12.40625 0 
z
" id="DejaVuSans-49"/>
      </defs>
      <g transform="translate(197.631603 392.598437)scale(0.1 -0.1)">
       <use xlink:href="#DejaVuSans-49"/>
       <use x="63.623047" xlink:href="#DejaVuSans-46"/>
       <use x="95.410156" xlink:href="#DejaVuSans-48"/>
       <use x="159.033203" xlink:href="#DejaVuSans-48"/>
      </g>
     </g>
    </g>
    <g id="xtick_4">
     <g id="line2d_5">
      <g>
       <use style="stroke:#000000;stroke-width:0.8;" x="265.372876" xlink:href="#m515c0eeafc" y="378"/>
      </g>
     </g>
     <g id="text_4">
      <!-- 1.25 -->
      <defs>
       <path d="M 19.1875 8.296875 
L 53.609375 8.296875 
L 53.609375 0 
L 7.328125 0 
L 7.328125 8.296875 
Q 12.9375 14.109375 22.625 23.890625 
Q 32.328125 33.6875 34.8125 36.53125 
Q 39.546875 41.84375 41.421875 45.53125 
Q 43.3125 49.21875 43.3125 52.78125 
Q 43.3125 58.59375 39.234375 62.25 
Q 35.15625 65.921875 28.609375 65.921875 
Q 23.96875 65.921875 18.8125 64.3125 
Q 13.671875 62.703125 7.8125 59.421875 
L 7.8125 69.390625 
Q 13.765625 71.78125 18.9375 73 
Q 24.125 74.21875 28.421875 74.21875 
Q 39.75 74.21875 46.484375 68.546875 
Q 53.21875 62.890625 53.21875 53.421875 
Q 53.21875 48.921875 51.53125 44.890625 
Q 49.859375 40.875 45.40625 35.40625 
Q 44.1875 33.984375 37.640625 27.21875 
Q 31.109375 20.453125 19.1875 8.296875 
z
" id="DejaVuSans-50"/>
      </defs>
      <g transform="translate(254.240063 392.598437)scale(0.1 -0.1)">
       <use xlink:href="#DejaVuSans-49"/>
       <use x="63.623047" xlink:href="#DejaVuSans-46"/>
       <use x="95.410156" xlink:href="#DejaVuSans-50"/>
       <use x="159.033203" xlink:href="#DejaVuSans-53"/>
      </g>
     </g>
    </g>
    <g id="xtick_5">
     <g id="line2d_6">
      <g>
       <use style="stroke:#000000;stroke-width:0.8;" x="321.981336" xlink:href="#m515c0eeafc" y="378"/>
      </g>
     </g>
     <g id="text_5">
      <!-- 1.50 -->
      <g transform="translate(310.848524 392.598437)scale(0.1 -0.1)">
       <use xlink:href="#DejaVuSans-49"/>
       <use x="63.623047" xlink:href="#DejaVuSans-46"/>
       <use x="95.410156" xlink:href="#DejaVuSans-53"/>
       <use x="159.033203" xlink:href="#DejaVuSans-48"/>
      </g>
     </g>
    </g>
    <g id="xtick_6">
     <g id="line2d_7">
      <g>
       <use style="stroke:#000000;stroke-width:0.8;" x="378.589797" xlink:href="#m515c0eeafc" y="378"/>
      </g>
     </g>
     <g id="text_6">
      <!-- 1.75 -->
      <g transform="translate(367.456985 392.598437)scale(0.1 -0.1)">
       <use xlink:href="#DejaVuSans-49"/>
       <use x="63.623047" xlink:href="#DejaVuSans-46"/>
       <use x="95.410156" xlink:href="#DejaVuSans-55"/>
       <use x="159.033203" xlink:href="#DejaVuSans-53"/>
      </g>
     </g>
    </g>
    <g id="xtick_7">
     <g id="line2d_8">
      <g>
       <use style="stroke:#000000;stroke-width:0.8;" x="435.198258" xlink:href="#m515c0eeafc" y="378"/>
      </g>
     </g>
     <g id="text_7">
      <!-- 2.00 -->
      <g transform="translate(424.065445 392.598437)scale(0.1 -0.1)">
       <use xlink:href="#DejaVuSans-50"/>
       <use x="63.623047" xlink:href="#DejaVuSans-46"/>
       <use x="95.410156" xlink:href="#DejaVuSans-48"/>
       <use x="159.033203" xlink:href="#DejaVuSans-48"/>
      </g>
     </g>
    </g>
    <g id="xtick_8">
     <g id="line2d_9">
      <g>
       <use style="stroke:#000000;stroke-width:0.8;" x="491.806718" xlink:href="#m515c0eeafc" y="378"/>
      </g>
     </g>
     <g id="text_8">
      <!-- 2.25 -->
      <g transform="translate(480.673906 392.598437)scale(0.1 -0.1)">
       <use xlink:href="#DejaVuSans-50"/>
       <use x="63.623047" xlink:href="#DejaVuSans-46"/>
       <use x="95.410156" xlink:href="#DejaVuSans-50"/>
       <use x="159.033203" xlink:href="#DejaVuSans-53"/>
      </g>
     </g>
    </g>
    <g id="text_9">
     <!-- Stock Price -->
     <defs>
      <path d="M 53.515625 70.515625 
L 53.515625 60.890625 
Q 47.90625 63.578125 42.921875 64.890625 
Q 37.9375 66.21875 33.296875 66.21875 
Q 25.25 66.21875 20.875 63.09375 
Q 16.5 59.96875 16.5 54.203125 
Q 16.5 49.359375 19.40625 46.890625 
Q 22.3125 44.4375 30.421875 42.921875 
L 36.375 41.703125 
Q 47.40625 39.59375 52.65625 34.296875 
Q 57.90625 29 57.90625 20.125 
Q 57.90625 9.515625 50.796875 4.046875 
Q 43.703125 -1.421875 29.984375 -1.421875 
Q 24.8125 -1.421875 18.96875 -0.25 
Q 13.140625 0.921875 6.890625 3.21875 
L 6.890625 13.375 
Q 12.890625 10.015625 18.65625 8.296875 
Q 24.421875 6.59375 29.984375 6.59375 
Q 38.421875 6.59375 43.015625 9.90625 
Q 47.609375 13.234375 47.609375 19.390625 
Q 47.609375 24.75 44.3125 27.78125 
Q 41.015625 30.8125 33.5 32.328125 
L 27.484375 33.5 
Q 16.453125 35.6875 11.515625 40.375 
Q 6.59375 45.0625 6.59375 53.421875 
Q 6.59375 63.09375 13.40625 68.65625 
Q 20.21875 74.21875 32.171875 74.21875 
Q 37.3125 74.21875 42.625 73.28125 
Q 47.953125 72.359375 53.515625 70.515625 
z
" id="DejaVuSans-83"/>
      <path d="M 18.3125 70.21875 
L 18.3125 54.6875 
L 36.8125 54.6875 
L 36.8125 47.703125 
L 18.3125 47.703125 
L 18.3125 18.015625 
Q 18.3125 11.328125 20.140625 9.421875 
Q 21.96875 7.515625 27.59375 7.515625 
L 36.8125 7.515625 
L 36.8125 0 
L 27.59375 0 
Q 17.1875 0 13.234375 3.875 
Q 9.28125 7.765625 9.28125 18.015625 
L 9.28125 47.703125 
L 2.6875 47.703125 
L 2.6875 54.6875 
L 9.28125 54.6875 
L 9.28125 70.21875 
z
" id="DejaVuSans-116"/>
      <path d="M 30.609375 48.390625 
Q 23.390625 48.390625 19.1875 42.75 
Q 14.984375 37.109375 14.984375 27.296875 
Q 14.984375 17.484375 19.15625 11.84375 
Q 23.34375 6.203125 30.609375 6.203125 
Q 37.796875 6.203125 41.984375 11.859375 
Q 46.1875 17.53125 46.1875 27.296875 
Q 46.1875 37.015625 41.984375 42.703125 
Q 37.796875 48.390625 30.609375 48.390625 
z
M 30.609375 56 
Q 42.328125 56 49.015625 48.375 
Q 55.71875 40.765625 55.71875 27.296875 
Q 55.71875 13.875 49.015625 6.21875 
Q 42.328125 -1.421875 30.609375 -1.421875 
Q 18.84375 -1.421875 12.171875 6.21875 
Q 5.515625 13.875 5.515625 27.296875 
Q 5.515625 40.765625 12.171875 48.375 
Q 18.84375 56 30.609375 56 
z
" id="DejaVuSans-111"/>
      <path d="M 48.78125 52.59375 
L 48.78125 44.1875 
Q 44.96875 46.296875 41.140625 47.34375 
Q 37.3125 48.390625 33.40625 48.390625 
Q 24.65625 48.390625 19.8125 42.84375 
Q 14.984375 37.3125 14.984375 27.296875 
Q 14.984375 17.28125 19.8125 11.734375 
Q 24.65625 6.203125 33.40625 6.203125 
Q 37.3125 6.203125 41.140625 7.25 
Q 44.96875 8.296875 48.78125 10.40625 
L 48.78125 2.09375 
Q 45.015625 0.34375 40.984375 -0.53125 
Q 36.96875 -1.421875 32.421875 -1.421875 
Q 20.0625 -1.421875 12.78125 6.34375 
Q 5.515625 14.109375 5.515625 27.296875 
Q 5.515625 40.671875 12.859375 48.328125 
Q 20.21875 56 33.015625 56 
Q 37.15625 56 41.109375 55.140625 
Q 45.0625 54.296875 48.78125 52.59375 
z
" id="DejaVuSans-99"/>
      <path d="M 9.078125 75.984375 
L 18.109375 75.984375 
L 18.109375 31.109375 
L 44.921875 54.6875 
L 56.390625 54.6875 
L 27.390625 29.109375 
L 57.625 0 
L 45.90625 0 
L 18.109375 26.703125 
L 18.109375 0 
L 9.078125 0 
z
" id="DejaVuSans-107"/>
      <path id="DejaVuSans-32"/>
      <path d="M 19.671875 64.796875 
L 19.671875 37.40625 
L 32.078125 37.40625 
Q 38.96875 37.40625 42.71875 40.96875 
Q 46.484375 44.53125 46.484375 51.125 
Q 46.484375 57.671875 42.71875 61.234375 
Q 38.96875 64.796875 32.078125 64.796875 
z
M 9.8125 72.90625 
L 32.078125 72.90625 
Q 44.34375 72.90625 50.609375 67.359375 
Q 56.890625 61.8125 56.890625 51.125 
Q 56.890625 40.328125 50.609375 34.8125 
Q 44.34375 29.296875 32.078125 29.296875 
L 19.671875 29.296875 
L 19.671875 0 
L 9.8125 0 
z
" id="DejaVuSans-80"/>
      <path d="M 41.109375 46.296875 
Q 39.59375 47.171875 37.8125 47.578125 
Q 36.03125 48 33.890625 48 
Q 26.265625 48 22.1875 43.046875 
Q 18.109375 38.09375 18.109375 28.8125 
L 18.109375 0 
L 9.078125 0 
L 9.078125 54.6875 
L 18.109375 54.6875 
L 18.109375 46.1875 
Q 20.953125 51.171875 25.484375 53.578125 
Q 30.03125 56 36.53125 56 
Q 37.453125 56 38.578125 55.875 
Q 39.703125 55.765625 41.0625 55.515625 
z
" id="DejaVuSans-114"/>
      <path d="M 9.421875 54.6875 
L 18.40625 54.6875 
L 18.40625 0 
L 9.421875 0 
z
M 9.421875 75.984375 
L 18.40625 75.984375 
L 18.40625 64.59375 
L 9.421875 64.59375 
z
" id="DejaVuSans-105"/>
      <path d="M 56.203125 29.59375 
L 56.203125 25.203125 
L 14.890625 25.203125 
Q 15.484375 15.921875 20.484375 11.0625 
Q 25.484375 6.203125 34.421875 6.203125 
Q 39.59375 6.203125 44.453125 7.46875 
Q 49.3125 8.734375 54.109375 11.28125 
L 54.109375 2.78125 
Q 49.265625 0.734375 44.1875 -0.34375 
Q 39.109375 -1.421875 33.890625 -1.421875 
Q 20.796875 -1.421875 13.15625 6.1875 
Q 5.515625 13.8125 5.515625 26.8125 
Q 5.515625 40.234375 12.765625 48.109375 
Q 20.015625 56 32.328125 56 
Q 43.359375 56 49.78125 48.890625 
Q 56.203125 41.796875 56.203125 29.59375 
z
M 47.21875 32.234375 
Q 47.125 39.59375 43.09375 43.984375 
Q 39.0625 48.390625 32.421875 48.390625 
Q 24.90625 48.390625 20.390625 44.140625 
Q 15.875 39.890625 15.1875 32.171875 
z
" id="DejaVuSans-101"/>
     </defs>
     <g transform="translate(267.488281 406.276563)scale(0.1 -0.1)">
      <use xlink:href="#DejaVuSans-83"/>
      <use x="63.476562" xlink:href="#DejaVuSans-116"/>
      <use x="102.685547" xlink:href="#DejaVuSans-111"/>
      <use x="163.867188" xlink:href="#DejaVuSans-99"/>
      <use x="218.847656" xlink:href="#DejaVuSans-107"/>
      <use x="276.757812" xlink:href="#DejaVuSans-32"/>
      <use x="308.544922" xlink:href="#DejaVuSans-80"/>
      <use x="368.832031" xlink:href="#DejaVuSans-114"/>
      <use x="409.945312" xlink:href="#DejaVuSans-105"/>
      <use x="437.728516" xlink:href="#DejaVuSans-99"/>
      <use x="492.708984" xlink:href="#DejaVuSans-101"/>
     </g>
    </g>
   </g>
   <g id="matplotlib.axis_2">
    <g id="ytick_1">
     <g id="line2d_10">
      <defs>
       <path d="M 0 0 
L -3.5 0 
" id="m3e6ede8575" style="stroke:#000000;stroke-width:0.8;"/>
      </defs>
      <g>
       <use style="stroke:#000000;stroke-width:0.8;" x="72" xlink:href="#m3e6ede8575" y="350.82"/>
      </g>
     </g>
     <g id="text_10">
      <!-- 0.0 -->
      <g transform="translate(49.096875 354.619219)scale(0.1 -0.1)">
       <use xlink:href="#DejaVuSans-48"/>
       <use x="63.623047" xlink:href="#DejaVuSans-46"/>
       <use x="95.410156" xlink:href="#DejaVuSans-48"/>
      </g>
     </g>
    </g>
    <g id="ytick_2">
     <g id="line2d_11">
      <g>
       <use style="stroke:#000000;stroke-width:0.8;" x="72" xlink:href="#m3e6ede8575" y="306.178813"/>
      </g>
     </g>
     <g id="text_11">
      <!-- 0.1 -->
      <g transform="translate(49.096875 309.978032)scale(0.1 -0.1)">
       <use xlink:href="#DejaVuSans-48"/>
       <use x="63.623047" xlink:href="#DejaVuSans-46"/>
       <use x="95.410156" xlink:href="#DejaVuSans-49"/>
      </g>
     </g>
    </g>
    <g id="ytick_3">
     <g id="line2d_12">
      <g>
       <use style="stroke:#000000;stroke-width:0.8;" x="72" xlink:href="#m3e6ede8575" y="261.537626"/>
      </g>
     </g>
     <g id="text_12">
      <!-- 0.2 -->
      <g transform="translate(49.096875 265.336844)scale(0.1 -0.1)">
       <use xlink:href="#DejaVuSans-48"/>
       <use x="63.623047" xlink:href="#DejaVuSans-46"/>
       <use x="95.410156" xlink:href="#DejaVuSans-50"/>
      </g>
     </g>
    </g>
    <g id="ytick_4">
     <g id="line2d_13">
      <g>
       <use style="stroke:#000000;stroke-width:0.8;" x="72" xlink:href="#m3e6ede8575" y="216.896438"/>
      </g>
     </g>
     <g id="text_13">
      <!-- 0.3 -->
      <defs>
       <path d="M 40.578125 39.3125 
Q 47.65625 37.796875 51.625 33 
Q 55.609375 28.21875 55.609375 21.1875 
Q 55.609375 10.40625 48.1875 4.484375 
Q 40.765625 -1.421875 27.09375 -1.421875 
Q 22.515625 -1.421875 17.65625 -0.515625 
Q 12.796875 0.390625 7.625 2.203125 
L 7.625 11.71875 
Q 11.71875 9.328125 16.59375 8.109375 
Q 21.484375 6.890625 26.8125 6.890625 
Q 36.078125 6.890625 40.9375 10.546875 
Q 45.796875 14.203125 45.796875 21.1875 
Q 45.796875 27.640625 41.28125 31.265625 
Q 36.765625 34.90625 28.71875 34.90625 
L 20.21875 34.90625 
L 20.21875 43.015625 
L 29.109375 43.015625 
Q 36.375 43.015625 40.234375 45.921875 
Q 44.09375 48.828125 44.09375 54.296875 
Q 44.09375 59.90625 40.109375 62.90625 
Q 36.140625 65.921875 28.71875 65.921875 
Q 24.65625 65.921875 20.015625 65.03125 
Q 15.375 64.15625 9.8125 62.3125 
L 9.8125 71.09375 
Q 15.4375 72.65625 20.34375 73.4375 
Q 25.25 74.21875 29.59375 74.21875 
Q 40.828125 74.21875 47.359375 69.109375 
Q 53.90625 64.015625 53.90625 55.328125 
Q 53.90625 49.265625 50.4375 45.09375 
Q 46.96875 40.921875 40.578125 39.3125 
z
" id="DejaVuSans-51"/>
      </defs>
      <g transform="translate(49.096875 220.695657)scale(0.1 -0.1)">
       <use xlink:href="#DejaVuSans-48"/>
       <use x="63.623047" xlink:href="#DejaVuSans-46"/>
       <use x="95.410156" xlink:href="#DejaVuSans-51"/>
      </g>
     </g>
    </g>
    <g id="ytick_5">
     <g id="line2d_14">
      <g>
       <use style="stroke:#000000;stroke-width:0.8;" x="72" xlink:href="#m3e6ede8575" y="172.255251"/>
      </g>
     </g>
     <g id="text_14">
      <!-- 0.4 -->
      <defs>
       <path d="M 37.796875 64.3125 
L 12.890625 25.390625 
L 37.796875 25.390625 
z
M 35.203125 72.90625 
L 47.609375 72.90625 
L 47.609375 25.390625 
L 58.015625 25.390625 
L 58.015625 17.1875 
L 47.609375 17.1875 
L 47.609375 0 
L 37.796875 0 
L 37.796875 17.1875 
L 4.890625 17.1875 
L 4.890625 26.703125 
z
" id="DejaVuSans-52"/>
      </defs>
      <g transform="translate(49.096875 176.05447)scale(0.1 -0.1)">
       <use xlink:href="#DejaVuSans-48"/>
       <use x="63.623047" xlink:href="#DejaVuSans-46"/>
       <use x="95.410156" xlink:href="#DejaVuSans-52"/>
      </g>
     </g>
    </g>
    <g id="ytick_6">
     <g id="line2d_15">
      <g>
       <use style="stroke:#000000;stroke-width:0.8;" x="72" xlink:href="#m3e6ede8575" y="127.614064"/>
      </g>
     </g>
     <g id="text_15">
      <!-- 0.5 -->
      <g transform="translate(49.096875 131.413283)scale(0.1 -0.1)">
       <use xlink:href="#DejaVuSans-48"/>
       <use x="63.623047" xlink:href="#DejaVuSans-46"/>
       <use x="95.410156" xlink:href="#DejaVuSans-53"/>
      </g>
     </g>
    </g>
    <g id="ytick_7">
     <g id="line2d_16">
      <g>
       <use style="stroke:#000000;stroke-width:0.8;" x="72" xlink:href="#m3e6ede8575" y="82.972877"/>
      </g>
     </g>
     <g id="text_16">
      <!-- 0.6 -->
      <defs>
       <path d="M 33.015625 40.375 
Q 26.375 40.375 22.484375 35.828125 
Q 18.609375 31.296875 18.609375 23.390625 
Q 18.609375 15.53125 22.484375 10.953125 
Q 26.375 6.390625 33.015625 6.390625 
Q 39.65625 6.390625 43.53125 10.953125 
Q 47.40625 15.53125 47.40625 23.390625 
Q 47.40625 31.296875 43.53125 35.828125 
Q 39.65625 40.375 33.015625 40.375 
z
M 52.59375 71.296875 
L 52.59375 62.3125 
Q 48.875 64.0625 45.09375 64.984375 
Q 41.3125 65.921875 37.59375 65.921875 
Q 27.828125 65.921875 22.671875 59.328125 
Q 17.53125 52.734375 16.796875 39.40625 
Q 19.671875 43.65625 24.015625 45.921875 
Q 28.375 48.1875 33.59375 48.1875 
Q 44.578125 48.1875 50.953125 41.515625 
Q 57.328125 34.859375 57.328125 23.390625 
Q 57.328125 12.15625 50.6875 5.359375 
Q 44.046875 -1.421875 33.015625 -1.421875 
Q 20.359375 -1.421875 13.671875 8.265625 
Q 6.984375 17.96875 6.984375 36.375 
Q 6.984375 53.65625 15.1875 63.9375 
Q 23.390625 74.21875 37.203125 74.21875 
Q 40.921875 74.21875 44.703125 73.484375 
Q 48.484375 72.75 52.59375 71.296875 
z
" id="DejaVuSans-54"/>
      </defs>
      <g transform="translate(49.096875 86.772096)scale(0.1 -0.1)">
       <use xlink:href="#DejaVuSans-48"/>
       <use x="63.623047" xlink:href="#DejaVuSans-46"/>
       <use x="95.410156" xlink:href="#DejaVuSans-54"/>
      </g>
     </g>
    </g>
    <g id="text_17">
     <!-- Exercise / Continuation Value -->
     <defs>
      <path d="M 9.8125 72.90625 
L 55.90625 72.90625 
L 55.90625 64.59375 
L 19.671875 64.59375 
L 19.671875 43.015625 
L 54.390625 43.015625 
L 54.390625 34.71875 
L 19.671875 34.71875 
L 19.671875 8.296875 
L 56.78125 8.296875 
L 56.78125 0 
L 9.8125 0 
z
" id="DejaVuSans-69"/>
      <path d="M 54.890625 54.6875 
L 35.109375 28.078125 
L 55.90625 0 
L 45.3125 0 
L 29.390625 21.484375 
L 13.484375 0 
L 2.875 0 
L 24.125 28.609375 
L 4.6875 54.6875 
L 15.28125 54.6875 
L 29.78125 35.203125 
L 44.28125 54.6875 
z
" id="DejaVuSans-120"/>
      <path d="M 44.28125 53.078125 
L 44.28125 44.578125 
Q 40.484375 46.53125 36.375 47.5 
Q 32.28125 48.484375 27.875 48.484375 
Q 21.1875 48.484375 17.84375 46.4375 
Q 14.5 44.390625 14.5 40.28125 
Q 14.5 37.15625 16.890625 35.375 
Q 19.28125 33.59375 26.515625 31.984375 
L 29.59375 31.296875 
Q 39.15625 29.25 43.1875 25.515625 
Q 47.21875 21.78125 47.21875 15.09375 
Q 47.21875 7.46875 41.1875 3.015625 
Q 35.15625 -1.421875 24.609375 -1.421875 
Q 20.21875 -1.421875 15.453125 -0.5625 
Q 10.6875 0.296875 5.421875 2 
L 5.421875 11.28125 
Q 10.40625 8.6875 15.234375 7.390625 
Q 20.0625 6.109375 24.8125 6.109375 
Q 31.15625 6.109375 34.5625 8.28125 
Q 37.984375 10.453125 37.984375 14.40625 
Q 37.984375 18.0625 35.515625 20.015625 
Q 33.0625 21.96875 24.703125 23.78125 
L 21.578125 24.515625 
Q 13.234375 26.265625 9.515625 29.90625 
Q 5.8125 33.546875 5.8125 39.890625 
Q 5.8125 47.609375 11.28125 51.796875 
Q 16.75 56 26.8125 56 
Q 31.78125 56 36.171875 55.265625 
Q 40.578125 54.546875 44.28125 53.078125 
z
" id="DejaVuSans-115"/>
      <path d="M 25.390625 72.90625 
L 33.6875 72.90625 
L 8.296875 -9.28125 
L 0 -9.28125 
z
" id="DejaVuSans-47"/>
      <path d="M 64.40625 67.28125 
L 64.40625 56.890625 
Q 59.421875 61.53125 53.78125 63.8125 
Q 48.140625 66.109375 41.796875 66.109375 
Q 29.296875 66.109375 22.65625 58.46875 
Q 16.015625 50.828125 16.015625 36.375 
Q 16.015625 21.96875 22.65625 14.328125 
Q 29.296875 6.6875 41.796875 6.6875 
Q 48.140625 6.6875 53.78125 8.984375 
Q 59.421875 11.28125 64.40625 15.921875 
L 64.40625 5.609375 
Q 59.234375 2.09375 53.4375 0.328125 
Q 47.65625 -1.421875 41.21875 -1.421875 
Q 24.65625 -1.421875 15.125 8.703125 
Q 5.609375 18.84375 5.609375 36.375 
Q 5.609375 53.953125 15.125 64.078125 
Q 24.65625 74.21875 41.21875 74.21875 
Q 47.75 74.21875 53.53125 72.484375 
Q 59.328125 70.75 64.40625 67.28125 
z
" id="DejaVuSans-67"/>
      <path d="M 54.890625 33.015625 
L 54.890625 0 
L 45.90625 0 
L 45.90625 32.71875 
Q 45.90625 40.484375 42.875 44.328125 
Q 39.84375 48.1875 33.796875 48.1875 
Q 26.515625 48.1875 22.3125 43.546875 
Q 18.109375 38.921875 18.109375 30.90625 
L 18.109375 0 
L 9.078125 0 
L 9.078125 54.6875 
L 18.109375 54.6875 
L 18.109375 46.1875 
Q 21.34375 51.125 25.703125 53.5625 
Q 30.078125 56 35.796875 56 
Q 45.21875 56 50.046875 50.171875 
Q 54.890625 44.34375 54.890625 33.015625 
z
" id="DejaVuSans-110"/>
      <path d="M 8.5 21.578125 
L 8.5 54.6875 
L 17.484375 54.6875 
L 17.484375 21.921875 
Q 17.484375 14.15625 20.5 10.265625 
Q 23.53125 6.390625 29.59375 6.390625 
Q 36.859375 6.390625 41.078125 11.03125 
Q 45.3125 15.671875 45.3125 23.6875 
L 45.3125 54.6875 
L 54.296875 54.6875 
L 54.296875 0 
L 45.3125 0 
L 45.3125 8.40625 
Q 42.046875 3.421875 37.71875 1 
Q 33.40625 -1.421875 27.6875 -1.421875 
Q 18.265625 -1.421875 13.375 4.4375 
Q 8.5 10.296875 8.5 21.578125 
z
M 31.109375 56 
z
" id="DejaVuSans-117"/>
      <path d="M 34.28125 27.484375 
Q 23.390625 27.484375 19.1875 25 
Q 14.984375 22.515625 14.984375 16.5 
Q 14.984375 11.71875 18.140625 8.90625 
Q 21.296875 6.109375 26.703125 6.109375 
Q 34.1875 6.109375 38.703125 11.40625 
Q 43.21875 16.703125 43.21875 25.484375 
L 43.21875 27.484375 
z
M 52.203125 31.203125 
L 52.203125 0 
L 43.21875 0 
L 43.21875 8.296875 
Q 40.140625 3.328125 35.546875 0.953125 
Q 30.953125 -1.421875 24.3125 -1.421875 
Q 15.921875 -1.421875 10.953125 3.296875 
Q 6 8.015625 6 15.921875 
Q 6 25.140625 12.171875 29.828125 
Q 18.359375 34.515625 30.609375 34.515625 
L 43.21875 34.515625 
L 43.21875 35.40625 
Q 43.21875 41.609375 39.140625 45 
Q 35.0625 48.390625 27.6875 48.390625 
Q 23 48.390625 18.546875 47.265625 
Q 14.109375 46.140625 10.015625 43.890625 
L 10.015625 52.203125 
Q 14.9375 54.109375 19.578125 55.046875 
Q 24.21875 56 28.609375 56 
Q 40.484375 56 46.34375 49.84375 
Q 52.203125 43.703125 52.203125 31.203125 
z
" id="DejaVuSans-97"/>
      <path d="M 28.609375 0 
L 0.78125 72.90625 
L 11.078125 72.90625 
L 34.1875 11.53125 
L 57.328125 72.90625 
L 67.578125 72.90625 
L 39.796875 0 
z
" id="DejaVuSans-86"/>
      <path d="M 9.421875 75.984375 
L 18.40625 75.984375 
L 18.40625 0 
L 9.421875 0 
z
" id="DejaVuSans-108"/>
     </defs>
     <g transform="translate(43.017187 288.598906)rotate(-90)scale(0.1 -0.1)">
      <use xlink:href="#DejaVuSans-69"/>
      <use x="63.183594" xlink:href="#DejaVuSans-120"/>
      <use x="122.316406" xlink:href="#DejaVuSans-101"/>
      <use x="183.839844" xlink:href="#DejaVuSans-114"/>
      <use x="224.921875" xlink:href="#DejaVuSans-99"/>
      <use x="279.902344" xlink:href="#DejaVuSans-105"/>
      <use x="307.685547" xlink:href="#DejaVuSans-115"/>
      <use x="359.785156" xlink:href="#DejaVuSans-101"/>
      <use x="421.308594" xlink:href="#DejaVuSans-32"/>
      <use x="453.095703" xlink:href="#DejaVuSans-47"/>
      <use x="486.787109" xlink:href="#DejaVuSans-32"/>
      <use x="518.574219" xlink:href="#DejaVuSans-67"/>
      <use x="588.398438" xlink:href="#DejaVuSans-111"/>
      <use x="649.580078" xlink:href="#DejaVuSans-110"/>
      <use x="712.958984" xlink:href="#DejaVuSans-116"/>
      <use x="752.167969" xlink:href="#DejaVuSans-105"/>
      <use x="779.951172" xlink:href="#DejaVuSans-110"/>
      <use x="843.330078" xlink:href="#DejaVuSans-117"/>
      <use x="906.708984" xlink:href="#DejaVuSans-97"/>
      <use x="967.988281" xlink:href="#DejaVuSans-116"/>
      <use x="1007.197266" xlink:href="#DejaVuSans-105"/>
      <use x="1034.980469" xlink:href="#DejaVuSans-111"/>
      <use x="1096.162109" xlink:href="#DejaVuSans-110"/>
      <use x="1159.541016" xlink:href="#DejaVuSans-32"/>
      <use x="1191.328125" xlink:href="#DejaVuSans-86"/>
      <use x="1259.626953" xlink:href="#DejaVuSans-97"/>
      <use x="1320.90625" xlink:href="#DejaVuSans-108"/>
      <use x="1348.689453" xlink:href="#DejaVuSans-117"/>
      <use x="1412.068359" xlink:href="#DejaVuSans-101"/>
     </g>
    </g>
   </g>
   <g id="line2d_17">
    <path clip-path="url(#pd8212f4a37)" d="M 92.290909 79.02 
L 93.684361 81.87246 
L 95.077813 84.721404 
L 96.471264 87.566832 
L 97.864716 90.408743 
L 99.258168 93.247139 
L 100.651619 96.082019 
L 102.045071 98.913383 
L 103.438523 101.741231 
L 104.831975 104.565563 
L 106.225426 107.386379 
L 107.618878 110.203679 
L 109.01233 113.017463 
L 110.405782 115.827732 
L 111.799233 118.634484 
L 113.192685 121.43772 
L 114.586137 124.23744 
L 115.979588 127.033644 
L 117.37304 129.826333 
L 118.766492 132.615505 
L 120.159944 135.401161 
L 121.553395 138.183301 
L 122.946847 140.961926 
L 124.340299 143.737034 
L 125.733751 146.508627 
L 127.127202 149.276703 
L 128.520654 152.041263 
L 129.914106 154.802308 
L 131.307557 157.559836 
L 132.701009 160.313849 
L 134.094461 163.064345 
L 135.487913 165.811326 
L 136.881364 168.554791 
L 138.274816 171.294739 
L 139.668268 174.031172 
L 141.06172 176.764089 
L 142.455171 179.493489 
L 143.848623 182.219374 
L 145.242075 184.941743 
L 146.635526 187.660596 
L 148.028978 190.375932 
L 149.42243 193.087753 
L 150.815882 195.796058 
L 152.209333 198.500847 
L 153.602785 201.20212 
L 154.996237 203.899877 
L 156.389689 206.594118 
L 157.78314 209.284843 
L 159.176592 211.972052 
L 160.570044 214.655745 
L 161.963495 217.335922 
L 163.356947 220.012583 
L 164.750399 222.685728 
L 166.143851 225.355357 
L 167.537302 228.02147 
L 168.930754 230.684068 
L 170.324206 233.343149 
L 171.717658 235.998714 
L 173.111109 238.650763 
L 174.504561 241.299297 
L 175.898013 243.944314 
L 177.291464 246.585815 
L 178.684916 249.223801 
L 180.078368 251.85827 
L 181.47182 254.489223 
L 182.865271 257.116661 
L 184.258723 259.740582 
L 185.652175 262.360988 
L 187.045626 264.977877 
L 188.439078 267.591251 
L 189.83253 270.201108 
L 191.225982 272.80745 
L 192.619433 275.410276 
L 194.012885 278.009585 
L 195.406337 280.605379 
L 196.799789 283.197657 
L 198.19324 285.786418 
L 199.586692 288.371664 
L 200.980144 290.953394 
L 202.373595 293.531608 
L 203.767047 296.106305 
L 205.160499 298.677487 
L 206.553951 301.245153 
L 207.947402 303.809303 
L 209.340854 306.369937 
L 210.734306 308.927055 
L 212.127758 311.480657 
L 213.521209 314.030743 
L 214.914661 316.577313 
L 216.308113 319.120367 
L 217.701564 321.659905 
L 219.095016 324.195927 
L 220.488468 326.728433 
L 221.88192 329.257423 
L 223.275371 331.782898 
L 224.668823 334.304856 
L 226.062275 336.823298 
L 227.455727 339.338224 
L 228.849178 341.849635 
L 230.24263 344.357529 
" style="fill:none;stroke:#1f77b4;stroke-linecap:square;stroke-width:1.5;"/>
   </g>
   <g id="patch_3">
    <path d="M 72 378 
L 72 51.84 
" style="fill:none;stroke:#000000;stroke-linecap:square;stroke-linejoin:miter;stroke-width:0.8;"/>
   </g>
   <g id="patch_4">
    <path d="M 518.4 378 
L 518.4 51.84 
" style="fill:none;stroke:#000000;stroke-linecap:square;stroke-linejoin:miter;stroke-width:0.8;"/>
   </g>
   <g id="patch_5">
    <path d="M 72 378 
L 518.4 378 
" style="fill:none;stroke:#000000;stroke-linecap:square;stroke-linejoin:miter;stroke-width:0.8;"/>
   </g>
   <g id="patch_6">
    <path d="M 72 51.84 
L 518.4 51.84 
" style="fill:none;stroke:#000000;stroke-linecap:square;stroke-linejoin:miter;stroke-width:0.8;"/>
   </g>
   <g id="line2d_18">
    <defs>
     <path d="M 0 -3 
L -3 3 
L 3 3 
z
" id="m92d1bb9ab4" style="stroke:#008000;stroke-linejoin:miter;"/>
    </defs>
    <g clip-path="url(#pd8212f4a37)">
     <use style="fill:#008000;stroke:#008000;stroke-linejoin:miter;" x="336.816499" xlink:href="#m92d1bb9ab4" y="350.82"/>
     <use style="fill:#008000;stroke:#008000;stroke-linejoin:miter;" x="180.785395" xlink:href="#m92d1bb9ab4" y="251.018478"/>
     <use style="fill:#008000;stroke:#008000;stroke-linejoin:miter;" x="175.396336" xlink:href="#m92d1bb9ab4" y="240.394006"/>
     <use style="fill:#008000;stroke:#008000;stroke-linejoin:miter;" x="222.476463" xlink:href="#m92d1bb9ab4" y="350.82"/>
     <use style="fill:#008000;stroke:#008000;stroke-linejoin:miter;" x="210.207574" xlink:href="#m92d1bb9ab4" y="322.742898"/>
     <use style="fill:#008000;stroke:#008000;stroke-linejoin:miter;" x="317.336736" xlink:href="#m92d1bb9ab4" y="350.82"/>
     <use style="fill:#008000;stroke:#008000;stroke-linejoin:miter;" x="286.33978" xlink:href="#m92d1bb9ab4" y="350.82"/>
     <use style="fill:#008000;stroke:#008000;stroke-linejoin:miter;" x="498.109091" xlink:href="#m92d1bb9ab4" y="350.82"/>
     <use style="fill:#008000;stroke:#008000;stroke-linejoin:miter;" x="413.784706" xlink:href="#m92d1bb9ab4" y="350.82"/>
     <use style="fill:#008000;stroke:#008000;stroke-linejoin:miter;" x="174.80067" xlink:href="#m92d1bb9ab4" y="239.219658"/>
     <use style="fill:#008000;stroke:#008000;stroke-linejoin:miter;" x="407.927963" xlink:href="#m92d1bb9ab4" y="350.82"/>
     <use style="fill:#008000;stroke:#008000;stroke-linejoin:miter;" x="230.24263" xlink:href="#m92d1bb9ab4" y="314.413848"/>
     <use style="fill:#008000;stroke:#008000;stroke-linejoin:miter;" x="192.025785" xlink:href="#m92d1bb9ab4" y="273.178784"/>
     <use style="fill:#008000;stroke:#008000;stroke-linejoin:miter;" x="409.171119" xlink:href="#m92d1bb9ab4" y="350.82"/>
     <use style="fill:#008000;stroke:#008000;stroke-linejoin:miter;" x="169.148511" xlink:href="#m92d1bb9ab4" y="228.076487"/>
     <use style="fill:#008000;stroke:#008000;stroke-linejoin:miter;" x="250.639189" xlink:href="#m92d1bb9ab4" y="350.82"/>
     <use style="fill:#008000;stroke:#008000;stroke-linejoin:miter;" x="225.635747" xlink:href="#m92d1bb9ab4" y="336.535949"/>
     <use style="fill:#008000;stroke:#008000;stroke-linejoin:miter;" x="352.47493" xlink:href="#m92d1bb9ab4" y="350.82"/>
     <use style="fill:#008000;stroke:#008000;stroke-linejoin:miter;" x="239.530191" xlink:href="#m92d1bb9ab4" y="350.82"/>
     <use style="fill:#008000;stroke:#008000;stroke-linejoin:miter;" x="134.291525" xlink:href="#m92d1bb9ab4" y="159.356315"/>
     <use style="fill:#008000;stroke:#008000;stroke-linejoin:miter;" x="328.816366" xlink:href="#m92d1bb9ab4" y="350.82"/>
     <use style="fill:#008000;stroke:#008000;stroke-linejoin:miter;" x="253.30142" xlink:href="#m92d1bb9ab4" y="350.82"/>
     <use style="fill:#008000;stroke:#008000;stroke-linejoin:miter;" x="220.415612" xlink:href="#m92d1bb9ab4" y="318.814908"/>
     <use style="fill:#008000;stroke:#008000;stroke-linejoin:miter;" x="328.292289" xlink:href="#m92d1bb9ab4" y="350.82"/>
     <use style="fill:#008000;stroke:#008000;stroke-linejoin:miter;" x="92.290909" xlink:href="#m92d1bb9ab4" y="76.552555"/>
     <use style="fill:#008000;stroke:#008000;stroke-linejoin:miter;" x="336.707055" xlink:href="#m92d1bb9ab4" y="350.82"/>
     <use style="fill:#008000;stroke:#008000;stroke-linejoin:miter;" x="218.646847" xlink:href="#m92d1bb9ab4" y="289.863384"/>
     <use style="fill:#008000;stroke:#008000;stroke-linejoin:miter;" x="259.959774" xlink:href="#m92d1bb9ab4" y="350.82"/>
     <use style="fill:#008000;stroke:#008000;stroke-linejoin:miter;" x="182.898681" xlink:href="#m92d1bb9ab4" y="255.184797"/>
     <use style="fill:#008000;stroke:#008000;stroke-linejoin:miter;" x="386.656443" xlink:href="#m92d1bb9ab4" y="350.82"/>
     <use style="fill:#008000;stroke:#008000;stroke-linejoin:miter;" x="222.836893" xlink:href="#m92d1bb9ab4" y="330.358875"/>
     <use style="fill:#008000;stroke:#008000;stroke-linejoin:miter;" x="114.746113" xlink:href="#m92d1bb9ab4" y="120.822747"/>
     <use style="fill:#008000;stroke:#008000;stroke-linejoin:miter;" x="334.532813" xlink:href="#m92d1bb9ab4" y="350.82"/>
     <use style="fill:#008000;stroke:#008000;stroke-linejoin:miter;" x="241.203491" xlink:href="#m92d1bb9ab4" y="324.208255"/>
     <use style="fill:#008000;stroke:#008000;stroke-linejoin:miter;" x="267.749586" xlink:href="#m92d1bb9ab4" y="350.82"/>
     <use style="fill:#008000;stroke:#008000;stroke-linejoin:miter;" x="192.844719" xlink:href="#m92d1bb9ab4" y="274.793303"/>
     <use style="fill:#008000;stroke:#008000;stroke-linejoin:miter;" x="201.438497" xlink:href="#m92d1bb9ab4" y="291.735844"/>
     <use style="fill:#008000;stroke:#008000;stroke-linejoin:miter;" x="330.11534" xlink:href="#m92d1bb9ab4" y="350.82"/>
     <use style="fill:#008000;stroke:#008000;stroke-linejoin:miter;" x="274.282201" xlink:href="#m92d1bb9ab4" y="350.82"/>
     <use style="fill:#008000;stroke:#008000;stroke-linejoin:miter;" x="301.962436" xlink:href="#m92d1bb9ab4" y="350.82"/>
     <use style="fill:#008000;stroke:#008000;stroke-linejoin:miter;" x="235.25186" xlink:href="#m92d1bb9ab4" y="337.870244"/>
     <use style="fill:#008000;stroke:#008000;stroke-linejoin:miter;" x="220.630768" xlink:href="#m92d1bb9ab4" y="350.82"/>
     <use style="fill:#008000;stroke:#008000;stroke-linejoin:miter;" x="251.418299" xlink:href="#m92d1bb9ab4" y="350.82"/>
     <use style="fill:#008000;stroke:#008000;stroke-linejoin:miter;" x="135.209032" xlink:href="#m92d1bb9ab4" y="161.165171"/>
     <use style="fill:#008000;stroke:#008000;stroke-linejoin:miter;" x="167.537341" xlink:href="#m92d1bb9ab4" y="224.900082"/>
     <use style="fill:#008000;stroke:#008000;stroke-linejoin:miter;" x="324.654886" xlink:href="#m92d1bb9ab4" y="350.82"/>
     <use style="fill:#008000;stroke:#008000;stroke-linejoin:miter;" x="132.367391" xlink:href="#m92d1bb9ab4" y="155.562906"/>
     <use style="fill:#008000;stroke:#008000;stroke-linejoin:miter;" x="275.40483" xlink:href="#m92d1bb9ab4" y="350.82"/>
     <use style="fill:#008000;stroke:#008000;stroke-linejoin:miter;" x="103.715837" xlink:href="#m92d1bb9ab4" y="99.076678"/>
     <use style="fill:#008000;stroke:#008000;stroke-linejoin:miter;" x="208.044622" xlink:href="#m92d1bb9ab4" y="295.141416"/>
    </g>
   </g>
   <g id="text_18">
    <!-- Approximation of Continuation Value at t=4.92 -->
    <defs>
     <path d="M 34.1875 63.1875 
L 20.796875 26.90625 
L 47.609375 26.90625 
z
M 28.609375 72.90625 
L 39.796875 72.90625 
L 67.578125 0 
L 57.328125 0 
L 50.6875 18.703125 
L 17.828125 18.703125 
L 11.1875 0 
L 0.78125 0 
z
" id="DejaVuSans-65"/>
     <path d="M 18.109375 8.203125 
L 18.109375 -20.796875 
L 9.078125 -20.796875 
L 9.078125 54.6875 
L 18.109375 54.6875 
L 18.109375 46.390625 
Q 20.953125 51.265625 25.265625 53.625 
Q 29.59375 56 35.59375 56 
Q 45.5625 56 51.78125 48.09375 
Q 58.015625 40.1875 58.015625 27.296875 
Q 58.015625 14.40625 51.78125 6.484375 
Q 45.5625 -1.421875 35.59375 -1.421875 
Q 29.59375 -1.421875 25.265625 0.953125 
Q 20.953125 3.328125 18.109375 8.203125 
z
M 48.6875 27.296875 
Q 48.6875 37.203125 44.609375 42.84375 
Q 40.53125 48.484375 33.40625 48.484375 
Q 26.265625 48.484375 22.1875 42.84375 
Q 18.109375 37.203125 18.109375 27.296875 
Q 18.109375 17.390625 22.1875 11.75 
Q 26.265625 6.109375 33.40625 6.109375 
Q 40.53125 6.109375 44.609375 11.75 
Q 48.6875 17.390625 48.6875 27.296875 
z
" id="DejaVuSans-112"/>
     <path d="M 52 44.1875 
Q 55.375 50.25 60.0625 53.125 
Q 64.75 56 71.09375 56 
Q 79.640625 56 84.28125 50.015625 
Q 88.921875 44.046875 88.921875 33.015625 
L 88.921875 0 
L 79.890625 0 
L 79.890625 32.71875 
Q 79.890625 40.578125 77.09375 44.375 
Q 74.3125 48.1875 68.609375 48.1875 
Q 61.625 48.1875 57.5625 43.546875 
Q 53.515625 38.921875 53.515625 30.90625 
L 53.515625 0 
L 44.484375 0 
L 44.484375 32.71875 
Q 44.484375 40.625 41.703125 44.40625 
Q 38.921875 48.1875 33.109375 48.1875 
Q 26.21875 48.1875 22.15625 43.53125 
Q 18.109375 38.875 18.109375 30.90625 
L 18.109375 0 
L 9.078125 0 
L 9.078125 54.6875 
L 18.109375 54.6875 
L 18.109375 46.1875 
Q 21.1875 51.21875 25.484375 53.609375 
Q 29.78125 56 35.6875 56 
Q 41.65625 56 45.828125 52.96875 
Q 50 49.953125 52 44.1875 
z
" id="DejaVuSans-109"/>
     <path d="M 37.109375 75.984375 
L 37.109375 68.5 
L 28.515625 68.5 
Q 23.6875 68.5 21.796875 66.546875 
Q 19.921875 64.59375 19.921875 59.515625 
L 19.921875 54.6875 
L 34.71875 54.6875 
L 34.71875 47.703125 
L 19.921875 47.703125 
L 19.921875 0 
L 10.890625 0 
L 10.890625 47.703125 
L 2.296875 47.703125 
L 2.296875 54.6875 
L 10.890625 54.6875 
L 10.890625 58.5 
Q 10.890625 67.625 15.140625 71.796875 
Q 19.390625 75.984375 28.609375 75.984375 
z
" id="DejaVuSans-102"/>
     <path d="M 10.59375 45.40625 
L 73.1875 45.40625 
L 73.1875 37.203125 
L 10.59375 37.203125 
z
M 10.59375 25.484375 
L 73.1875 25.484375 
L 73.1875 17.1875 
L 10.59375 17.1875 
z
" id="DejaVuSans-61"/>
     <path d="M 10.984375 1.515625 
L 10.984375 10.5 
Q 14.703125 8.734375 18.5 7.8125 
Q 22.3125 6.890625 25.984375 6.890625 
Q 35.75 6.890625 40.890625 13.453125 
Q 46.046875 20.015625 46.78125 33.40625 
Q 43.953125 29.203125 39.59375 26.953125 
Q 35.25 24.703125 29.984375 24.703125 
Q 19.046875 24.703125 12.671875 31.3125 
Q 6.296875 37.9375 6.296875 49.421875 
Q 6.296875 60.640625 12.9375 67.421875 
Q 19.578125 74.21875 30.609375 74.21875 
Q 43.265625 74.21875 49.921875 64.515625 
Q 56.59375 54.828125 56.59375 36.375 
Q 56.59375 19.140625 48.40625 8.859375 
Q 40.234375 -1.421875 26.421875 -1.421875 
Q 22.703125 -1.421875 18.890625 -0.6875 
Q 15.09375 0.046875 10.984375 1.515625 
z
M 30.609375 32.421875 
Q 37.25 32.421875 41.125 36.953125 
Q 45.015625 41.5 45.015625 49.421875 
Q 45.015625 57.28125 41.125 61.84375 
Q 37.25 66.40625 30.609375 66.40625 
Q 23.96875 66.40625 20.09375 61.84375 
Q 16.21875 57.28125 16.21875 49.421875 
Q 16.21875 41.5 20.09375 36.953125 
Q 23.96875 32.421875 30.609375 32.421875 
z
" id="DejaVuSans-57"/>
    </defs>
    <g transform="translate(153.632812 45.84)scale(0.12 -0.12)">
     <use xlink:href="#DejaVuSans-65"/>
     <use x="68.408203" xlink:href="#DejaVuSans-112"/>
     <use x="131.884766" xlink:href="#DejaVuSans-112"/>
     <use x="195.361328" xlink:href="#DejaVuSans-114"/>
     <use x="236.443359" xlink:href="#DejaVuSans-111"/>
     <use x="297.578125" xlink:href="#DejaVuSans-120"/>
     <use x="356.757812" xlink:href="#DejaVuSans-105"/>
     <use x="384.541016" xlink:href="#DejaVuSans-109"/>
     <use x="481.953125" xlink:href="#DejaVuSans-97"/>
     <use x="543.232422" xlink:href="#DejaVuSans-116"/>
     <use x="582.441406" xlink:href="#DejaVuSans-105"/>
     <use x="610.224609" xlink:href="#DejaVuSans-111"/>
     <use x="671.40625" xlink:href="#DejaVuSans-110"/>
     <use x="734.785156" xlink:href="#DejaVuSans-32"/>
     <use x="766.572266" xlink:href="#DejaVuSans-111"/>
     <use x="827.753906" xlink:href="#DejaVuSans-102"/>
     <use x="862.958984" xlink:href="#DejaVuSans-32"/>
     <use x="894.746094" xlink:href="#DejaVuSans-67"/>
     <use x="964.570312" xlink:href="#DejaVuSans-111"/>
     <use x="1025.751953" xlink:href="#DejaVuSans-110"/>
     <use x="1089.130859" xlink:href="#DejaVuSans-116"/>
     <use x="1128.339844" xlink:href="#DejaVuSans-105"/>
     <use x="1156.123047" xlink:href="#DejaVuSans-110"/>
     <use x="1219.501953" xlink:href="#DejaVuSans-117"/>
     <use x="1282.880859" xlink:href="#DejaVuSans-97"/>
     <use x="1344.160156" xlink:href="#DejaVuSans-116"/>
     <use x="1383.369141" xlink:href="#DejaVuSans-105"/>
     <use x="1411.152344" xlink:href="#DejaVuSans-111"/>
     <use x="1472.333984" xlink:href="#DejaVuSans-110"/>
     <use x="1535.712891" xlink:href="#DejaVuSans-32"/>
     <use x="1567.5" xlink:href="#DejaVuSans-86"/>
     <use x="1635.798828" xlink:href="#DejaVuSans-97"/>
     <use x="1697.078125" xlink:href="#DejaVuSans-108"/>
     <use x="1724.861328" xlink:href="#DejaVuSans-117"/>
     <use x="1788.240234" xlink:href="#DejaVuSans-101"/>
     <use x="1849.763672" xlink:href="#DejaVuSans-32"/>
     <use x="1881.550781" xlink:href="#DejaVuSans-97"/>
     <use x="1942.830078" xlink:href="#DejaVuSans-116"/>
     <use x="1982.039062" xlink:href="#DejaVuSans-32"/>
     <use x="2013.826172" xlink:href="#DejaVuSans-116"/>
     <use x="2053.035156" xlink:href="#DejaVuSans-61"/>
     <use x="2136.824219" xlink:href="#DejaVuSans-52"/>
     <use x="2200.447266" xlink:href="#DejaVuSans-46"/>
     <use x="2232.234375" xlink:href="#DejaVuSans-57"/>
     <use x="2295.857422" xlink:href="#DejaVuSans-50"/>
    </g>
   </g>
   <g id="line2d_19">
    <defs>
     <path d="M -3 3 
L 3 -3 
M -3 -3 
L 3 3 
" id="md74f6a3d43" style="stroke:#dddddd;"/>
    </defs>
    <g clip-path="url(#pd8212f4a37)">
     <use style="fill:#dddddd;stroke:#dddddd;" x="336.816499" xlink:href="#md74f6a3d43" y="350.82"/>
     <use style="fill:#dddddd;stroke:#dddddd;" x="222.476463" xlink:href="#md74f6a3d43" y="333.211968"/>
     <use style="fill:#dddddd;stroke:#dddddd;" x="210.207574" xlink:href="#md74f6a3d43" y="309.023985"/>
     <use style="fill:#dddddd;stroke:#dddddd;" x="317.336736" xlink:href="#md74f6a3d43" y="350.82"/>
     <use style="fill:#dddddd;stroke:#dddddd;" x="286.33978" xlink:href="#md74f6a3d43" y="350.82"/>
     <use style="fill:#dddddd;stroke:#dddddd;" x="498.109091" xlink:href="#md74f6a3d43" y="350.82"/>
     <use style="fill:#dddddd;stroke:#dddddd;" x="413.784706" xlink:href="#md74f6a3d43" y="350.82"/>
     <use style="fill:#dddddd;stroke:#dddddd;" x="407.927963" xlink:href="#md74f6a3d43" y="350.82"/>
     <use style="fill:#dddddd;stroke:#dddddd;" x="230.24263" xlink:href="#md74f6a3d43" y="348.522881"/>
     <use style="fill:#dddddd;stroke:#dddddd;" x="409.171119" xlink:href="#md74f6a3d43" y="350.82"/>
     <use style="fill:#dddddd;stroke:#dddddd;" x="250.639189" xlink:href="#md74f6a3d43" y="350.82"/>
     <use style="fill:#dddddd;stroke:#dddddd;" x="225.635747" xlink:href="#md74f6a3d43" y="339.440462"/>
     <use style="fill:#dddddd;stroke:#dddddd;" x="352.47493" xlink:href="#md74f6a3d43" y="350.82"/>
     <use style="fill:#dddddd;stroke:#dddddd;" x="239.530191" xlink:href="#md74f6a3d43" y="350.82"/>
     <use style="fill:#dddddd;stroke:#dddddd;" x="328.816366" xlink:href="#md74f6a3d43" y="350.82"/>
     <use style="fill:#dddddd;stroke:#dddddd;" x="253.30142" xlink:href="#md74f6a3d43" y="350.82"/>
     <use style="fill:#dddddd;stroke:#dddddd;" x="220.415612" xlink:href="#md74f6a3d43" y="329.149021"/>
     <use style="fill:#dddddd;stroke:#dddddd;" x="328.292289" xlink:href="#md74f6a3d43" y="350.82"/>
     <use style="fill:#dddddd;stroke:#dddddd;" x="336.707055" xlink:href="#md74f6a3d43" y="350.82"/>
     <use style="fill:#dddddd;stroke:#dddddd;" x="218.646847" xlink:href="#md74f6a3d43" y="325.661921"/>
     <use style="fill:#dddddd;stroke:#dddddd;" x="259.959774" xlink:href="#md74f6a3d43" y="350.82"/>
     <use style="fill:#dddddd;stroke:#dddddd;" x="386.656443" xlink:href="#md74f6a3d43" y="350.82"/>
     <use style="fill:#dddddd;stroke:#dddddd;" x="222.836893" xlink:href="#md74f6a3d43" y="333.922551"/>
     <use style="fill:#dddddd;stroke:#dddddd;" x="334.532813" xlink:href="#md74f6a3d43" y="350.82"/>
     <use style="fill:#dddddd;stroke:#dddddd;" x="241.203491" xlink:href="#md74f6a3d43" y="350.82"/>
     <use style="fill:#dddddd;stroke:#dddddd;" x="267.749586" xlink:href="#md74f6a3d43" y="350.82"/>
     <use style="fill:#dddddd;stroke:#dddddd;" x="330.11534" xlink:href="#md74f6a3d43" y="350.82"/>
     <use style="fill:#dddddd;stroke:#dddddd;" x="274.282201" xlink:href="#md74f6a3d43" y="350.82"/>
     <use style="fill:#dddddd;stroke:#dddddd;" x="301.962436" xlink:href="#md74f6a3d43" y="350.82"/>
     <use style="fill:#dddddd;stroke:#dddddd;" x="235.25186" xlink:href="#md74f6a3d43" y="350.82"/>
     <use style="fill:#dddddd;stroke:#dddddd;" x="220.630768" xlink:href="#md74f6a3d43" y="329.573199"/>
     <use style="fill:#dddddd;stroke:#dddddd;" x="251.418299" xlink:href="#md74f6a3d43" y="350.82"/>
     <use style="fill:#dddddd;stroke:#dddddd;" x="324.654886" xlink:href="#md74f6a3d43" y="350.82"/>
     <use style="fill:#dddddd;stroke:#dddddd;" x="275.40483" xlink:href="#md74f6a3d43" y="350.82"/>
     <use style="fill:#dddddd;stroke:#dddddd;" x="208.044622" xlink:href="#md74f6a3d43" y="304.759749"/>
    </g>
   </g>
   <g id="line2d_20">
    <defs>
     <path d="M -3 3 
L 3 -3 
M -3 -3 
L 3 3 
" id="m587fc31794" style="stroke:#ff0000;"/>
    </defs>
    <g clip-path="url(#pd8212f4a37)">
     <use style="fill:#ff0000;stroke:#ff0000;" x="180.785395" xlink:href="#m587fc31794" y="251.018478"/>
     <use style="fill:#ff0000;stroke:#ff0000;" x="175.396336" xlink:href="#m587fc31794" y="240.394006"/>
     <use style="fill:#ff0000;stroke:#ff0000;" x="174.80067" xlink:href="#m587fc31794" y="239.219658"/>
     <use style="fill:#ff0000;stroke:#ff0000;" x="192.025785" xlink:href="#m587fc31794" y="273.178784"/>
     <use style="fill:#ff0000;stroke:#ff0000;" x="169.148511" xlink:href="#m587fc31794" y="228.076487"/>
     <use style="fill:#ff0000;stroke:#ff0000;" x="134.291525" xlink:href="#m587fc31794" y="159.356315"/>
     <use style="fill:#ff0000;stroke:#ff0000;" x="92.290909" xlink:href="#m587fc31794" y="76.552555"/>
     <use style="fill:#ff0000;stroke:#ff0000;" x="182.898681" xlink:href="#m587fc31794" y="255.184797"/>
     <use style="fill:#ff0000;stroke:#ff0000;" x="114.746113" xlink:href="#m587fc31794" y="120.822747"/>
     <use style="fill:#ff0000;stroke:#ff0000;" x="192.844719" xlink:href="#m587fc31794" y="274.793303"/>
     <use style="fill:#ff0000;stroke:#ff0000;" x="201.438497" xlink:href="#m587fc31794" y="291.735844"/>
     <use style="fill:#ff0000;stroke:#ff0000;" x="135.209032" xlink:href="#m587fc31794" y="161.165171"/>
     <use style="fill:#ff0000;stroke:#ff0000;" x="167.537341" xlink:href="#m587fc31794" y="224.900082"/>
     <use style="fill:#ff0000;stroke:#ff0000;" x="132.367391" xlink:href="#m587fc31794" y="155.562906"/>
     <use style="fill:#ff0000;stroke:#ff0000;" x="103.715837" xlink:href="#m587fc31794" y="99.076678"/>
    </g>
   </g>
   <g id="legend_1">
    <g id="patch_7">
     <path d="M 291.45625 133.230625 
L 511.4 133.230625 
Q 513.4 133.230625 513.4 131.230625 
L 513.4 58.84 
Q 513.4 56.84 511.4 56.84 
L 291.45625 56.84 
Q 289.45625 56.84 289.45625 58.84 
L 289.45625 131.230625 
Q 289.45625 133.230625 291.45625 133.230625 
z
" style="fill:#ffffff;opacity:0.8;stroke:#cccccc;stroke-linejoin:miter;"/>
    </g>
    <g id="line2d_21"/>
    <g id="line2d_22">
     <g>
      <use style="fill:#008000;stroke:#008000;stroke-linejoin:miter;" x="303.45625" xlink:href="#m92d1bb9ab4" y="64.938437"/>
     </g>
    </g>
    <g id="text_19">
     <!-- (Discounted) Cashflow -->
     <defs>
      <path d="M 31 75.875 
Q 24.46875 64.65625 21.28125 53.65625 
Q 18.109375 42.671875 18.109375 31.390625 
Q 18.109375 20.125 21.3125 9.0625 
Q 24.515625 -2 31 -13.1875 
L 23.1875 -13.1875 
Q 15.875 -1.703125 12.234375 9.375 
Q 8.59375 20.453125 8.59375 31.390625 
Q 8.59375 42.28125 12.203125 53.3125 
Q 15.828125 64.359375 23.1875 75.875 
z
" id="DejaVuSans-40"/>
      <path d="M 19.671875 64.796875 
L 19.671875 8.109375 
L 31.59375 8.109375 
Q 46.6875 8.109375 53.6875 14.9375 
Q 60.6875 21.78125 60.6875 36.53125 
Q 60.6875 51.171875 53.6875 57.984375 
Q 46.6875 64.796875 31.59375 64.796875 
z
M 9.8125 72.90625 
L 30.078125 72.90625 
Q 51.265625 72.90625 61.171875 64.09375 
Q 71.09375 55.28125 71.09375 36.53125 
Q 71.09375 17.671875 61.125 8.828125 
Q 51.171875 0 30.078125 0 
L 9.8125 0 
z
" id="DejaVuSans-68"/>
      <path d="M 45.40625 46.390625 
L 45.40625 75.984375 
L 54.390625 75.984375 
L 54.390625 0 
L 45.40625 0 
L 45.40625 8.203125 
Q 42.578125 3.328125 38.25 0.953125 
Q 33.9375 -1.421875 27.875 -1.421875 
Q 17.96875 -1.421875 11.734375 6.484375 
Q 5.515625 14.40625 5.515625 27.296875 
Q 5.515625 40.1875 11.734375 48.09375 
Q 17.96875 56 27.875 56 
Q 33.9375 56 38.25 53.625 
Q 42.578125 51.265625 45.40625 46.390625 
z
M 14.796875 27.296875 
Q 14.796875 17.390625 18.875 11.75 
Q 22.953125 6.109375 30.078125 6.109375 
Q 37.203125 6.109375 41.296875 11.75 
Q 45.40625 17.390625 45.40625 27.296875 
Q 45.40625 37.203125 41.296875 42.84375 
Q 37.203125 48.484375 30.078125 48.484375 
Q 22.953125 48.484375 18.875 42.84375 
Q 14.796875 37.203125 14.796875 27.296875 
z
" id="DejaVuSans-100"/>
      <path d="M 8.015625 75.875 
L 15.828125 75.875 
Q 23.140625 64.359375 26.78125 53.3125 
Q 30.421875 42.28125 30.421875 31.390625 
Q 30.421875 20.453125 26.78125 9.375 
Q 23.140625 -1.703125 15.828125 -13.1875 
L 8.015625 -13.1875 
Q 14.5 -2 17.703125 9.0625 
Q 20.90625 20.125 20.90625 31.390625 
Q 20.90625 42.671875 17.703125 53.65625 
Q 14.5 64.65625 8.015625 75.875 
z
" id="DejaVuSans-41"/>
      <path d="M 54.890625 33.015625 
L 54.890625 0 
L 45.90625 0 
L 45.90625 32.71875 
Q 45.90625 40.484375 42.875 44.328125 
Q 39.84375 48.1875 33.796875 48.1875 
Q 26.515625 48.1875 22.3125 43.546875 
Q 18.109375 38.921875 18.109375 30.90625 
L 18.109375 0 
L 9.078125 0 
L 9.078125 75.984375 
L 18.109375 75.984375 
L 18.109375 46.1875 
Q 21.34375 51.125 25.703125 53.5625 
Q 30.078125 56 35.796875 56 
Q 45.21875 56 50.046875 50.171875 
Q 54.890625 44.34375 54.890625 33.015625 
z
" id="DejaVuSans-104"/>
      <path d="M 4.203125 54.6875 
L 13.1875 54.6875 
L 24.421875 12.015625 
L 35.59375 54.6875 
L 46.1875 54.6875 
L 57.421875 12.015625 
L 68.609375 54.6875 
L 77.59375 54.6875 
L 63.28125 0 
L 52.6875 0 
L 40.921875 44.828125 
L 29.109375 0 
L 18.5 0 
z
" id="DejaVuSans-119"/>
     </defs>
     <g transform="translate(321.45625 68.438437)scale(0.1 -0.1)">
      <use xlink:href="#DejaVuSans-40"/>
      <use x="39.013672" xlink:href="#DejaVuSans-68"/>
      <use x="116.015625" xlink:href="#DejaVuSans-105"/>
      <use x="143.798828" xlink:href="#DejaVuSans-115"/>
      <use x="195.898438" xlink:href="#DejaVuSans-99"/>
      <use x="250.878906" xlink:href="#DejaVuSans-111"/>
      <use x="312.060547" xlink:href="#DejaVuSans-117"/>
      <use x="375.439453" xlink:href="#DejaVuSans-110"/>
      <use x="438.818359" xlink:href="#DejaVuSans-116"/>
      <use x="478.027344" xlink:href="#DejaVuSans-101"/>
      <use x="539.550781" xlink:href="#DejaVuSans-100"/>
      <use x="603.027344" xlink:href="#DejaVuSans-41"/>
      <use x="642.041016" xlink:href="#DejaVuSans-32"/>
      <use x="673.828125" xlink:href="#DejaVuSans-67"/>
      <use x="743.652344" xlink:href="#DejaVuSans-97"/>
      <use x="804.931641" xlink:href="#DejaVuSans-115"/>
      <use x="857.03125" xlink:href="#DejaVuSans-104"/>
      <use x="920.410156" xlink:href="#DejaVuSans-102"/>
      <use x="955.615234" xlink:href="#DejaVuSans-108"/>
      <use x="983.398438" xlink:href="#DejaVuSans-111"/>
      <use x="1044.580078" xlink:href="#DejaVuSans-119"/>
     </g>
    </g>
    <g id="line2d_23"/>
    <g id="line2d_24">
     <g>
      <use style="fill:#ff0000;stroke:#ff0000;" x="303.45625" xlink:href="#m587fc31794" y="79.616562"/>
     </g>
    </g>
    <g id="text_20">
     <!-- Favourable Exercise -->
     <defs>
      <path d="M 9.8125 72.90625 
L 51.703125 72.90625 
L 51.703125 64.59375 
L 19.671875 64.59375 
L 19.671875 43.109375 
L 48.578125 43.109375 
L 48.578125 34.8125 
L 19.671875 34.8125 
L 19.671875 0 
L 9.8125 0 
z
" id="DejaVuSans-70"/>
      <path d="M 2.984375 54.6875 
L 12.5 54.6875 
L 29.59375 8.796875 
L 46.6875 54.6875 
L 56.203125 54.6875 
L 35.6875 0 
L 23.484375 0 
z
" id="DejaVuSans-118"/>
      <path d="M 48.6875 27.296875 
Q 48.6875 37.203125 44.609375 42.84375 
Q 40.53125 48.484375 33.40625 48.484375 
Q 26.265625 48.484375 22.1875 42.84375 
Q 18.109375 37.203125 18.109375 27.296875 
Q 18.109375 17.390625 22.1875 11.75 
Q 26.265625 6.109375 33.40625 6.109375 
Q 40.53125 6.109375 44.609375 11.75 
Q 48.6875 17.390625 48.6875 27.296875 
z
M 18.109375 46.390625 
Q 20.953125 51.265625 25.265625 53.625 
Q 29.59375 56 35.59375 56 
Q 45.5625 56 51.78125 48.09375 
Q 58.015625 40.1875 58.015625 27.296875 
Q 58.015625 14.40625 51.78125 6.484375 
Q 45.5625 -1.421875 35.59375 -1.421875 
Q 29.59375 -1.421875 25.265625 0.953125 
Q 20.953125 3.328125 18.109375 8.203125 
L 18.109375 0 
L 9.078125 0 
L 9.078125 75.984375 
L 18.109375 75.984375 
z
" id="DejaVuSans-98"/>
     </defs>
     <g transform="translate(321.45625 83.116562)scale(0.1 -0.1)">
      <use xlink:href="#DejaVuSans-70"/>
      <use x="57.378906" xlink:href="#DejaVuSans-97"/>
      <use x="118.658203" xlink:href="#DejaVuSans-118"/>
      <use x="177.837891" xlink:href="#DejaVuSans-111"/>
      <use x="239.019531" xlink:href="#DejaVuSans-117"/>
      <use x="302.398438" xlink:href="#DejaVuSans-114"/>
      <use x="343.511719" xlink:href="#DejaVuSans-97"/>
      <use x="404.791016" xlink:href="#DejaVuSans-98"/>
      <use x="468.267578" xlink:href="#DejaVuSans-108"/>
      <use x="496.050781" xlink:href="#DejaVuSans-101"/>
      <use x="557.574219" xlink:href="#DejaVuSans-32"/>
      <use x="589.361328" xlink:href="#DejaVuSans-69"/>
      <use x="652.544922" xlink:href="#DejaVuSans-120"/>
      <use x="711.677734" xlink:href="#DejaVuSans-101"/>
      <use x="773.201172" xlink:href="#DejaVuSans-114"/>
      <use x="814.283203" xlink:href="#DejaVuSans-99"/>
      <use x="869.263672" xlink:href="#DejaVuSans-105"/>
      <use x="897.046875" xlink:href="#DejaVuSans-115"/>
      <use x="949.146484" xlink:href="#DejaVuSans-101"/>
     </g>
    </g>
    <g id="line2d_25"/>
    <g id="line2d_26">
     <g>
      <use style="fill:#dddddd;stroke:#dddddd;" x="303.45625" xlink:href="#md74f6a3d43" y="94.294687"/>
     </g>
    </g>
    <g id="text_21">
     <!-- Unfavourable Exercise -->
     <defs>
      <path d="M 8.6875 72.90625 
L 18.609375 72.90625 
L 18.609375 28.609375 
Q 18.609375 16.890625 22.84375 11.734375 
Q 27.09375 6.59375 36.625 6.59375 
Q 46.09375 6.59375 50.34375 11.734375 
Q 54.59375 16.890625 54.59375 28.609375 
L 54.59375 72.90625 
L 64.5 72.90625 
L 64.5 27.390625 
Q 64.5 13.140625 57.4375 5.859375 
Q 50.390625 -1.421875 36.625 -1.421875 
Q 22.796875 -1.421875 15.734375 5.859375 
Q 8.6875 13.140625 8.6875 27.390625 
z
" id="DejaVuSans-85"/>
     </defs>
     <g transform="translate(321.45625 97.794687)scale(0.1 -0.1)">
      <use xlink:href="#DejaVuSans-85"/>
      <use x="73.193359" xlink:href="#DejaVuSans-110"/>
      <use x="136.572266" xlink:href="#DejaVuSans-102"/>
      <use x="171.777344" xlink:href="#DejaVuSans-97"/>
      <use x="233.056641" xlink:href="#DejaVuSans-118"/>
      <use x="292.236328" xlink:href="#DejaVuSans-111"/>
      <use x="353.417969" xlink:href="#DejaVuSans-117"/>
      <use x="416.796875" xlink:href="#DejaVuSans-114"/>
      <use x="457.910156" xlink:href="#DejaVuSans-97"/>
      <use x="519.189453" xlink:href="#DejaVuSans-98"/>
      <use x="582.666016" xlink:href="#DejaVuSans-108"/>
      <use x="610.449219" xlink:href="#DejaVuSans-101"/>
      <use x="671.972656" xlink:href="#DejaVuSans-32"/>
      <use x="703.759766" xlink:href="#DejaVuSans-69"/>
      <use x="766.943359" xlink:href="#DejaVuSans-120"/>
      <use x="826.076172" xlink:href="#DejaVuSans-101"/>
      <use x="887.599609" xlink:href="#DejaVuSans-114"/>
      <use x="928.681641" xlink:href="#DejaVuSans-99"/>
      <use x="983.662109" xlink:href="#DejaVuSans-105"/>
      <use x="1011.445312" xlink:href="#DejaVuSans-115"/>
      <use x="1063.544922" xlink:href="#DejaVuSans-101"/>
     </g>
    </g>
    <g id="line2d_27">
     <path d="M 293.45625 108.972812 
L 313.45625 108.972812 
" style="fill:none;stroke:#1f77b4;stroke-linecap:square;stroke-width:1.5;"/>
    </g>
    <g id="line2d_28"/>
    <g id="text_22">
     <!-- Approx. of Continuation Value -->
     <g transform="translate(321.45625 112.472812)scale(0.1 -0.1)">
      <use xlink:href="#DejaVuSans-65"/>
      <use x="68.408203" xlink:href="#DejaVuSans-112"/>
      <use x="131.884766" xlink:href="#DejaVuSans-112"/>
      <use x="195.361328" xlink:href="#DejaVuSans-114"/>
      <use x="236.443359" xlink:href="#DejaVuSans-111"/>
      <use x="297.578125" xlink:href="#DejaVuSans-120"/>
      <use x="356.757812" xlink:href="#DejaVuSans-46"/>
      <use x="388.544922" xlink:href="#DejaVuSans-32"/>
      <use x="420.332031" xlink:href="#DejaVuSans-111"/>
      <use x="481.513672" xlink:href="#DejaVuSans-102"/>
      <use x="516.71875" xlink:href="#DejaVuSans-32"/>
      <use x="548.505859" xlink:href="#DejaVuSans-67"/>
      <use x="618.330078" xlink:href="#DejaVuSans-111"/>
      <use x="679.511719" xlink:href="#DejaVuSans-110"/>
      <use x="742.890625" xlink:href="#DejaVuSans-116"/>
      <use x="782.099609" xlink:href="#DejaVuSans-105"/>
      <use x="809.882812" xlink:href="#DejaVuSans-110"/>
      <use x="873.261719" xlink:href="#DejaVuSans-117"/>
      <use x="936.640625" xlink:href="#DejaVuSans-97"/>
      <use x="997.919922" xlink:href="#DejaVuSans-116"/>
      <use x="1037.128906" xlink:href="#DejaVuSans-105"/>
      <use x="1064.912109" xlink:href="#DejaVuSans-111"/>
      <use x="1126.09375" xlink:href="#DejaVuSans-110"/>
      <use x="1189.472656" xlink:href="#DejaVuSans-32"/>
      <use x="1221.259766" xlink:href="#DejaVuSans-86"/>
      <use x="1289.558594" xlink:href="#DejaVuSans-97"/>
      <use x="1350.837891" xlink:href="#DejaVuSans-108"/>
      <use x="1378.621094" xlink:href="#DejaVuSans-117"/>
      <use x="1442" xlink:href="#DejaVuSans-101"/>
     </g>
    </g>
    <g id="line2d_29">
     <path d="M 293.45625 123.650937 
L 313.45625 123.650937 
" style="fill:none;stroke:#dddddd;stroke-dasharray:5.55,2.4;stroke-dashoffset:0;stroke-width:1.5;"/>
    </g>
    <g id="line2d_30"/>
    <g id="text_23">
     <!-- Out-of-the-money Continuation Value -->
     <defs>
      <path d="M 39.40625 66.21875 
Q 28.65625 66.21875 22.328125 58.203125 
Q 16.015625 50.203125 16.015625 36.375 
Q 16.015625 22.609375 22.328125 14.59375 
Q 28.65625 6.59375 39.40625 6.59375 
Q 50.140625 6.59375 56.421875 14.59375 
Q 62.703125 22.609375 62.703125 36.375 
Q 62.703125 50.203125 56.421875 58.203125 
Q 50.140625 66.21875 39.40625 66.21875 
z
M 39.40625 74.21875 
Q 54.734375 74.21875 63.90625 63.9375 
Q 73.09375 53.65625 73.09375 36.375 
Q 73.09375 19.140625 63.90625 8.859375 
Q 54.734375 -1.421875 39.40625 -1.421875 
Q 24.03125 -1.421875 14.8125 8.828125 
Q 5.609375 19.09375 5.609375 36.375 
Q 5.609375 53.65625 14.8125 63.9375 
Q 24.03125 74.21875 39.40625 74.21875 
z
" id="DejaVuSans-79"/>
      <path d="M 4.890625 31.390625 
L 31.203125 31.390625 
L 31.203125 23.390625 
L 4.890625 23.390625 
z
" id="DejaVuSans-45"/>
      <path d="M 32.171875 -5.078125 
Q 28.375 -14.84375 24.75 -17.8125 
Q 21.140625 -20.796875 15.09375 -20.796875 
L 7.90625 -20.796875 
L 7.90625 -13.28125 
L 13.1875 -13.28125 
Q 16.890625 -13.28125 18.9375 -11.515625 
Q 21 -9.765625 23.484375 -3.21875 
L 25.09375 0.875 
L 2.984375 54.6875 
L 12.5 54.6875 
L 29.59375 11.921875 
L 46.6875 54.6875 
L 56.203125 54.6875 
z
" id="DejaVuSans-121"/>
     </defs>
     <g transform="translate(321.45625 127.150937)scale(0.1 -0.1)">
      <use xlink:href="#DejaVuSans-79"/>
      <use x="78.710938" xlink:href="#DejaVuSans-117"/>
      <use x="142.089844" xlink:href="#DejaVuSans-116"/>
      <use x="181.298828" xlink:href="#DejaVuSans-45"/>
      <use x="217.398438" xlink:href="#DejaVuSans-111"/>
      <use x="278.580078" xlink:href="#DejaVuSans-102"/>
      <use x="313.707031" xlink:href="#DejaVuSans-45"/>
      <use x="349.791016" xlink:href="#DejaVuSans-116"/>
      <use x="389" xlink:href="#DejaVuSans-104"/>
      <use x="452.378906" xlink:href="#DejaVuSans-101"/>
      <use x="513.902344" xlink:href="#DejaVuSans-45"/>
      <use x="549.986328" xlink:href="#DejaVuSans-109"/>
      <use x="647.398438" xlink:href="#DejaVuSans-111"/>
      <use x="708.580078" xlink:href="#DejaVuSans-110"/>
      <use x="771.958984" xlink:href="#DejaVuSans-101"/>
      <use x="833.482422" xlink:href="#DejaVuSans-121"/>
      <use x="892.662109" xlink:href="#DejaVuSans-32"/>
      <use x="924.449219" xlink:href="#DejaVuSans-67"/>
      <use x="994.273438" xlink:href="#DejaVuSans-111"/>
      <use x="1055.455078" xlink:href="#DejaVuSans-110"/>
      <use x="1118.833984" xlink:href="#DejaVuSans-116"/>
      <use x="1158.042969" xlink:href="#DejaVuSans-105"/>
      <use x="1185.826172" xlink:href="#DejaVuSans-110"/>
      <use x="1249.205078" xlink:href="#DejaVuSans-117"/>
      <use x="1312.583984" xlink:href="#DejaVuSans-97"/>
      <use x="1373.863281" xlink:href="#DejaVuSans-116"/>
      <use x="1413.072266" xlink:href="#DejaVuSans-105"/>
      <use x="1440.855469" xlink:href="#DejaVuSans-111"/>
      <use x="1502.037109" xlink:href="#DejaVuSans-110"/>
      <use x="1565.416016" xlink:href="#DejaVuSans-32"/>
      <use x="1597.203125" xlink:href="#DejaVuSans-86"/>
      <use x="1665.501953" xlink:href="#DejaVuSans-97"/>
      <use x="1726.78125" xlink:href="#DejaVuSans-108"/>
      <use x="1754.564453" xlink:href="#DejaVuSans-117"/>
      <use x="1817.943359" xlink:href="#DejaVuSans-101"/>
     </g>
    </g>
   </g>
  </g>
 </g>
 <defs>
  <clipPath id="pd8212f4a37">
   <rect height="326.16" width="446.4" x="72" y="51.84"/>
  </clipPath>
 </defs>
</svg>
