<?xml version="1.0" encoding="utf-8" standalone="no"?>
<!DOCTYPE svg PUBLIC "-//W3C//DTD SVG 1.1//EN"
  "http://www.w3.org/Graphics/SVG/1.1/DTD/svg11.dtd">
<!-- Created with matplotlib (https://matplotlib.org/) -->
<svg height="432pt" version="1.1" viewBox="0 0 576 432" width="576pt" xmlns="http://www.w3.org/2000/svg" xmlns:xlink="http://www.w3.org/1999/xlink">
 <defs>
  <style type="text/css">
*{stroke-linecap:butt;stroke-linejoin:round;}
  </style>
 </defs>
 <g id="figure_1">
  <g id="patch_1">
   <path d="M 0 432 
L 576 432 
L 576 0 
L 0 0 
z
" style="fill:#ffffff;"/>
  </g>
  <g id="axes_1">
   <g id="patch_2">
    <path d="M 72 378 
L 518.4 378 
L 518.4 51.84 
L 72 51.84 
z
" style="fill:#ffffff;"/>
   </g>
   <g id="matplotlib.axis_1">
    <g id="xtick_1">
     <g id="line2d_1">
      <defs>
       <path d="M 0 0 
L 0 3.5 
" id="mc219645941" style="stroke:#000000;stroke-width:0.8;"/>
      </defs>
      <g>
       <use style="stroke:#000000;stroke-width:0.8;" x="92.290909" xlink:href="#mc219645941" y="378"/>
      </g>
     </g>
     <g id="text_1">
      <!-- 0 -->
      <defs>
       <path d="M 31.78125 66.40625 
Q 24.171875 66.40625 20.328125 58.90625 
Q 16.5 51.421875 16.5 36.375 
Q 16.5 21.390625 20.328125 13.890625 
Q 24.171875 6.390625 31.78125 6.390625 
Q 39.453125 6.390625 43.28125 13.890625 
Q 47.125 21.390625 47.125 36.375 
Q 47.125 51.421875 43.28125 58.90625 
Q 39.453125 66.40625 31.78125 66.40625 
z
M 31.78125 74.21875 
Q 44.046875 74.21875 50.515625 64.515625 
Q 56.984375 54.828125 56.984375 36.375 
Q 56.984375 17.96875 50.515625 8.265625 
Q 44.046875 -1.421875 31.78125 -1.421875 
Q 19.53125 -1.421875 13.0625 8.265625 
Q 6.59375 17.96875 6.59375 36.375 
Q 6.59375 54.828125 13.0625 64.515625 
Q 19.53125 74.21875 31.78125 74.21875 
z
" id="DejaVuSans-48"/>
      </defs>
      <g transform="translate(89.109659 392.598437)scale(0.1 -0.1)">
       <use xlink:href="#DejaVuSans-48"/>
      </g>
     </g>
    </g>
    <g id="xtick_2">
     <g id="line2d_2">
      <g>
       <use style="stroke:#000000;stroke-width:0.8;" x="173.454545" xlink:href="#mc219645941" y="378"/>
      </g>
     </g>
     <g id="text_2">
      <!-- 1 -->
      <defs>
       <path d="M 12.40625 8.296875 
L 28.515625 8.296875 
L 28.515625 63.921875 
L 10.984375 60.40625 
L 10.984375 69.390625 
L 28.421875 72.90625 
L 38.28125 72.90625 
L 38.28125 8.296875 
L 54.390625 8.296875 
L 54.390625 0 
L 12.40625 0 
z
" id="DejaVuSans-49"/>
      </defs>
      <g transform="translate(170.273295 392.598437)scale(0.1 -0.1)">
       <use xlink:href="#DejaVuSans-49"/>
      </g>
     </g>
    </g>
    <g id="xtick_3">
     <g id="line2d_3">
      <g>
       <use style="stroke:#000000;stroke-width:0.8;" x="254.618182" xlink:href="#mc219645941" y="378"/>
      </g>
     </g>
     <g id="text_3">
      <!-- 2 -->
      <defs>
       <path d="M 19.1875 8.296875 
L 53.609375 8.296875 
L 53.609375 0 
L 7.328125 0 
L 7.328125 8.296875 
Q 12.9375 14.109375 22.625 23.890625 
Q 32.328125 33.6875 34.8125 36.53125 
Q 39.546875 41.84375 41.421875 45.53125 
Q 43.3125 49.21875 43.3125 52.78125 
Q 43.3125 58.59375 39.234375 62.25 
Q 35.15625 65.921875 28.609375 65.921875 
Q 23.96875 65.921875 18.8125 64.3125 
Q 13.671875 62.703125 7.8125 59.421875 
L 7.8125 69.390625 
Q 13.765625 71.78125 18.9375 73 
Q 24.125 74.21875 28.421875 74.21875 
Q 39.75 74.21875 46.484375 68.546875 
Q 53.21875 62.890625 53.21875 53.421875 
Q 53.21875 48.921875 51.53125 44.890625 
Q 49.859375 40.875 45.40625 35.40625 
Q 44.1875 33.984375 37.640625 27.21875 
Q 31.109375 20.453125 19.1875 8.296875 
z
" id="DejaVuSans-50"/>
      </defs>
      <g transform="translate(251.436932 392.598437)scale(0.1 -0.1)">
       <use xlink:href="#DejaVuSans-50"/>
      </g>
     </g>
    </g>
    <g id="xtick_4">
     <g id="line2d_4">
      <g>
       <use style="stroke:#000000;stroke-width:0.8;" x="335.781818" xlink:href="#mc219645941" y="378"/>
      </g>
     </g>
     <g id="text_4">
      <!-- 3 -->
      <defs>
       <path d="M 40.578125 39.3125 
Q 47.65625 37.796875 51.625 33 
Q 55.609375 28.21875 55.609375 21.1875 
Q 55.609375 10.40625 48.1875 4.484375 
Q 40.765625 -1.421875 27.09375 -1.421875 
Q 22.515625 -1.421875 17.65625 -0.515625 
Q 12.796875 0.390625 7.625 2.203125 
L 7.625 11.71875 
Q 11.71875 9.328125 16.59375 8.109375 
Q 21.484375 6.890625 26.8125 6.890625 
Q 36.078125 6.890625 40.9375 10.546875 
Q 45.796875 14.203125 45.796875 21.1875 
Q 45.796875 27.640625 41.28125 31.265625 
Q 36.765625 34.90625 28.71875 34.90625 
L 20.21875 34.90625 
L 20.21875 43.015625 
L 29.109375 43.015625 
Q 36.375 43.015625 40.234375 45.921875 
Q 44.09375 48.828125 44.09375 54.296875 
Q 44.09375 59.90625 40.109375 62.90625 
Q 36.140625 65.921875 28.71875 65.921875 
Q 24.65625 65.921875 20.015625 65.03125 
Q 15.375 64.15625 9.8125 62.3125 
L 9.8125 71.09375 
Q 15.4375 72.65625 20.34375 73.4375 
Q 25.25 74.21875 29.59375 74.21875 
Q 40.828125 74.21875 47.359375 69.109375 
Q 53.90625 64.015625 53.90625 55.328125 
Q 53.90625 49.265625 50.4375 45.09375 
Q 46.96875 40.921875 40.578125 39.3125 
z
" id="DejaVuSans-51"/>
      </defs>
      <g transform="translate(332.600568 392.598437)scale(0.1 -0.1)">
       <use xlink:href="#DejaVuSans-51"/>
      </g>
     </g>
    </g>
    <g id="xtick_5">
     <g id="line2d_5">
      <g>
       <use style="stroke:#000000;stroke-width:0.8;" x="416.945455" xlink:href="#mc219645941" y="378"/>
      </g>
     </g>
     <g id="text_5">
      <!-- 4 -->
      <defs>
       <path d="M 37.796875 64.3125 
L 12.890625 25.390625 
L 37.796875 25.390625 
z
M 35.203125 72.90625 
L 47.609375 72.90625 
L 47.609375 25.390625 
L 58.015625 25.390625 
L 58.015625 17.1875 
L 47.609375 17.1875 
L 47.609375 0 
L 37.796875 0 
L 37.796875 17.1875 
L 4.890625 17.1875 
L 4.890625 26.703125 
z
" id="DejaVuSans-52"/>
      </defs>
      <g transform="translate(413.764205 392.598437)scale(0.1 -0.1)">
       <use xlink:href="#DejaVuSans-52"/>
      </g>
     </g>
    </g>
    <g id="xtick_6">
     <g id="line2d_6">
      <g>
       <use style="stroke:#000000;stroke-width:0.8;" x="498.109091" xlink:href="#mc219645941" y="378"/>
      </g>
     </g>
     <g id="text_6">
      <!-- 5 -->
      <defs>
       <path d="M 10.796875 72.90625 
L 49.515625 72.90625 
L 49.515625 64.59375 
L 19.828125 64.59375 
L 19.828125 46.734375 
Q 21.96875 47.46875 24.109375 47.828125 
Q 26.265625 48.1875 28.421875 48.1875 
Q 40.625 48.1875 47.75 41.5 
Q 54.890625 34.8125 54.890625 23.390625 
Q 54.890625 11.625 47.5625 5.09375 
Q 40.234375 -1.421875 26.90625 -1.421875 
Q 22.3125 -1.421875 17.546875 -0.640625 
Q 12.796875 0.140625 7.71875 1.703125 
L 7.71875 11.625 
Q 12.109375 9.234375 16.796875 8.0625 
Q 21.484375 6.890625 26.703125 6.890625 
Q 35.15625 6.890625 40.078125 11.328125 
Q 45.015625 15.765625 45.015625 23.390625 
Q 45.015625 31 40.078125 35.4375 
Q 35.15625 39.890625 26.703125 39.890625 
Q 22.75 39.890625 18.8125 39.015625 
Q 14.890625 38.140625 10.796875 36.28125 
z
" id="DejaVuSans-53"/>
      </defs>
      <g transform="translate(494.927841 392.598437)scale(0.1 -0.1)">
       <use xlink:href="#DejaVuSans-53"/>
      </g>
     </g>
    </g>
    <g id="text_7">
     <!-- Time t -->
     <defs>
      <path d="M -0.296875 72.90625 
L 61.375 72.90625 
L 61.375 64.59375 
L 35.5 64.59375 
L 35.5 0 
L 25.59375 0 
L 25.59375 64.59375 
L -0.296875 64.59375 
z
" id="DejaVuSans-84"/>
      <path d="M 9.421875 54.6875 
L 18.40625 54.6875 
L 18.40625 0 
L 9.421875 0 
z
M 9.421875 75.984375 
L 18.40625 75.984375 
L 18.40625 64.59375 
L 9.421875 64.59375 
z
" id="DejaVuSans-105"/>
      <path d="M 52 44.1875 
Q 55.375 50.25 60.0625 53.125 
Q 64.75 56 71.09375 56 
Q 79.640625 56 84.28125 50.015625 
Q 88.921875 44.046875 88.921875 33.015625 
L 88.921875 0 
L 79.890625 0 
L 79.890625 32.71875 
Q 79.890625 40.578125 77.09375 44.375 
Q 74.3125 48.1875 68.609375 48.1875 
Q 61.625 48.1875 57.5625 43.546875 
Q 53.515625 38.921875 53.515625 30.90625 
L 53.515625 0 
L 44.484375 0 
L 44.484375 32.71875 
Q 44.484375 40.625 41.703125 44.40625 
Q 38.921875 48.1875 33.109375 48.1875 
Q 26.21875 48.1875 22.15625 43.53125 
Q 18.109375 38.875 18.109375 30.90625 
L 18.109375 0 
L 9.078125 0 
L 9.078125 54.6875 
L 18.109375 54.6875 
L 18.109375 46.1875 
Q 21.1875 51.21875 25.484375 53.609375 
Q 29.78125 56 35.6875 56 
Q 41.65625 56 45.828125 52.96875 
Q 50 49.953125 52 44.1875 
z
" id="DejaVuSans-109"/>
      <path d="M 56.203125 29.59375 
L 56.203125 25.203125 
L 14.890625 25.203125 
Q 15.484375 15.921875 20.484375 11.0625 
Q 25.484375 6.203125 34.421875 6.203125 
Q 39.59375 6.203125 44.453125 7.46875 
Q 49.3125 8.734375 54.109375 11.28125 
L 54.109375 2.78125 
Q 49.265625 0.734375 44.1875 -0.34375 
Q 39.109375 -1.421875 33.890625 -1.421875 
Q 20.796875 -1.421875 13.15625 6.1875 
Q 5.515625 13.8125 5.515625 26.8125 
Q 5.515625 40.234375 12.765625 48.109375 
Q 20.015625 56 32.328125 56 
Q 43.359375 56 49.78125 48.890625 
Q 56.203125 41.796875 56.203125 29.59375 
z
M 47.21875 32.234375 
Q 47.125 39.59375 43.09375 43.984375 
Q 39.0625 48.390625 32.421875 48.390625 
Q 24.90625 48.390625 20.390625 44.140625 
Q 15.875 39.890625 15.1875 32.171875 
z
" id="DejaVuSans-101"/>
      <path id="DejaVuSans-32"/>
      <path d="M 18.3125 70.21875 
L 18.3125 54.6875 
L 36.8125 54.6875 
L 36.8125 47.703125 
L 18.3125 47.703125 
L 18.3125 18.015625 
Q 18.3125 11.328125 20.140625 9.421875 
Q 21.96875 7.515625 27.59375 7.515625 
L 36.8125 7.515625 
L 36.8125 0 
L 27.59375 0 
Q 17.1875 0 13.234375 3.875 
Q 9.28125 7.765625 9.28125 18.015625 
L 9.28125 47.703125 
L 2.6875 47.703125 
L 2.6875 54.6875 
L 9.28125 54.6875 
L 9.28125 70.21875 
z
" id="DejaVuSans-116"/>
     </defs>
     <g transform="translate(279.263281 406.276563)scale(0.1 -0.1)">
      <use xlink:href="#DejaVuSans-84"/>
      <use x="61.037109" xlink:href="#DejaVuSans-105"/>
      <use x="88.820312" xlink:href="#DejaVuSans-109"/>
      <use x="186.232422" xlink:href="#DejaVuSans-101"/>
      <use x="247.755859" xlink:href="#DejaVuSans-32"/>
      <use x="279.542969" xlink:href="#DejaVuSans-116"/>
     </g>
    </g>
   </g>
   <g id="matplotlib.axis_2">
    <g id="ytick_1">
     <g id="line2d_7">
      <defs>
       <path d="M 0 0 
L -3.5 0 
" id="m02037e8a87" style="stroke:#000000;stroke-width:0.8;"/>
      </defs>
      <g>
       <use style="stroke:#000000;stroke-width:0.8;" x="72" xlink:href="#m02037e8a87" y="354.937984"/>
      </g>
     </g>
     <g id="text_8">
      <!-- 0.5 -->
      <defs>
       <path d="M 10.6875 12.40625 
L 21 12.40625 
L 21 0 
L 10.6875 0 
z
" id="DejaVuSans-46"/>
      </defs>
      <g transform="translate(49.096875 358.737202)scale(0.1 -0.1)">
       <use xlink:href="#DejaVuSans-48"/>
       <use x="63.623047" xlink:href="#DejaVuSans-46"/>
       <use x="95.410156" xlink:href="#DejaVuSans-53"/>
      </g>
     </g>
    </g>
    <g id="ytick_2">
     <g id="line2d_8">
      <g>
       <use style="stroke:#000000;stroke-width:0.8;" x="72" xlink:href="#m02037e8a87" y="292.736549"/>
      </g>
     </g>
     <g id="text_9">
      <!-- 1.0 -->
      <g transform="translate(49.096875 296.535768)scale(0.1 -0.1)">
       <use xlink:href="#DejaVuSans-49"/>
       <use x="63.623047" xlink:href="#DejaVuSans-46"/>
       <use x="95.410156" xlink:href="#DejaVuSans-48"/>
      </g>
     </g>
    </g>
    <g id="ytick_3">
     <g id="line2d_9">
      <g>
       <use style="stroke:#000000;stroke-width:0.8;" x="72" xlink:href="#m02037e8a87" y="230.535115"/>
      </g>
     </g>
     <g id="text_10">
      <!-- 1.5 -->
      <g transform="translate(49.096875 234.334333)scale(0.1 -0.1)">
       <use xlink:href="#DejaVuSans-49"/>
       <use x="63.623047" xlink:href="#DejaVuSans-46"/>
       <use x="95.410156" xlink:href="#DejaVuSans-53"/>
      </g>
     </g>
    </g>
    <g id="ytick_4">
     <g id="line2d_10">
      <g>
       <use style="stroke:#000000;stroke-width:0.8;" x="72" xlink:href="#m02037e8a87" y="168.33368"/>
      </g>
     </g>
     <g id="text_11">
      <!-- 2.0 -->
      <g transform="translate(49.096875 172.132899)scale(0.1 -0.1)">
       <use xlink:href="#DejaVuSans-50"/>
       <use x="63.623047" xlink:href="#DejaVuSans-46"/>
       <use x="95.410156" xlink:href="#DejaVuSans-48"/>
      </g>
     </g>
    </g>
    <g id="ytick_5">
     <g id="line2d_11">
      <g>
       <use style="stroke:#000000;stroke-width:0.8;" x="72" xlink:href="#m02037e8a87" y="106.132246"/>
      </g>
     </g>
     <g id="text_12">
      <!-- 2.5 -->
      <g transform="translate(49.096875 109.931464)scale(0.1 -0.1)">
       <use xlink:href="#DejaVuSans-50"/>
       <use x="63.623047" xlink:href="#DejaVuSans-46"/>
       <use x="95.410156" xlink:href="#DejaVuSans-53"/>
      </g>
     </g>
    </g>
    <g id="text_13">
     <!-- Stock Price -->
     <defs>
      <path d="M 53.515625 70.515625 
L 53.515625 60.890625 
Q 47.90625 63.578125 42.921875 64.890625 
Q 37.9375 66.21875 33.296875 66.21875 
Q 25.25 66.21875 20.875 63.09375 
Q 16.5 59.96875 16.5 54.203125 
Q 16.5 49.359375 19.40625 46.890625 
Q 22.3125 44.4375 30.421875 42.921875 
L 36.375 41.703125 
Q 47.40625 39.59375 52.65625 34.296875 
Q 57.90625 29 57.90625 20.125 
Q 57.90625 9.515625 50.796875 4.046875 
Q 43.703125 -1.421875 29.984375 -1.421875 
Q 24.8125 -1.421875 18.96875 -0.25 
Q 13.140625 0.921875 6.890625 3.21875 
L 6.890625 13.375 
Q 12.890625 10.015625 18.65625 8.296875 
Q 24.421875 6.59375 29.984375 6.59375 
Q 38.421875 6.59375 43.015625 9.90625 
Q 47.609375 13.234375 47.609375 19.390625 
Q 47.609375 24.75 44.3125 27.78125 
Q 41.015625 30.8125 33.5 32.328125 
L 27.484375 33.5 
Q 16.453125 35.6875 11.515625 40.375 
Q 6.59375 45.0625 6.59375 53.421875 
Q 6.59375 63.09375 13.40625 68.65625 
Q 20.21875 74.21875 32.171875 74.21875 
Q 37.3125 74.21875 42.625 73.28125 
Q 47.953125 72.359375 53.515625 70.515625 
z
" id="DejaVuSans-83"/>
      <path d="M 30.609375 48.390625 
Q 23.390625 48.390625 19.1875 42.75 
Q 14.984375 37.109375 14.984375 27.296875 
Q 14.984375 17.484375 19.15625 11.84375 
Q 23.34375 6.203125 30.609375 6.203125 
Q 37.796875 6.203125 41.984375 11.859375 
Q 46.1875 17.53125 46.1875 27.296875 
Q 46.1875 37.015625 41.984375 42.703125 
Q 37.796875 48.390625 30.609375 48.390625 
z
M 30.609375 56 
Q 42.328125 56 49.015625 48.375 
Q 55.71875 40.765625 55.71875 27.296875 
Q 55.71875 13.875 49.015625 6.21875 
Q 42.328125 -1.421875 30.609375 -1.421875 
Q 18.84375 -1.421875 12.171875 6.21875 
Q 5.515625 13.875 5.515625 27.296875 
Q 5.515625 40.765625 12.171875 48.375 
Q 18.84375 56 30.609375 56 
z
" id="DejaVuSans-111"/>
      <path d="M 48.78125 52.59375 
L 48.78125 44.1875 
Q 44.96875 46.296875 41.140625 47.34375 
Q 37.3125 48.390625 33.40625 48.390625 
Q 24.65625 48.390625 19.8125 42.84375 
Q 14.984375 37.3125 14.984375 27.296875 
Q 14.984375 17.28125 19.8125 11.734375 
Q 24.65625 6.203125 33.40625 6.203125 
Q 37.3125 6.203125 41.140625 7.25 
Q 44.96875 8.296875 48.78125 10.40625 
L 48.78125 2.09375 
Q 45.015625 0.34375 40.984375 -0.53125 
Q 36.96875 -1.421875 32.421875 -1.421875 
Q 20.0625 -1.421875 12.78125 6.34375 
Q 5.515625 14.109375 5.515625 27.296875 
Q 5.515625 40.671875 12.859375 48.328125 
Q 20.21875 56 33.015625 56 
Q 37.15625 56 41.109375 55.140625 
Q 45.0625 54.296875 48.78125 52.59375 
z
" id="DejaVuSans-99"/>
      <path d="M 9.078125 75.984375 
L 18.109375 75.984375 
L 18.109375 31.109375 
L 44.921875 54.6875 
L 56.390625 54.6875 
L 27.390625 29.109375 
L 57.625 0 
L 45.90625 0 
L 18.109375 26.703125 
L 18.109375 0 
L 9.078125 0 
z
" id="DejaVuSans-107"/>
      <path d="M 19.671875 64.796875 
L 19.671875 37.40625 
L 32.078125 37.40625 
Q 38.96875 37.40625 42.71875 40.96875 
Q 46.484375 44.53125 46.484375 51.125 
Q 46.484375 57.671875 42.71875 61.234375 
Q 38.96875 64.796875 32.078125 64.796875 
z
M 9.8125 72.90625 
L 32.078125 72.90625 
Q 44.34375 72.90625 50.609375 67.359375 
Q 56.890625 61.8125 56.890625 51.125 
Q 56.890625 40.328125 50.609375 34.8125 
Q 44.34375 29.296875 32.078125 29.296875 
L 19.671875 29.296875 
L 19.671875 0 
L 9.8125 0 
z
" id="DejaVuSans-80"/>
      <path d="M 41.109375 46.296875 
Q 39.59375 47.171875 37.8125 47.578125 
Q 36.03125 48 33.890625 48 
Q 26.265625 48 22.1875 43.046875 
Q 18.109375 38.09375 18.109375 28.8125 
L 18.109375 0 
L 9.078125 0 
L 9.078125 54.6875 
L 18.109375 54.6875 
L 18.109375 46.1875 
Q 20.953125 51.171875 25.484375 53.578125 
Q 30.03125 56 36.53125 56 
Q 37.453125 56 38.578125 55.875 
Q 39.703125 55.765625 41.0625 55.515625 
z
" id="DejaVuSans-114"/>
     </defs>
     <g transform="translate(43.017187 242.631719)rotate(-90)scale(0.1 -0.1)">
      <use xlink:href="#DejaVuSans-83"/>
      <use x="63.476562" xlink:href="#DejaVuSans-116"/>
      <use x="102.685547" xlink:href="#DejaVuSans-111"/>
      <use x="163.867188" xlink:href="#DejaVuSans-99"/>
      <use x="218.847656" xlink:href="#DejaVuSans-107"/>
      <use x="276.757812" xlink:href="#DejaVuSans-32"/>
      <use x="308.544922" xlink:href="#DejaVuSans-80"/>
      <use x="368.832031" xlink:href="#DejaVuSans-114"/>
      <use x="409.945312" xlink:href="#DejaVuSans-105"/>
      <use x="437.728516" xlink:href="#DejaVuSans-99"/>
      <use x="492.708984" xlink:href="#DejaVuSans-101"/>
     </g>
    </g>
   </g>
   <g id="line2d_12">
    <path clip-path="url(#pc092bb995c)" d="M 92.290909 292.736549 
L 99.169183 287.987311 
L 106.047458 286.237499 
L 112.925732 283.271346 
L 119.804006 285.028466 
L 126.68228 273.720526 
L 133.560555 270.27269 
L 140.438829 272.884018 
L 147.317103 274.198615 
L 154.195378 284.528411 
L 161.073652 281.361156 
L 167.951926 272.894842 
L 174.8302 272.601382 
L 181.708475 262.346196 
L 188.586749 244.002804 
L 195.465023 257.044478 
L 202.343297 247.938369 
L 209.221572 251.785881 
L 216.099846 255.998585 
L 222.97812 257.497672 
L 229.856394 268.044378 
L 236.734669 259.181005 
L 243.612943 247.836255 
L 250.491217 244.285513 
L 257.369492 247.735451 
L 264.247766 227.843931 
L 271.12604 218.896206 
L 278.004314 224.577228 
L 284.882589 229.705644 
L 291.760863 222.575954 
L 298.639137 219.937422 
L 305.517411 219.682834 
L 312.395686 225.792144 
L 319.27396 223.35991 
L 326.152234 213.339023 
L 333.030508 223.632997 
L 339.908783 217.725699 
L 346.787057 213.736008 
L 353.665331 213.338817 
L 360.543606 217.660043 
L 367.42188 227.595981 
L 374.300154 230.613606 
L 381.178428 220.816017 
L 388.056703 224.822018 
L 394.934977 221.43154 
L 401.813251 223.407176 
L 408.691525 227.346953 
L 415.5698 224.540676 
L 422.448074 211.832077 
L 429.326348 199.222274 
L 436.204622 192.895227 
L 443.082897 200.264313 
L 449.961171 212.199275 
L 456.839445 212.89094 
L 463.71772 200.190215 
L 470.595994 207.75014 
L 477.474268 213.817804 
L 484.352542 222.384669 
L 491.230817 214.658469 
L 498.109091 208.8512 
" style="fill:none;stroke:#1f77b4;stroke-linecap:square;stroke-width:1.5;"/>
   </g>
   <g id="line2d_13">
    <path clip-path="url(#pc092bb995c)" d="M 92.290909 292.736549 
L 99.169183 300.261141 
L 106.047458 297.244796 
L 112.925732 292.908834 
L 119.804006 296.137322 
L 126.68228 304.771321 
L 133.560555 301.141353 
L 140.438829 293.204989 
L 147.317103 298.016781 
L 154.195378 296.505851 
L 161.073652 292.00706 
L 167.951926 286.942523 
L 174.8302 286.139437 
L 181.708475 292.459146 
L 188.586749 292.578489 
L 195.465023 297.307265 
L 202.343297 294.189913 
L 209.221572 290.415587 
L 216.099846 285.431488 
L 222.97812 287.270136 
L 229.856394 296.050927 
L 236.734669 288.983409 
L 243.612943 296.525033 
L 250.491217 293.404552 
L 257.369492 295.557344 
L 264.247766 292.356748 
L 271.12604 294.37049 
L 278.004314 294.027495 
L 284.882589 297.546035 
L 291.760863 287.500961 
L 298.639137 288.66848 
L 305.517411 288.052077 
L 312.395686 283.912229 
L 319.27396 282.020986 
L 326.152234 282.611712 
L 333.030508 288.69592 
L 339.908783 287.793487 
L 346.787057 290.042355 
L 353.665331 291.207002 
L 360.543606 291.248312 
L 367.42188 281.93722 
L 374.300154 289.288271 
L 381.178428 297.210675 
L 388.056703 298.977504 
L 394.934977 305.536471 
L 401.813251 300.477274 
L 408.691525 311.559261 
L 415.5698 313.758954 
L 422.448074 322.740797 
L 429.326348 319.899331 
L 436.204622 311.834782 
L 443.082897 309.948194 
L 449.961171 312.161145 
L 456.839445 307.617371 
L 463.71772 316.19211 
L 470.595994 311.932583 
L 477.474268 310.479567 
L 484.352542 308.108237 
L 491.230817 313.426818 
L 498.109091 303.75472 
" style="fill:none;stroke:#ff7f0e;stroke-linecap:square;stroke-width:1.5;"/>
   </g>
   <g id="line2d_14">
    <path clip-path="url(#pc092bb995c)" d="M 92.290909 292.736549 
L 99.169183 300.037197 
L 106.047458 297.344778 
L 112.925732 299.711868 
L 119.804006 298.816359 
L 126.68228 305.785066 
L 133.560555 306.756045 
L 140.438829 308.397843 
L 147.317103 306.61306 
L 154.195378 306.051333 
L 161.073652 306.688647 
L 167.951926 302.489284 
L 174.8302 300.944959 
L 181.708475 299.897534 
L 188.586749 301.622441 
L 195.465023 296.091596 
L 202.343297 294.420277 
L 209.221572 299.439628 
L 216.099846 303.104895 
L 222.97812 301.421479 
L 229.856394 301.099947 
L 236.734669 307.539275 
L 243.612943 307.423174 
L 250.491217 312.539745 
L 257.369492 320.301945 
L 264.247766 324.882219 
L 271.12604 314.259998 
L 278.004314 317.475196 
L 284.882589 323.73123 
L 291.760863 322.556182 
L 298.639137 317.875058 
L 305.517411 319.92807 
L 312.395686 324.141163 
L 319.27396 325.645344 
L 326.152234 322.426063 
L 333.030508 326.040173 
L 339.908783 324.5856 
L 346.787057 324.350345 
L 353.665331 331.749511 
L 360.543606 328.799794 
L 367.42188 328.898876 
L 374.300154 324.291858 
L 381.178428 320.83313 
L 388.056703 322.58366 
L 394.934977 317.686999 
L 401.813251 317.864225 
L 408.691525 313.651071 
L 415.5698 316.518206 
L 422.448074 321.458321 
L 429.326348 325.681031 
L 436.204622 321.49083 
L 443.082897 323.406534 
L 449.961171 320.552161 
L 456.839445 316.879133 
L 463.71772 317.997076 
L 470.595994 317.066531 
L 477.474268 312.349868 
L 484.352542 311.068989 
L 491.230817 310.403797 
L 498.109091 302.72953 
" style="fill:none;stroke:#2ca02c;stroke-linecap:square;stroke-width:1.5;"/>
   </g>
   <g id="line2d_15">
    <path clip-path="url(#pc092bb995c)" d="M 92.290909 292.736549 
L 99.169183 293.191681 
L 106.047458 291.544794 
L 112.925732 291.76241 
L 119.804006 294.761589 
L 126.68228 293.990928 
L 133.560555 278.854526 
L 140.438829 281.493536 
L 147.317103 288.716388 
L 154.195378 290.642704 
L 161.073652 290.799419 
L 167.951926 287.835033 
L 174.8302 289.431526 
L 181.708475 283.69676 
L 188.586749 294.029059 
L 195.465023 299.103253 
L 202.343297 294.431847 
L 209.221572 289.873323 
L 216.099846 297.70026 
L 222.97812 290.092979 
L 229.856394 298.990996 
L 236.734669 297.759301 
L 243.612943 287.732123 
L 250.491217 290.068637 
L 257.369492 278.241965 
L 264.247766 279.197241 
L 271.12604 284.134885 
L 278.004314 282.21784 
L 284.882589 284.275492 
L 291.760863 294.489028 
L 298.639137 288.85582 
L 305.517411 294.077559 
L 312.395686 287.975255 
L 319.27396 285.462991 
L 326.152234 284.319068 
L 333.030508 278.551727 
L 339.908783 272.293171 
L 346.787057 277.215567 
L 353.665331 278.241645 
L 360.543606 269.496898 
L 367.42188 266.994026 
L 374.300154 286.917948 
L 381.178428 286.404984 
L 388.056703 287.691939 
L 394.934977 287.909374 
L 401.813251 293.257573 
L 408.691525 285.539106 
L 415.5698 284.995217 
L 422.448074 287.293575 
L 429.326348 292.938557 
L 436.204622 289.140533 
L 443.082897 294.79625 
L 449.961171 295.441562 
L 456.839445 280.923131 
L 463.71772 282.21456 
L 470.595994 283.729139 
L 477.474268 283.475 
L 484.352542 285.203143 
L 491.230817 282.156732 
L 498.109091 268.990088 
" style="fill:none;stroke:#d62728;stroke-linecap:square;stroke-width:1.5;"/>
   </g>
   <g id="line2d_16">
    <path clip-path="url(#pc092bb995c)" d="M 92.290909 292.736549 
L 99.169183 295.58928 
L 106.047458 292.899363 
L 112.925732 285.212561 
L 119.804006 278.874365 
L 126.68228 278.749081 
L 133.560555 288.791284 
L 140.438829 295.985323 
L 147.317103 296.925941 
L 154.195378 299.887502 
L 161.073652 303.355249 
L 167.951926 303.519432 
L 174.8302 301.35871 
L 181.708475 309.02629 
L 188.586749 295.662569 
L 195.465023 293.689031 
L 202.343297 294.477474 
L 209.221572 295.006788 
L 216.099846 291.075908 
L 222.97812 295.737239 
L 229.856394 288.011394 
L 236.734669 286.983703 
L 243.612943 283.149747 
L 250.491217 278.069028 
L 257.369492 273.944191 
L 264.247766 274.396835 
L 271.12604 273.194592 
L 278.004314 274.853835 
L 284.882589 276.926319 
L 291.760863 281.342105 
L 298.639137 274.400888 
L 305.517411 272.430496 
L 312.395686 269.155191 
L 319.27396 267.690854 
L 326.152234 273.444805 
L 333.030508 281.54077 
L 339.908783 277.218076 
L 346.787057 277.383345 
L 353.665331 278.185779 
L 360.543606 275.728012 
L 367.42188 263.989689 
L 374.300154 272.737779 
L 381.178428 270.639246 
L 388.056703 271.129705 
L 394.934977 267.575583 
L 401.813251 267.689799 
L 408.691525 275.093688 
L 415.5698 272.56221 
L 422.448074 289.912093 
L 429.326348 291.162918 
L 436.204622 286.754757 
L 443.082897 292.166211 
L 449.961171 291.755227 
L 456.839445 298.627673 
L 463.71772 297.646732 
L 470.595994 297.232609 
L 477.474268 294.77185 
L 484.352542 291.943677 
L 491.230817 288.133861 
L 498.109091 284.495 
" style="fill:none;stroke:#9467bd;stroke-linecap:square;stroke-width:1.5;"/>
   </g>
   <g id="line2d_17">
    <path clip-path="url(#pc092bb995c)" d="M 92.290909 292.736549 
L 99.169183 293.427984 
L 106.047458 285.741277 
L 112.925732 290.184879 
L 119.804006 294.406709 
L 126.68228 300.936537 
L 133.560555 301.328886 
L 140.438829 301.452238 
L 147.317103 303.685657 
L 154.195378 303.47281 
L 161.073652 294.460767 
L 167.951926 290.315985 
L 174.8302 284.847034 
L 181.708475 287.451787 
L 188.586749 288.125342 
L 195.465023 284.219841 
L 202.343297 280.055266 
L 209.221572 284.030328 
L 216.099846 284.677018 
L 222.97812 283.929903 
L 229.856394 288.660143 
L 236.734669 278.90201 
L 243.612943 275.705115 
L 250.491217 286.917773 
L 257.369492 291.612745 
L 264.247766 288.73575 
L 271.12604 295.419324 
L 278.004314 286.586791 
L 284.882589 285.76119 
L 291.760863 287.191868 
L 298.639137 297.29686 
L 305.517411 297.216759 
L 312.395686 289.971099 
L 319.27396 287.468096 
L 326.152234 285.113738 
L 333.030508 289.888857 
L 339.908783 286.252755 
L 346.787057 284.53604 
L 353.665331 277.041952 
L 360.543606 283.363414 
L 367.42188 277.16617 
L 374.300154 267.157078 
L 381.178428 254.638172 
L 388.056703 258.833513 
L 394.934977 255.284641 
L 401.813251 252.450234 
L 408.691525 254.408457 
L 415.5698 247.194579 
L 422.448074 247.798848 
L 429.326348 253.157461 
L 436.204622 241.674516 
L 443.082897 242.934792 
L 449.961171 248.647059 
L 456.839445 242.665823 
L 463.71772 249.313528 
L 470.595994 247.3461 
L 477.474268 239.442709 
L 484.352542 233.08686 
L 491.230817 229.021073 
L 498.109091 224.442175 
" style="fill:none;stroke:#8c564b;stroke-linecap:square;stroke-width:1.5;"/>
   </g>
   <g id="line2d_18">
    <path clip-path="url(#pc092bb995c)" d="M 92.290909 292.736549 
L 99.169183 290.704757 
L 106.047458 294.853865 
L 112.925732 305.601013 
L 119.804006 308.046306 
L 126.68228 311.892016 
L 133.560555 305.021588 
L 140.438829 300.842758 
L 147.317103 295.618023 
L 154.195378 298.529357 
L 161.073652 297.248857 
L 167.951926 305.860781 
L 174.8302 303.211469 
L 181.708475 304.063272 
L 188.586749 303.46557 
L 195.465023 297.963368 
L 202.343297 287.078387 
L 209.221572 280.940959 
L 216.099846 281.79267 
L 222.97812 279.115544 
L 229.856394 274.015161 
L 236.734669 279.866149 
L 243.612943 269.625784 
L 250.491217 266.603483 
L 257.369492 253.641493 
L 264.247766 250.943854 
L 271.12604 246.298353 
L 278.004314 253.575175 
L 284.882589 249.712618 
L 291.760863 244.905552 
L 298.639137 243.450009 
L 305.517411 235.327259 
L 312.395686 228.385183 
L 319.27396 216.707732 
L 326.152234 218.151085 
L 333.030508 225.403525 
L 339.908783 225.686419 
L 346.787057 233.246977 
L 353.665331 224.648176 
L 360.543606 221.963954 
L 367.42188 207.778771 
L 374.300154 214.752724 
L 381.178428 225.394653 
L 388.056703 221.746395 
L 394.934977 213.116051 
L 401.813251 208.690061 
L 408.691525 225.473201 
L 415.5698 232.249577 
L 422.448074 234.367159 
L 429.326348 245.486131 
L 436.204622 240.980908 
L 443.082897 243.747287 
L 449.961171 241.042145 
L 456.839445 245.799081 
L 463.71772 239.003062 
L 470.595994 250.351178 
L 477.474268 253.614958 
L 484.352542 250.116604 
L 491.230817 253.161732 
L 498.109091 240.215842 
" style="fill:none;stroke:#e377c2;stroke-linecap:square;stroke-width:1.5;"/>
   </g>
   <g id="line2d_19">
    <path clip-path="url(#pc092bb995c)" d="M 92.290909 292.736549 
L 99.169183 292.837177 
L 106.047458 295.26139 
L 112.925732 296.93433 
L 119.804006 296.467004 
L 126.68228 293.420898 
L 133.560555 290.082608 
L 140.438829 277.790659 
L 147.317103 268.969604 
L 154.195378 261.525531 
L 161.073652 253.799117 
L 167.951926 253.034988 
L 174.8302 266.445111 
L 181.708475 264.936583 
L 188.586749 264.053986 
L 195.465023 265.460982 
L 202.343297 266.130442 
L 209.221572 259.402323 
L 216.099846 251.683025 
L 222.97812 239.471203 
L 229.856394 239.725186 
L 236.734669 245.305807 
L 243.612943 227.599162 
L 250.491217 232.013974 
L 257.369492 218.531248 
L 264.247766 225.848802 
L 271.12604 197.712005 
L 278.004314 183.974521 
L 284.882589 176.056002 
L 291.760863 176.793483 
L 298.639137 184.634854 
L 305.517411 162.236652 
L 312.395686 161.016142 
L 319.27396 162.673047 
L 326.152234 171.122559 
L 333.030508 167.439534 
L 339.908783 169.049213 
L 346.787057 146.433316 
L 353.665331 141.506955 
L 360.543606 135.050516 
L 367.42188 119.158854 
L 374.300154 114.405102 
L 381.178428 92.846687 
L 388.056703 89.729495 
L 394.934977 77.735957 
L 401.813251 85.624089 
L 408.691525 76.143992 
L 415.5698 78.058741 
L 422.448074 66.665455 
L 429.326348 81.727155 
L 436.204622 93.281524 
L 443.082897 89.151039 
L 449.961171 91.291465 
L 456.839445 103.952564 
L 463.71772 110.013027 
L 470.595994 110.995775 
L 477.474268 115.064405 
L 484.352542 133.770436 
L 491.230817 135.28267 
L 498.109091 151.691776 
" style="fill:none;stroke:#7f7f7f;stroke-linecap:square;stroke-width:1.5;"/>
   </g>
   <g id="line2d_20">
    <path clip-path="url(#pc092bb995c)" d="M 92.290909 292.736549 
L 99.169183 289.530446 
L 106.047458 282.421201 
L 112.925732 287.441668 
L 119.804006 276.051277 
L 126.68228 279.020304 
L 133.560555 277.886159 
L 140.438829 269.753085 
L 147.317103 262.469136 
L 154.195378 270.307705 
L 161.073652 272.450022 
L 167.951926 270.287629 
L 174.8302 266.916334 
L 181.708475 255.843365 
L 188.586749 253.890143 
L 195.465023 251.148072 
L 202.343297 243.950235 
L 209.221572 239.091653 
L 216.099846 243.668781 
L 222.97812 245.779852 
L 229.856394 241.605132 
L 236.734669 235.509247 
L 243.612943 238.260769 
L 250.491217 235.802303 
L 257.369492 216.530672 
L 264.247766 229.274738 
L 271.12604 223.685834 
L 278.004314 217.899274 
L 284.882589 224.675338 
L 291.760863 225.114107 
L 298.639137 227.504651 
L 305.517411 228.939021 
L 312.395686 219.618802 
L 319.27396 219.825047 
L 326.152234 208.773385 
L 333.030508 215.9637 
L 339.908783 217.463916 
L 346.787057 204.230894 
L 353.665331 212.161331 
L 360.543606 216.810505 
L 367.42188 225.030879 
L 374.300154 210.361025 
L 381.178428 201.340261 
L 388.056703 203.968092 
L 394.934977 200.831294 
L 401.813251 204.353349 
L 408.691525 206.254897 
L 415.5698 198.072005 
L 422.448074 181.765672 
L 429.326348 186.446454 
L 436.204622 199.035222 
L 443.082897 200.190019 
L 449.961171 199.024057 
L 456.839445 199.418507 
L 463.71772 200.202633 
L 470.595994 181.814096 
L 477.474268 182.528839 
L 484.352542 180.098296 
L 491.230817 162.001103 
L 498.109091 154.876773 
" style="fill:none;stroke:#bcbd22;stroke-linecap:square;stroke-width:1.5;"/>
   </g>
   <g id="line2d_21">
    <path clip-path="url(#pc092bb995c)" d="M 92.290909 292.736549 
L 99.169183 283.951564 
L 106.047458 291.104331 
L 112.925732 289.156708 
L 119.804006 284.578206 
L 126.68228 288.969423 
L 133.560555 298.319649 
L 140.438829 296.819512 
L 147.317103 294.400853 
L 154.195378 301.289236 
L 161.073652 301.358406 
L 167.951926 303.165089 
L 174.8302 304.83218 
L 181.708475 301.932814 
L 188.586749 294.108779 
L 195.465023 301.8983 
L 202.343297 307.607357 
L 209.221572 311.231303 
L 216.099846 314.39618 
L 222.97812 306.691661 
L 229.856394 310.436902 
L 236.734669 310.326876 
L 243.612943 309.930192 
L 250.491217 318.778154 
L 257.369492 323.771655 
L 264.247766 321.452867 
L 271.12604 312.207049 
L 278.004314 309.549751 
L 284.882589 312.403843 
L 291.760863 313.091442 
L 298.639137 318.504103 
L 305.517411 325.030287 
L 312.395686 316.243527 
L 319.27396 307.735616 
L 326.152234 308.964854 
L 333.030508 318.464401 
L 339.908783 318.787554 
L 346.787057 317.550108 
L 353.665331 315.590596 
L 360.543606 315.165766 
L 367.42188 318.97038 
L 374.300154 315.942206 
L 381.178428 319.921581 
L 388.056703 316.910015 
L 394.934977 316.609939 
L 401.813251 318.971203 
L 408.691525 317.936604 
L 415.5698 319.09317 
L 422.448074 318.891251 
L 429.326348 317.959856 
L 436.204622 310.706239 
L 443.082897 306.445519 
L 449.961171 306.148007 
L 456.839445 311.917085 
L 463.71772 315.939661 
L 470.595994 311.151733 
L 477.474268 314.993225 
L 484.352542 311.396248 
L 491.230817 307.045662 
L 498.109091 303.312417 
" style="fill:none;stroke:#17becf;stroke-linecap:square;stroke-width:1.5;"/>
   </g>
   <g id="line2d_22">
    <path clip-path="url(#pc092bb995c)" d="M 92.290909 292.736549 
L 99.169183 297.829425 
L 106.047458 293.08805 
L 112.925732 290.05179 
L 119.804006 287.075897 
L 126.68228 277.989995 
L 133.560555 276.120894 
L 140.438829 269.697164 
L 147.317103 275.655205 
L 154.195378 262.120658 
L 161.073652 263.355756 
L 167.951926 263.243163 
L 174.8302 266.105923 
L 181.708475 270.16698 
L 188.586749 260.414373 
L 195.465023 260.812713 
L 202.343297 250.32193 
L 209.221572 250.046074 
L 216.099846 249.44362 
L 222.97812 248.333661 
L 229.856394 241.884449 
L 236.734669 240.28015 
L 243.612943 242.343007 
L 250.491217 235.364398 
L 257.369492 223.271364 
L 264.247766 215.416632 
L 271.12604 205.816787 
L 278.004314 209.596671 
L 284.882589 213.45437 
L 291.760863 207.439426 
L 298.639137 211.883942 
L 305.517411 187.926032 
L 312.395686 177.954778 
L 319.27396 198.562813 
L 326.152234 197.744907 
L 333.030508 185.772757 
L 339.908783 197.844846 
L 346.787057 194.909112 
L 353.665331 187.921572 
L 360.543606 192.558511 
L 367.42188 197.986964 
L 374.300154 186.386611 
L 381.178428 188.010459 
L 388.056703 182.386685 
L 394.934977 191.976288 
L 401.813251 194.274947 
L 408.691525 193.606055 
L 415.5698 192.913675 
L 422.448074 194.169487 
L 429.326348 204.106976 
L 436.204622 197.553655 
L 443.082897 202.27643 
L 449.961171 205.553438 
L 456.839445 215.002481 
L 463.71772 199.171945 
L 470.595994 196.492752 
L 477.474268 184.896882 
L 484.352542 183.315994 
L 491.230817 174.184868 
L 498.109091 189.461183 
" style="fill:none;stroke:#1f77b4;stroke-linecap:square;stroke-width:1.5;"/>
   </g>
   <g id="line2d_23">
    <path clip-path="url(#pc092bb995c)" d="M 92.290909 292.736549 
L 99.169183 293.026095 
L 106.047458 301.874249 
L 112.925732 305.475212 
L 119.804006 308.027127 
L 126.68228 306.962149 
L 133.560555 309.462044 
L 140.438829 304.185141 
L 147.317103 297.782742 
L 154.195378 305.2154 
L 161.073652 307.461886 
L 167.951926 302.230357 
L 174.8302 307.619348 
L 181.708475 299.920591 
L 188.586749 296.16987 
L 195.465023 297.64032 
L 202.343297 297.664197 
L 209.221572 294.405137 
L 216.099846 296.553924 
L 222.97812 295.554513 
L 229.856394 298.394126 
L 236.734669 298.155376 
L 243.612943 296.760271 
L 250.491217 295.087417 
L 257.369492 295.850975 
L 264.247766 299.010741 
L 271.12604 302.285147 
L 278.004314 301.730616 
L 284.882589 305.057881 
L 291.760863 301.894394 
L 298.639137 303.580343 
L 305.517411 309.482285 
L 312.395686 311.696513 
L 319.27396 311.793843 
L 326.152234 307.437076 
L 333.030508 309.331644 
L 339.908783 306.931222 
L 346.787057 312.349719 
L 353.665331 311.154728 
L 360.543606 311.475767 
L 367.42188 307.624052 
L 374.300154 309.660184 
L 381.178428 310.835406 
L 388.056703 313.571151 
L 394.934977 312.768402 
L 401.813251 310.076837 
L 408.691525 307.636408 
L 415.5698 310.405699 
L 422.448074 309.259995 
L 429.326348 305.25481 
L 436.204622 298.507334 
L 443.082897 299.028434 
L 449.961171 299.321893 
L 456.839445 289.65824 
L 463.71772 284.719456 
L 470.595994 286.688596 
L 477.474268 289.876899 
L 484.352542 280.936407 
L 491.230817 280.89139 
L 498.109091 290.476118 
" style="fill:none;stroke:#ff7f0e;stroke-linecap:square;stroke-width:1.5;"/>
   </g>
   <g id="line2d_24">
    <path clip-path="url(#pc092bb995c)" d="M 92.290909 292.736549 
L 99.169183 290.958751 
L 106.047458 293.326357 
L 112.925732 294.954926 
L 119.804006 289.161304 
L 126.68228 287.303817 
L 133.560555 286.230229 
L 140.438829 284.169232 
L 147.317103 281.115933 
L 154.195378 287.687338 
L 161.073652 277.538941 
L 167.951926 278.460739 
L 174.8302 283.053585 
L 181.708475 281.127343 
L 188.586749 272.025961 
L 195.465023 276.458596 
L 202.343297 271.915598 
L 209.221572 274.188244 
L 216.099846 276.197927 
L 222.97812 284.254883 
L 229.856394 287.760054 
L 236.734669 297.916581 
L 243.612943 299.91597 
L 250.491217 300.488128 
L 257.369492 299.371999 
L 264.247766 299.689264 
L 271.12604 309.332765 
L 278.004314 310.610128 
L 284.882589 309.552251 
L 291.760863 308.791367 
L 298.639137 313.552147 
L 305.517411 318.86906 
L 312.395686 322.255292 
L 319.27396 324.904652 
L 326.152234 323.999325 
L 333.030508 322.912588 
L 339.908783 319.890682 
L 346.787057 324.627286 
L 353.665331 318.187824 
L 360.543606 312.258562 
L 367.42188 308.636778 
L 374.300154 305.682925 
L 381.178428 304.119479 
L 388.056703 300.17287 
L 394.934977 296.105341 
L 401.813251 301.462732 
L 408.691525 305.405968 
L 415.5698 310.847643 
L 422.448074 305.783726 
L 429.326348 297.893352 
L 436.204622 296.174225 
L 443.082897 296.658813 
L 449.961171 300.706953 
L 456.839445 293.40224 
L 463.71772 301.153962 
L 470.595994 293.756368 
L 477.474268 301.070617 
L 484.352542 301.932761 
L 491.230817 305.841997 
L 498.109091 299.731736 
" style="fill:none;stroke:#2ca02c;stroke-linecap:square;stroke-width:1.5;"/>
   </g>
   <g id="line2d_25">
    <path clip-path="url(#pc092bb995c)" d="M 92.290909 292.736549 
L 99.169183 293.772583 
L 106.047458 289.575527 
L 112.925732 294.487366 
L 119.804006 282.562889 
L 126.68228 277.269527 
L 133.560555 271.02784 
L 140.438829 272.178698 
L 147.317103 276.016222 
L 154.195378 273.303424 
L 161.073652 263.885851 
L 167.951926 258.334583 
L 174.8302 250.71875 
L 181.708475 253.827739 
L 188.586749 251.16336 
L 195.465023 252.814034 
L 202.343297 258.419696 
L 209.221572 258.686218 
L 216.099846 249.218508 
L 222.97812 252.156929 
L 229.856394 243.321954 
L 236.734669 254.833292 
L 243.612943 261.629822 
L 250.491217 261.254967 
L 257.369492 258.486388 
L 264.247766 259.457456 
L 271.12604 248.583177 
L 278.004314 252.723581 
L 284.882589 249.114246 
L 291.760863 240.252495 
L 298.639137 237.051964 
L 305.517411 239.537294 
L 312.395686 246.89409 
L 319.27396 248.291121 
L 326.152234 253.227595 
L 333.030508 250.159334 
L 339.908783 243.418058 
L 346.787057 241.481611 
L 353.665331 239.002832 
L 360.543606 237.243154 
L 367.42188 249.153273 
L 374.300154 247.612857 
L 381.178428 242.863224 
L 388.056703 226.29132 
L 394.934977 240.076122 
L 401.813251 242.700365 
L 408.691525 245.588723 
L 415.5698 251.442764 
L 422.448074 237.964542 
L 429.326348 227.972639 
L 436.204622 223.61574 
L 443.082897 232.898231 
L 449.961171 231.754947 
L 456.839445 216.563605 
L 463.71772 202.085066 
L 470.595994 202.509364 
L 477.474268 194.722056 
L 484.352542 182.633003 
L 491.230817 190.365336 
L 498.109091 198.371276 
" style="fill:none;stroke:#d62728;stroke-linecap:square;stroke-width:1.5;"/>
   </g>
   <g id="line2d_26">
    <path clip-path="url(#pc092bb995c)" d="M 92.290909 292.736549 
L 99.169183 286.895443 
L 106.047458 287.954368 
L 112.925732 292.621636 
L 119.804006 284.326666 
L 126.68228 282.481018 
L 133.560555 282.53021 
L 140.438829 267.013496 
L 147.317103 271.451965 
L 154.195378 268.688089 
L 161.073652 275.962063 
L 167.951926 272.407185 
L 174.8302 280.320006 
L 181.708475 269.221992 
L 188.586749 275.965231 
L 195.465023 276.647647 
L 202.343297 289.70684 
L 209.221572 278.074438 
L 216.099846 288.61982 
L 222.97812 283.482318 
L 229.856394 288.229066 
L 236.734669 283.790519 
L 243.612943 288.331397 
L 250.491217 284.319281 
L 257.369492 281.985993 
L 264.247766 280.759672 
L 271.12604 277.207196 
L 278.004314 276.344518 
L 284.882589 275.385252 
L 291.760863 281.663362 
L 298.639137 283.593799 
L 305.517411 280.783534 
L 312.395686 289.920107 
L 319.27396 285.840382 
L 326.152234 296.491942 
L 333.030508 290.15847 
L 339.908783 284.348531 
L 346.787057 288.563549 
L 353.665331 289.096197 
L 360.543606 296.609836 
L 367.42188 305.108121 
L 374.300154 315.058005 
L 381.178428 320.62363 
L 388.056703 313.902394 
L 394.934977 315.16814 
L 401.813251 312.139476 
L 408.691525 309.671893 
L 415.5698 315.064049 
L 422.448074 309.882858 
L 429.326348 302.424556 
L 436.204622 295.844414 
L 443.082897 302.69886 
L 449.961171 308.885568 
L 456.839445 308.428262 
L 463.71772 301.677397 
L 470.595994 305.354756 
L 477.474268 314.912593 
L 484.352542 314.501547 
L 491.230817 320.159464 
L 498.109091 310.149424 
" style="fill:none;stroke:#9467bd;stroke-linecap:square;stroke-width:1.5;"/>
   </g>
   <g id="line2d_27">
    <path clip-path="url(#pc092bb995c)" d="M 92.290909 292.736549 
L 99.169183 305.033188 
L 106.047458 305.838953 
L 112.925732 304.651817 
L 119.804006 299.464732 
L 126.68228 293.709392 
L 133.560555 295.159129 
L 140.438829 287.456745 
L 147.317103 288.716234 
L 154.195378 284.53019 
L 161.073652 284.194925 
L 167.951926 290.629406 
L 174.8302 287.516263 
L 181.708475 285.89198 
L 188.586749 283.694863 
L 195.465023 285.732201 
L 202.343297 291.944798 
L 209.221572 291.425086 
L 216.099846 290.14306 
L 222.97812 297.963843 
L 229.856394 299.332164 
L 236.734669 298.013027 
L 243.612943 301.566098 
L 250.491217 299.710268 
L 257.369492 302.921344 
L 264.247766 298.674302 
L 271.12604 299.791344 
L 278.004314 303.012154 
L 284.882589 306.800727 
L 291.760863 305.434789 
L 298.639137 298.754487 
L 305.517411 301.934537 
L 312.395686 294.109548 
L 319.27396 307.293705 
L 326.152234 308.942738 
L 333.030508 305.627009 
L 339.908783 310.254293 
L 346.787057 313.070511 
L 353.665331 314.334537 
L 360.543606 317.896304 
L 367.42188 313.141494 
L 374.300154 317.010602 
L 381.178428 316.85708 
L 388.056703 315.061056 
L 394.934977 306.105962 
L 401.813251 306.359662 
L 408.691525 306.697471 
L 415.5698 303.867104 
L 422.448074 298.302637 
L 429.326348 297.498357 
L 436.204622 303.81162 
L 443.082897 302.147355 
L 449.961171 295.381289 
L 456.839445 288.775027 
L 463.71772 281.258204 
L 470.595994 281.665608 
L 477.474268 284.24768 
L 484.352542 269.730527 
L 491.230817 265.125248 
L 498.109091 276.257897 
" style="fill:none;stroke:#8c564b;stroke-linecap:square;stroke-width:1.5;"/>
   </g>
   <g id="line2d_28">
    <path clip-path="url(#pc092bb995c)" d="M 92.290909 292.736549 
L 99.169183 281.101113 
L 106.047458 276.893138 
L 112.925732 272.882177 
L 119.804006 267.974274 
L 126.68228 265.477424 
L 133.560555 259.112845 
L 140.438829 266.771192 
L 147.317103 262.762083 
L 154.195378 260.871803 
L 161.073652 258.264108 
L 167.951926 246.331037 
L 174.8302 243.594608 
L 181.708475 254.208412 
L 188.586749 266.50007 
L 195.465023 282.702891 
L 202.343297 284.399704 
L 209.221572 281.933551 
L 216.099846 285.73861 
L 222.97812 281.217518 
L 229.856394 270.507306 
L 236.734669 269.834648 
L 243.612943 275.112469 
L 250.491217 280.090909 
L 257.369492 288.61547 
L 264.247766 292.248525 
L 271.12604 299.484789 
L 278.004314 294.475892 
L 284.882589 296.435841 
L 291.760863 299.852751 
L 298.639137 291.226245 
L 305.517411 281.051706 
L 312.395686 275.441515 
L 319.27396 275.492936 
L 326.152234 281.316 
L 333.030508 286.816082 
L 339.908783 291.731447 
L 346.787057 288.257441 
L 353.665331 287.322253 
L 360.543606 286.084021 
L 367.42188 288.830438 
L 374.300154 291.477596 
L 381.178428 290.478981 
L 388.056703 298.120016 
L 394.934977 304.17208 
L 401.813251 298.422231 
L 408.691525 295.392336 
L 415.5698 296.55572 
L 422.448074 288.244586 
L 429.326348 285.597984 
L 436.204622 278.53323 
L 443.082897 279.208633 
L 449.961171 286.679017 
L 456.839445 286.133986 
L 463.71772 286.352492 
L 470.595994 285.053521 
L 477.474268 283.120132 
L 484.352542 283.467431 
L 491.230817 284.283592 
L 498.109091 277.223307 
" style="fill:none;stroke:#e377c2;stroke-linecap:square;stroke-width:1.5;"/>
   </g>
   <g id="line2d_29">
    <path clip-path="url(#pc092bb995c)" d="M 92.290909 292.736549 
L 99.169183 298.703523 
L 106.047458 307.663397 
L 112.925732 306.686356 
L 119.804006 309.817339 
L 126.68228 300.479077 
L 133.560555 300.704351 
L 140.438829 306.894667 
L 147.317103 305.100078 
L 154.195378 306.199301 
L 161.073652 303.306096 
L 167.951926 310.159469 
L 174.8302 305.91432 
L 181.708475 296.462565 
L 188.586749 297.412226 
L 195.465023 285.725835 
L 202.343297 291.037723 
L 209.221572 295.537009 
L 216.099846 294.058833 
L 222.97812 297.344364 
L 229.856394 302.765497 
L 236.734669 306.370046 
L 243.612943 292.360394 
L 250.491217 287.347288 
L 257.369492 278.357223 
L 264.247766 270.898792 
L 271.12604 265.987689 
L 278.004314 260.229394 
L 284.882589 256.242241 
L 291.760863 246.562697 
L 298.639137 248.062363 
L 305.517411 248.568755 
L 312.395686 265.387306 
L 319.27396 266.452306 
L 326.152234 260.451305 
L 333.030508 255.480785 
L 339.908783 252.72244 
L 346.787057 264.172717 
L 353.665331 258.858952 
L 360.543606 259.627275 
L 367.42188 261.525811 
L 374.300154 268.22678 
L 381.178428 259.184255 
L 388.056703 253.120718 
L 394.934977 253.873162 
L 401.813251 240.069888 
L 408.691525 241.122906 
L 415.5698 242.673936 
L 422.448074 246.305451 
L 429.326348 238.920662 
L 436.204622 228.923034 
L 443.082897 239.586565 
L 449.961171 228.891087 
L 456.839445 217.133332 
L 463.71772 215.639752 
L 470.595994 216.802152 
L 477.474268 216.775712 
L 484.352542 213.781919 
L 491.230817 210.916956 
L 498.109091 220.352825 
" style="fill:none;stroke:#7f7f7f;stroke-linecap:square;stroke-width:1.5;"/>
   </g>
   <g id="line2d_30">
    <path clip-path="url(#pc092bb995c)" d="M 92.290909 292.736549 
L 99.169183 291.487062 
L 106.047458 291.135122 
L 112.925732 285.686454 
L 119.804006 283.03542 
L 126.68228 285.752583 
L 133.560555 289.786052 
L 140.438829 286.263395 
L 147.317103 296.148846 
L 154.195378 298.680593 
L 161.073652 292.735326 
L 167.951926 281.116788 
L 174.8302 290.064105 
L 181.708475 280.165788 
L 188.586749 277.448514 
L 195.465023 273.096704 
L 202.343297 268.704863 
L 209.221572 269.100417 
L 216.099846 265.921653 
L 222.97812 265.914103 
L 229.856394 274.641498 
L 236.734669 271.514618 
L 243.612943 271.209498 
L 250.491217 277.756111 
L 257.369492 279.041302 
L 264.247766 287.764307 
L 271.12604 279.45246 
L 278.004314 283.30758 
L 284.882589 281.185167 
L 291.760863 286.669319 
L 298.639137 288.544334 
L 305.517411 278.918038 
L 312.395686 276.782541 
L 319.27396 277.074317 
L 326.152234 279.471948 
L 333.030508 278.594939 
L 339.908783 279.566291 
L 346.787057 270.425888 
L 353.665331 265.23593 
L 360.543606 262.117232 
L 367.42188 265.361887 
L 374.300154 277.298774 
L 381.178428 260.342801 
L 388.056703 263.248239 
L 394.934977 261.606312 
L 401.813251 259.405601 
L 408.691525 257.712045 
L 415.5698 268.511662 
L 422.448074 274.21557 
L 429.326348 280.907037 
L 436.204622 280.84722 
L 443.082897 279.781105 
L 449.961171 269.771463 
L 456.839445 274.106923 
L 463.71772 279.774891 
L 470.595994 272.236319 
L 477.474268 274.4907 
L 484.352542 275.833816 
L 491.230817 277.955295 
L 498.109091 265.287558 
" style="fill:none;stroke:#bcbd22;stroke-linecap:square;stroke-width:1.5;"/>
   </g>
   <g id="line2d_31">
    <path clip-path="url(#pc092bb995c)" d="M 92.290909 292.736549 
L 99.169183 288.753645 
L 106.047458 286.423991 
L 112.925732 280.559098 
L 119.804006 276.283218 
L 126.68228 273.772171 
L 133.560555 279.932535 
L 140.438829 286.156467 
L 147.317103 291.166543 
L 154.195378 294.858238 
L 161.073652 297.021131 
L 167.951926 303.889207 
L 174.8302 304.594187 
L 181.708475 302.759201 
L 188.586749 305.34463 
L 195.465023 306.028228 
L 202.343297 305.637624 
L 209.221572 308.094899 
L 216.099846 305.643058 
L 222.97812 307.433986 
L 229.856394 308.758458 
L 236.734669 312.212564 
L 243.612943 316.206639 
L 250.491217 316.036771 
L 257.369492 315.234959 
L 264.247766 321.365427 
L 271.12604 312.005674 
L 278.004314 310.345065 
L 284.882589 309.951101 
L 291.760863 313.587722 
L 298.639137 312.13825 
L 305.517411 314.527551 
L 312.395686 312.298265 
L 319.27396 317.598233 
L 326.152234 326.377799 
L 333.030508 327.346786 
L 339.908783 328.827913 
L 346.787057 327.184644 
L 353.665331 321.148765 
L 360.543606 315.860145 
L 367.42188 318.543898 
L 374.300154 319.803312 
L 381.178428 318.027689 
L 388.056703 324.211232 
L 394.934977 322.400923 
L 401.813251 325.661506 
L 408.691525 320.236814 
L 415.5698 322.814449 
L 422.448074 323.266287 
L 429.326348 320.48608 
L 436.204622 318.849884 
L 443.082897 315.550793 
L 449.961171 326.377547 
L 456.839445 329.705204 
L 463.71772 329.245381 
L 470.595994 328.715732 
L 477.474268 331.371573 
L 484.352542 333.651993 
L 491.230817 335.582179 
L 498.109091 334.336608 
" style="fill:none;stroke:#17becf;stroke-linecap:square;stroke-width:1.5;"/>
   </g>
   <g id="line2d_32">
    <path clip-path="url(#pc092bb995c)" d="M 92.290909 292.736549 
L 99.169183 296.841729 
L 106.047458 298.051416 
L 112.925732 298.340334 
L 119.804006 299.679753 
L 126.68228 299.471641 
L 133.560555 294.149984 
L 140.438829 297.30064 
L 147.317103 301.068297 
L 154.195378 293.742681 
L 161.073652 289.508247 
L 167.951926 289.010535 
L 174.8302 292.467461 
L 181.708475 290.528236 
L 188.586749 288.788049 
L 195.465023 280.707004 
L 202.343297 284.465976 
L 209.221572 285.767164 
L 216.099846 282.696293 
L 222.97812 277.266899 
L 229.856394 266.844469 
L 236.734669 269.011894 
L 243.612943 269.496529 
L 250.491217 258.89082 
L 257.369492 248.078822 
L 264.247766 234.857254 
L 271.12604 230.040503 
L 278.004314 237.883348 
L 284.882589 242.509899 
L 291.760863 244.867211 
L 298.639137 246.427173 
L 305.517411 253.956638 
L 312.395686 252.362001 
L 319.27396 277.945073 
L 326.152234 269.036555 
L 333.030508 267.161511 
L 339.908783 261.93528 
L 346.787057 249.616788 
L 353.665331 248.217884 
L 360.543606 243.65475 
L 367.42188 242.721075 
L 374.300154 243.493825 
L 381.178428 246.952104 
L 388.056703 245.243504 
L 394.934977 254.630206 
L 401.813251 248.169008 
L 408.691525 249.097096 
L 415.5698 246.450562 
L 422.448074 245.728537 
L 429.326348 247.034306 
L 436.204622 241.990445 
L 443.082897 240.590168 
L 449.961171 256.421132 
L 456.839445 252.840022 
L 463.71772 246.13419 
L 470.595994 238.85806 
L 477.474268 224.113392 
L 484.352542 226.779946 
L 491.230817 223.159981 
L 498.109091 210.043579 
" style="fill:none;stroke:#1f77b4;stroke-linecap:square;stroke-width:1.5;"/>
   </g>
   <g id="line2d_33">
    <path clip-path="url(#pc092bb995c)" d="M 92.290909 292.736549 
L 99.169183 290.106864 
L 106.047458 293.395815 
L 112.925732 296.24589 
L 119.804006 285.549586 
L 126.68228 289.194321 
L 133.560555 283.643779 
L 140.438829 282.948188 
L 147.317103 283.481198 
L 154.195378 285.044569 
L 161.073652 284.887219 
L 167.951926 281.197662 
L 174.8302 285.280812 
L 181.708475 278.94908 
L 188.586749 265.698824 
L 195.465023 265.132973 
L 202.343297 266.92367 
L 209.221572 259.36742 
L 216.099846 266.930934 
L 222.97812 259.187506 
L 229.856394 261.654193 
L 236.734669 261.354375 
L 243.612943 270.557089 
L 250.491217 264.675467 
L 257.369492 268.503112 
L 264.247766 272.308843 
L 271.12604 279.041185 
L 278.004314 284.227312 
L 284.882589 289.313855 
L 291.760863 283.992355 
L 298.639137 287.692685 
L 305.517411 286.148334 
L 312.395686 284.827206 
L 319.27396 278.973152 
L 326.152234 287.520631 
L 333.030508 288.779256 
L 339.908783 278.91709 
L 346.787057 284.35425 
L 353.665331 283.635336 
L 360.543606 279.706587 
L 367.42188 276.07139 
L 374.300154 270.73488 
L 381.178428 271.2864 
L 388.056703 273.49984 
L 394.934977 271.848033 
L 401.813251 272.833292 
L 408.691525 268.797753 
L 415.5698 249.133831 
L 422.448074 241.348758 
L 429.326348 238.605564 
L 436.204622 236.534629 
L 443.082897 247.823296 
L 449.961171 251.807972 
L 456.839445 247.407808 
L 463.71772 246.062241 
L 470.595994 255.610269 
L 477.474268 266.000238 
L 484.352542 268.267896 
L 491.230817 267.01351 
L 498.109091 269.514053 
" style="fill:none;stroke:#ff7f0e;stroke-linecap:square;stroke-width:1.5;"/>
   </g>
   <g id="line2d_34">
    <path clip-path="url(#pc092bb995c)" d="M 92.290909 292.736549 
L 99.169183 288.756405 
L 106.047458 292.435743 
L 112.925732 297.352338 
L 119.804006 295.091556 
L 126.68228 296.688917 
L 133.560555 292.783038 
L 140.438829 300.257688 
L 147.317103 298.759064 
L 154.195378 296.055882 
L 161.073652 294.771879 
L 167.951926 286.453402 
L 174.8302 276.281897 
L 181.708475 268.602617 
L 188.586749 279.983094 
L 195.465023 277.995291 
L 202.343297 279.222129 
L 209.221572 279.33379 
L 216.099846 279.921721 
L 222.97812 269.033931 
L 229.856394 268.750785 
L 236.734669 272.527369 
L 243.612943 274.174309 
L 250.491217 275.114579 
L 257.369492 279.649661 
L 264.247766 283.640975 
L 271.12604 284.493906 
L 278.004314 269.955893 
L 284.882589 255.199714 
L 291.760863 257.305803 
L 298.639137 250.690836 
L 305.517411 262.822884 
L 312.395686 248.850126 
L 319.27396 245.644323 
L 326.152234 249.546942 
L 333.030508 259.796248 
L 339.908783 255.086122 
L 346.787057 257.660527 
L 353.665331 263.144768 
L 360.543606 270.142307 
L 367.42188 270.210249 
L 374.300154 275.945736 
L 381.178428 274.414607 
L 388.056703 280.256452 
L 394.934977 276.032448 
L 401.813251 268.006771 
L 408.691525 268.170162 
L 415.5698 268.555337 
L 422.448074 273.487799 
L 429.326348 273.082476 
L 436.204622 262.9257 
L 443.082897 273.938022 
L 449.961171 269.552984 
L 456.839445 280.33262 
L 463.71772 280.096222 
L 470.595994 285.861758 
L 477.474268 279.032588 
L 484.352542 286.335376 
L 491.230817 289.230342 
L 498.109091 279.667766 
" style="fill:none;stroke:#2ca02c;stroke-linecap:square;stroke-width:1.5;"/>
   </g>
   <g id="line2d_35">
    <path clip-path="url(#pc092bb995c)" d="M 92.290909 292.736549 
L 99.169183 289.765547 
L 106.047458 287.219522 
L 112.925732 293.970904 
L 119.804006 288.990664 
L 126.68228 292.879313 
L 133.560555 292.060812 
L 140.438829 290.810972 
L 147.317103 289.400174 
L 154.195378 277.93677 
L 161.073652 284.567756 
L 167.951926 283.181171 
L 174.8302 275.357946 
L 181.708475 290.451274 
L 188.586749 293.155842 
L 195.465023 290.57817 
L 202.343297 289.371937 
L 209.221572 294.525901 
L 216.099846 287.460734 
L 222.97812 291.301648 
L 229.856394 296.178927 
L 236.734669 295.837968 
L 243.612943 291.10898 
L 250.491217 295.025414 
L 257.369492 295.309166 
L 264.247766 298.1075 
L 271.12604 295.353954 
L 278.004314 304.778035 
L 284.882589 304.94264 
L 291.760863 300.242559 
L 298.639137 293.911839 
L 305.517411 290.815461 
L 312.395686 278.754399 
L 319.27396 267.641281 
L 326.152234 270.06877 
L 333.030508 263.242334 
L 339.908783 260.533083 
L 346.787057 254.640016 
L 353.665331 249.679412 
L 360.543606 249.887961 
L 367.42188 266.861928 
L 374.300154 255.999485 
L 381.178428 261.875761 
L 388.056703 270.603401 
L 394.934977 259.465089 
L 401.813251 265.576759 
L 408.691525 260.14666 
L 415.5698 266.731491 
L 422.448074 274.025909 
L 429.326348 264.41447 
L 436.204622 255.184732 
L 443.082897 239.88236 
L 449.961171 230.01311 
L 456.839445 224.51952 
L 463.71772 215.89607 
L 470.595994 215.165457 
L 477.474268 213.797527 
L 484.352542 227.067874 
L 491.230817 227.486349 
L 498.109091 241.420416 
" style="fill:none;stroke:#d62728;stroke-linecap:square;stroke-width:1.5;"/>
   </g>
   <g id="line2d_36">
    <path clip-path="url(#pc092bb995c)" d="M 92.290909 292.736549 
L 99.169183 297.579182 
L 106.047458 306.065389 
L 112.925732 305.302923 
L 119.804006 304.108206 
L 126.68228 303.14478 
L 133.560555 307.010436 
L 140.438829 311.161692 
L 147.317103 312.279646 
L 154.195378 313.469697 
L 161.073652 317.615117 
L 167.951926 323.98166 
L 174.8302 325.736791 
L 181.708475 328.479742 
L 188.586749 330.63641 
L 195.465023 333.50202 
L 202.343297 336.473828 
L 209.221572 338.600882 
L 216.099846 341.667961 
L 222.97812 345.735769 
L 229.856394 349.969507 
L 236.734669 349.251434 
L 243.612943 346.20149 
L 250.491217 341.694126 
L 257.369492 342.112284 
L 264.247766 339.703844 
L 271.12604 339.743084 
L 278.004314 341.807029 
L 284.882589 336.463688 
L 291.760863 339.491404 
L 298.639137 339.805141 
L 305.517411 334.822734 
L 312.395686 338.814759 
L 319.27396 337.078899 
L 326.152234 337.954285 
L 333.030508 335.259724 
L 339.908783 339.038224 
L 346.787057 341.552408 
L 353.665331 341.207288 
L 360.543606 340.110912 
L 367.42188 343.75283 
L 374.300154 345.971074 
L 381.178428 346.304374 
L 388.056703 350.889909 
L 394.934977 356.46812 
L 401.813251 356.768624 
L 408.691525 361.333007 
L 415.5698 362.342193 
L 422.448074 363.174545 
L 429.326348 361.998016 
L 436.204622 360.46423 
L 443.082897 358.477192 
L 449.961171 361.071002 
L 456.839445 357.095569 
L 463.71772 353.702748 
L 470.595994 354.319498 
L 477.474268 356.192775 
L 484.352542 356.727153 
L 491.230817 353.821484 
L 498.109091 347.585449 
" style="fill:none;stroke:#9467bd;stroke-linecap:square;stroke-width:1.5;"/>
   </g>
   <g id="line2d_37">
    <path clip-path="url(#pc092bb995c)" d="M 92.290909 292.736549 
L 99.169183 281.236252 
L 106.047458 278.777038 
L 112.925732 280.016298 
L 119.804006 291.821435 
L 126.68228 286.225153 
L 133.560555 288.070089 
L 140.438829 297.343132 
L 147.317103 298.878791 
L 154.195378 298.600806 
L 161.073652 299.169588 
L 167.951926 294.874978 
L 174.8302 292.662076 
L 181.708475 288.116717 
L 188.586749 281.887909 
L 195.465023 282.176161 
L 202.343297 265.553622 
L 209.221572 263.652022 
L 216.099846 262.252294 
L 222.97812 266.39744 
L 229.856394 260.488707 
L 236.734669 261.929093 
L 243.612943 263.29592 
L 250.491217 262.769701 
L 257.369492 261.347079 
L 264.247766 267.193016 
L 271.12604 270.358616 
L 278.004314 274.623859 
L 284.882589 269.472646 
L 291.760863 256.333738 
L 298.639137 258.712915 
L 305.517411 249.175811 
L 312.395686 255.26138 
L 319.27396 256.345689 
L 326.152234 248.791515 
L 333.030508 256.49586 
L 339.908783 263.979158 
L 346.787057 249.616735 
L 353.665331 242.951831 
L 360.543606 249.205087 
L 367.42188 251.044407 
L 374.300154 245.977115 
L 381.178428 251.450374 
L 388.056703 249.041716 
L 394.934977 252.084626 
L 401.813251 242.279665 
L 408.691525 246.534084 
L 415.5698 252.479609 
L 422.448074 243.007348 
L 429.326348 226.89023 
L 436.204622 232.342743 
L 443.082897 212.924009 
L 449.961171 203.790123 
L 456.839445 214.750562 
L 463.71772 212.407979 
L 470.595994 208.64326 
L 477.474268 212.80983 
L 484.352542 222.444797 
L 491.230817 223.300868 
L 498.109091 227.52528 
" style="fill:none;stroke:#8c564b;stroke-linecap:square;stroke-width:1.5;"/>
   </g>
   <g id="line2d_38">
    <path clip-path="url(#pc092bb995c)" d="M 92.290909 292.736549 
L 99.169183 291.404298 
L 106.047458 293.917307 
L 112.925732 281.843465 
L 119.804006 284.017093 
L 126.68228 283.781539 
L 133.560555 272.082248 
L 140.438829 260.156816 
L 147.317103 256.933264 
L 154.195378 253.662489 
L 161.073652 253.334317 
L 167.951926 256.22321 
L 174.8302 253.08208 
L 181.708475 244.19104 
L 188.586749 243.926238 
L 195.465023 254.208826 
L 202.343297 256.446968 
L 209.221572 252.861615 
L 216.099846 245.390255 
L 222.97812 239.921963 
L 229.856394 241.366427 
L 236.734669 246.07886 
L 243.612943 243.778029 
L 250.491217 244.132414 
L 257.369492 244.031789 
L 264.247766 234.510922 
L 271.12604 234.385929 
L 278.004314 235.723899 
L 284.882589 239.860223 
L 291.760863 232.457555 
L 298.639137 227.660123 
L 305.517411 244.469776 
L 312.395686 250.430328 
L 319.27396 244.760939 
L 326.152234 249.94539 
L 333.030508 240.74004 
L 339.908783 251.040878 
L 346.787057 250.594559 
L 353.665331 252.399061 
L 360.543606 269.774429 
L 367.42188 273.371873 
L 374.300154 266.045384 
L 381.178428 263.776001 
L 388.056703 266.343106 
L 394.934977 271.919102 
L 401.813251 267.922892 
L 408.691525 265.381271 
L 415.5698 259.587226 
L 422.448074 253.672147 
L 429.326348 252.577761 
L 436.204622 258.943299 
L 443.082897 265.41697 
L 449.961171 271.270476 
L 456.839445 278.74312 
L 463.71772 278.823664 
L 470.595994 280.347924 
L 477.474268 286.10104 
L 484.352542 287.307136 
L 491.230817 297.312032 
L 498.109091 301.079358 
" style="fill:none;stroke:#e377c2;stroke-linecap:square;stroke-width:1.5;"/>
   </g>
   <g id="line2d_39">
    <path clip-path="url(#pc092bb995c)" d="M 92.290909 292.736549 
L 99.169183 298.755373 
L 106.047458 300.204393 
L 112.925732 299.491168 
L 119.804006 299.850874 
L 126.68228 296.890944 
L 133.560555 295.97961 
L 140.438829 302.644538 
L 147.317103 302.857076 
L 154.195378 309.603141 
L 161.073652 299.167352 
L 167.951926 293.168615 
L 174.8302 293.779177 
L 181.708475 294.372355 
L 188.586749 294.158916 
L 195.465023 294.816455 
L 202.343297 295.501051 
L 209.221572 292.251177 
L 216.099846 292.689084 
L 222.97812 287.71142 
L 229.856394 299.015228 
L 236.734669 293.814075 
L 243.612943 284.985929 
L 250.491217 290.162697 
L 257.369492 285.753694 
L 264.247766 282.520276 
L 271.12604 286.825786 
L 278.004314 297.098635 
L 284.882589 306.432575 
L 291.760863 301.070305 
L 298.639137 298.980444 
L 305.517411 293.486938 
L 312.395686 296.952581 
L 319.27396 293.509816 
L 326.152234 291.381744 
L 333.030508 281.410412 
L 339.908783 274.136041 
L 346.787057 278.052124 
L 353.665331 264.225227 
L 360.543606 263.141539 
L 367.42188 260.90911 
L 374.300154 252.590037 
L 381.178428 250.001311 
L 388.056703 257.541746 
L 394.934977 256.522315 
L 401.813251 258.023618 
L 408.691525 260.894274 
L 415.5698 258.923613 
L 422.448074 262.715172 
L 429.326348 268.089179 
L 436.204622 261.735556 
L 443.082897 258.366625 
L 449.961171 265.14702 
L 456.839445 260.973725 
L 463.71772 266.236166 
L 470.595994 260.870785 
L 477.474268 257.665593 
L 484.352542 264.609793 
L 491.230817 269.103797 
L 498.109091 268.308923 
" style="fill:none;stroke:#7f7f7f;stroke-linecap:square;stroke-width:1.5;"/>
   </g>
   <g id="line2d_40">
    <path clip-path="url(#pc092bb995c)" d="M 92.290909 292.736549 
L 99.169183 289.160798 
L 106.047458 285.124632 
L 112.925732 292.912455 
L 119.804006 286.552727 
L 126.68228 284.421393 
L 133.560555 279.843333 
L 140.438829 276.365575 
L 147.317103 279.123064 
L 154.195378 276.2798 
L 161.073652 266.188693 
L 167.951926 255.360298 
L 174.8302 258.000033 
L 181.708475 265.184883 
L 188.586749 275.827171 
L 195.465023 279.110532 
L 202.343297 273.513094 
L 209.221572 274.503171 
L 216.099846 287.015995 
L 222.97812 290.581293 
L 229.856394 293.363742 
L 236.734669 299.021465 
L 243.612943 285.617819 
L 250.491217 277.88047 
L 257.369492 283.897922 
L 264.247766 286.533394 
L 271.12604 289.191202 
L 278.004314 285.807855 
L 284.882589 288.898582 
L 291.760863 299.23276 
L 298.639137 297.012895 
L 305.517411 292.519922 
L 312.395686 294.416437 
L 319.27396 289.89788 
L 326.152234 296.963001 
L 333.030508 301.932867 
L 339.908783 304.479119 
L 346.787057 307.693141 
L 353.665331 301.470679 
L 360.543606 302.87209 
L 367.42188 300.799406 
L 374.300154 300.007194 
L 381.178428 305.610176 
L 388.056703 305.534325 
L 394.934977 305.18131 
L 401.813251 304.206329 
L 408.691525 298.005911 
L 415.5698 289.219066 
L 422.448074 282.168505 
L 429.326348 287.700294 
L 436.204622 286.00248 
L 443.082897 289.455217 
L 449.961171 287.377234 
L 456.839445 286.371681 
L 463.71772 289.695504 
L 470.595994 295.85626 
L 477.474268 295.970933 
L 484.352542 306.947197 
L 491.230817 305.594673 
L 498.109091 308.879427 
" style="fill:none;stroke:#bcbd22;stroke-linecap:square;stroke-width:1.5;"/>
   </g>
   <g id="line2d_41">
    <path clip-path="url(#pc092bb995c)" d="M 92.290909 292.736549 
L 99.169183 292.429279 
L 106.047458 288.583086 
L 112.925732 280.240093 
L 119.804006 278.652222 
L 126.68228 280.207324 
L 133.560555 282.613701 
L 140.438829 286.463361 
L 147.317103 284.354938 
L 154.195378 281.23142 
L 161.073652 284.787866 
L 167.951926 276.169362 
L 174.8302 279.959125 
L 181.708475 270.895089 
L 188.586749 265.501425 
L 195.465023 268.678686 
L 202.343297 259.969274 
L 209.221572 262.801546 
L 216.099846 276.815507 
L 222.97812 284.576632 
L 229.856394 284.174543 
L 236.734669 296.152754 
L 243.612943 302.679306 
L 250.491217 289.837686 
L 257.369492 292.08351 
L 264.247766 289.886422 
L 271.12604 288.556436 
L 278.004314 288.309729 
L 284.882589 297.874271 
L 291.760863 304.903077 
L 298.639137 301.293822 
L 305.517411 304.378284 
L 312.395686 304.195459 
L 319.27396 293.074096 
L 326.152234 285.863049 
L 333.030508 283.201917 
L 339.908783 279.062422 
L 346.787057 284.127663 
L 353.665331 282.614875 
L 360.543606 284.436291 
L 367.42188 282.494275 
L 374.300154 276.101999 
L 381.178428 278.213057 
L 388.056703 271.283533 
L 394.934977 261.48483 
L 401.813251 258.181599 
L 408.691525 247.616125 
L 415.5698 243.228515 
L 422.448074 228.925628 
L 429.326348 218.221882 
L 436.204622 207.711486 
L 443.082897 202.16867 
L 449.961171 216.604723 
L 456.839445 207.738561 
L 463.71772 196.772102 
L 470.595994 184.015085 
L 477.474268 188.545582 
L 484.352542 195.002578 
L 491.230817 210.963924 
L 498.109091 205.258999 
" style="fill:none;stroke:#17becf;stroke-linecap:square;stroke-width:1.5;"/>
   </g>
   <g id="line2d_42">
    <path clip-path="url(#pc092bb995c)" d="M 92.290909 292.736549 
L 99.169183 290.093924 
L 106.047458 288.662741 
L 112.925732 300.077947 
L 119.804006 299.369616 
L 126.68228 301.779655 
L 133.560555 300.774605 
L 140.438829 292.409819 
L 147.317103 297.79381 
L 154.195378 303.575021 
L 161.073652 305.461748 
L 167.951926 311.877186 
L 174.8302 311.005113 
L 181.708475 312.209568 
L 188.586749 314.962779 
L 195.465023 311.744883 
L 202.343297 310.130236 
L 209.221572 309.846443 
L 216.099846 304.37392 
L 222.97812 308.253416 
L 229.856394 316.163722 
L 236.734669 315.851248 
L 243.612943 310.423262 
L 250.491217 308.72372 
L 257.369492 304.967953 
L 264.247766 305.914288 
L 271.12604 305.906053 
L 278.004314 302.285685 
L 284.882589 301.845425 
L 291.760863 293.018074 
L 298.639137 298.755483 
L 305.517411 309.605617 
L 312.395686 313.325508 
L 319.27396 312.16106 
L 326.152234 307.197118 
L 333.030508 307.937759 
L 339.908783 301.713825 
L 346.787057 304.858716 
L 353.665331 308.787873 
L 360.543606 303.329555 
L 367.42188 307.726342 
L 374.300154 309.274291 
L 381.178428 312.043452 
L 388.056703 307.881942 
L 394.934977 305.263461 
L 401.813251 306.175877 
L 408.691525 313.327664 
L 415.5698 300.720332 
L 422.448074 293.402235 
L 429.326348 287.910193 
L 436.204622 288.0124 
L 443.082897 286.543903 
L 449.961171 274.447432 
L 456.839445 280.186515 
L 463.71772 275.54075 
L 470.595994 288.149184 
L 477.474268 284.230726 
L 484.352542 285.005123 
L 491.230817 283.300407 
L 498.109091 286.017584 
" style="fill:none;stroke:#1f77b4;stroke-linecap:square;stroke-width:1.5;"/>
   </g>
   <g id="line2d_43">
    <path clip-path="url(#pc092bb995c)" d="M 92.290909 292.736549 
L 99.169183 310.584577 
L 106.047458 309.79904 
L 112.925732 315.857881 
L 119.804006 314.450799 
L 126.68228 316.041209 
L 133.560555 314.746237 
L 140.438829 315.137475 
L 147.317103 316.419508 
L 154.195378 322.240014 
L 161.073652 326.769881 
L 167.951926 327.74885 
L 174.8302 330.904932 
L 181.708475 334.66095 
L 188.586749 338.985233 
L 195.465023 339.760757 
L 202.343297 339.957786 
L 209.221572 347.490907 
L 216.099846 341.039033 
L 222.97812 340.439586 
L 229.856394 340.197389 
L 236.734669 340.87427 
L 243.612943 342.009071 
L 250.491217 345.961784 
L 257.369492 344.2886 
L 264.247766 345.364884 
L 271.12604 350.068024 
L 278.004314 348.189605 
L 284.882589 349.553547 
L 291.760863 346.064391 
L 298.639137 340.981474 
L 305.517411 344.077801 
L 312.395686 344.550034 
L 319.27396 338.559902 
L 326.152234 338.090388 
L 333.030508 334.671376 
L 339.908783 332.15854 
L 346.787057 336.012515 
L 353.665331 326.768387 
L 360.543606 325.419201 
L 367.42188 333.93017 
L 374.300154 336.874205 
L 381.178428 337.026546 
L 388.056703 342.882188 
L 394.934977 346.346079 
L 401.813251 341.620507 
L 408.691525 338.952672 
L 415.5698 339.257956 
L 422.448074 331.901825 
L 429.326348 333.883995 
L 436.204622 336.772476 
L 443.082897 337.206259 
L 449.961171 340.443372 
L 456.839445 344.91944 
L 463.71772 348.567282 
L 470.595994 347.729117 
L 477.474268 340.529376 
L 484.352542 344.390252 
L 491.230817 340.843887 
L 498.109091 339.653045 
" style="fill:none;stroke:#ff7f0e;stroke-linecap:square;stroke-width:1.5;"/>
   </g>
   <g id="line2d_44">
    <path clip-path="url(#pc092bb995c)" d="M 92.290909 292.736549 
L 99.169183 285.251155 
L 106.047458 280.364837 
L 112.925732 278.07304 
L 119.804006 278.921316 
L 126.68228 292.567482 
L 133.560555 292.104832 
L 140.438829 281.482009 
L 147.317103 272.784174 
L 154.195378 275.771283 
L 161.073652 281.137235 
L 167.951926 276.325656 
L 174.8302 270.796691 
L 181.708475 269.39416 
L 188.586749 265.259224 
L 195.465023 273.342551 
L 202.343297 273.619609 
L 209.221572 283.162741 
L 216.099846 281.283477 
L 222.97812 277.147766 
L 229.856394 274.366888 
L 236.734669 277.994476 
L 243.612943 266.027608 
L 250.491217 249.288279 
L 257.369492 229.149676 
L 264.247766 220.955306 
L 271.12604 223.94017 
L 278.004314 232.787238 
L 284.882589 230.606666 
L 291.760863 227.640402 
L 298.639137 222.786312 
L 305.517411 217.437421 
L 312.395686 210.898377 
L 319.27396 224.712306 
L 326.152234 224.948503 
L 333.030508 225.450891 
L 339.908783 237.782315 
L 346.787057 238.485359 
L 353.665331 248.165106 
L 360.543606 261.883133 
L 367.42188 263.746384 
L 374.300154 267.663271 
L 381.178428 260.24231 
L 388.056703 254.576039 
L 394.934977 255.796545 
L 401.813251 252.068508 
L 408.691525 244.528614 
L 415.5698 228.489539 
L 422.448074 219.991917 
L 429.326348 221.282199 
L 436.204622 223.76516 
L 443.082897 229.063908 
L 449.961171 230.34971 
L 456.839445 237.967794 
L 463.71772 229.934424 
L 470.595994 222.966374 
L 477.474268 224.486915 
L 484.352542 223.639327 
L 491.230817 218.048757 
L 498.109091 209.470534 
" style="fill:none;stroke:#2ca02c;stroke-linecap:square;stroke-width:1.5;"/>
   </g>
   <g id="line2d_45">
    <path clip-path="url(#pc092bb995c)" d="M 92.290909 292.736549 
L 99.169183 291.811752 
L 106.047458 280.907659 
L 112.925732 280.894397 
L 119.804006 285.13141 
L 126.68228 275.837934 
L 133.560555 275.961292 
L 140.438829 277.898227 
L 147.317103 285.195229 
L 154.195378 287.458881 
L 161.073652 293.434252 
L 167.951926 293.897035 
L 174.8302 294.903991 
L 181.708475 292.103573 
L 188.586749 292.67236 
L 195.465023 293.998695 
L 202.343297 283.503753 
L 209.221572 296.929561 
L 216.099846 299.385306 
L 222.97812 302.21531 
L 229.856394 302.381185 
L 236.734669 298.758849 
L 243.612943 300.882205 
L 250.491217 297.349056 
L 257.369492 302.700287 
L 264.247766 292.545989 
L 271.12604 274.319451 
L 278.004314 283.323595 
L 284.882589 289.565556 
L 291.760863 293.027891 
L 298.639137 296.871261 
L 305.517411 286.200915 
L 312.395686 278.474858 
L 319.27396 277.650774 
L 326.152234 275.467226 
L 333.030508 270.329134 
L 339.908783 262.392447 
L 346.787057 258.263906 
L 353.665331 255.67589 
L 360.543606 252.915059 
L 367.42188 237.374029 
L 374.300154 238.489403 
L 381.178428 253.637601 
L 388.056703 267.249163 
L 394.934977 261.631311 
L 401.813251 274.448808 
L 408.691525 271.107106 
L 415.5698 276.263686 
L 422.448074 281.769907 
L 429.326348 270.523748 
L 436.204622 272.021687 
L 443.082897 260.47815 
L 449.961171 262.397913 
L 456.839445 268.565108 
L 463.71772 280.333714 
L 470.595994 282.089386 
L 477.474268 285.872997 
L 484.352542 274.914504 
L 491.230817 287.724813 
L 498.109091 290.380053 
" style="fill:none;stroke:#d62728;stroke-linecap:square;stroke-width:1.5;"/>
   </g>
   <g id="line2d_46">
    <path clip-path="url(#pc092bb995c)" d="M 92.290909 292.736549 
L 99.169183 291.746616 
L 106.047458 288.099294 
L 112.925732 280.625551 
L 119.804006 287.76808 
L 126.68228 287.314978 
L 133.560555 288.18406 
L 140.438829 286.993567 
L 147.317103 295.474494 
L 154.195378 304.190529 
L 161.073652 304.458162 
L 167.951926 307.225703 
L 174.8302 307.657255 
L 181.708475 299.579028 
L 188.586749 305.891498 
L 195.465023 293.844655 
L 202.343297 297.744499 
L 209.221572 299.018899 
L 216.099846 301.552592 
L 222.97812 297.648799 
L 229.856394 300.909106 
L 236.734669 301.680256 
L 243.612943 294.300704 
L 250.491217 292.953565 
L 257.369492 291.860466 
L 264.247766 292.407968 
L 271.12604 295.666523 
L 278.004314 289.408789 
L 284.882589 289.814319 
L 291.760863 295.312777 
L 298.639137 298.318209 
L 305.517411 302.430732 
L 312.395686 304.960907 
L 319.27396 301.078247 
L 326.152234 302.073502 
L 333.030508 306.401006 
L 339.908783 307.85575 
L 346.787057 296.657031 
L 353.665331 297.081615 
L 360.543606 300.628706 
L 367.42188 297.815463 
L 374.300154 301.050679 
L 381.178428 298.819265 
L 388.056703 292.437009 
L 394.934977 278.130372 
L 401.813251 274.576821 
L 408.691525 269.566001 
L 415.5698 270.011143 
L 422.448074 271.49675 
L 429.326348 266.561111 
L 436.204622 261.222752 
L 443.082897 257.710113 
L 449.961171 254.431373 
L 456.839445 257.799703 
L 463.71772 254.649581 
L 470.595994 252.520889 
L 477.474268 256.59363 
L 484.352542 260.330066 
L 491.230817 258.060854 
L 498.109091 261.731681 
" style="fill:none;stroke:#9467bd;stroke-linecap:square;stroke-width:1.5;"/>
   </g>
   <g id="line2d_47">
    <path clip-path="url(#pc092bb995c)" d="M 92.290909 292.736549 
L 99.169183 294.960573 
L 106.047458 299.899921 
L 112.925732 307.009298 
L 119.804006 305.720516 
L 126.68228 307.014215 
L 133.560555 305.640232 
L 140.438829 307.951806 
L 147.317103 300.181343 
L 154.195378 300.245571 
L 161.073652 306.707789 
L 167.951926 305.460366 
L 174.8302 306.552845 
L 181.708475 315.271865 
L 188.586749 313.741004 
L 195.465023 317.136822 
L 202.343297 318.538445 
L 209.221572 321.946872 
L 216.099846 326.240456 
L 222.97812 323.690037 
L 229.856394 319.883662 
L 236.734669 329.994583 
L 243.612943 325.074255 
L 250.491217 326.85197 
L 257.369492 327.961803 
L 264.247766 331.872484 
L 271.12604 328.087283 
L 278.004314 323.950234 
L 284.882589 327.2263 
L 291.760863 334.217915 
L 298.639137 332.480287 
L 305.517411 331.255229 
L 312.395686 332.913184 
L 319.27396 325.813117 
L 326.152234 328.592207 
L 333.030508 327.33206 
L 339.908783 332.06637 
L 346.787057 328.596036 
L 353.665331 326.609553 
L 360.543606 324.313382 
L 367.42188 322.489329 
L 374.300154 323.35621 
L 381.178428 318.669906 
L 388.056703 315.854686 
L 394.934977 314.393271 
L 401.813251 312.764896 
L 408.691525 306.585156 
L 415.5698 310.237239 
L 422.448074 314.741882 
L 429.326348 307.835984 
L 436.204622 306.099083 
L 443.082897 302.568813 
L 449.961171 304.400034 
L 456.839445 302.252099 
L 463.71772 302.972147 
L 470.595994 305.006964 
L 477.474268 296.337652 
L 484.352542 301.482839 
L 491.230817 293.170935 
L 498.109091 292.828442 
" style="fill:none;stroke:#8c564b;stroke-linecap:square;stroke-width:1.5;"/>
   </g>
   <g id="line2d_48">
    <path clip-path="url(#pc092bb995c)" d="M 92.290909 292.736549 
L 99.169183 288.401947 
L 106.047458 299.519299 
L 112.925732 305.41927 
L 119.804006 302.46326 
L 126.68228 308.548359 
L 133.560555 301.702812 
L 140.438829 296.288387 
L 147.317103 299.292055 
L 154.195378 303.084353 
L 161.073652 305.757447 
L 167.951926 310.428314 
L 174.8302 314.475748 
L 181.708475 308.403033 
L 188.586749 305.088932 
L 195.465023 304.612917 
L 202.343297 307.206526 
L 209.221572 307.327846 
L 216.099846 296.147031 
L 222.97812 290.808177 
L 229.856394 298.062403 
L 236.734669 308.401176 
L 243.612943 303.119903 
L 250.491217 303.958158 
L 257.369492 308.016267 
L 264.247766 296.372257 
L 271.12604 295.470894 
L 278.004314 297.077278 
L 284.882589 299.142892 
L 291.760863 295.596823 
L 298.639137 295.478659 
L 305.517411 299.491498 
L 312.395686 300.176919 
L 319.27396 302.912574 
L 326.152234 302.669587 
L 333.030508 308.368465 
L 339.908783 306.345026 
L 346.787057 293.198873 
L 353.665331 295.8666 
L 360.543606 284.949443 
L 367.42188 287.750469 
L 374.300154 290.042226 
L 381.178428 288.727699 
L 388.056703 288.956614 
L 394.934977 292.089893 
L 401.813251 292.181983 
L 408.691525 286.999933 
L 415.5698 283.513305 
L 422.448074 297.623969 
L 429.326348 304.808019 
L 436.204622 298.287212 
L 443.082897 300.718035 
L 449.961171 298.800047 
L 456.839445 298.876409 
L 463.71772 304.785597 
L 470.595994 305.638635 
L 477.474268 301.005329 
L 484.352542 296.761412 
L 491.230817 285.662184 
L 498.109091 285.540759 
" style="fill:none;stroke:#e377c2;stroke-linecap:square;stroke-width:1.5;"/>
   </g>
   <g id="line2d_49">
    <path clip-path="url(#pc092bb995c)" d="M 92.290909 292.736549 
L 99.169183 287.173148 
L 106.047458 275.638817 
L 112.925732 279.146717 
L 119.804006 261.330521 
L 126.68228 248.553265 
L 133.560555 248.593597 
L 140.438829 260.808082 
L 147.317103 261.851133 
L 154.195378 261.056665 
L 161.073652 259.81172 
L 167.951926 258.375205 
L 174.8302 252.624366 
L 181.708475 248.476977 
L 188.586749 247.248898 
L 195.465023 256.781531 
L 202.343297 260.84003 
L 209.221572 263.373816 
L 216.099846 265.254662 
L 222.97812 269.794369 
L 229.856394 268.04728 
L 236.734669 267.782258 
L 243.612943 274.619464 
L 250.491217 275.974957 
L 257.369492 268.786659 
L 264.247766 263.799987 
L 271.12604 270.124926 
L 278.004314 273.434792 
L 284.882589 267.86853 
L 291.760863 279.077554 
L 298.639137 279.703109 
L 305.517411 275.0837 
L 312.395686 281.87796 
L 319.27396 282.856871 
L 326.152234 278.726425 
L 333.030508 287.718858 
L 339.908783 285.162701 
L 346.787057 284.110594 
L 353.665331 277.875068 
L 360.543606 272.558341 
L 367.42188 269.059729 
L 374.300154 266.48587 
L 381.178428 271.856235 
L 388.056703 259.475222 
L 394.934977 255.307564 
L 401.813251 255.622254 
L 408.691525 252.245788 
L 415.5698 254.60215 
L 422.448074 254.808547 
L 429.326348 247.771345 
L 436.204622 237.716296 
L 443.082897 235.245078 
L 449.961171 230.196477 
L 456.839445 234.816038 
L 463.71772 236.151173 
L 470.595994 241.458523 
L 477.474268 235.470672 
L 484.352542 226.066289 
L 491.230817 225.846798 
L 498.109091 232.75014 
" style="fill:none;stroke:#7f7f7f;stroke-linecap:square;stroke-width:1.5;"/>
   </g>
   <g id="line2d_50">
    <path clip-path="url(#pc092bb995c)" d="M 92.290909 292.736549 
L 99.169183 291.163184 
L 106.047458 300.269926 
L 112.925732 302.281102 
L 119.804006 300.174028 
L 126.68228 301.885304 
L 133.560555 301.136133 
L 140.438829 304.819183 
L 147.317103 296.218878 
L 154.195378 299.838831 
L 161.073652 302.945044 
L 167.951926 307.517449 
L 174.8302 308.812305 
L 181.708475 309.676285 
L 188.586749 308.049644 
L 195.465023 305.97985 
L 202.343297 295.093822 
L 209.221572 293.767326 
L 216.099846 286.201132 
L 222.97812 290.246652 
L 229.856394 292.829965 
L 236.734669 291.192638 
L 243.612943 290.81557 
L 250.491217 292.015928 
L 257.369492 291.263542 
L 264.247766 292.707336 
L 271.12604 294.557792 
L 278.004314 294.915055 
L 284.882589 291.499356 
L 291.760863 284.841309 
L 298.639137 286.770341 
L 305.517411 289.135934 
L 312.395686 294.269763 
L 319.27396 299.376074 
L 326.152234 296.958937 
L 333.030508 297.715143 
L 339.908783 290.961067 
L 346.787057 289.787973 
L 353.665331 291.377789 
L 360.543606 288.154613 
L 367.42188 286.207213 
L 374.300154 285.299941 
L 381.178428 294.409295 
L 388.056703 294.165395 
L 394.934977 289.517503 
L 401.813251 293.328234 
L 408.691525 286.841928 
L 415.5698 289.75239 
L 422.448074 281.862703 
L 429.326348 268.652041 
L 436.204622 256.27143 
L 443.082897 252.060431 
L 449.961171 245.878892 
L 456.839445 240.584003 
L 463.71772 245.951952 
L 470.595994 243.670602 
L 477.474268 250.339338 
L 484.352542 256.741044 
L 491.230817 264.339746 
L 498.109091 259.170863 
" style="fill:none;stroke:#bcbd22;stroke-linecap:square;stroke-width:1.5;"/>
   </g>
   <g id="line2d_51">
    <path clip-path="url(#pc092bb995c)" d="M 92.290909 292.736549 
L 99.169183 284.842312 
L 106.047458 277.558405 
L 112.925732 285.886392 
L 119.804006 281.898313 
L 126.68228 282.415706 
L 133.560555 279.733691 
L 140.438829 284.821916 
L 147.317103 287.814117 
L 154.195378 299.706732 
L 161.073652 303.985981 
L 167.951926 296.389717 
L 174.8302 292.674647 
L 181.708475 289.57878 
L 188.586749 291.436579 
L 195.465023 290.21523 
L 202.343297 290.008403 
L 209.221572 288.075601 
L 216.099846 284.395786 
L 222.97812 289.77022 
L 229.856394 286.07836 
L 236.734669 290.440423 
L 243.612943 295.182655 
L 250.491217 286.87864 
L 257.369492 279.753624 
L 264.247766 272.903056 
L 271.12604 263.05758 
L 278.004314 265.596463 
L 284.882589 267.055706 
L 291.760863 262.526727 
L 298.639137 251.555016 
L 305.517411 261.158373 
L 312.395686 260.688936 
L 319.27396 255.183505 
L 326.152234 252.536894 
L 333.030508 238.807014 
L 339.908783 244.466685 
L 346.787057 250.299215 
L 353.665331 258.9742 
L 360.543606 255.770007 
L 367.42188 259.791311 
L 374.300154 259.915708 
L 381.178428 266.683537 
L 388.056703 267.760103 
L 394.934977 271.121756 
L 401.813251 248.948345 
L 408.691525 243.284514 
L 415.5698 251.235473 
L 422.448074 250.960297 
L 429.326348 248.138637 
L 436.204622 244.539623 
L 443.082897 248.180015 
L 449.961171 247.303026 
L 456.839445 249.912472 
L 463.71772 256.716438 
L 470.595994 252.505561 
L 477.474268 256.671577 
L 484.352542 241.533509 
L 491.230817 250.80476 
L 498.109091 253.507883 
" style="fill:none;stroke:#17becf;stroke-linecap:square;stroke-width:1.5;"/>
   </g>
   <g id="line2d_52">
    <path clip-path="url(#pc092bb995c)" d="M 92.290909 292.736549 
L 99.169183 292.209463 
L 106.047458 287.686648 
L 112.925732 286.400648 
L 119.804006 287.869758 
L 126.68228 285.573428 
L 133.560555 283.946125 
L 140.438829 281.534872 
L 147.317103 285.428328 
L 154.195378 281.086778 
L 161.073652 286.817875 
L 167.951926 282.562149 
L 174.8302 284.465505 
L 181.708475 282.837679 
L 188.586749 287.948773 
L 195.465023 285.123411 
L 202.343297 289.929579 
L 209.221572 285.090251 
L 216.099846 285.371508 
L 222.97812 282.603304 
L 229.856394 293.166171 
L 236.734669 295.035686 
L 243.612943 289.49335 
L 250.491217 294.836205 
L 257.369492 296.916764 
L 264.247766 292.141235 
L 271.12604 291.052013 
L 278.004314 292.705534 
L 284.882589 298.221306 
L 291.760863 297.319248 
L 298.639137 296.83633 
L 305.517411 297.035633 
L 312.395686 297.715838 
L 319.27396 300.683886 
L 326.152234 291.085508 
L 333.030508 290.863252 
L 339.908783 288.578679 
L 346.787057 290.516265 
L 353.665331 292.80666 
L 360.543606 294.146322 
L 367.42188 291.738993 
L 374.300154 296.427636 
L 381.178428 289.085401 
L 388.056703 285.51729 
L 394.934977 283.907961 
L 401.813251 284.5066 
L 408.691525 271.266474 
L 415.5698 269.286479 
L 422.448074 270.530446 
L 429.326348 267.629893 
L 436.204622 273.825517 
L 443.082897 269.251183 
L 449.961171 266.414739 
L 456.839445 274.916437 
L 463.71772 268.051506 
L 470.595994 266.560859 
L 477.474268 272.754694 
L 484.352542 278.184333 
L 491.230817 279.69386 
L 498.109091 283.917261 
" style="fill:none;stroke:#1f77b4;stroke-linecap:square;stroke-width:1.5;"/>
   </g>
   <g id="line2d_53">
    <path clip-path="url(#pc092bb995c)" d="M 92.290909 292.736549 
L 99.169183 294.799713 
L 106.047458 296.722735 
L 112.925732 299.713196 
L 119.804006 297.029633 
L 126.68228 292.543531 
L 133.560555 289.332899 
L 140.438829 294.43546 
L 147.317103 291.084901 
L 154.195378 285.83777 
L 161.073652 278.627031 
L 167.951926 279.528788 
L 174.8302 276.465503 
L 181.708475 275.007994 
L 188.586749 264.101282 
L 195.465023 263.789804 
L 202.343297 266.042506 
L 209.221572 271.80771 
L 216.099846 282.951014 
L 222.97812 278.947686 
L 229.856394 288.861895 
L 236.734669 291.084691 
L 243.612943 286.627866 
L 250.491217 294.485645 
L 257.369492 292.045216 
L 264.247766 296.352959 
L 271.12604 300.24754 
L 278.004314 295.213911 
L 284.882589 292.792115 
L 291.760863 290.431936 
L 298.639137 284.702432 
L 305.517411 288.923912 
L 312.395686 290.962256 
L 319.27396 284.025556 
L 326.152234 287.848434 
L 333.030508 281.486579 
L 339.908783 286.666894 
L 346.787057 285.682544 
L 353.665331 288.831857 
L 360.543606 281.697427 
L 367.42188 281.979939 
L 374.300154 286.219191 
L 381.178428 281.163865 
L 388.056703 285.523918 
L 394.934977 282.769512 
L 401.813251 280.640884 
L 408.691525 277.415169 
L 415.5698 275.753234 
L 422.448074 265.42747 
L 429.326348 259.352511 
L 436.204622 270.659135 
L 443.082897 274.057764 
L 449.961171 278.712035 
L 456.839445 284.508694 
L 463.71772 284.159739 
L 470.595994 295.332835 
L 477.474268 292.22678 
L 484.352542 286.217169 
L 491.230817 275.685186 
L 498.109091 275.86287 
" style="fill:none;stroke:#ff7f0e;stroke-linecap:square;stroke-width:1.5;"/>
   </g>
   <g id="line2d_54">
    <path clip-path="url(#pc092bb995c)" d="M 92.290909 292.736549 
L 99.169183 298.108421 
L 106.047458 294.309081 
L 112.925732 301.876076 
L 119.804006 297.360446 
L 126.68228 300.797801 
L 133.560555 297.698594 
L 140.438829 295.861829 
L 147.317103 296.917518 
L 154.195378 299.754608 
L 161.073652 290.549124 
L 167.951926 286.154078 
L 174.8302 281.600204 
L 181.708475 275.863437 
L 188.586749 271.491286 
L 195.465023 272.539818 
L 202.343297 278.338994 
L 209.221572 278.489006 
L 216.099846 277.718241 
L 222.97812 272.960272 
L 229.856394 275.909274 
L 236.734669 277.797379 
L 243.612943 285.043901 
L 250.491217 288.759211 
L 257.369492 285.268577 
L 264.247766 281.491093 
L 271.12604 283.39601 
L 278.004314 286.414168 
L 284.882589 275.841214 
L 291.760863 268.056964 
L 298.639137 268.745202 
L 305.517411 272.875086 
L 312.395686 264.941326 
L 319.27396 275.036179 
L 326.152234 279.866429 
L 333.030508 280.038991 
L 339.908783 270.651244 
L 346.787057 272.120656 
L 353.665331 274.200272 
L 360.543606 273.050426 
L 367.42188 274.865806 
L 374.300154 270.900167 
L 381.178428 262.277313 
L 388.056703 264.546057 
L 394.934977 265.824522 
L 401.813251 253.256503 
L 408.691525 239.80329 
L 415.5698 244.115156 
L 422.448074 236.840332 
L 429.326348 236.912998 
L 436.204622 253.514727 
L 443.082897 248.101871 
L 449.961171 261.239924 
L 456.839445 255.324687 
L 463.71772 256.717148 
L 470.595994 265.928557 
L 477.474268 265.451672 
L 484.352542 269.302483 
L 491.230817 268.810641 
L 498.109091 275.520938 
" style="fill:none;stroke:#2ca02c;stroke-linecap:square;stroke-width:1.5;"/>
   </g>
   <g id="line2d_55">
    <path clip-path="url(#pc092bb995c)" d="M 92.290909 292.736549 
L 99.169183 295.782728 
L 106.047458 300.119545 
L 112.925732 304.528959 
L 119.804006 309.503434 
L 126.68228 304.334368 
L 133.560555 305.106626 
L 140.438829 302.403813 
L 147.317103 300.644392 
L 154.195378 308.055054 
L 161.073652 310.911247 
L 167.951926 316.212991 
L 174.8302 325.391759 
L 181.708475 318.062468 
L 188.586749 320.989432 
L 195.465023 320.84469 
L 202.343297 313.838211 
L 209.221572 322.383476 
L 216.099846 313.629653 
L 222.97812 321.684371 
L 229.856394 317.887719 
L 236.734669 316.436855 
L 243.612943 319.721983 
L 250.491217 317.269817 
L 257.369492 323.986512 
L 264.247766 321.283379 
L 271.12604 319.639564 
L 278.004314 320.821691 
L 284.882589 315.575214 
L 291.760863 316.278548 
L 298.639137 311.697547 
L 305.517411 312.68015 
L 312.395686 311.621576 
L 319.27396 317.094352 
L 326.152234 319.711 
L 333.030508 318.354142 
L 339.908783 319.833353 
L 346.787057 322.352574 
L 353.665331 324.92452 
L 360.543606 329.733167 
L 367.42188 325.714355 
L 374.300154 316.946064 
L 381.178428 316.651276 
L 388.056703 317.719709 
L 394.934977 324.898037 
L 401.813251 322.334488 
L 408.691525 320.697622 
L 415.5698 321.519805 
L 422.448074 322.01772 
L 429.326348 329.686274 
L 436.204622 331.283511 
L 443.082897 335.762087 
L 449.961171 332.759637 
L 456.839445 337.019606 
L 463.71772 336.588407 
L 470.595994 333.151119 
L 477.474268 329.092559 
L 484.352542 333.147914 
L 491.230817 329.538861 
L 498.109091 332.78966 
" style="fill:none;stroke:#d62728;stroke-linecap:square;stroke-width:1.5;"/>
   </g>
   <g id="line2d_56">
    <path clip-path="url(#pc092bb995c)" d="M 92.290909 292.736549 
L 99.169183 288.124929 
L 106.047458 281.221148 
L 112.925732 274.400295 
L 119.804006 282.718806 
L 126.68228 282.431697 
L 133.560555 288.493243 
L 140.438829 294.545442 
L 147.317103 296.491184 
L 154.195378 296.476945 
L 161.073652 297.500883 
L 167.951926 300.176017 
L 174.8302 312.633767 
L 181.708475 313.124193 
L 188.586749 312.582009 
L 195.465023 302.684406 
L 202.343297 302.596566 
L 209.221572 301.96891 
L 216.099846 305.635201 
L 222.97812 308.23038 
L 229.856394 310.496925 
L 236.734669 310.315269 
L 243.612943 314.386083 
L 250.491217 314.297745 
L 257.369492 316.028873 
L 264.247766 316.516221 
L 271.12604 315.087371 
L 278.004314 315.332106 
L 284.882589 319.391733 
L 291.760863 315.209634 
L 298.639137 316.94833 
L 305.517411 315.49354 
L 312.395686 315.92316 
L 319.27396 310.05433 
L 326.152234 309.580884 
L 333.030508 306.321158 
L 339.908783 309.210318 
L 346.787057 305.7235 
L 353.665331 310.68473 
L 360.543606 308.971776 
L 367.42188 307.280732 
L 374.300154 299.7629 
L 381.178428 297.869166 
L 388.056703 293.471942 
L 394.934977 290.224864 
L 401.813251 292.185686 
L 408.691525 292.507128 
L 415.5698 301.271397 
L 422.448074 295.117204 
L 429.326348 300.788212 
L 436.204622 312.274277 
L 443.082897 317.152259 
L 449.961171 314.207361 
L 456.839445 312.011637 
L 463.71772 310.137435 
L 470.595994 307.740101 
L 477.474268 316.423885 
L 484.352542 315.386725 
L 491.230817 314.361509 
L 498.109091 311.40294 
" style="fill:none;stroke:#9467bd;stroke-linecap:square;stroke-width:1.5;"/>
   </g>
   <g id="line2d_57">
    <path clip-path="url(#pc092bb995c)" d="M 92.290909 292.736549 
L 99.169183 293.088959 
L 106.047458 295.807015 
L 112.925732 297.983711 
L 119.804006 291.732902 
L 126.68228 284.058886 
L 133.560555 284.241691 
L 140.438829 283.862517 
L 147.317103 288.240163 
L 154.195378 289.52681 
L 161.073652 295.917645 
L 167.951926 295.942078 
L 174.8302 293.306553 
L 181.708475 287.943018 
L 188.586749 280.92103 
L 195.465023 295.088056 
L 202.343297 297.44754 
L 209.221572 300.401649 
L 216.099846 295.015419 
L 222.97812 293.463703 
L 229.856394 289.621724 
L 236.734669 283.200168 
L 243.612943 280.546358 
L 250.491217 287.056623 
L 257.369492 284.752596 
L 264.247766 281.299496 
L 271.12604 272.37912 
L 278.004314 263.14556 
L 284.882589 266.153016 
L 291.760863 261.803288 
L 298.639137 260.514371 
L 305.517411 257.562626 
L 312.395686 250.716974 
L 319.27396 250.144636 
L 326.152234 240.043027 
L 333.030508 239.65724 
L 339.908783 247.960472 
L 346.787057 246.720431 
L 353.665331 243.579906 
L 360.543606 238.586556 
L 367.42188 232.536809 
L 374.300154 233.956451 
L 381.178428 233.120606 
L 388.056703 229.06199 
L 394.934977 228.315063 
L 401.813251 228.193891 
L 408.691525 233.569773 
L 415.5698 240.181825 
L 422.448074 247.66326 
L 429.326348 252.412077 
L 436.204622 251.391175 
L 443.082897 254.330203 
L 449.961171 250.622542 
L 456.839445 258.247534 
L 463.71772 258.131879 
L 470.595994 254.005412 
L 477.474268 245.837652 
L 484.352542 229.066265 
L 491.230817 233.213942 
L 498.109091 227.339333 
" style="fill:none;stroke:#8c564b;stroke-linecap:square;stroke-width:1.5;"/>
   </g>
   <g id="line2d_58">
    <path clip-path="url(#pc092bb995c)" d="M 92.290909 292.736549 
L 99.169183 294.504478 
L 106.047458 290.599246 
L 112.925732 291.393288 
L 119.804006 284.634715 
L 126.68228 284.828741 
L 133.560555 289.528841 
L 140.438829 289.088035 
L 147.317103 287.49456 
L 154.195378 288.331668 
L 161.073652 284.481057 
L 167.951926 290.63736 
L 174.8302 299.060083 
L 181.708475 295.240622 
L 188.586749 296.6219 
L 195.465023 294.279697 
L 202.343297 302.102932 
L 209.221572 306.864109 
L 216.099846 314.195673 
L 222.97812 309.842308 
L 229.856394 308.024617 
L 236.734669 306.296016 
L 243.612943 308.218201 
L 250.491217 307.848955 
L 257.369492 317.000426 
L 264.247766 315.421855 
L 271.12604 314.067094 
L 278.004314 310.701668 
L 284.882589 316.325799 
L 291.760863 316.751466 
L 298.639137 312.905032 
L 305.517411 308.346919 
L 312.395686 309.134611 
L 319.27396 307.207389 
L 326.152234 309.385391 
L 333.030508 319.754385 
L 339.908783 327.314053 
L 346.787057 328.187783 
L 353.665331 331.191057 
L 360.543606 323.222935 
L 367.42188 322.412565 
L 374.300154 327.794905 
L 381.178428 324.474338 
L 388.056703 327.926827 
L 394.934977 333.894646 
L 401.813251 332.08054 
L 408.691525 329.755708 
L 415.5698 332.697299 
L 422.448074 334.880155 
L 429.326348 334.058204 
L 436.204622 328.391679 
L 443.082897 338.394848 
L 449.961171 334.324709 
L 456.839445 337.880377 
L 463.71772 336.621857 
L 470.595994 337.823762 
L 477.474268 338.706804 
L 484.352542 334.709113 
L 491.230817 338.500899 
L 498.109091 342.111239 
" style="fill:none;stroke:#e377c2;stroke-linecap:square;stroke-width:1.5;"/>
   </g>
   <g id="line2d_59">
    <path clip-path="url(#pc092bb995c)" d="M 92.290909 292.736549 
L 99.169183 289.738957 
L 106.047458 284.045754 
L 112.925732 278.673916 
L 119.804006 276.182735 
L 126.68228 278.302632 
L 133.560555 275.658248 
L 140.438829 281.765602 
L 147.317103 280.002041 
L 154.195378 279.184629 
L 161.073652 277.870828 
L 167.951926 284.048004 
L 174.8302 290.251474 
L 181.708475 293.329413 
L 188.586749 293.519483 
L 195.465023 298.484218 
L 202.343297 297.590456 
L 209.221572 302.794314 
L 216.099846 301.239238 
L 222.97812 299.48248 
L 229.856394 293.750865 
L 236.734669 294.96733 
L 243.612943 295.012359 
L 250.491217 305.730116 
L 257.369492 310.00167 
L 264.247766 299.595798 
L 271.12604 288.189948 
L 278.004314 292.870428 
L 284.882589 283.893579 
L 291.760863 281.101105 
L 298.639137 273.824384 
L 305.517411 265.904802 
L 312.395686 254.028129 
L 319.27396 266.645822 
L 326.152234 267.257796 
L 333.030508 265.319973 
L 339.908783 264.816492 
L 346.787057 270.315332 
L 353.665331 272.274695 
L 360.543606 267.134845 
L 367.42188 272.918157 
L 374.300154 264.167171 
L 381.178428 267.195436 
L 388.056703 267.331403 
L 394.934977 263.59221 
L 401.813251 259.274097 
L 408.691525 255.715762 
L 415.5698 245.515463 
L 422.448074 243.738273 
L 429.326348 247.581029 
L 436.204622 249.202684 
L 443.082897 257.297657 
L 449.961171 257.296668 
L 456.839445 253.135034 
L 463.71772 259.789411 
L 470.595994 246.732479 
L 477.474268 248.318043 
L 484.352542 256.124271 
L 491.230817 253.234785 
L 498.109091 251.77216 
" style="fill:none;stroke:#7f7f7f;stroke-linecap:square;stroke-width:1.5;"/>
   </g>
   <g id="line2d_60">
    <path clip-path="url(#pc092bb995c)" d="M 92.290909 292.736549 
L 99.169183 298.322053 
L 106.047458 298.864277 
L 112.925732 297.276636 
L 119.804006 301.714908 
L 126.68228 309.204447 
L 133.560555 307.098534 
L 140.438829 308.157043 
L 147.317103 313.732622 
L 154.195378 322.620058 
L 161.073652 317.933476 
L 167.951926 313.331873 
L 174.8302 317.686626 
L 181.708475 320.869252 
L 188.586749 319.298371 
L 195.465023 319.79566 
L 202.343297 323.234594 
L 209.221572 314.410915 
L 216.099846 308.153911 
L 222.97812 304.487204 
L 229.856394 304.223419 
L 236.734669 294.677714 
L 243.612943 298.471744 
L 250.491217 309.225025 
L 257.369492 315.190283 
L 264.247766 322.706717 
L 271.12604 325.295821 
L 278.004314 325.415008 
L 284.882589 327.547527 
L 291.760863 329.858938 
L 298.639137 327.716114 
L 305.517411 332.592306 
L 312.395686 332.438652 
L 319.27396 335.220369 
L 326.152234 333.838922 
L 333.030508 339.782159 
L 339.908783 341.842027 
L 346.787057 339.226335 
L 353.665331 336.746322 
L 360.543606 328.778583 
L 367.42188 327.718582 
L 374.300154 332.243671 
L 381.178428 334.264718 
L 388.056703 336.217149 
L 394.934977 342.82682 
L 401.813251 343.530339 
L 408.691525 342.197889 
L 415.5698 343.815049 
L 422.448074 341.424126 
L 429.326348 342.338386 
L 436.204622 346.973792 
L 443.082897 350.607234 
L 449.961171 348.825506 
L 456.839445 345.559588 
L 463.71772 345.399792 
L 470.595994 344.309715 
L 477.474268 346.691805 
L 484.352542 350.450292 
L 491.230817 350.828256 
L 498.109091 342.54094 
" style="fill:none;stroke:#bcbd22;stroke-linecap:square;stroke-width:1.5;"/>
   </g>
   <g id="line2d_61">
    <path clip-path="url(#pc092bb995c)" d="M 92.290909 292.736549 
L 99.169183 295.396133 
L 106.047458 282.046691 
L 112.925732 288.0138 
L 119.804006 286.242202 
L 126.68228 287.95884 
L 133.560555 293.282403 
L 140.438829 282.278887 
L 147.317103 286.378551 
L 154.195378 291.88779 
L 161.073652 294.443106 
L 167.951926 284.834554 
L 174.8302 297.261554 
L 181.708475 288.145243 
L 188.586749 290.330776 
L 195.465023 296.068789 
L 202.343297 295.922431 
L 209.221572 299.272284 
L 216.099846 300.431144 
L 222.97812 304.363545 
L 229.856394 303.487501 
L 236.734669 305.656618 
L 243.612943 302.357417 
L 250.491217 302.830687 
L 257.369492 302.493003 
L 264.247766 309.999325 
L 271.12604 306.213022 
L 278.004314 309.711303 
L 284.882589 306.537355 
L 291.760863 304.577392 
L 298.639137 302.148276 
L 305.517411 293.751605 
L 312.395686 291.186982 
L 319.27396 293.106829 
L 326.152234 296.76428 
L 333.030508 284.59692 
L 339.908783 286.080908 
L 346.787057 282.077002 
L 353.665331 277.382453 
L 360.543606 282.717725 
L 367.42188 282.119029 
L 374.300154 284.748773 
L 381.178428 284.310957 
L 388.056703 278.898231 
L 394.934977 280.115678 
L 401.813251 292.036259 
L 408.691525 296.801916 
L 415.5698 297.709783 
L 422.448074 297.551585 
L 429.326348 298.362102 
L 436.204622 296.021598 
L 443.082897 299.011746 
L 449.961171 298.279257 
L 456.839445 288.550253 
L 463.71772 290.526995 
L 470.595994 293.128784 
L 477.474268 297.704838 
L 484.352542 293.132004 
L 491.230817 295.838693 
L 498.109091 289.911058 
" style="fill:none;stroke:#17becf;stroke-linecap:square;stroke-width:1.5;"/>
   </g>
   <g id="patch_3">
    <path d="M 72 378 
L 72 51.84 
" style="fill:none;stroke:#000000;stroke-linecap:square;stroke-linejoin:miter;stroke-width:0.8;"/>
   </g>
   <g id="patch_4">
    <path d="M 518.4 378 
L 518.4 51.84 
" style="fill:none;stroke:#000000;stroke-linecap:square;stroke-linejoin:miter;stroke-width:0.8;"/>
   </g>
   <g id="patch_5">
    <path d="M 72 378 
L 518.4 378 
" style="fill:none;stroke:#000000;stroke-linecap:square;stroke-linejoin:miter;stroke-width:0.8;"/>
   </g>
   <g id="patch_6">
    <path d="M 72 51.84 
L 518.4 51.84 
" style="fill:none;stroke:#000000;stroke-linecap:square;stroke-linejoin:miter;stroke-width:0.8;"/>
   </g>
  </g>
 </g>
 <defs>
  <clipPath id="pc092bb995c">
   <rect height="326.16" width="446.4" x="72" y="51.84"/>
  </clipPath>
 </defs>
</svg>
