<?xml version="1.0" encoding="UTF-8" standalone="no"?>
<!-- Created with Inkscape (http://www.inkscape.org/) -->

<svg
   xmlns:dc="http://purl.org/dc/elements/1.1/"
   xmlns:cc="http://creativecommons.org/ns#"
   xmlns:rdf="http://www.w3.org/1999/02/22-rdf-syntax-ns#"
   xmlns:svg="http://www.w3.org/2000/svg"
   xmlns="http://www.w3.org/2000/svg"
   xmlns:sodipodi="http://sodipodi.sourceforge.net/DTD/sodipodi-0.dtd"
   xmlns:inkscape="http://www.inkscape.org/namespaces/inkscape"
   width="301.28415mm"
   height="145.40092mm"
   viewBox="0 0 301.28415 145.40092"
   version="1.1"
   id="svg224"
   inkscape:version="0.91 r13725"
   sodipodi:docname="american-option.svg">
  <defs
     id="defs218">
    <marker
       inkscape:isstock="true"
       style="overflow:visible"
       id="marker856"
       refX="0"
       refY="0"
       orient="auto"
       inkscape:stockid="Arrow1Send">
      <path
         transform="matrix(-0.2,0,0,-0.2,-1.2,0)"
         style="fill:#000000;fill-opacity:1;fill-rule:evenodd;stroke:#000000;stroke-width:1pt;stroke-opacity:1"
         d="M 0,0 5,-5 -12.5,0 5,5 0,0 Z"
         id="path854"
         inkscape:connector-curvature="0" />
    </marker>
    <marker
       inkscape:isstock="true"
       style="overflow:visible"
       id="marker5440"
       refX="0"
       refY="0"
       orient="auto"
       inkscape:stockid="Arrow1Send">
      <path
         transform="matrix(-0.2,0,0,-0.2,-1.2,0)"
         style="fill:#000000;fill-opacity:1;fill-rule:evenodd;stroke:#000000;stroke-width:1pt;stroke-opacity:1"
         d="M 0,0 5,-5 -12.5,0 5,5 0,0 Z"
         id="path5438"
         inkscape:connector-curvature="0" />
    </marker>
    <marker
       inkscape:stockid="Arrow1Send"
       orient="auto"
       refY="0"
       refX="0"
       id="Arrow1Send"
       style="overflow:visible"
       inkscape:isstock="true"
       inkscape:collect="always">
      <path
         id="path4751"
         d="M 0,0 5,-5 -12.5,0 5,5 0,0 Z"
         style="fill:#000000;fill-opacity:1;fill-rule:evenodd;stroke:#000000;stroke-width:1pt;stroke-opacity:1"
         transform="matrix(-0.2,0,0,-0.2,-1.2,0)"
         inkscape:connector-curvature="0" />
    </marker>
    <marker
       inkscape:stockid="Arrow1Mend"
       orient="auto"
       refY="0"
       refX="0"
       id="Arrow1Mend"
       style="overflow:visible"
       inkscape:isstock="true">
      <path
         id="path4745"
         d="M 0,0 5,-5 -12.5,0 5,5 0,0 Z"
         style="fill:#000000;fill-opacity:1;fill-rule:evenodd;stroke:#000000;stroke-width:1pt;stroke-opacity:1"
         transform="matrix(-0.4,0,0,-0.4,-4,0)"
         inkscape:connector-curvature="0" />
    </marker>
    <marker
       inkscape:stockid="Arrow1Lend"
       orient="auto"
       refY="0"
       refX="0"
       id="Arrow1Lend"
       style="overflow:visible"
       inkscape:isstock="true">
      <path
         id="path4739"
         d="M 0,0 5,-5 -12.5,0 5,5 0,0 Z"
         style="fill:#000000;fill-opacity:1;fill-rule:evenodd;stroke:#000000;stroke-width:1pt;stroke-opacity:1"
         transform="matrix(-0.8,0,0,-0.8,-10,0)"
         inkscape:connector-curvature="0" />
    </marker>
    <clipPath
       id="pb0607facb3">
      <rect
         height="217.44"
         width="334.79999"
         x="54"
         y="34.560001"
         id="rect349" />
    </clipPath>
  </defs>
  <sodipodi:namedview
     id="base"
     pagecolor="#ffffff"
     bordercolor="#666666"
     borderopacity="1.0"
     inkscape:pageopacity="0.0"
     inkscape:pageshadow="2"
     inkscape:zoom="0.98994949"
     inkscape:cx="395.11598"
     inkscape:cy="146.44615"
     inkscape:document-units="mm"
     inkscape:current-layer="layer1"
     showgrid="false"
     inkscape:window-width="1920"
     inkscape:window-height="1027"
     inkscape:window-x="1280"
     inkscape:window-y="0"
     inkscape:window-maximized="1"
     fit-margin-top="0"
     fit-margin-left="0"
     fit-margin-right="0"
     fit-margin-bottom="0" />
  <metadata
     id="metadata221">
    <rdf:RDF>
      <cc:Work
         rdf:about="">
        <dc:format>image/svg+xml</dc:format>
        <dc:type
           rdf:resource="http://purl.org/dc/dcmitype/StillImage" />
        <dc:title></dc:title>
      </cc:Work>
    </rdf:RDF>
  </metadata>
  <g
     inkscape:label="Layer 1"
     inkscape:groupmode="layer"
     id="layer1"
     transform="translate(9.5100118,-122.40542)">
    <path
       style="fill:none;stroke:#000000;stroke-width:1.9888221;stroke-linecap:butt;stroke-linejoin:miter;stroke-miterlimit:4;stroke-dasharray:none;stroke-opacity:1;marker-end:url(#Arrow1Send)"
       d="m 23.661302,253.91072 218.378638,0"
       id="path226"
       inkscape:connector-curvature="0" />
    <path
       inkscape:connector-curvature="0"
       id="path5436"
       d="m 33.820891,266.33817 0,-128.37192"
       style="fill:none;stroke:#000000;stroke-width:1.52484548;stroke-linecap:butt;stroke-linejoin:miter;stroke-miterlimit:4;stroke-dasharray:none;stroke-opacity:1;marker-end:url(#marker5440)" />
    <text
       xml:space="preserve"
       style="font-style:normal;font-variant:normal;font-weight:normal;font-stretch:normal;font-size:10.58333302px;line-height:1.25;font-family:Lato;-inkscape-font-specification:Lato;letter-spacing:0px;word-spacing:0px;fill:#000000;fill-opacity:1;stroke:none;stroke-width:0.26458332"
       x="-1.9208428"
       y="132.79825"
       id="text5990"><tspan
         sodipodi:role="line"
         id="tspan5988"
         x="-1.9208428"
         y="132.79825"
         style="font-style:normal;font-variant:normal;font-weight:normal;font-stretch:normal;font-size:14.11111069px;font-family:Lato;-inkscape-font-specification:Lato;stroke-width:0.26458332">Coin Value</tspan></text>
    <text
       id="text21"
       y="257.69049"
       x="252.48811"
       style="font-style:normal;font-variant:normal;font-weight:normal;font-stretch:normal;font-size:10.58333302px;line-height:1.25;font-family:Lato;-inkscape-font-specification:Lato;letter-spacing:0px;word-spacing:0px;fill:#000000;fill-opacity:1;stroke:none;stroke-width:0.26458332"
       xml:space="preserve"><tspan
         style="font-style:normal;font-variant:normal;font-weight:normal;font-stretch:normal;font-size:14.11111069px;font-family:Lato;-inkscape-font-specification:Lato;stroke-width:0.26458332"
         y="257.69049"
         x="252.48811"
         id="tspan19"
         sodipodi:role="line">Time t</tspan></text>
    <path
       inkscape:connector-curvature="0"
       id="path23"
       d="m 23.661302,207.34376 218.378638,0"
       style="fill:none;stroke:#000000;stroke-width:1.08899999;stroke-linecap:butt;stroke-linejoin:miter;stroke-miterlimit:4;stroke-dasharray:1.08899994, 1.08899994;stroke-dashoffset:0;stroke-opacity:1" />
    <g
       transform="matrix(0.6489648,0,0,-0.57028558,-10.277566,287.17355)"
       id="line2d_25"
       style="stroke:#6a5d93;stroke-linecap:butt;stroke-linejoin:round;stroke-opacity:1">
      <path
         clip-path="url(#pb0607facb3)"
         d="m 67.900295,140.75833 3.401523,20.07143 2.083634,11.44262 4.719411,-4.55457 3.840818,14.26742 5.598001,18.02761 6.915893,-5.92515 5.1587,5.99311 7.355185,14.96722 5.598,7.57211 8.23378,-1.07608 5.1587,6.89891 5.15871,0.92141 5.15871,-7.39597 5.1587,-4.5404 5.15871,1.42064 5.1587,-1.00105 5.15871,-0.71805 5.1587,2.6065 5.15871,-4.34339 5.15871,-0.50664 5.1587,3.14228 5.15871,0.27053 5.1587,-15.34454 5.15871,-2.77347 5.1587,-4.07738 5.15871,-15.58855 5.15871,-5.4575 5.1587,-19.59728 5.15871,3.93032 5.1587,-7.42229 5.15871,0.39686 5.1587,-2.30559 5.15871,-0.0838 5.15871,-5.74656 5.1587,-32.03614 5.15871,19.61855 5.1587,17.55027 5.15871,19.66195 5.1587,9.7901 5.15871,-14.25394 5.15871,-4.25935 5.1587,0.34626 5.15871,1.59098 5.1587,-3.51123 5.15871,-14.05448 5.1587,2.79024 5.15871,16.45572 5.1587,-1.42721 5.15871,-1.66668 5.15871,-13.59204 5.1587,-8.0555 5.15871,-33.56757 5.1587,-3.48802 5.15871,-4.222149 5.15871,-2.237301 5.1587,24.61236 5.15871,-19.72957 5.1587,-4.096862 5.15871,18.231712"
         style="fill:none;stroke:#6a5d93;stroke-width:1.5;stroke-linecap:square;stroke-linejoin:round;stroke-opacity:1"
         id="path326"
         inkscape:connector-curvature="0"
         sodipodi:nodetypes="cccccccccccccccccccccccccccccccccccccccccccccccccccccccccccc" />
    </g>
    <text
       id="text980"
       y="211.94627"
       x="-10.272012"
       style="font-style:normal;font-variant:normal;font-weight:normal;font-stretch:normal;font-size:10.58333302px;line-height:1.25;font-family:Lato;-inkscape-font-specification:Lato;letter-spacing:0px;word-spacing:0px;fill:#000000;fill-opacity:1;stroke:none;stroke-width:0.26458332"
       xml:space="preserve"><tspan
         style="font-style:normal;font-variant:normal;font-weight:normal;font-stretch:normal;font-size:14.11111069px;font-family:Lato;-inkscape-font-specification:Lato;stroke-width:0.26458332"
         y="211.94627"
         x="-10.272012"
         id="tspan978"
         sodipodi:role="line">680€</tspan></text>
    <rect
       style="fill:#0000c6;fill-opacity:0.33333333;stroke:none;stroke-width:1.00559187;stroke-miterlimit:4;stroke-dasharray:1.00559188, 1.00559188;stroke-dashoffset:0"
       id="rect982"
       width="8.8101931"
       height="47.317261"
       x="148.46843"
       y="207.05995" />
    <rect
       y="207.05995"
       x="205.0885"
       height="47.317261"
       width="27.251791"
       id="rect984"
       style="fill:#0000c6;fill-opacity:0.33333333;stroke:none;stroke-width:1.76858759;stroke-miterlimit:4;stroke-dasharray:1.76858756, 1.76858756;stroke-dashoffset:0" />
    <text
       xml:space="preserve"
       style="font-style:normal;font-variant:normal;font-weight:normal;font-stretch:normal;font-size:10.58333302px;line-height:1.25;font-family:Lato;-inkscape-font-specification:Lato;letter-spacing:0px;word-spacing:0px;fill:#0526ff;fill-opacity:1;stroke:none;stroke-width:0.26458332"
       x="115.43063"
       y="266.1123"
       id="text988"><tspan
         sodipodi:role="line"
         id="tspan986"
         x="115.43063"
         y="266.1123"
         style="font-style:normal;font-variant:normal;font-weight:normal;font-stretch:normal;font-size:9.87777805px;font-family:Lato;-inkscape-font-specification:Lato;fill:#0526ff;fill-opacity:1;stroke-width:0.26458332">Should I exercise the option?</tspan></text>
    <g
       aria-label="{"
       transform="matrix(0,-1,1,0,0,0)"
       style="font-style:normal;font-weight:normal;font-size:10.58333302px;line-height:1.25;font-family:sans-serif;letter-spacing:0px;word-spacing:0px;fill:#0526ff;fill-opacity:1;stroke:none;stroke-width:0.26458332"
       id="text992">
      <path
         d="m -254.94769,158.02701 -0.77515,0 q -0.92501,0 -1.50378,-0.51676 -0.57361,-0.5116 -0.57361,-1.48311 l 0,-0.76998 q 0,-0.87334 -0.42892,-1.36426 -0.42891,-0.4961 -1.31258,-0.4961 l -0.26355,0 0,-0.80615 0.26355,0 q 0.88367,0 1.31258,-0.49092 0.42892,-0.4961 0.42892,-1.36943 l 0,-0.76998 q 0,-0.97151 0.57361,-1.48311 0.57877,-0.51677 1.50378,-0.51677 l 0.77515,0 0,0.71314 -0.58911,0 q -0.7028,0 -1.0232,0.32556 -0.31522,0.32556 -0.31522,1.04903 l 0,0.90434 q 0,0.7183 -0.39791,1.20923 -0.39791,0.48576 -1.10588,0.76998 l 0,0.12402 q 0.70797,0.28422 1.10588,0.77515 0.39791,0.48576 0.39791,1.20406 l 0,0.90434 q 0,0.72347 0.31522,1.04903 0.3204,0.32556 1.0232,0.32556 l 0.58911,0 z"
         style="fill:#0526ff;fill-opacity:1;stroke-width:0.26458332"
         id="path998"
         inkscape:connector-curvature="0" />
    </g>
    <g
       id="g1003"
       style="font-style:normal;font-weight:normal;font-size:10.58333302px;line-height:1.25;font-family:sans-serif;letter-spacing:0px;word-spacing:0px;fill:#0526ff;fill-opacity:1;stroke:none;stroke-width:0.26458332;stroke-opacity:1"
       transform="matrix(0,-1,2.7788639,0,-206.05154,0)"
       aria-label="{">
      <path
         id="path1001"
         style="fill:#0526ff;fill-opacity:1;stroke:none;stroke-width:0.26458332;stroke-opacity:1"
         d="m -254.94769,158.02701 -0.77515,0 q -0.92501,0 -1.50378,-0.51676 -0.57361,-0.5116 -0.57361,-1.48311 l 0,-0.76998 q 0,-0.87334 -0.42892,-1.36426 -0.42891,-0.4961 -1.31258,-0.4961 l -0.26355,0 0,-0.80615 0.26355,0 q 0.88367,0 1.31258,-0.49092 0.42892,-0.4961 0.42892,-1.36943 l 0,-0.76998 q 0,-0.97151 0.57361,-1.48311 0.57877,-0.51677 1.50378,-0.51677 l 0.77515,0 0,0.71314 -0.58911,0 q -0.7028,0 -1.0232,0.32556 -0.31522,0.32556 -0.31522,1.04903 l 0,0.90434 q 0,0.7183 -0.39791,1.20923 -0.39791,0.48576 -1.10588,0.76998 l 0,0.12402 q 0.70797,0.28422 1.10588,0.77515 0.39791,0.48576 0.39791,1.20406 l 0,0.90434 q 0,0.72347 0.31522,1.04903 0.3204,0.32556 1.0232,0.32556 l 0.58911,0 z"
         inkscape:connector-curvature="0" />
    </g>
  </g>
</svg>
