<?xml version="1.0" encoding="utf-8" standalone="no"?>
<!DOCTYPE svg PUBLIC "-//W3C//DTD SVG 1.1//EN"
  "http://www.w3.org/Graphics/SVG/1.1/DTD/svg11.dtd">
<!-- Created with matplotlib (https://matplotlib.org/) -->
<svg height="432pt" version="1.1" viewBox="0 0 576 432" width="576pt" xmlns="http://www.w3.org/2000/svg" xmlns:xlink="http://www.w3.org/1999/xlink">
 <defs>
  <style type="text/css">
*{stroke-linecap:butt;stroke-linejoin:round;}
  </style>
 </defs>
 <g id="figure_1">
  <g id="patch_1">
   <path d="M 0 432 
L 576 432 
L 576 0 
L 0 0 
z
" style="fill:none;"/>
  </g>
  <g id="axes_1">
   <g id="patch_2">
    <path d="M 72 378 
L 518.4 378 
L 518.4 51.84 
L 72 51.84 
z
" style="fill:none;"/>
   </g>
   <g id="line2d_1">
    <path clip-path="url(#p3dba06ee69)" d="M 92.290909 75.564872 
L 100.572913 105.292183 
L 108.854917 133.804709 
L 117.13692 161.102452 
L 125.418924 187.185411 
L 133.700928 212.053586 
L 141.982931 235.706977 
L 150.264935 258.145584 
L 158.546939 279.369408 
L 166.828942 299.378447 
L 175.110946 318.172703 
L 183.39295 335.752174 
L 191.674954 352.116862 
L 199.956957 367.266766 
L 208.238961 381.201886 
L 216.520965 393.922222 
L 224.802968 405.427775 
L 233.084972 415.718543 
L 241.366976 424.794527 
L 249.64898 432.655728 
L 250.077972 433 
M 348.092129 433 
L 349.033024 432.236991 
L 357.315028 424.306001 
L 365.597032 415.160227 
L 373.879035 404.799669 
L 382.161039 393.224327 
L 390.443043 380.434202 
L 398.725046 366.429292 
L 407.00705 351.209599 
L 415.289054 334.775122 
L 423.571058 317.12586 
L 431.853061 298.261815 
L 440.135065 278.182986 
L 448.417069 256.889374 
L 456.699072 234.380977 
L 464.981076 210.657796 
L 473.26308 185.719832 
L 481.545083 159.567083 
L 489.827087 132.199551 
L 498.109091 103.617235 
" style="fill:none;stroke:#dddddd;stroke-dasharray:5.55,2.4;stroke-dashoffset:0;stroke-width:1.5;"/>
   </g>
   <g id="matplotlib.axis_1">
    <g id="xtick_1">
     <g id="line2d_2">
      <defs>
       <path d="M 0 0 
L 0 3.5 
" id="m1c2ad5964a" style="stroke:#000000;stroke-width:0.8;"/>
      </defs>
      <g>
       <use style="stroke:#000000;stroke-width:0.8;" x="144.795915" xlink:href="#m1c2ad5964a" y="378"/>
      </g>
     </g>
     <g id="text_1">
      <!-- 500 -->
      <defs>
       <path d="M 10.796875 72.90625 
L 49.515625 72.90625 
L 49.515625 64.59375 
L 19.828125 64.59375 
L 19.828125 46.734375 
Q 21.96875 47.46875 24.109375 47.828125 
Q 26.265625 48.1875 28.421875 48.1875 
Q 40.625 48.1875 47.75 41.5 
Q 54.890625 34.8125 54.890625 23.390625 
Q 54.890625 11.625 47.5625 5.09375 
Q 40.234375 -1.421875 26.90625 -1.421875 
Q 22.3125 -1.421875 17.546875 -0.640625 
Q 12.796875 0.140625 7.71875 1.703125 
L 7.71875 11.625 
Q 12.109375 9.234375 16.796875 8.0625 
Q 21.484375 6.890625 26.703125 6.890625 
Q 35.15625 6.890625 40.078125 11.328125 
Q 45.015625 15.765625 45.015625 23.390625 
Q 45.015625 31 40.078125 35.4375 
Q 35.15625 39.890625 26.703125 39.890625 
Q 22.75 39.890625 18.8125 39.015625 
Q 14.890625 38.140625 10.796875 36.28125 
z
" id="DejaVuSans-53"/>
       <path d="M 31.78125 66.40625 
Q 24.171875 66.40625 20.328125 58.90625 
Q 16.5 51.421875 16.5 36.375 
Q 16.5 21.390625 20.328125 13.890625 
Q 24.171875 6.390625 31.78125 6.390625 
Q 39.453125 6.390625 43.28125 13.890625 
Q 47.125 21.390625 47.125 36.375 
Q 47.125 51.421875 43.28125 58.90625 
Q 39.453125 66.40625 31.78125 66.40625 
z
M 31.78125 74.21875 
Q 44.046875 74.21875 50.515625 64.515625 
Q 56.984375 54.828125 56.984375 36.375 
Q 56.984375 17.96875 50.515625 8.265625 
Q 44.046875 -1.421875 31.78125 -1.421875 
Q 19.53125 -1.421875 13.0625 8.265625 
Q 6.59375 17.96875 6.59375 36.375 
Q 6.59375 54.828125 13.0625 64.515625 
Q 19.53125 74.21875 31.78125 74.21875 
z
" id="DejaVuSans-48"/>
      </defs>
      <g transform="translate(135.252165 392.598437)scale(0.1 -0.1)">
       <use xlink:href="#DejaVuSans-53"/>
       <use x="63.623047" xlink:href="#DejaVuSans-48"/>
       <use x="127.246094" xlink:href="#DejaVuSans-48"/>
      </g>
     </g>
    </g>
    <g id="xtick_2">
     <g id="line2d_3">
      <g>
       <use style="stroke:#000000;stroke-width:0.8;" x="242.742022" xlink:href="#m1c2ad5964a" y="378"/>
      </g>
     </g>
     <g id="text_2">
      <!-- 1000 -->
      <defs>
       <path d="M 12.40625 8.296875 
L 28.515625 8.296875 
L 28.515625 63.921875 
L 10.984375 60.40625 
L 10.984375 69.390625 
L 28.421875 72.90625 
L 38.28125 72.90625 
L 38.28125 8.296875 
L 54.390625 8.296875 
L 54.390625 0 
L 12.40625 0 
z
" id="DejaVuSans-49"/>
      </defs>
      <g transform="translate(230.017022 392.598437)scale(0.1 -0.1)">
       <use xlink:href="#DejaVuSans-49"/>
       <use x="63.623047" xlink:href="#DejaVuSans-48"/>
       <use x="127.246094" xlink:href="#DejaVuSans-48"/>
       <use x="190.869141" xlink:href="#DejaVuSans-48"/>
      </g>
     </g>
    </g>
    <g id="xtick_3">
     <g id="line2d_4">
      <g>
       <use style="stroke:#000000;stroke-width:0.8;" x="340.688129" xlink:href="#m1c2ad5964a" y="378"/>
      </g>
     </g>
     <g id="text_3">
      <!-- 1500 -->
      <g transform="translate(327.963129 392.598437)scale(0.1 -0.1)">
       <use xlink:href="#DejaVuSans-49"/>
       <use x="63.623047" xlink:href="#DejaVuSans-53"/>
       <use x="127.246094" xlink:href="#DejaVuSans-48"/>
       <use x="190.869141" xlink:href="#DejaVuSans-48"/>
      </g>
     </g>
    </g>
    <g id="xtick_4">
     <g id="line2d_5">
      <g>
       <use style="stroke:#000000;stroke-width:0.8;" x="438.634236" xlink:href="#m1c2ad5964a" y="378"/>
      </g>
     </g>
     <g id="text_4">
      <!-- 2000 -->
      <defs>
       <path d="M 19.1875 8.296875 
L 53.609375 8.296875 
L 53.609375 0 
L 7.328125 0 
L 7.328125 8.296875 
Q 12.9375 14.109375 22.625 23.890625 
Q 32.328125 33.6875 34.8125 36.53125 
Q 39.546875 41.84375 41.421875 45.53125 
Q 43.3125 49.21875 43.3125 52.78125 
Q 43.3125 58.59375 39.234375 62.25 
Q 35.15625 65.921875 28.609375 65.921875 
Q 23.96875 65.921875 18.8125 64.3125 
Q 13.671875 62.703125 7.8125 59.421875 
L 7.8125 69.390625 
Q 13.765625 71.78125 18.9375 73 
Q 24.125 74.21875 28.421875 74.21875 
Q 39.75 74.21875 46.484375 68.546875 
Q 53.21875 62.890625 53.21875 53.421875 
Q 53.21875 48.921875 51.53125 44.890625 
Q 49.859375 40.875 45.40625 35.40625 
Q 44.1875 33.984375 37.640625 27.21875 
Q 31.109375 20.453125 19.1875 8.296875 
z
" id="DejaVuSans-50"/>
      </defs>
      <g transform="translate(425.909236 392.598437)scale(0.1 -0.1)">
       <use xlink:href="#DejaVuSans-50"/>
       <use x="63.623047" xlink:href="#DejaVuSans-48"/>
       <use x="127.246094" xlink:href="#DejaVuSans-48"/>
       <use x="190.869141" xlink:href="#DejaVuSans-48"/>
      </g>
     </g>
    </g>
    <g id="text_5">
     <!-- Coin Value -->
     <defs>
      <path d="M 64.40625 67.28125 
L 64.40625 56.890625 
Q 59.421875 61.53125 53.78125 63.8125 
Q 48.140625 66.109375 41.796875 66.109375 
Q 29.296875 66.109375 22.65625 58.46875 
Q 16.015625 50.828125 16.015625 36.375 
Q 16.015625 21.96875 22.65625 14.328125 
Q 29.296875 6.6875 41.796875 6.6875 
Q 48.140625 6.6875 53.78125 8.984375 
Q 59.421875 11.28125 64.40625 15.921875 
L 64.40625 5.609375 
Q 59.234375 2.09375 53.4375 0.328125 
Q 47.65625 -1.421875 41.21875 -1.421875 
Q 24.65625 -1.421875 15.125 8.703125 
Q 5.609375 18.84375 5.609375 36.375 
Q 5.609375 53.953125 15.125 64.078125 
Q 24.65625 74.21875 41.21875 74.21875 
Q 47.75 74.21875 53.53125 72.484375 
Q 59.328125 70.75 64.40625 67.28125 
z
" id="DejaVuSans-67"/>
      <path d="M 30.609375 48.390625 
Q 23.390625 48.390625 19.1875 42.75 
Q 14.984375 37.109375 14.984375 27.296875 
Q 14.984375 17.484375 19.15625 11.84375 
Q 23.34375 6.203125 30.609375 6.203125 
Q 37.796875 6.203125 41.984375 11.859375 
Q 46.1875 17.53125 46.1875 27.296875 
Q 46.1875 37.015625 41.984375 42.703125 
Q 37.796875 48.390625 30.609375 48.390625 
z
M 30.609375 56 
Q 42.328125 56 49.015625 48.375 
Q 55.71875 40.765625 55.71875 27.296875 
Q 55.71875 13.875 49.015625 6.21875 
Q 42.328125 -1.421875 30.609375 -1.421875 
Q 18.84375 -1.421875 12.171875 6.21875 
Q 5.515625 13.875 5.515625 27.296875 
Q 5.515625 40.765625 12.171875 48.375 
Q 18.84375 56 30.609375 56 
z
" id="DejaVuSans-111"/>
      <path d="M 9.421875 54.6875 
L 18.40625 54.6875 
L 18.40625 0 
L 9.421875 0 
z
M 9.421875 75.984375 
L 18.40625 75.984375 
L 18.40625 64.59375 
L 9.421875 64.59375 
z
" id="DejaVuSans-105"/>
      <path d="M 54.890625 33.015625 
L 54.890625 0 
L 45.90625 0 
L 45.90625 32.71875 
Q 45.90625 40.484375 42.875 44.328125 
Q 39.84375 48.1875 33.796875 48.1875 
Q 26.515625 48.1875 22.3125 43.546875 
Q 18.109375 38.921875 18.109375 30.90625 
L 18.109375 0 
L 9.078125 0 
L 9.078125 54.6875 
L 18.109375 54.6875 
L 18.109375 46.1875 
Q 21.34375 51.125 25.703125 53.5625 
Q 30.078125 56 35.796875 56 
Q 45.21875 56 50.046875 50.171875 
Q 54.890625 44.34375 54.890625 33.015625 
z
" id="DejaVuSans-110"/>
      <path id="DejaVuSans-32"/>
      <path d="M 28.609375 0 
L 0.78125 72.90625 
L 11.078125 72.90625 
L 34.1875 11.53125 
L 57.328125 72.90625 
L 67.578125 72.90625 
L 39.796875 0 
z
" id="DejaVuSans-86"/>
      <path d="M 34.28125 27.484375 
Q 23.390625 27.484375 19.1875 25 
Q 14.984375 22.515625 14.984375 16.5 
Q 14.984375 11.71875 18.140625 8.90625 
Q 21.296875 6.109375 26.703125 6.109375 
Q 34.1875 6.109375 38.703125 11.40625 
Q 43.21875 16.703125 43.21875 25.484375 
L 43.21875 27.484375 
z
M 52.203125 31.203125 
L 52.203125 0 
L 43.21875 0 
L 43.21875 8.296875 
Q 40.140625 3.328125 35.546875 0.953125 
Q 30.953125 -1.421875 24.3125 -1.421875 
Q 15.921875 -1.421875 10.953125 3.296875 
Q 6 8.015625 6 15.921875 
Q 6 25.140625 12.171875 29.828125 
Q 18.359375 34.515625 30.609375 34.515625 
L 43.21875 34.515625 
L 43.21875 35.40625 
Q 43.21875 41.609375 39.140625 45 
Q 35.0625 48.390625 27.6875 48.390625 
Q 23 48.390625 18.546875 47.265625 
Q 14.109375 46.140625 10.015625 43.890625 
L 10.015625 52.203125 
Q 14.9375 54.109375 19.578125 55.046875 
Q 24.21875 56 28.609375 56 
Q 40.484375 56 46.34375 49.84375 
Q 52.203125 43.703125 52.203125 31.203125 
z
" id="DejaVuSans-97"/>
      <path d="M 9.421875 75.984375 
L 18.40625 75.984375 
L 18.40625 0 
L 9.421875 0 
z
" id="DejaVuSans-108"/>
      <path d="M 8.5 21.578125 
L 8.5 54.6875 
L 17.484375 54.6875 
L 17.484375 21.921875 
Q 17.484375 14.15625 20.5 10.265625 
Q 23.53125 6.390625 29.59375 6.390625 
Q 36.859375 6.390625 41.078125 11.03125 
Q 45.3125 15.671875 45.3125 23.6875 
L 45.3125 54.6875 
L 54.296875 54.6875 
L 54.296875 0 
L 45.3125 0 
L 45.3125 8.40625 
Q 42.046875 3.421875 37.71875 1 
Q 33.40625 -1.421875 27.6875 -1.421875 
Q 18.265625 -1.421875 13.375 4.4375 
Q 8.5 10.296875 8.5 21.578125 
z
M 31.109375 56 
z
" id="DejaVuSans-117"/>
      <path d="M 56.203125 29.59375 
L 56.203125 25.203125 
L 14.890625 25.203125 
Q 15.484375 15.921875 20.484375 11.0625 
Q 25.484375 6.203125 34.421875 6.203125 
Q 39.59375 6.203125 44.453125 7.46875 
Q 49.3125 8.734375 54.109375 11.28125 
L 54.109375 2.78125 
Q 49.265625 0.734375 44.1875 -0.34375 
Q 39.109375 -1.421875 33.890625 -1.421875 
Q 20.796875 -1.421875 13.15625 6.1875 
Q 5.515625 13.8125 5.515625 26.8125 
Q 5.515625 40.234375 12.765625 48.109375 
Q 20.015625 56 32.328125 56 
Q 43.359375 56 49.78125 48.890625 
Q 56.203125 41.796875 56.203125 29.59375 
z
M 47.21875 32.234375 
Q 47.125 39.59375 43.09375 43.984375 
Q 39.0625 48.390625 32.421875 48.390625 
Q 24.90625 48.390625 20.390625 44.140625 
Q 15.875 39.890625 15.1875 32.171875 
z
" id="DejaVuSans-101"/>
     </defs>
     <g transform="translate(268.389062 406.276563)scale(0.1 -0.1)">
      <use xlink:href="#DejaVuSans-67"/>
      <use x="69.824219" xlink:href="#DejaVuSans-111"/>
      <use x="131.005859" xlink:href="#DejaVuSans-105"/>
      <use x="158.789062" xlink:href="#DejaVuSans-110"/>
      <use x="222.167969" xlink:href="#DejaVuSans-32"/>
      <use x="253.955078" xlink:href="#DejaVuSans-86"/>
      <use x="322.253906" xlink:href="#DejaVuSans-97"/>
      <use x="383.533203" xlink:href="#DejaVuSans-108"/>
      <use x="411.316406" xlink:href="#DejaVuSans-117"/>
      <use x="474.695312" xlink:href="#DejaVuSans-101"/>
     </g>
    </g>
   </g>
   <g id="matplotlib.axis_2">
    <g id="ytick_1">
     <g id="line2d_6">
      <defs>
       <path d="M 0 0 
L -3.5 0 
" id="m71a7cb23b1" style="stroke:#000000;stroke-width:0.8;"/>
      </defs>
      <g>
       <use style="stroke:#000000;stroke-width:0.8;" x="72" xlink:href="#m71a7cb23b1" y="350.82"/>
      </g>
     </g>
     <g id="text_6">
      <!-- 0 -->
      <g transform="translate(58.6375 354.619219)scale(0.1 -0.1)">
       <use xlink:href="#DejaVuSans-48"/>
      </g>
     </g>
    </g>
    <g id="ytick_2">
     <g id="line2d_7">
      <g>
       <use style="stroke:#000000;stroke-width:0.8;" x="72" xlink:href="#m71a7cb23b1" y="290.154431"/>
      </g>
     </g>
     <g id="text_7">
      <!-- 100 -->
      <g transform="translate(45.9125 293.95365)scale(0.1 -0.1)">
       <use xlink:href="#DejaVuSans-49"/>
       <use x="63.623047" xlink:href="#DejaVuSans-48"/>
       <use x="127.246094" xlink:href="#DejaVuSans-48"/>
      </g>
     </g>
    </g>
    <g id="ytick_3">
     <g id="line2d_8">
      <g>
       <use style="stroke:#000000;stroke-width:0.8;" x="72" xlink:href="#m71a7cb23b1" y="229.488862"/>
      </g>
     </g>
     <g id="text_8">
      <!-- 200 -->
      <g transform="translate(45.9125 233.28808)scale(0.1 -0.1)">
       <use xlink:href="#DejaVuSans-50"/>
       <use x="63.623047" xlink:href="#DejaVuSans-48"/>
       <use x="127.246094" xlink:href="#DejaVuSans-48"/>
      </g>
     </g>
    </g>
    <g id="ytick_4">
     <g id="line2d_9">
      <g>
       <use style="stroke:#000000;stroke-width:0.8;" x="72" xlink:href="#m71a7cb23b1" y="168.823293"/>
      </g>
     </g>
     <g id="text_9">
      <!-- 300 -->
      <defs>
       <path d="M 40.578125 39.3125 
Q 47.65625 37.796875 51.625 33 
Q 55.609375 28.21875 55.609375 21.1875 
Q 55.609375 10.40625 48.1875 4.484375 
Q 40.765625 -1.421875 27.09375 -1.421875 
Q 22.515625 -1.421875 17.65625 -0.515625 
Q 12.796875 0.390625 7.625 2.203125 
L 7.625 11.71875 
Q 11.71875 9.328125 16.59375 8.109375 
Q 21.484375 6.890625 26.8125 6.890625 
Q 36.078125 6.890625 40.9375 10.546875 
Q 45.796875 14.203125 45.796875 21.1875 
Q 45.796875 27.640625 41.28125 31.265625 
Q 36.765625 34.90625 28.71875 34.90625 
L 20.21875 34.90625 
L 20.21875 43.015625 
L 29.109375 43.015625 
Q 36.375 43.015625 40.234375 45.921875 
Q 44.09375 48.828125 44.09375 54.296875 
Q 44.09375 59.90625 40.109375 62.90625 
Q 36.140625 65.921875 28.71875 65.921875 
Q 24.65625 65.921875 20.015625 65.03125 
Q 15.375 64.15625 9.8125 62.3125 
L 9.8125 71.09375 
Q 15.4375 72.65625 20.34375 73.4375 
Q 25.25 74.21875 29.59375 74.21875 
Q 40.828125 74.21875 47.359375 69.109375 
Q 53.90625 64.015625 53.90625 55.328125 
Q 53.90625 49.265625 50.4375 45.09375 
Q 46.96875 40.921875 40.578125 39.3125 
z
" id="DejaVuSans-51"/>
      </defs>
      <g transform="translate(45.9125 172.622511)scale(0.1 -0.1)">
       <use xlink:href="#DejaVuSans-51"/>
       <use x="63.623047" xlink:href="#DejaVuSans-48"/>
       <use x="127.246094" xlink:href="#DejaVuSans-48"/>
      </g>
     </g>
    </g>
    <g id="ytick_5">
     <g id="line2d_10">
      <g>
       <use style="stroke:#000000;stroke-width:0.8;" x="72" xlink:href="#m71a7cb23b1" y="108.157723"/>
      </g>
     </g>
     <g id="text_10">
      <!-- 400 -->
      <defs>
       <path d="M 37.796875 64.3125 
L 12.890625 25.390625 
L 37.796875 25.390625 
z
M 35.203125 72.90625 
L 47.609375 72.90625 
L 47.609375 25.390625 
L 58.015625 25.390625 
L 58.015625 17.1875 
L 47.609375 17.1875 
L 47.609375 0 
L 37.796875 0 
L 37.796875 17.1875 
L 4.890625 17.1875 
L 4.890625 26.703125 
z
" id="DejaVuSans-52"/>
      </defs>
      <g transform="translate(45.9125 111.956942)scale(0.1 -0.1)">
       <use xlink:href="#DejaVuSans-52"/>
       <use x="63.623047" xlink:href="#DejaVuSans-48"/>
       <use x="127.246094" xlink:href="#DejaVuSans-48"/>
      </g>
     </g>
    </g>
    <g id="text_11">
     <!-- Exercise / Continuation Value -->
     <defs>
      <path d="M 9.8125 72.90625 
L 55.90625 72.90625 
L 55.90625 64.59375 
L 19.671875 64.59375 
L 19.671875 43.015625 
L 54.390625 43.015625 
L 54.390625 34.71875 
L 19.671875 34.71875 
L 19.671875 8.296875 
L 56.78125 8.296875 
L 56.78125 0 
L 9.8125 0 
z
" id="DejaVuSans-69"/>
      <path d="M 54.890625 54.6875 
L 35.109375 28.078125 
L 55.90625 0 
L 45.3125 0 
L 29.390625 21.484375 
L 13.484375 0 
L 2.875 0 
L 24.125 28.609375 
L 4.6875 54.6875 
L 15.28125 54.6875 
L 29.78125 35.203125 
L 44.28125 54.6875 
z
" id="DejaVuSans-120"/>
      <path d="M 41.109375 46.296875 
Q 39.59375 47.171875 37.8125 47.578125 
Q 36.03125 48 33.890625 48 
Q 26.265625 48 22.1875 43.046875 
Q 18.109375 38.09375 18.109375 28.8125 
L 18.109375 0 
L 9.078125 0 
L 9.078125 54.6875 
L 18.109375 54.6875 
L 18.109375 46.1875 
Q 20.953125 51.171875 25.484375 53.578125 
Q 30.03125 56 36.53125 56 
Q 37.453125 56 38.578125 55.875 
Q 39.703125 55.765625 41.0625 55.515625 
z
" id="DejaVuSans-114"/>
      <path d="M 48.78125 52.59375 
L 48.78125 44.1875 
Q 44.96875 46.296875 41.140625 47.34375 
Q 37.3125 48.390625 33.40625 48.390625 
Q 24.65625 48.390625 19.8125 42.84375 
Q 14.984375 37.3125 14.984375 27.296875 
Q 14.984375 17.28125 19.8125 11.734375 
Q 24.65625 6.203125 33.40625 6.203125 
Q 37.3125 6.203125 41.140625 7.25 
Q 44.96875 8.296875 48.78125 10.40625 
L 48.78125 2.09375 
Q 45.015625 0.34375 40.984375 -0.53125 
Q 36.96875 -1.421875 32.421875 -1.421875 
Q 20.0625 -1.421875 12.78125 6.34375 
Q 5.515625 14.109375 5.515625 27.296875 
Q 5.515625 40.671875 12.859375 48.328125 
Q 20.21875 56 33.015625 56 
Q 37.15625 56 41.109375 55.140625 
Q 45.0625 54.296875 48.78125 52.59375 
z
" id="DejaVuSans-99"/>
      <path d="M 44.28125 53.078125 
L 44.28125 44.578125 
Q 40.484375 46.53125 36.375 47.5 
Q 32.28125 48.484375 27.875 48.484375 
Q 21.1875 48.484375 17.84375 46.4375 
Q 14.5 44.390625 14.5 40.28125 
Q 14.5 37.15625 16.890625 35.375 
Q 19.28125 33.59375 26.515625 31.984375 
L 29.59375 31.296875 
Q 39.15625 29.25 43.1875 25.515625 
Q 47.21875 21.78125 47.21875 15.09375 
Q 47.21875 7.46875 41.1875 3.015625 
Q 35.15625 -1.421875 24.609375 -1.421875 
Q 20.21875 -1.421875 15.453125 -0.5625 
Q 10.6875 0.296875 5.421875 2 
L 5.421875 11.28125 
Q 10.40625 8.6875 15.234375 7.390625 
Q 20.0625 6.109375 24.8125 6.109375 
Q 31.15625 6.109375 34.5625 8.28125 
Q 37.984375 10.453125 37.984375 14.40625 
Q 37.984375 18.0625 35.515625 20.015625 
Q 33.0625 21.96875 24.703125 23.78125 
L 21.578125 24.515625 
Q 13.234375 26.265625 9.515625 29.90625 
Q 5.8125 33.546875 5.8125 39.890625 
Q 5.8125 47.609375 11.28125 51.796875 
Q 16.75 56 26.8125 56 
Q 31.78125 56 36.171875 55.265625 
Q 40.578125 54.546875 44.28125 53.078125 
z
" id="DejaVuSans-115"/>
      <path d="M 25.390625 72.90625 
L 33.6875 72.90625 
L 8.296875 -9.28125 
L 0 -9.28125 
z
" id="DejaVuSans-47"/>
      <path d="M 18.3125 70.21875 
L 18.3125 54.6875 
L 36.8125 54.6875 
L 36.8125 47.703125 
L 18.3125 47.703125 
L 18.3125 18.015625 
Q 18.3125 11.328125 20.140625 9.421875 
Q 21.96875 7.515625 27.59375 7.515625 
L 36.8125 7.515625 
L 36.8125 0 
L 27.59375 0 
Q 17.1875 0 13.234375 3.875 
Q 9.28125 7.765625 9.28125 18.015625 
L 9.28125 47.703125 
L 2.6875 47.703125 
L 2.6875 54.6875 
L 9.28125 54.6875 
L 9.28125 70.21875 
z
" id="DejaVuSans-116"/>
     </defs>
     <g transform="translate(39.832812 288.598906)rotate(-90)scale(0.1 -0.1)">
      <use xlink:href="#DejaVuSans-69"/>
      <use x="63.183594" xlink:href="#DejaVuSans-120"/>
      <use x="122.316406" xlink:href="#DejaVuSans-101"/>
      <use x="183.839844" xlink:href="#DejaVuSans-114"/>
      <use x="224.921875" xlink:href="#DejaVuSans-99"/>
      <use x="279.902344" xlink:href="#DejaVuSans-105"/>
      <use x="307.685547" xlink:href="#DejaVuSans-115"/>
      <use x="359.785156" xlink:href="#DejaVuSans-101"/>
      <use x="421.308594" xlink:href="#DejaVuSans-32"/>
      <use x="453.095703" xlink:href="#DejaVuSans-47"/>
      <use x="486.787109" xlink:href="#DejaVuSans-32"/>
      <use x="518.574219" xlink:href="#DejaVuSans-67"/>
      <use x="588.398438" xlink:href="#DejaVuSans-111"/>
      <use x="649.580078" xlink:href="#DejaVuSans-110"/>
      <use x="712.958984" xlink:href="#DejaVuSans-116"/>
      <use x="752.167969" xlink:href="#DejaVuSans-105"/>
      <use x="779.951172" xlink:href="#DejaVuSans-110"/>
      <use x="843.330078" xlink:href="#DejaVuSans-117"/>
      <use x="906.708984" xlink:href="#DejaVuSans-97"/>
      <use x="967.988281" xlink:href="#DejaVuSans-116"/>
      <use x="1007.197266" xlink:href="#DejaVuSans-105"/>
      <use x="1034.980469" xlink:href="#DejaVuSans-111"/>
      <use x="1096.162109" xlink:href="#DejaVuSans-110"/>
      <use x="1159.541016" xlink:href="#DejaVuSans-32"/>
      <use x="1191.328125" xlink:href="#DejaVuSans-86"/>
      <use x="1259.626953" xlink:href="#DejaVuSans-97"/>
      <use x="1320.90625" xlink:href="#DejaVuSans-108"/>
      <use x="1348.689453" xlink:href="#DejaVuSans-117"/>
      <use x="1412.068359" xlink:href="#DejaVuSans-101"/>
     </g>
    </g>
   </g>
   <g id="line2d_11">
    <path clip-path="url(#p3dba06ee69)" d="M 92.290909 75.564872 
L 93.156977 78.7304 
L 94.023046 81.882644 
L 94.889114 85.021604 
L 95.755183 88.14728 
L 96.621251 91.259672 
L 97.487319 94.35878 
L 98.353388 97.444603 
L 99.219456 100.517143 
L 100.085524 103.576398 
L 100.951593 106.622369 
L 101.817661 109.655056 
L 102.683729 112.674459 
L 103.549798 115.680578 
L 104.415866 118.673413 
L 105.281934 121.652964 
L 106.148003 124.61923 
L 107.014071 127.572213 
L 107.88014 130.511911 
L 108.746208 133.438325 
L 109.612276 136.351455 
L 110.478345 139.251301 
L 111.344413 142.137863 
L 112.210481 145.011141 
L 113.07655 147.871134 
L 113.942618 150.717844 
L 114.808686 153.551269 
L 115.674755 156.371411 
L 116.540823 159.178268 
L 117.406891 161.971841 
L 118.27296 164.75213 
L 119.139028 167.519135 
L 120.005097 170.272856 
L 120.871165 173.013292 
L 121.737233 175.740445 
L 122.603302 178.454313 
L 123.46937 181.154897 
L 124.335438 183.842198 
L 125.201507 186.516214 
L 126.067575 189.176946 
L 126.933643 191.824394 
L 127.799712 194.458557 
L 128.66578 197.079437 
L 129.531848 199.687032 
L 130.397917 202.281344 
L 131.263985 204.862371 
L 132.130054 207.430114 
L 132.996122 209.984573 
L 133.86219 212.525748 
L 134.728259 215.053639 
L 135.594327 217.568246 
L 136.460395 220.069569 
L 137.326464 222.557607 
L 138.192532 225.032362 
L 139.0586 227.493832 
L 139.924669 229.942018 
L 140.790737 232.37692 
L 141.656805 234.798538 
L 142.522874 237.206872 
L 143.388942 239.601922 
L 144.255011 241.983687 
L 145.121079 244.352169 
L 145.987147 246.707366 
L 146.853216 249.049279 
L 147.719284 251.377909 
L 148.585352 253.693254 
L 149.451421 255.995315 
L 150.317489 258.284091 
L 151.183557 260.559584 
L 152.049626 262.821793 
L 152.915694 265.070717 
L 153.781762 267.306358 
L 154.647831 269.528714 
L 155.513899 271.737786 
L 156.379968 273.933574 
L 157.246036 276.116078 
L 158.112104 278.285298 
L 158.978173 280.441234 
L 159.844241 282.583885 
L 160.710309 284.713253 
L 161.576378 286.829336 
L 162.442446 288.932135 
L 163.308514 291.02165 
L 164.174583 293.097882 
L 165.040651 295.160828 
L 165.90672 297.210491 
L 166.772788 299.24687 
L 167.638856 301.269965 
L 168.504925 303.279775 
L 169.370993 305.276301 
L 170.237061 307.259544 
L 171.10313 309.229502 
L 171.969198 311.186176 
L 172.835266 313.129566 
L 173.701335 315.059672 
L 174.567403 316.976493 
L 175.433471 318.880031 
L 176.29954 320.770284 
L 177.165608 322.647254 
L 178.031677 324.510939 
" style="fill:none;stroke:#1f77b4;stroke-linecap:square;stroke-width:1.5;"/>
   </g>
   <g id="patch_3">
    <path d="M 72 378 
L 72 51.84 
" style="fill:none;stroke:#000000;stroke-linecap:square;stroke-linejoin:miter;stroke-width:0.8;"/>
   </g>
   <g id="patch_4">
    <path d="M 518.4 378 
L 518.4 51.84 
" style="fill:none;stroke:#000000;stroke-linecap:square;stroke-linejoin:miter;stroke-width:0.8;"/>
   </g>
   <g id="patch_5">
    <path d="M 72 378 
L 518.4 378 
" style="fill:none;stroke:#000000;stroke-linecap:square;stroke-linejoin:miter;stroke-width:0.8;"/>
   </g>
   <g id="patch_6">
    <path d="M 72 51.84 
L 518.4 51.84 
" style="fill:none;stroke:#000000;stroke-linecap:square;stroke-linejoin:miter;stroke-width:0.8;"/>
   </g>
   <g id="line2d_12">
    <defs>
     <path d="M 0 -3 
L -3 3 
L 3 3 
z
" id="mcb0917e611" style="stroke:#008000;stroke-linejoin:miter;"/>
    </defs>
    <g clip-path="url(#p3dba06ee69)">
     <use style="fill:#008000;stroke:#008000;stroke-linejoin:miter;" x="263.428406" xlink:href="#mcb0917e611" y="350.82"/>
     <use style="fill:#008000;stroke:#008000;stroke-linejoin:miter;" x="149.266799" xlink:href="#mcb0917e611" y="255.467789"/>
     <use style="fill:#008000;stroke:#008000;stroke-linejoin:miter;" x="134.676178" xlink:href="#mcb0917e611" y="210.282311"/>
     <use style="fill:#008000;stroke:#008000;stroke-linejoin:miter;" x="171.384146" xlink:href="#mcb0917e611" y="286.724734"/>
     <use style="fill:#008000;stroke:#008000;stroke-linejoin:miter;" x="198.17338" xlink:href="#mcb0917e611" y="300.254002"/>
     <use style="fill:#008000;stroke:#008000;stroke-linejoin:miter;" x="214.977205" xlink:href="#mcb0917e611" y="350.82"/>
     <use style="fill:#008000;stroke:#008000;stroke-linejoin:miter;" x="275.784183" xlink:href="#mcb0917e611" y="350.82"/>
     <use style="fill:#008000;stroke:#008000;stroke-linejoin:miter;" x="498.109091" xlink:href="#mcb0917e611" y="350.82"/>
     <use style="fill:#008000;stroke:#008000;stroke-linejoin:miter;" x="294.345836" xlink:href="#mcb0917e611" y="350.82"/>
     <use style="fill:#008000;stroke:#008000;stroke-linejoin:miter;" x="135.946662" xlink:href="#mcb0917e611" y="214.216855"/>
     <use style="fill:#008000;stroke:#008000;stroke-linejoin:miter;" x="307.946176" xlink:href="#mcb0917e611" y="350.82"/>
     <use style="fill:#008000;stroke:#008000;stroke-linejoin:miter;" x="140.514882" xlink:href="#mcb0917e611" y="228.364105"/>
     <use style="fill:#008000;stroke:#008000;stroke-linejoin:miter;" x="160.966195" xlink:href="#mcb0917e611" y="233.120279"/>
     <use style="fill:#008000;stroke:#008000;stroke-linejoin:miter;" x="236.36434" xlink:href="#mcb0917e611" y="350.82"/>
     <use style="fill:#008000;stroke:#008000;stroke-linejoin:miter;" x="137.654498" xlink:href="#mcb0917e611" y="219.505825"/>
     <use style="fill:#008000;stroke:#008000;stroke-linejoin:miter;" x="148.57057" xlink:href="#mcb0917e611" y="253.311647"/>
     <use style="fill:#008000;stroke:#008000;stroke-linejoin:miter;" x="150.939644" xlink:href="#mcb0917e611" y="320.570396"/>
     <use style="fill:#008000;stroke:#008000;stroke-linejoin:miter;" x="216.934948" xlink:href="#mcb0917e611" y="350.82"/>
     <use style="fill:#008000;stroke:#008000;stroke-linejoin:miter;" x="206.279151" xlink:href="#mcb0917e611" y="348.855235"/>
     <use style="fill:#008000;stroke:#008000;stroke-linejoin:miter;" x="129.170012" xlink:href="#mcb0917e611" y="193.230346"/>
     <use style="fill:#008000;stroke:#008000;stroke-linejoin:miter;" x="215.884212" xlink:href="#mcb0917e611" y="350.82"/>
     <use style="fill:#008000;stroke:#008000;stroke-linejoin:miter;" x="192.437371" xlink:href="#mcb0917e611" y="350.82"/>
     <use style="fill:#008000;stroke:#008000;stroke-linejoin:miter;" x="186.873787" xlink:href="#mcb0917e611" y="304.687829"/>
     <use style="fill:#008000;stroke:#008000;stroke-linejoin:miter;" x="209.212327" xlink:href="#mcb0917e611" y="350.82"/>
     <use style="fill:#008000;stroke:#008000;stroke-linejoin:miter;" x="92.290909" xlink:href="#mcb0917e611" y="70.337293"/>
     <use style="fill:#008000;stroke:#008000;stroke-linejoin:miter;" x="219.423786" xlink:href="#mcb0917e611" y="350.82"/>
     <use style="fill:#008000;stroke:#008000;stroke-linejoin:miter;" x="192.342428" xlink:href="#mcb0917e611" y="274.151046"/>
     <use style="fill:#008000;stroke:#008000;stroke-linejoin:miter;" x="213.265207" xlink:href="#mcb0917e611" y="350.82"/>
     <use style="fill:#008000;stroke:#008000;stroke-linejoin:miter;" x="149.7016" xlink:href="#mcb0917e611" y="310.760804"/>
     <use style="fill:#008000;stroke:#008000;stroke-linejoin:miter;" x="206.445205" xlink:href="#mcb0917e611" y="350.82"/>
     <use style="fill:#008000;stroke:#008000;stroke-linejoin:miter;" x="149.600987" xlink:href="#mcb0917e611" y="252.203651"/>
     <use style="fill:#008000;stroke:#008000;stroke-linejoin:miter;" x="102.670386" xlink:href="#mcb0917e611" y="111.164047"/>
     <use style="fill:#008000;stroke:#008000;stroke-linejoin:miter;" x="214.268589" xlink:href="#mcb0917e611" y="350.82"/>
     <use style="fill:#008000;stroke:#008000;stroke-linejoin:miter;" x="206.244984" xlink:href="#mcb0917e611" y="310.449168"/>
     <use style="fill:#008000;stroke:#008000;stroke-linejoin:miter;" x="184.104925" xlink:href="#mcb0917e611" y="350.82"/>
     <use style="fill:#008000;stroke:#008000;stroke-linejoin:miter;" x="138.575681" xlink:href="#mcb0917e611" y="222.358624"/>
     <use style="fill:#008000;stroke:#008000;stroke-linejoin:miter;" x="166.041831" xlink:href="#mcb0917e611" y="273.963258"/>
     <use style="fill:#008000;stroke:#008000;stroke-linejoin:miter;" x="214.945457" xlink:href="#mcb0917e611" y="350.82"/>
     <use style="fill:#008000;stroke:#008000;stroke-linejoin:miter;" x="169.322182" xlink:href="#mcb0917e611" y="350.82"/>
     <use style="fill:#008000;stroke:#008000;stroke-linejoin:miter;" x="193.408523" xlink:href="#mcb0917e611" y="350.82"/>
     <use style="fill:#008000;stroke:#008000;stroke-linejoin:miter;" x="176.551856" xlink:href="#mcb0917e611" y="324.082663"/>
     <use style="fill:#008000;stroke:#008000;stroke-linejoin:miter;" x="178.031677" xlink:href="#mcb0917e611" y="350.82"/>
     <use style="fill:#008000;stroke:#008000;stroke-linejoin:miter;" x="200.540196" xlink:href="#mcb0917e611" y="350.82"/>
     <use style="fill:#008000;stroke:#008000;stroke-linejoin:miter;" x="126.289739" xlink:href="#mcb0917e611" y="184.310471"/>
     <use style="fill:#008000;stroke:#008000;stroke-linejoin:miter;" x="168.417927" xlink:href="#mcb0917e611" y="269.05788"/>
     <use style="fill:#008000;stroke:#008000;stroke-linejoin:miter;" x="253.331622" xlink:href="#mcb0917e611" y="350.82"/>
     <use style="fill:#008000;stroke:#008000;stroke-linejoin:miter;" x="116.130746" xlink:href="#mcb0917e611" y="152.849236"/>
     <use style="fill:#008000;stroke:#008000;stroke-linejoin:miter;" x="203.570747" xlink:href="#mcb0917e611" y="350.82"/>
     <use style="fill:#008000;stroke:#008000;stroke-linejoin:miter;" x="106.400625" xlink:href="#mcb0917e611" y="122.71617"/>
     <use style="fill:#008000;stroke:#008000;stroke-linejoin:miter;" x="181.497491" xlink:href="#mcb0917e611" y="275.934325"/>
    </g>
   </g>
   <g id="text_12">
    <!-- Approximation of Continuation Value at t=3.73 -->
    <defs>
     <path d="M 34.1875 63.1875 
L 20.796875 26.90625 
L 47.609375 26.90625 
z
M 28.609375 72.90625 
L 39.796875 72.90625 
L 67.578125 0 
L 57.328125 0 
L 50.6875 18.703125 
L 17.828125 18.703125 
L 11.1875 0 
L 0.78125 0 
z
" id="DejaVuSans-65"/>
     <path d="M 18.109375 8.203125 
L 18.109375 -20.796875 
L 9.078125 -20.796875 
L 9.078125 54.6875 
L 18.109375 54.6875 
L 18.109375 46.390625 
Q 20.953125 51.265625 25.265625 53.625 
Q 29.59375 56 35.59375 56 
Q 45.5625 56 51.78125 48.09375 
Q 58.015625 40.1875 58.015625 27.296875 
Q 58.015625 14.40625 51.78125 6.484375 
Q 45.5625 -1.421875 35.59375 -1.421875 
Q 29.59375 -1.421875 25.265625 0.953125 
Q 20.953125 3.328125 18.109375 8.203125 
z
M 48.6875 27.296875 
Q 48.6875 37.203125 44.609375 42.84375 
Q 40.53125 48.484375 33.40625 48.484375 
Q 26.265625 48.484375 22.1875 42.84375 
Q 18.109375 37.203125 18.109375 27.296875 
Q 18.109375 17.390625 22.1875 11.75 
Q 26.265625 6.109375 33.40625 6.109375 
Q 40.53125 6.109375 44.609375 11.75 
Q 48.6875 17.390625 48.6875 27.296875 
z
" id="DejaVuSans-112"/>
     <path d="M 52 44.1875 
Q 55.375 50.25 60.0625 53.125 
Q 64.75 56 71.09375 56 
Q 79.640625 56 84.28125 50.015625 
Q 88.921875 44.046875 88.921875 33.015625 
L 88.921875 0 
L 79.890625 0 
L 79.890625 32.71875 
Q 79.890625 40.578125 77.09375 44.375 
Q 74.3125 48.1875 68.609375 48.1875 
Q 61.625 48.1875 57.5625 43.546875 
Q 53.515625 38.921875 53.515625 30.90625 
L 53.515625 0 
L 44.484375 0 
L 44.484375 32.71875 
Q 44.484375 40.625 41.703125 44.40625 
Q 38.921875 48.1875 33.109375 48.1875 
Q 26.21875 48.1875 22.15625 43.53125 
Q 18.109375 38.875 18.109375 30.90625 
L 18.109375 0 
L 9.078125 0 
L 9.078125 54.6875 
L 18.109375 54.6875 
L 18.109375 46.1875 
Q 21.1875 51.21875 25.484375 53.609375 
Q 29.78125 56 35.6875 56 
Q 41.65625 56 45.828125 52.96875 
Q 50 49.953125 52 44.1875 
z
" id="DejaVuSans-109"/>
     <path d="M 37.109375 75.984375 
L 37.109375 68.5 
L 28.515625 68.5 
Q 23.6875 68.5 21.796875 66.546875 
Q 19.921875 64.59375 19.921875 59.515625 
L 19.921875 54.6875 
L 34.71875 54.6875 
L 34.71875 47.703125 
L 19.921875 47.703125 
L 19.921875 0 
L 10.890625 0 
L 10.890625 47.703125 
L 2.296875 47.703125 
L 2.296875 54.6875 
L 10.890625 54.6875 
L 10.890625 58.5 
Q 10.890625 67.625 15.140625 71.796875 
Q 19.390625 75.984375 28.609375 75.984375 
z
" id="DejaVuSans-102"/>
     <path d="M 10.59375 45.40625 
L 73.1875 45.40625 
L 73.1875 37.203125 
L 10.59375 37.203125 
z
M 10.59375 25.484375 
L 73.1875 25.484375 
L 73.1875 17.1875 
L 10.59375 17.1875 
z
" id="DejaVuSans-61"/>
     <path d="M 10.6875 12.40625 
L 21 12.40625 
L 21 0 
L 10.6875 0 
z
" id="DejaVuSans-46"/>
     <path d="M 8.203125 72.90625 
L 55.078125 72.90625 
L 55.078125 68.703125 
L 28.609375 0 
L 18.3125 0 
L 43.21875 64.59375 
L 8.203125 64.59375 
z
" id="DejaVuSans-55"/>
    </defs>
    <g transform="translate(153.632812 45.84)scale(0.12 -0.12)">
     <use xlink:href="#DejaVuSans-65"/>
     <use x="68.408203" xlink:href="#DejaVuSans-112"/>
     <use x="131.884766" xlink:href="#DejaVuSans-112"/>
     <use x="195.361328" xlink:href="#DejaVuSans-114"/>
     <use x="236.443359" xlink:href="#DejaVuSans-111"/>
     <use x="297.578125" xlink:href="#DejaVuSans-120"/>
     <use x="356.757812" xlink:href="#DejaVuSans-105"/>
     <use x="384.541016" xlink:href="#DejaVuSans-109"/>
     <use x="481.953125" xlink:href="#DejaVuSans-97"/>
     <use x="543.232422" xlink:href="#DejaVuSans-116"/>
     <use x="582.441406" xlink:href="#DejaVuSans-105"/>
     <use x="610.224609" xlink:href="#DejaVuSans-111"/>
     <use x="671.40625" xlink:href="#DejaVuSans-110"/>
     <use x="734.785156" xlink:href="#DejaVuSans-32"/>
     <use x="766.572266" xlink:href="#DejaVuSans-111"/>
     <use x="827.753906" xlink:href="#DejaVuSans-102"/>
     <use x="862.958984" xlink:href="#DejaVuSans-32"/>
     <use x="894.746094" xlink:href="#DejaVuSans-67"/>
     <use x="964.570312" xlink:href="#DejaVuSans-111"/>
     <use x="1025.751953" xlink:href="#DejaVuSans-110"/>
     <use x="1089.130859" xlink:href="#DejaVuSans-116"/>
     <use x="1128.339844" xlink:href="#DejaVuSans-105"/>
     <use x="1156.123047" xlink:href="#DejaVuSans-110"/>
     <use x="1219.501953" xlink:href="#DejaVuSans-117"/>
     <use x="1282.880859" xlink:href="#DejaVuSans-97"/>
     <use x="1344.160156" xlink:href="#DejaVuSans-116"/>
     <use x="1383.369141" xlink:href="#DejaVuSans-105"/>
     <use x="1411.152344" xlink:href="#DejaVuSans-111"/>
     <use x="1472.333984" xlink:href="#DejaVuSans-110"/>
     <use x="1535.712891" xlink:href="#DejaVuSans-32"/>
     <use x="1567.5" xlink:href="#DejaVuSans-86"/>
     <use x="1635.798828" xlink:href="#DejaVuSans-97"/>
     <use x="1697.078125" xlink:href="#DejaVuSans-108"/>
     <use x="1724.861328" xlink:href="#DejaVuSans-117"/>
     <use x="1788.240234" xlink:href="#DejaVuSans-101"/>
     <use x="1849.763672" xlink:href="#DejaVuSans-32"/>
     <use x="1881.550781" xlink:href="#DejaVuSans-97"/>
     <use x="1942.830078" xlink:href="#DejaVuSans-116"/>
     <use x="1982.039062" xlink:href="#DejaVuSans-32"/>
     <use x="2013.826172" xlink:href="#DejaVuSans-116"/>
     <use x="2053.035156" xlink:href="#DejaVuSans-61"/>
     <use x="2136.824219" xlink:href="#DejaVuSans-51"/>
     <use x="2200.447266" xlink:href="#DejaVuSans-46"/>
     <use x="2232.234375" xlink:href="#DejaVuSans-55"/>
     <use x="2295.857422" xlink:href="#DejaVuSans-51"/>
    </g>
   </g>
   <g id="line2d_13">
    <defs>
     <path d="M -3 3 
L 3 -3 
M -3 -3 
L 3 3 
" id="m7bb86d125e" style="stroke:#dddddd;"/>
    </defs>
    <g clip-path="url(#p3dba06ee69)">
     <use style="fill:#dddddd;stroke:#dddddd;" x="263.428406" xlink:href="#m7bb86d125e" y="350.82"/>
     <use style="fill:#dddddd;stroke:#dddddd;" x="171.384146" xlink:href="#m7bb86d125e" y="323.962673"/>
     <use style="fill:#dddddd;stroke:#dddddd;" x="198.17338" xlink:href="#m7bb86d125e" y="350.82"/>
     <use style="fill:#dddddd;stroke:#dddddd;" x="214.977205" xlink:href="#m7bb86d125e" y="350.82"/>
     <use style="fill:#dddddd;stroke:#dddddd;" x="275.784183" xlink:href="#m7bb86d125e" y="350.82"/>
     <use style="fill:#dddddd;stroke:#dddddd;" x="498.109091" xlink:href="#m7bb86d125e" y="350.82"/>
     <use style="fill:#dddddd;stroke:#dddddd;" x="294.345836" xlink:href="#m7bb86d125e" y="350.82"/>
     <use style="fill:#dddddd;stroke:#dddddd;" x="307.946176" xlink:href="#m7bb86d125e" y="350.82"/>
     <use style="fill:#dddddd;stroke:#dddddd;" x="160.966195" xlink:href="#m7bb86d125e" y="291.699475"/>
     <use style="fill:#dddddd;stroke:#dddddd;" x="236.36434" xlink:href="#m7bb86d125e" y="350.82"/>
     <use style="fill:#dddddd;stroke:#dddddd;" x="150.939644" xlink:href="#m7bb86d125e" y="260.648397"/>
     <use style="fill:#dddddd;stroke:#dddddd;" x="216.934948" xlink:href="#m7bb86d125e" y="350.82"/>
     <use style="fill:#dddddd;stroke:#dddddd;" x="206.279151" xlink:href="#m7bb86d125e" y="350.82"/>
     <use style="fill:#dddddd;stroke:#dddddd;" x="215.884212" xlink:href="#m7bb86d125e" y="350.82"/>
     <use style="fill:#dddddd;stroke:#dddddd;" x="192.437371" xlink:href="#m7bb86d125e" y="350.82"/>
     <use style="fill:#dddddd;stroke:#dddddd;" x="186.873787" xlink:href="#m7bb86d125e" y="350.82"/>
     <use style="fill:#dddddd;stroke:#dddddd;" x="209.212327" xlink:href="#m7bb86d125e" y="350.82"/>
     <use style="fill:#dddddd;stroke:#dddddd;" x="92.290909" xlink:href="#m7bb86d125e" y="79.02"/>
     <use style="fill:#dddddd;stroke:#dddddd;" x="219.423786" xlink:href="#m7bb86d125e" y="350.82"/>
     <use style="fill:#dddddd;stroke:#dddddd;" x="192.342428" xlink:href="#m7bb86d125e" y="350.82"/>
     <use style="fill:#dddddd;stroke:#dddddd;" x="213.265207" xlink:href="#m7bb86d125e" y="350.82"/>
     <use style="fill:#dddddd;stroke:#dddddd;" x="149.7016" xlink:href="#m7bb86d125e" y="256.814317"/>
     <use style="fill:#dddddd;stroke:#dddddd;" x="206.445205" xlink:href="#m7bb86d125e" y="350.82"/>
     <use style="fill:#dddddd;stroke:#dddddd;" x="149.600987" xlink:href="#m7bb86d125e" y="256.502729"/>
     <use style="fill:#dddddd;stroke:#dddddd;" x="214.268589" xlink:href="#m7bb86d125e" y="350.82"/>
     <use style="fill:#dddddd;stroke:#dddddd;" x="206.244984" xlink:href="#m7bb86d125e" y="350.82"/>
     <use style="fill:#dddddd;stroke:#dddddd;" x="184.104925" xlink:href="#m7bb86d125e" y="350.82"/>
     <use style="fill:#dddddd;stroke:#dddddd;" x="166.041831" xlink:href="#m7bb86d125e" y="307.418136"/>
     <use style="fill:#dddddd;stroke:#dddddd;" x="214.945457" xlink:href="#m7bb86d125e" y="350.82"/>
     <use style="fill:#dddddd;stroke:#dddddd;" x="169.322182" xlink:href="#m7bb86d125e" y="317.577006"/>
     <use style="fill:#dddddd;stroke:#dddddd;" x="193.408523" xlink:href="#m7bb86d125e" y="350.82"/>
     <use style="fill:#dddddd;stroke:#dddddd;" x="176.551856" xlink:href="#m7bb86d125e" y="339.966476"/>
     <use style="fill:#dddddd;stroke:#dddddd;" x="178.031677" xlink:href="#m7bb86d125e" y="344.549311"/>
     <use style="fill:#dddddd;stroke:#dddddd;" x="200.540196" xlink:href="#m7bb86d125e" y="350.82"/>
     <use style="fill:#dddddd;stroke:#dddddd;" x="168.417927" xlink:href="#m7bb86d125e" y="314.776633"/>
     <use style="fill:#dddddd;stroke:#dddddd;" x="253.331622" xlink:href="#m7bb86d125e" y="350.82"/>
     <use style="fill:#dddddd;stroke:#dddddd;" x="203.570747" xlink:href="#m7bb86d125e" y="350.82"/>
     <use style="fill:#dddddd;stroke:#dddddd;" x="181.497491" xlink:href="#m7bb86d125e" y="350.82"/>
    </g>
   </g>
   <g id="line2d_14">
    <defs>
     <path d="M -3 3 
L 3 -3 
M -3 -3 
L 3 3 
" id="mefd1970d94" style="stroke:#ff0000;"/>
    </defs>
    <g clip-path="url(#p3dba06ee69)">
     <use style="fill:#ff0000;stroke:#ff0000;" x="149.266799" xlink:href="#mefd1970d94" y="255.467789"/>
     <use style="fill:#ff0000;stroke:#ff0000;" x="134.676178" xlink:href="#mefd1970d94" y="210.282311"/>
     <use style="fill:#ff0000;stroke:#ff0000;" x="135.946662" xlink:href="#mefd1970d94" y="214.216855"/>
     <use style="fill:#ff0000;stroke:#ff0000;" x="140.514882" xlink:href="#mefd1970d94" y="228.364105"/>
     <use style="fill:#ff0000;stroke:#ff0000;" x="137.654498" xlink:href="#mefd1970d94" y="219.505825"/>
     <use style="fill:#ff0000;stroke:#ff0000;" x="148.57057" xlink:href="#mefd1970d94" y="253.311647"/>
     <use style="fill:#ff0000;stroke:#ff0000;" x="129.170012" xlink:href="#mefd1970d94" y="193.230346"/>
     <use style="fill:#ff0000;stroke:#ff0000;" x="102.670386" xlink:href="#mefd1970d94" y="111.164047"/>
     <use style="fill:#ff0000;stroke:#ff0000;" x="138.575681" xlink:href="#mefd1970d94" y="222.358624"/>
     <use style="fill:#ff0000;stroke:#ff0000;" x="126.289739" xlink:href="#mefd1970d94" y="184.310471"/>
     <use style="fill:#ff0000;stroke:#ff0000;" x="116.130746" xlink:href="#mefd1970d94" y="152.849236"/>
     <use style="fill:#ff0000;stroke:#ff0000;" x="106.400625" xlink:href="#mefd1970d94" y="122.71617"/>
    </g>
   </g>
   <g id="legend_1">
    <g id="patch_7">
     <path d="M 185.228125 133.230625 
L 405.171875 133.230625 
Q 407.171875 133.230625 407.171875 131.230625 
L 407.171875 58.84 
Q 407.171875 56.84 405.171875 56.84 
L 185.228125 56.84 
Q 183.228125 56.84 183.228125 58.84 
L 183.228125 131.230625 
Q 183.228125 133.230625 185.228125 133.230625 
z
" style="fill:#ffffff;opacity:0.8;stroke:#cccccc;stroke-linejoin:miter;"/>
    </g>
    <g id="line2d_15"/>
    <g id="line2d_16">
     <g>
      <use style="fill:#008000;stroke:#008000;stroke-linejoin:miter;" x="197.228125" xlink:href="#mcb0917e611" y="64.938437"/>
     </g>
    </g>
    <g id="text_13">
     <!-- Cashflow -->
     <defs>
      <path d="M 54.890625 33.015625 
L 54.890625 0 
L 45.90625 0 
L 45.90625 32.71875 
Q 45.90625 40.484375 42.875 44.328125 
Q 39.84375 48.1875 33.796875 48.1875 
Q 26.515625 48.1875 22.3125 43.546875 
Q 18.109375 38.921875 18.109375 30.90625 
L 18.109375 0 
L 9.078125 0 
L 9.078125 75.984375 
L 18.109375 75.984375 
L 18.109375 46.1875 
Q 21.34375 51.125 25.703125 53.5625 
Q 30.078125 56 35.796875 56 
Q 45.21875 56 50.046875 50.171875 
Q 54.890625 44.34375 54.890625 33.015625 
z
" id="DejaVuSans-104"/>
      <path d="M 4.203125 54.6875 
L 13.1875 54.6875 
L 24.421875 12.015625 
L 35.59375 54.6875 
L 46.1875 54.6875 
L 57.421875 12.015625 
L 68.609375 54.6875 
L 77.59375 54.6875 
L 63.28125 0 
L 52.6875 0 
L 40.921875 44.828125 
L 29.109375 0 
L 18.5 0 
z
" id="DejaVuSans-119"/>
     </defs>
     <g transform="translate(215.228125 68.438437)scale(0.1 -0.1)">
      <use xlink:href="#DejaVuSans-67"/>
      <use x="69.824219" xlink:href="#DejaVuSans-97"/>
      <use x="131.103516" xlink:href="#DejaVuSans-115"/>
      <use x="183.203125" xlink:href="#DejaVuSans-104"/>
      <use x="246.582031" xlink:href="#DejaVuSans-102"/>
      <use x="281.787109" xlink:href="#DejaVuSans-108"/>
      <use x="309.570312" xlink:href="#DejaVuSans-111"/>
      <use x="370.751953" xlink:href="#DejaVuSans-119"/>
     </g>
    </g>
    <g id="line2d_17"/>
    <g id="line2d_18">
     <g>
      <use style="fill:#ff0000;stroke:#ff0000;" x="197.228125" xlink:href="#mefd1970d94" y="79.616562"/>
     </g>
    </g>
    <g id="text_14">
     <!-- Favourable Exercise -->
     <defs>
      <path d="M 9.8125 72.90625 
L 51.703125 72.90625 
L 51.703125 64.59375 
L 19.671875 64.59375 
L 19.671875 43.109375 
L 48.578125 43.109375 
L 48.578125 34.8125 
L 19.671875 34.8125 
L 19.671875 0 
L 9.8125 0 
z
" id="DejaVuSans-70"/>
      <path d="M 2.984375 54.6875 
L 12.5 54.6875 
L 29.59375 8.796875 
L 46.6875 54.6875 
L 56.203125 54.6875 
L 35.6875 0 
L 23.484375 0 
z
" id="DejaVuSans-118"/>
      <path d="M 48.6875 27.296875 
Q 48.6875 37.203125 44.609375 42.84375 
Q 40.53125 48.484375 33.40625 48.484375 
Q 26.265625 48.484375 22.1875 42.84375 
Q 18.109375 37.203125 18.109375 27.296875 
Q 18.109375 17.390625 22.1875 11.75 
Q 26.265625 6.109375 33.40625 6.109375 
Q 40.53125 6.109375 44.609375 11.75 
Q 48.6875 17.390625 48.6875 27.296875 
z
M 18.109375 46.390625 
Q 20.953125 51.265625 25.265625 53.625 
Q 29.59375 56 35.59375 56 
Q 45.5625 56 51.78125 48.09375 
Q 58.015625 40.1875 58.015625 27.296875 
Q 58.015625 14.40625 51.78125 6.484375 
Q 45.5625 -1.421875 35.59375 -1.421875 
Q 29.59375 -1.421875 25.265625 0.953125 
Q 20.953125 3.328125 18.109375 8.203125 
L 18.109375 0 
L 9.078125 0 
L 9.078125 75.984375 
L 18.109375 75.984375 
z
" id="DejaVuSans-98"/>
     </defs>
     <g transform="translate(215.228125 83.116562)scale(0.1 -0.1)">
      <use xlink:href="#DejaVuSans-70"/>
      <use x="57.378906" xlink:href="#DejaVuSans-97"/>
      <use x="118.658203" xlink:href="#DejaVuSans-118"/>
      <use x="177.837891" xlink:href="#DejaVuSans-111"/>
      <use x="239.019531" xlink:href="#DejaVuSans-117"/>
      <use x="302.398438" xlink:href="#DejaVuSans-114"/>
      <use x="343.511719" xlink:href="#DejaVuSans-97"/>
      <use x="404.791016" xlink:href="#DejaVuSans-98"/>
      <use x="468.267578" xlink:href="#DejaVuSans-108"/>
      <use x="496.050781" xlink:href="#DejaVuSans-101"/>
      <use x="557.574219" xlink:href="#DejaVuSans-32"/>
      <use x="589.361328" xlink:href="#DejaVuSans-69"/>
      <use x="652.544922" xlink:href="#DejaVuSans-120"/>
      <use x="711.677734" xlink:href="#DejaVuSans-101"/>
      <use x="773.201172" xlink:href="#DejaVuSans-114"/>
      <use x="814.283203" xlink:href="#DejaVuSans-99"/>
      <use x="869.263672" xlink:href="#DejaVuSans-105"/>
      <use x="897.046875" xlink:href="#DejaVuSans-115"/>
      <use x="949.146484" xlink:href="#DejaVuSans-101"/>
     </g>
    </g>
    <g id="line2d_19"/>
    <g id="line2d_20">
     <g>
      <use style="fill:#dddddd;stroke:#dddddd;" x="197.228125" xlink:href="#m7bb86d125e" y="94.294687"/>
     </g>
    </g>
    <g id="text_15">
     <!-- Unfavourable Exercise -->
     <defs>
      <path d="M 8.6875 72.90625 
L 18.609375 72.90625 
L 18.609375 28.609375 
Q 18.609375 16.890625 22.84375 11.734375 
Q 27.09375 6.59375 36.625 6.59375 
Q 46.09375 6.59375 50.34375 11.734375 
Q 54.59375 16.890625 54.59375 28.609375 
L 54.59375 72.90625 
L 64.5 72.90625 
L 64.5 27.390625 
Q 64.5 13.140625 57.4375 5.859375 
Q 50.390625 -1.421875 36.625 -1.421875 
Q 22.796875 -1.421875 15.734375 5.859375 
Q 8.6875 13.140625 8.6875 27.390625 
z
" id="DejaVuSans-85"/>
     </defs>
     <g transform="translate(215.228125 97.794687)scale(0.1 -0.1)">
      <use xlink:href="#DejaVuSans-85"/>
      <use x="73.193359" xlink:href="#DejaVuSans-110"/>
      <use x="136.572266" xlink:href="#DejaVuSans-102"/>
      <use x="171.777344" xlink:href="#DejaVuSans-97"/>
      <use x="233.056641" xlink:href="#DejaVuSans-118"/>
      <use x="292.236328" xlink:href="#DejaVuSans-111"/>
      <use x="353.417969" xlink:href="#DejaVuSans-117"/>
      <use x="416.796875" xlink:href="#DejaVuSans-114"/>
      <use x="457.910156" xlink:href="#DejaVuSans-97"/>
      <use x="519.189453" xlink:href="#DejaVuSans-98"/>
      <use x="582.666016" xlink:href="#DejaVuSans-108"/>
      <use x="610.449219" xlink:href="#DejaVuSans-101"/>
      <use x="671.972656" xlink:href="#DejaVuSans-32"/>
      <use x="703.759766" xlink:href="#DejaVuSans-69"/>
      <use x="766.943359" xlink:href="#DejaVuSans-120"/>
      <use x="826.076172" xlink:href="#DejaVuSans-101"/>
      <use x="887.599609" xlink:href="#DejaVuSans-114"/>
      <use x="928.681641" xlink:href="#DejaVuSans-99"/>
      <use x="983.662109" xlink:href="#DejaVuSans-105"/>
      <use x="1011.445312" xlink:href="#DejaVuSans-115"/>
      <use x="1063.544922" xlink:href="#DejaVuSans-101"/>
     </g>
    </g>
    <g id="line2d_21">
     <path d="M 187.228125 108.972812 
L 207.228125 108.972812 
" style="fill:none;stroke:#1f77b4;stroke-linecap:square;stroke-width:1.5;"/>
    </g>
    <g id="line2d_22"/>
    <g id="text_16">
     <!-- Approx. of Continuation Value -->
     <g transform="translate(215.228125 112.472812)scale(0.1 -0.1)">
      <use xlink:href="#DejaVuSans-65"/>
      <use x="68.408203" xlink:href="#DejaVuSans-112"/>
      <use x="131.884766" xlink:href="#DejaVuSans-112"/>
      <use x="195.361328" xlink:href="#DejaVuSans-114"/>
      <use x="236.443359" xlink:href="#DejaVuSans-111"/>
      <use x="297.578125" xlink:href="#DejaVuSans-120"/>
      <use x="356.757812" xlink:href="#DejaVuSans-46"/>
      <use x="388.544922" xlink:href="#DejaVuSans-32"/>
      <use x="420.332031" xlink:href="#DejaVuSans-111"/>
      <use x="481.513672" xlink:href="#DejaVuSans-102"/>
      <use x="516.71875" xlink:href="#DejaVuSans-32"/>
      <use x="548.505859" xlink:href="#DejaVuSans-67"/>
      <use x="618.330078" xlink:href="#DejaVuSans-111"/>
      <use x="679.511719" xlink:href="#DejaVuSans-110"/>
      <use x="742.890625" xlink:href="#DejaVuSans-116"/>
      <use x="782.099609" xlink:href="#DejaVuSans-105"/>
      <use x="809.882812" xlink:href="#DejaVuSans-110"/>
      <use x="873.261719" xlink:href="#DejaVuSans-117"/>
      <use x="936.640625" xlink:href="#DejaVuSans-97"/>
      <use x="997.919922" xlink:href="#DejaVuSans-116"/>
      <use x="1037.128906" xlink:href="#DejaVuSans-105"/>
      <use x="1064.912109" xlink:href="#DejaVuSans-111"/>
      <use x="1126.09375" xlink:href="#DejaVuSans-110"/>
      <use x="1189.472656" xlink:href="#DejaVuSans-32"/>
      <use x="1221.259766" xlink:href="#DejaVuSans-86"/>
      <use x="1289.558594" xlink:href="#DejaVuSans-97"/>
      <use x="1350.837891" xlink:href="#DejaVuSans-108"/>
      <use x="1378.621094" xlink:href="#DejaVuSans-117"/>
      <use x="1442" xlink:href="#DejaVuSans-101"/>
     </g>
    </g>
    <g id="line2d_23">
     <path d="M 187.228125 123.650937 
L 207.228125 123.650937 
" style="fill:none;stroke:#dddddd;stroke-dasharray:5.55,2.4;stroke-dashoffset:0;stroke-width:1.5;"/>
    </g>
    <g id="line2d_24"/>
    <g id="text_17">
     <!-- Out-of-the-money Continuation Value -->
     <defs>
      <path d="M 39.40625 66.21875 
Q 28.65625 66.21875 22.328125 58.203125 
Q 16.015625 50.203125 16.015625 36.375 
Q 16.015625 22.609375 22.328125 14.59375 
Q 28.65625 6.59375 39.40625 6.59375 
Q 50.140625 6.59375 56.421875 14.59375 
Q 62.703125 22.609375 62.703125 36.375 
Q 62.703125 50.203125 56.421875 58.203125 
Q 50.140625 66.21875 39.40625 66.21875 
z
M 39.40625 74.21875 
Q 54.734375 74.21875 63.90625 63.9375 
Q 73.09375 53.65625 73.09375 36.375 
Q 73.09375 19.140625 63.90625 8.859375 
Q 54.734375 -1.421875 39.40625 -1.421875 
Q 24.03125 -1.421875 14.8125 8.828125 
Q 5.609375 19.09375 5.609375 36.375 
Q 5.609375 53.65625 14.8125 63.9375 
Q 24.03125 74.21875 39.40625 74.21875 
z
" id="DejaVuSans-79"/>
      <path d="M 4.890625 31.390625 
L 31.203125 31.390625 
L 31.203125 23.390625 
L 4.890625 23.390625 
z
" id="DejaVuSans-45"/>
      <path d="M 32.171875 -5.078125 
Q 28.375 -14.84375 24.75 -17.8125 
Q 21.140625 -20.796875 15.09375 -20.796875 
L 7.90625 -20.796875 
L 7.90625 -13.28125 
L 13.1875 -13.28125 
Q 16.890625 -13.28125 18.9375 -11.515625 
Q 21 -9.765625 23.484375 -3.21875 
L 25.09375 0.875 
L 2.984375 54.6875 
L 12.5 54.6875 
L 29.59375 11.921875 
L 46.6875 54.6875 
L 56.203125 54.6875 
z
" id="DejaVuSans-121"/>
     </defs>
     <g transform="translate(215.228125 127.150937)scale(0.1 -0.1)">
      <use xlink:href="#DejaVuSans-79"/>
      <use x="78.710938" xlink:href="#DejaVuSans-117"/>
      <use x="142.089844" xlink:href="#DejaVuSans-116"/>
      <use x="181.298828" xlink:href="#DejaVuSans-45"/>
      <use x="217.398438" xlink:href="#DejaVuSans-111"/>
      <use x="278.580078" xlink:href="#DejaVuSans-102"/>
      <use x="313.707031" xlink:href="#DejaVuSans-45"/>
      <use x="349.791016" xlink:href="#DejaVuSans-116"/>
      <use x="389" xlink:href="#DejaVuSans-104"/>
      <use x="452.378906" xlink:href="#DejaVuSans-101"/>
      <use x="513.902344" xlink:href="#DejaVuSans-45"/>
      <use x="549.986328" xlink:href="#DejaVuSans-109"/>
      <use x="647.398438" xlink:href="#DejaVuSans-111"/>
      <use x="708.580078" xlink:href="#DejaVuSans-110"/>
      <use x="771.958984" xlink:href="#DejaVuSans-101"/>
      <use x="833.482422" xlink:href="#DejaVuSans-121"/>
      <use x="892.662109" xlink:href="#DejaVuSans-32"/>
      <use x="924.449219" xlink:href="#DejaVuSans-67"/>
      <use x="994.273438" xlink:href="#DejaVuSans-111"/>
      <use x="1055.455078" xlink:href="#DejaVuSans-110"/>
      <use x="1118.833984" xlink:href="#DejaVuSans-116"/>
      <use x="1158.042969" xlink:href="#DejaVuSans-105"/>
      <use x="1185.826172" xlink:href="#DejaVuSans-110"/>
      <use x="1249.205078" xlink:href="#DejaVuSans-117"/>
      <use x="1312.583984" xlink:href="#DejaVuSans-97"/>
      <use x="1373.863281" xlink:href="#DejaVuSans-116"/>
      <use x="1413.072266" xlink:href="#DejaVuSans-105"/>
      <use x="1440.855469" xlink:href="#DejaVuSans-111"/>
      <use x="1502.037109" xlink:href="#DejaVuSans-110"/>
      <use x="1565.416016" xlink:href="#DejaVuSans-32"/>
      <use x="1597.203125" xlink:href="#DejaVuSans-86"/>
      <use x="1665.501953" xlink:href="#DejaVuSans-97"/>
      <use x="1726.78125" xlink:href="#DejaVuSans-108"/>
      <use x="1754.564453" xlink:href="#DejaVuSans-117"/>
      <use x="1817.943359" xlink:href="#DejaVuSans-101"/>
     </g>
    </g>
   </g>
  </g>
 </g>
 <defs>
  <clipPath id="p3dba06ee69">
   <rect height="326.16" width="446.4" x="72" y="51.84"/>
  </clipPath>
 </defs>
</svg>
