<?xml version="1.0" encoding="utf-8" standalone="no"?>
<!DOCTYPE svg PUBLIC "-//W3C//DTD SVG 1.1//EN"
  "http://www.w3.org/Graphics/SVG/1.1/DTD/svg11.dtd">
<!-- Created with matplotlib (https://matplotlib.org/) -->
<svg height="432pt" version="1.1" viewBox="0 0 576 432" width="576pt" xmlns="http://www.w3.org/2000/svg" xmlns:xlink="http://www.w3.org/1999/xlink">
 <defs>
  <style type="text/css">
*{stroke-linecap:butt;stroke-linejoin:round;}
  </style>
 </defs>
 <g id="figure_1">
  <g id="patch_1">
   <path d="M 0 432 
L 576 432 
L 576 0 
L 0 0 
z
" style="fill:none;"/>
  </g>
  <g id="axes_1">
   <g id="patch_2">
    <path d="M 72 378 
L 518.4 378 
L 518.4 51.84 
L 72 51.84 
z
" style="fill:none;"/>
   </g>
   <g id="line2d_1">
    <path clip-path="url(#pb59f0b1687)" d="M 92.290909 90.010827 
L 96.390083 98.923165 
L 100.489256 107.687695 
L 104.58843 116.304416 
L 108.687603 124.773329 
L 112.786777 133.094435 
L 116.88595 141.267732 
L 120.985124 149.293221 
L 125.084298 157.170901 
L 129.183471 164.900774 
L 133.282645 172.482839 
L 137.381818 179.917095 
L 141.480992 187.203543 
L 145.580165 194.342183 
L 149.679339 201.333015 
L 153.778512 208.176039 
L 157.877686 214.871255 
L 161.97686 221.418663 
L 166.076033 227.818262 
L 170.175207 234.070053 
L 174.27438 240.174037 
L 178.373554 246.130212 
L 182.472727 251.938579 
L 186.571901 257.599137 
L 190.671074 263.111888 
L 194.770248 268.476831 
L 198.869421 273.693965 
L 202.968595 278.763291 
L 207.067769 283.684809 
L 211.166942 288.458519 
L 215.266116 293.084421 
L 219.365289 297.562515 
L 223.464463 301.892801 
L 227.563636 306.075278 
L 231.66281 310.109947 
L 235.761983 313.996809 
L 239.861157 317.735862 
L 243.960331 321.327107 
L 248.059504 324.770544 
L 252.158678 328.066172 
L 256.257851 331.213993 
L 260.357025 334.214005 
L 264.456198 337.066209 
L 268.555372 339.770606 
L 272.654545 342.327194 
L 276.753719 344.735973 
L 280.852893 346.996945 
L 284.952066 349.110109 
L 289.05124 351.075464 
L 293.150413 352.893012 
L 297.249587 354.562751 
L 301.34876 356.084682 
L 305.447934 357.458805 
L 309.547107 358.68512 
L 313.646281 359.763626 
L 317.745455 360.694325 
L 321.844628 361.477215 
L 325.943802 362.112298 
L 330.042975 362.599572 
L 334.142149 362.939038 
L 338.241322 363.130696 
L 342.340496 363.174545 
L 346.439669 363.070587 
L 350.538843 362.818821 
L 354.638017 362.419246 
L 358.73719 361.871863 
L 362.836364 361.176672 
L 366.935537 360.333673 
L 371.034711 359.342866 
L 375.133884 358.204251 
L 379.233058 356.917827 
L 383.332231 355.483596 
L 387.431405 353.901556 
L 391.530579 352.171708 
L 395.629752 350.294052 
L 399.728926 348.268588 
L 403.828099 346.095316 
L 407.927273 343.774235 
L 412.026446 341.305347 
L 416.12562 338.68865 
L 420.224793 335.924146 
L 424.323967 333.011833 
L 428.42314 329.951712 
L 432.522314 326.743782 
L 436.621488 323.388045 
L 440.720661 319.8845 
L 444.819835 316.233146 
L 448.919008 312.433984 
L 453.018182 308.487015 
L 457.117355 304.392237 
L 461.216529 300.149651 
L 465.315702 295.759256 
L 469.414876 291.221054 
L 473.51405 286.535043 
L 477.613223 281.701225 
L 481.712397 276.719598 
L 485.81157 271.590163 
L 489.910744 266.31292 
L 494.009917 260.887869 
L 498.109091 255.31501 
" style="fill:none;stroke:#1f77b4;stroke-linecap:square;stroke-width:1.5;"/>
   </g>
   <g id="matplotlib.axis_1">
    <g id="xtick_1">
     <g id="line2d_2">
      <defs>
       <path d="M 0 0 
L 0 3.5 
" id="mc408cf4e09" style="stroke:#000000;stroke-width:0.8;"/>
      </defs>
      <g>
       <use style="stroke:#000000;stroke-width:0.8;" x="82.383972" xlink:href="#mc408cf4e09" y="378"/>
      </g>
     </g>
     <g id="text_1">
      <!-- 200 -->
      <defs>
       <path d="M 19.1875 8.296875 
L 53.609375 8.296875 
L 53.609375 0 
L 7.328125 0 
L 7.328125 8.296875 
Q 12.9375 14.109375 22.625 23.890625 
Q 32.328125 33.6875 34.8125 36.53125 
Q 39.546875 41.84375 41.421875 45.53125 
Q 43.3125 49.21875 43.3125 52.78125 
Q 43.3125 58.59375 39.234375 62.25 
Q 35.15625 65.921875 28.609375 65.921875 
Q 23.96875 65.921875 18.8125 64.3125 
Q 13.671875 62.703125 7.8125 59.421875 
L 7.8125 69.390625 
Q 13.765625 71.78125 18.9375 73 
Q 24.125 74.21875 28.421875 74.21875 
Q 39.75 74.21875 46.484375 68.546875 
Q 53.21875 62.890625 53.21875 53.421875 
Q 53.21875 48.921875 51.53125 44.890625 
Q 49.859375 40.875 45.40625 35.40625 
Q 44.1875 33.984375 37.640625 27.21875 
Q 31.109375 20.453125 19.1875 8.296875 
z
" id="DejaVuSans-50"/>
       <path d="M 31.78125 66.40625 
Q 24.171875 66.40625 20.328125 58.90625 
Q 16.5 51.421875 16.5 36.375 
Q 16.5 21.390625 20.328125 13.890625 
Q 24.171875 6.390625 31.78125 6.390625 
Q 39.453125 6.390625 43.28125 13.890625 
Q 47.125 21.390625 47.125 36.375 
Q 47.125 51.421875 43.28125 58.90625 
Q 39.453125 66.40625 31.78125 66.40625 
z
M 31.78125 74.21875 
Q 44.046875 74.21875 50.515625 64.515625 
Q 56.984375 54.828125 56.984375 36.375 
Q 56.984375 17.96875 50.515625 8.265625 
Q 44.046875 -1.421875 31.78125 -1.421875 
Q 19.53125 -1.421875 13.0625 8.265625 
Q 6.59375 17.96875 6.59375 36.375 
Q 6.59375 54.828125 13.0625 64.515625 
Q 19.53125 74.21875 31.78125 74.21875 
z
" id="DejaVuSans-48"/>
      </defs>
      <g transform="translate(72.840222 392.598437)scale(0.1 -0.1)">
       <use xlink:href="#DejaVuSans-50"/>
       <use x="63.623047" xlink:href="#DejaVuSans-48"/>
       <use x="127.246094" xlink:href="#DejaVuSans-48"/>
      </g>
     </g>
    </g>
    <g id="xtick_2">
     <g id="line2d_3">
      <g>
       <use style="stroke:#000000;stroke-width:0.8;" x="136.661748" xlink:href="#mc408cf4e09" y="378"/>
      </g>
     </g>
     <g id="text_2">
      <!-- 400 -->
      <defs>
       <path d="M 37.796875 64.3125 
L 12.890625 25.390625 
L 37.796875 25.390625 
z
M 35.203125 72.90625 
L 47.609375 72.90625 
L 47.609375 25.390625 
L 58.015625 25.390625 
L 58.015625 17.1875 
L 47.609375 17.1875 
L 47.609375 0 
L 37.796875 0 
L 37.796875 17.1875 
L 4.890625 17.1875 
L 4.890625 26.703125 
z
" id="DejaVuSans-52"/>
      </defs>
      <g transform="translate(127.117998 392.598437)scale(0.1 -0.1)">
       <use xlink:href="#DejaVuSans-52"/>
       <use x="63.623047" xlink:href="#DejaVuSans-48"/>
       <use x="127.246094" xlink:href="#DejaVuSans-48"/>
      </g>
     </g>
    </g>
    <g id="xtick_3">
     <g id="line2d_4">
      <g>
       <use style="stroke:#000000;stroke-width:0.8;" x="190.939523" xlink:href="#mc408cf4e09" y="378"/>
      </g>
     </g>
     <g id="text_3">
      <!-- 600 -->
      <defs>
       <path d="M 33.015625 40.375 
Q 26.375 40.375 22.484375 35.828125 
Q 18.609375 31.296875 18.609375 23.390625 
Q 18.609375 15.53125 22.484375 10.953125 
Q 26.375 6.390625 33.015625 6.390625 
Q 39.65625 6.390625 43.53125 10.953125 
Q 47.40625 15.53125 47.40625 23.390625 
Q 47.40625 31.296875 43.53125 35.828125 
Q 39.65625 40.375 33.015625 40.375 
z
M 52.59375 71.296875 
L 52.59375 62.3125 
Q 48.875 64.0625 45.09375 64.984375 
Q 41.3125 65.921875 37.59375 65.921875 
Q 27.828125 65.921875 22.671875 59.328125 
Q 17.53125 52.734375 16.796875 39.40625 
Q 19.671875 43.65625 24.015625 45.921875 
Q 28.375 48.1875 33.59375 48.1875 
Q 44.578125 48.1875 50.953125 41.515625 
Q 57.328125 34.859375 57.328125 23.390625 
Q 57.328125 12.15625 50.6875 5.359375 
Q 44.046875 -1.421875 33.015625 -1.421875 
Q 20.359375 -1.421875 13.671875 8.265625 
Q 6.984375 17.96875 6.984375 36.375 
Q 6.984375 53.65625 15.1875 63.9375 
Q 23.390625 74.21875 37.203125 74.21875 
Q 40.921875 74.21875 44.703125 73.484375 
Q 48.484375 72.75 52.59375 71.296875 
z
" id="DejaVuSans-54"/>
      </defs>
      <g transform="translate(181.395773 392.598437)scale(0.1 -0.1)">
       <use xlink:href="#DejaVuSans-54"/>
       <use x="63.623047" xlink:href="#DejaVuSans-48"/>
       <use x="127.246094" xlink:href="#DejaVuSans-48"/>
      </g>
     </g>
    </g>
    <g id="xtick_4">
     <g id="line2d_5">
      <g>
       <use style="stroke:#000000;stroke-width:0.8;" x="245.217299" xlink:href="#mc408cf4e09" y="378"/>
      </g>
     </g>
     <g id="text_4">
      <!-- 800 -->
      <defs>
       <path d="M 31.78125 34.625 
Q 24.75 34.625 20.71875 30.859375 
Q 16.703125 27.09375 16.703125 20.515625 
Q 16.703125 13.921875 20.71875 10.15625 
Q 24.75 6.390625 31.78125 6.390625 
Q 38.8125 6.390625 42.859375 10.171875 
Q 46.921875 13.96875 46.921875 20.515625 
Q 46.921875 27.09375 42.890625 30.859375 
Q 38.875 34.625 31.78125 34.625 
z
M 21.921875 38.8125 
Q 15.578125 40.375 12.03125 44.71875 
Q 8.5 49.078125 8.5 55.328125 
Q 8.5 64.0625 14.71875 69.140625 
Q 20.953125 74.21875 31.78125 74.21875 
Q 42.671875 74.21875 48.875 69.140625 
Q 55.078125 64.0625 55.078125 55.328125 
Q 55.078125 49.078125 51.53125 44.71875 
Q 48 40.375 41.703125 38.8125 
Q 48.828125 37.15625 52.796875 32.3125 
Q 56.78125 27.484375 56.78125 20.515625 
Q 56.78125 9.90625 50.3125 4.234375 
Q 43.84375 -1.421875 31.78125 -1.421875 
Q 19.734375 -1.421875 13.25 4.234375 
Q 6.78125 9.90625 6.78125 20.515625 
Q 6.78125 27.484375 10.78125 32.3125 
Q 14.796875 37.15625 21.921875 38.8125 
z
M 18.3125 54.390625 
Q 18.3125 48.734375 21.84375 45.5625 
Q 25.390625 42.390625 31.78125 42.390625 
Q 38.140625 42.390625 41.71875 45.5625 
Q 45.3125 48.734375 45.3125 54.390625 
Q 45.3125 60.0625 41.71875 63.234375 
Q 38.140625 66.40625 31.78125 66.40625 
Q 25.390625 66.40625 21.84375 63.234375 
Q 18.3125 60.0625 18.3125 54.390625 
z
" id="DejaVuSans-56"/>
      </defs>
      <g transform="translate(235.673549 392.598437)scale(0.1 -0.1)">
       <use xlink:href="#DejaVuSans-56"/>
       <use x="63.623047" xlink:href="#DejaVuSans-48"/>
       <use x="127.246094" xlink:href="#DejaVuSans-48"/>
      </g>
     </g>
    </g>
    <g id="xtick_5">
     <g id="line2d_6">
      <g>
       <use style="stroke:#000000;stroke-width:0.8;" x="299.495075" xlink:href="#mc408cf4e09" y="378"/>
      </g>
     </g>
     <g id="text_5">
      <!-- 1000 -->
      <defs>
       <path d="M 12.40625 8.296875 
L 28.515625 8.296875 
L 28.515625 63.921875 
L 10.984375 60.40625 
L 10.984375 69.390625 
L 28.421875 72.90625 
L 38.28125 72.90625 
L 38.28125 8.296875 
L 54.390625 8.296875 
L 54.390625 0 
L 12.40625 0 
z
" id="DejaVuSans-49"/>
      </defs>
      <g transform="translate(286.770075 392.598437)scale(0.1 -0.1)">
       <use xlink:href="#DejaVuSans-49"/>
       <use x="63.623047" xlink:href="#DejaVuSans-48"/>
       <use x="127.246094" xlink:href="#DejaVuSans-48"/>
       <use x="190.869141" xlink:href="#DejaVuSans-48"/>
      </g>
     </g>
    </g>
    <g id="xtick_6">
     <g id="line2d_7">
      <g>
       <use style="stroke:#000000;stroke-width:0.8;" x="353.77285" xlink:href="#mc408cf4e09" y="378"/>
      </g>
     </g>
     <g id="text_6">
      <!-- 1200 -->
      <g transform="translate(341.04785 392.598437)scale(0.1 -0.1)">
       <use xlink:href="#DejaVuSans-49"/>
       <use x="63.623047" xlink:href="#DejaVuSans-50"/>
       <use x="127.246094" xlink:href="#DejaVuSans-48"/>
       <use x="190.869141" xlink:href="#DejaVuSans-48"/>
      </g>
     </g>
    </g>
    <g id="xtick_7">
     <g id="line2d_8">
      <g>
       <use style="stroke:#000000;stroke-width:0.8;" x="408.050626" xlink:href="#mc408cf4e09" y="378"/>
      </g>
     </g>
     <g id="text_7">
      <!-- 1400 -->
      <g transform="translate(395.325626 392.598437)scale(0.1 -0.1)">
       <use xlink:href="#DejaVuSans-49"/>
       <use x="63.623047" xlink:href="#DejaVuSans-52"/>
       <use x="127.246094" xlink:href="#DejaVuSans-48"/>
       <use x="190.869141" xlink:href="#DejaVuSans-48"/>
      </g>
     </g>
    </g>
    <g id="xtick_8">
     <g id="line2d_9">
      <g>
       <use style="stroke:#000000;stroke-width:0.8;" x="462.328401" xlink:href="#mc408cf4e09" y="378"/>
      </g>
     </g>
     <g id="text_8">
      <!-- 1600 -->
      <g transform="translate(449.603401 392.598437)scale(0.1 -0.1)">
       <use xlink:href="#DejaVuSans-49"/>
       <use x="63.623047" xlink:href="#DejaVuSans-54"/>
       <use x="127.246094" xlink:href="#DejaVuSans-48"/>
       <use x="190.869141" xlink:href="#DejaVuSans-48"/>
      </g>
     </g>
    </g>
    <g id="xtick_9">
     <g id="line2d_10">
      <g>
       <use style="stroke:#000000;stroke-width:0.8;" x="516.606177" xlink:href="#mc408cf4e09" y="378"/>
      </g>
     </g>
     <g id="text_9">
      <!-- 1800 -->
      <g transform="translate(503.881177 392.598437)scale(0.1 -0.1)">
       <use xlink:href="#DejaVuSans-49"/>
       <use x="63.623047" xlink:href="#DejaVuSans-56"/>
       <use x="127.246094" xlink:href="#DejaVuSans-48"/>
       <use x="190.869141" xlink:href="#DejaVuSans-48"/>
      </g>
     </g>
    </g>
    <g id="text_10">
     <!-- Stock Price at time t-1 -->
     <defs>
      <path d="M 53.515625 70.515625 
L 53.515625 60.890625 
Q 47.90625 63.578125 42.921875 64.890625 
Q 37.9375 66.21875 33.296875 66.21875 
Q 25.25 66.21875 20.875 63.09375 
Q 16.5 59.96875 16.5 54.203125 
Q 16.5 49.359375 19.40625 46.890625 
Q 22.3125 44.4375 30.421875 42.921875 
L 36.375 41.703125 
Q 47.40625 39.59375 52.65625 34.296875 
Q 57.90625 29 57.90625 20.125 
Q 57.90625 9.515625 50.796875 4.046875 
Q 43.703125 -1.421875 29.984375 -1.421875 
Q 24.8125 -1.421875 18.96875 -0.25 
Q 13.140625 0.921875 6.890625 3.21875 
L 6.890625 13.375 
Q 12.890625 10.015625 18.65625 8.296875 
Q 24.421875 6.59375 29.984375 6.59375 
Q 38.421875 6.59375 43.015625 9.90625 
Q 47.609375 13.234375 47.609375 19.390625 
Q 47.609375 24.75 44.3125 27.78125 
Q 41.015625 30.8125 33.5 32.328125 
L 27.484375 33.5 
Q 16.453125 35.6875 11.515625 40.375 
Q 6.59375 45.0625 6.59375 53.421875 
Q 6.59375 63.09375 13.40625 68.65625 
Q 20.21875 74.21875 32.171875 74.21875 
Q 37.3125 74.21875 42.625 73.28125 
Q 47.953125 72.359375 53.515625 70.515625 
z
" id="DejaVuSans-83"/>
      <path d="M 18.3125 70.21875 
L 18.3125 54.6875 
L 36.8125 54.6875 
L 36.8125 47.703125 
L 18.3125 47.703125 
L 18.3125 18.015625 
Q 18.3125 11.328125 20.140625 9.421875 
Q 21.96875 7.515625 27.59375 7.515625 
L 36.8125 7.515625 
L 36.8125 0 
L 27.59375 0 
Q 17.1875 0 13.234375 3.875 
Q 9.28125 7.765625 9.28125 18.015625 
L 9.28125 47.703125 
L 2.6875 47.703125 
L 2.6875 54.6875 
L 9.28125 54.6875 
L 9.28125 70.21875 
z
" id="DejaVuSans-116"/>
      <path d="M 30.609375 48.390625 
Q 23.390625 48.390625 19.1875 42.75 
Q 14.984375 37.109375 14.984375 27.296875 
Q 14.984375 17.484375 19.15625 11.84375 
Q 23.34375 6.203125 30.609375 6.203125 
Q 37.796875 6.203125 41.984375 11.859375 
Q 46.1875 17.53125 46.1875 27.296875 
Q 46.1875 37.015625 41.984375 42.703125 
Q 37.796875 48.390625 30.609375 48.390625 
z
M 30.609375 56 
Q 42.328125 56 49.015625 48.375 
Q 55.71875 40.765625 55.71875 27.296875 
Q 55.71875 13.875 49.015625 6.21875 
Q 42.328125 -1.421875 30.609375 -1.421875 
Q 18.84375 -1.421875 12.171875 6.21875 
Q 5.515625 13.875 5.515625 27.296875 
Q 5.515625 40.765625 12.171875 48.375 
Q 18.84375 56 30.609375 56 
z
" id="DejaVuSans-111"/>
      <path d="M 48.78125 52.59375 
L 48.78125 44.1875 
Q 44.96875 46.296875 41.140625 47.34375 
Q 37.3125 48.390625 33.40625 48.390625 
Q 24.65625 48.390625 19.8125 42.84375 
Q 14.984375 37.3125 14.984375 27.296875 
Q 14.984375 17.28125 19.8125 11.734375 
Q 24.65625 6.203125 33.40625 6.203125 
Q 37.3125 6.203125 41.140625 7.25 
Q 44.96875 8.296875 48.78125 10.40625 
L 48.78125 2.09375 
Q 45.015625 0.34375 40.984375 -0.53125 
Q 36.96875 -1.421875 32.421875 -1.421875 
Q 20.0625 -1.421875 12.78125 6.34375 
Q 5.515625 14.109375 5.515625 27.296875 
Q 5.515625 40.671875 12.859375 48.328125 
Q 20.21875 56 33.015625 56 
Q 37.15625 56 41.109375 55.140625 
Q 45.0625 54.296875 48.78125 52.59375 
z
" id="DejaVuSans-99"/>
      <path d="M 9.078125 75.984375 
L 18.109375 75.984375 
L 18.109375 31.109375 
L 44.921875 54.6875 
L 56.390625 54.6875 
L 27.390625 29.109375 
L 57.625 0 
L 45.90625 0 
L 18.109375 26.703125 
L 18.109375 0 
L 9.078125 0 
z
" id="DejaVuSans-107"/>
      <path id="DejaVuSans-32"/>
      <path d="M 19.671875 64.796875 
L 19.671875 37.40625 
L 32.078125 37.40625 
Q 38.96875 37.40625 42.71875 40.96875 
Q 46.484375 44.53125 46.484375 51.125 
Q 46.484375 57.671875 42.71875 61.234375 
Q 38.96875 64.796875 32.078125 64.796875 
z
M 9.8125 72.90625 
L 32.078125 72.90625 
Q 44.34375 72.90625 50.609375 67.359375 
Q 56.890625 61.8125 56.890625 51.125 
Q 56.890625 40.328125 50.609375 34.8125 
Q 44.34375 29.296875 32.078125 29.296875 
L 19.671875 29.296875 
L 19.671875 0 
L 9.8125 0 
z
" id="DejaVuSans-80"/>
      <path d="M 41.109375 46.296875 
Q 39.59375 47.171875 37.8125 47.578125 
Q 36.03125 48 33.890625 48 
Q 26.265625 48 22.1875 43.046875 
Q 18.109375 38.09375 18.109375 28.8125 
L 18.109375 0 
L 9.078125 0 
L 9.078125 54.6875 
L 18.109375 54.6875 
L 18.109375 46.1875 
Q 20.953125 51.171875 25.484375 53.578125 
Q 30.03125 56 36.53125 56 
Q 37.453125 56 38.578125 55.875 
Q 39.703125 55.765625 41.0625 55.515625 
z
" id="DejaVuSans-114"/>
      <path d="M 9.421875 54.6875 
L 18.40625 54.6875 
L 18.40625 0 
L 9.421875 0 
z
M 9.421875 75.984375 
L 18.40625 75.984375 
L 18.40625 64.59375 
L 9.421875 64.59375 
z
" id="DejaVuSans-105"/>
      <path d="M 56.203125 29.59375 
L 56.203125 25.203125 
L 14.890625 25.203125 
Q 15.484375 15.921875 20.484375 11.0625 
Q 25.484375 6.203125 34.421875 6.203125 
Q 39.59375 6.203125 44.453125 7.46875 
Q 49.3125 8.734375 54.109375 11.28125 
L 54.109375 2.78125 
Q 49.265625 0.734375 44.1875 -0.34375 
Q 39.109375 -1.421875 33.890625 -1.421875 
Q 20.796875 -1.421875 13.15625 6.1875 
Q 5.515625 13.8125 5.515625 26.8125 
Q 5.515625 40.234375 12.765625 48.109375 
Q 20.015625 56 32.328125 56 
Q 43.359375 56 49.78125 48.890625 
Q 56.203125 41.796875 56.203125 29.59375 
z
M 47.21875 32.234375 
Q 47.125 39.59375 43.09375 43.984375 
Q 39.0625 48.390625 32.421875 48.390625 
Q 24.90625 48.390625 20.390625 44.140625 
Q 15.875 39.890625 15.1875 32.171875 
z
" id="DejaVuSans-101"/>
      <path d="M 34.28125 27.484375 
Q 23.390625 27.484375 19.1875 25 
Q 14.984375 22.515625 14.984375 16.5 
Q 14.984375 11.71875 18.140625 8.90625 
Q 21.296875 6.109375 26.703125 6.109375 
Q 34.1875 6.109375 38.703125 11.40625 
Q 43.21875 16.703125 43.21875 25.484375 
L 43.21875 27.484375 
z
M 52.203125 31.203125 
L 52.203125 0 
L 43.21875 0 
L 43.21875 8.296875 
Q 40.140625 3.328125 35.546875 0.953125 
Q 30.953125 -1.421875 24.3125 -1.421875 
Q 15.921875 -1.421875 10.953125 3.296875 
Q 6 8.015625 6 15.921875 
Q 6 25.140625 12.171875 29.828125 
Q 18.359375 34.515625 30.609375 34.515625 
L 43.21875 34.515625 
L 43.21875 35.40625 
Q 43.21875 41.609375 39.140625 45 
Q 35.0625 48.390625 27.6875 48.390625 
Q 23 48.390625 18.546875 47.265625 
Q 14.109375 46.140625 10.015625 43.890625 
L 10.015625 52.203125 
Q 14.9375 54.109375 19.578125 55.046875 
Q 24.21875 56 28.609375 56 
Q 40.484375 56 46.34375 49.84375 
Q 52.203125 43.703125 52.203125 31.203125 
z
" id="DejaVuSans-97"/>
      <path d="M 52 44.1875 
Q 55.375 50.25 60.0625 53.125 
Q 64.75 56 71.09375 56 
Q 79.640625 56 84.28125 50.015625 
Q 88.921875 44.046875 88.921875 33.015625 
L 88.921875 0 
L 79.890625 0 
L 79.890625 32.71875 
Q 79.890625 40.578125 77.09375 44.375 
Q 74.3125 48.1875 68.609375 48.1875 
Q 61.625 48.1875 57.5625 43.546875 
Q 53.515625 38.921875 53.515625 30.90625 
L 53.515625 0 
L 44.484375 0 
L 44.484375 32.71875 
Q 44.484375 40.625 41.703125 44.40625 
Q 38.921875 48.1875 33.109375 48.1875 
Q 26.21875 48.1875 22.15625 43.53125 
Q 18.109375 38.875 18.109375 30.90625 
L 18.109375 0 
L 9.078125 0 
L 9.078125 54.6875 
L 18.109375 54.6875 
L 18.109375 46.1875 
Q 21.1875 51.21875 25.484375 53.609375 
Q 29.78125 56 35.6875 56 
Q 41.65625 56 45.828125 52.96875 
Q 50 49.953125 52 44.1875 
z
" id="DejaVuSans-109"/>
      <path d="M 4.890625 31.390625 
L 31.203125 31.390625 
L 31.203125 23.390625 
L 4.890625 23.390625 
z
" id="DejaVuSans-45"/>
     </defs>
     <g transform="translate(239.455469 406.276563)scale(0.1 -0.1)">
      <use xlink:href="#DejaVuSans-83"/>
      <use x="63.476562" xlink:href="#DejaVuSans-116"/>
      <use x="102.685547" xlink:href="#DejaVuSans-111"/>
      <use x="163.867188" xlink:href="#DejaVuSans-99"/>
      <use x="218.847656" xlink:href="#DejaVuSans-107"/>
      <use x="276.757812" xlink:href="#DejaVuSans-32"/>
      <use x="308.544922" xlink:href="#DejaVuSans-80"/>
      <use x="368.832031" xlink:href="#DejaVuSans-114"/>
      <use x="409.945312" xlink:href="#DejaVuSans-105"/>
      <use x="437.728516" xlink:href="#DejaVuSans-99"/>
      <use x="492.708984" xlink:href="#DejaVuSans-101"/>
      <use x="554.232422" xlink:href="#DejaVuSans-32"/>
      <use x="586.019531" xlink:href="#DejaVuSans-97"/>
      <use x="647.298828" xlink:href="#DejaVuSans-116"/>
      <use x="686.507812" xlink:href="#DejaVuSans-32"/>
      <use x="718.294922" xlink:href="#DejaVuSans-116"/>
      <use x="757.503906" xlink:href="#DejaVuSans-105"/>
      <use x="785.287109" xlink:href="#DejaVuSans-109"/>
      <use x="882.699219" xlink:href="#DejaVuSans-101"/>
      <use x="944.222656" xlink:href="#DejaVuSans-32"/>
      <use x="976.009766" xlink:href="#DejaVuSans-116"/>
      <use x="1015.21875" xlink:href="#DejaVuSans-45"/>
      <use x="1051.302734" xlink:href="#DejaVuSans-49"/>
     </g>
    </g>
   </g>
   <g id="matplotlib.axis_2">
    <g id="ytick_1">
     <g id="line2d_11">
      <defs>
       <path d="M 0 0 
L -3.5 0 
" id="mde55bdc0e3" style="stroke:#000000;stroke-width:0.8;"/>
      </defs>
      <g>
       <use style="stroke:#000000;stroke-width:0.8;" x="72" xlink:href="#mde55bdc0e3" y="329.253691"/>
      </g>
     </g>
     <g id="text_11">
      <!-- 0 -->
      <g transform="translate(58.6375 333.05291)scale(0.1 -0.1)">
       <use xlink:href="#DejaVuSans-48"/>
      </g>
     </g>
    </g>
    <g id="ytick_2">
     <g id="line2d_12">
      <g>
       <use style="stroke:#000000;stroke-width:0.8;" x="72" xlink:href="#mde55bdc0e3" y="265.620268"/>
      </g>
     </g>
     <g id="text_12">
      <!-- 100 -->
      <g transform="translate(45.9125 269.419486)scale(0.1 -0.1)">
       <use xlink:href="#DejaVuSans-49"/>
       <use x="63.623047" xlink:href="#DejaVuSans-48"/>
       <use x="127.246094" xlink:href="#DejaVuSans-48"/>
      </g>
     </g>
    </g>
    <g id="ytick_3">
     <g id="line2d_13">
      <g>
       <use style="stroke:#000000;stroke-width:0.8;" x="72" xlink:href="#mde55bdc0e3" y="201.986844"/>
      </g>
     </g>
     <g id="text_13">
      <!-- 200 -->
      <g transform="translate(45.9125 205.786062)scale(0.1 -0.1)">
       <use xlink:href="#DejaVuSans-50"/>
       <use x="63.623047" xlink:href="#DejaVuSans-48"/>
       <use x="127.246094" xlink:href="#DejaVuSans-48"/>
      </g>
     </g>
    </g>
    <g id="ytick_4">
     <g id="line2d_14">
      <g>
       <use style="stroke:#000000;stroke-width:0.8;" x="72" xlink:href="#mde55bdc0e3" y="138.35342"/>
      </g>
     </g>
     <g id="text_14">
      <!-- 300 -->
      <defs>
       <path d="M 40.578125 39.3125 
Q 47.65625 37.796875 51.625 33 
Q 55.609375 28.21875 55.609375 21.1875 
Q 55.609375 10.40625 48.1875 4.484375 
Q 40.765625 -1.421875 27.09375 -1.421875 
Q 22.515625 -1.421875 17.65625 -0.515625 
Q 12.796875 0.390625 7.625 2.203125 
L 7.625 11.71875 
Q 11.71875 9.328125 16.59375 8.109375 
Q 21.484375 6.890625 26.8125 6.890625 
Q 36.078125 6.890625 40.9375 10.546875 
Q 45.796875 14.203125 45.796875 21.1875 
Q 45.796875 27.640625 41.28125 31.265625 
Q 36.765625 34.90625 28.71875 34.90625 
L 20.21875 34.90625 
L 20.21875 43.015625 
L 29.109375 43.015625 
Q 36.375 43.015625 40.234375 45.921875 
Q 44.09375 48.828125 44.09375 54.296875 
Q 44.09375 59.90625 40.109375 62.90625 
Q 36.140625 65.921875 28.71875 65.921875 
Q 24.65625 65.921875 20.015625 65.03125 
Q 15.375 64.15625 9.8125 62.3125 
L 9.8125 71.09375 
Q 15.4375 72.65625 20.34375 73.4375 
Q 25.25 74.21875 29.59375 74.21875 
Q 40.828125 74.21875 47.359375 69.109375 
Q 53.90625 64.015625 53.90625 55.328125 
Q 53.90625 49.265625 50.4375 45.09375 
Q 46.96875 40.921875 40.578125 39.3125 
z
" id="DejaVuSans-51"/>
      </defs>
      <g transform="translate(45.9125 142.152639)scale(0.1 -0.1)">
       <use xlink:href="#DejaVuSans-51"/>
       <use x="63.623047" xlink:href="#DejaVuSans-48"/>
       <use x="127.246094" xlink:href="#DejaVuSans-48"/>
      </g>
     </g>
    </g>
    <g id="ytick_5">
     <g id="line2d_15">
      <g>
       <use style="stroke:#000000;stroke-width:0.8;" x="72" xlink:href="#mde55bdc0e3" y="74.719996"/>
      </g>
     </g>
     <g id="text_15">
      <!-- 400 -->
      <g transform="translate(45.9125 78.519215)scale(0.1 -0.1)">
       <use xlink:href="#DejaVuSans-52"/>
       <use x="63.623047" xlink:href="#DejaVuSans-48"/>
       <use x="127.246094" xlink:href="#DejaVuSans-48"/>
      </g>
     </g>
    </g>
    <g id="text_16">
     <!-- Exercise / Continuation Value -->
     <defs>
      <path d="M 9.8125 72.90625 
L 55.90625 72.90625 
L 55.90625 64.59375 
L 19.671875 64.59375 
L 19.671875 43.015625 
L 54.390625 43.015625 
L 54.390625 34.71875 
L 19.671875 34.71875 
L 19.671875 8.296875 
L 56.78125 8.296875 
L 56.78125 0 
L 9.8125 0 
z
" id="DejaVuSans-69"/>
      <path d="M 54.890625 54.6875 
L 35.109375 28.078125 
L 55.90625 0 
L 45.3125 0 
L 29.390625 21.484375 
L 13.484375 0 
L 2.875 0 
L 24.125 28.609375 
L 4.6875 54.6875 
L 15.28125 54.6875 
L 29.78125 35.203125 
L 44.28125 54.6875 
z
" id="DejaVuSans-120"/>
      <path d="M 44.28125 53.078125 
L 44.28125 44.578125 
Q 40.484375 46.53125 36.375 47.5 
Q 32.28125 48.484375 27.875 48.484375 
Q 21.1875 48.484375 17.84375 46.4375 
Q 14.5 44.390625 14.5 40.28125 
Q 14.5 37.15625 16.890625 35.375 
Q 19.28125 33.59375 26.515625 31.984375 
L 29.59375 31.296875 
Q 39.15625 29.25 43.1875 25.515625 
Q 47.21875 21.78125 47.21875 15.09375 
Q 47.21875 7.46875 41.1875 3.015625 
Q 35.15625 -1.421875 24.609375 -1.421875 
Q 20.21875 -1.421875 15.453125 -0.5625 
Q 10.6875 0.296875 5.421875 2 
L 5.421875 11.28125 
Q 10.40625 8.6875 15.234375 7.390625 
Q 20.0625 6.109375 24.8125 6.109375 
Q 31.15625 6.109375 34.5625 8.28125 
Q 37.984375 10.453125 37.984375 14.40625 
Q 37.984375 18.0625 35.515625 20.015625 
Q 33.0625 21.96875 24.703125 23.78125 
L 21.578125 24.515625 
Q 13.234375 26.265625 9.515625 29.90625 
Q 5.8125 33.546875 5.8125 39.890625 
Q 5.8125 47.609375 11.28125 51.796875 
Q 16.75 56 26.8125 56 
Q 31.78125 56 36.171875 55.265625 
Q 40.578125 54.546875 44.28125 53.078125 
z
" id="DejaVuSans-115"/>
      <path d="M 25.390625 72.90625 
L 33.6875 72.90625 
L 8.296875 -9.28125 
L 0 -9.28125 
z
" id="DejaVuSans-47"/>
      <path d="M 64.40625 67.28125 
L 64.40625 56.890625 
Q 59.421875 61.53125 53.78125 63.8125 
Q 48.140625 66.109375 41.796875 66.109375 
Q 29.296875 66.109375 22.65625 58.46875 
Q 16.015625 50.828125 16.015625 36.375 
Q 16.015625 21.96875 22.65625 14.328125 
Q 29.296875 6.6875 41.796875 6.6875 
Q 48.140625 6.6875 53.78125 8.984375 
Q 59.421875 11.28125 64.40625 15.921875 
L 64.40625 5.609375 
Q 59.234375 2.09375 53.4375 0.328125 
Q 47.65625 -1.421875 41.21875 -1.421875 
Q 24.65625 -1.421875 15.125 8.703125 
Q 5.609375 18.84375 5.609375 36.375 
Q 5.609375 53.953125 15.125 64.078125 
Q 24.65625 74.21875 41.21875 74.21875 
Q 47.75 74.21875 53.53125 72.484375 
Q 59.328125 70.75 64.40625 67.28125 
z
" id="DejaVuSans-67"/>
      <path d="M 54.890625 33.015625 
L 54.890625 0 
L 45.90625 0 
L 45.90625 32.71875 
Q 45.90625 40.484375 42.875 44.328125 
Q 39.84375 48.1875 33.796875 48.1875 
Q 26.515625 48.1875 22.3125 43.546875 
Q 18.109375 38.921875 18.109375 30.90625 
L 18.109375 0 
L 9.078125 0 
L 9.078125 54.6875 
L 18.109375 54.6875 
L 18.109375 46.1875 
Q 21.34375 51.125 25.703125 53.5625 
Q 30.078125 56 35.796875 56 
Q 45.21875 56 50.046875 50.171875 
Q 54.890625 44.34375 54.890625 33.015625 
z
" id="DejaVuSans-110"/>
      <path d="M 8.5 21.578125 
L 8.5 54.6875 
L 17.484375 54.6875 
L 17.484375 21.921875 
Q 17.484375 14.15625 20.5 10.265625 
Q 23.53125 6.390625 29.59375 6.390625 
Q 36.859375 6.390625 41.078125 11.03125 
Q 45.3125 15.671875 45.3125 23.6875 
L 45.3125 54.6875 
L 54.296875 54.6875 
L 54.296875 0 
L 45.3125 0 
L 45.3125 8.40625 
Q 42.046875 3.421875 37.71875 1 
Q 33.40625 -1.421875 27.6875 -1.421875 
Q 18.265625 -1.421875 13.375 4.4375 
Q 8.5 10.296875 8.5 21.578125 
z
M 31.109375 56 
z
" id="DejaVuSans-117"/>
      <path d="M 28.609375 0 
L 0.78125 72.90625 
L 11.078125 72.90625 
L 34.1875 11.53125 
L 57.328125 72.90625 
L 67.578125 72.90625 
L 39.796875 0 
z
" id="DejaVuSans-86"/>
      <path d="M 9.421875 75.984375 
L 18.40625 75.984375 
L 18.40625 0 
L 9.421875 0 
z
" id="DejaVuSans-108"/>
     </defs>
     <g transform="translate(39.832812 288.598906)rotate(-90)scale(0.1 -0.1)">
      <use xlink:href="#DejaVuSans-69"/>
      <use x="63.183594" xlink:href="#DejaVuSans-120"/>
      <use x="122.316406" xlink:href="#DejaVuSans-101"/>
      <use x="183.839844" xlink:href="#DejaVuSans-114"/>
      <use x="224.921875" xlink:href="#DejaVuSans-99"/>
      <use x="279.902344" xlink:href="#DejaVuSans-105"/>
      <use x="307.685547" xlink:href="#DejaVuSans-115"/>
      <use x="359.785156" xlink:href="#DejaVuSans-101"/>
      <use x="421.308594" xlink:href="#DejaVuSans-32"/>
      <use x="453.095703" xlink:href="#DejaVuSans-47"/>
      <use x="486.787109" xlink:href="#DejaVuSans-32"/>
      <use x="518.574219" xlink:href="#DejaVuSans-67"/>
      <use x="588.398438" xlink:href="#DejaVuSans-111"/>
      <use x="649.580078" xlink:href="#DejaVuSans-110"/>
      <use x="712.958984" xlink:href="#DejaVuSans-116"/>
      <use x="752.167969" xlink:href="#DejaVuSans-105"/>
      <use x="779.951172" xlink:href="#DejaVuSans-110"/>
      <use x="843.330078" xlink:href="#DejaVuSans-117"/>
      <use x="906.708984" xlink:href="#DejaVuSans-97"/>
      <use x="967.988281" xlink:href="#DejaVuSans-116"/>
      <use x="1007.197266" xlink:href="#DejaVuSans-105"/>
      <use x="1034.980469" xlink:href="#DejaVuSans-111"/>
      <use x="1096.162109" xlink:href="#DejaVuSans-110"/>
      <use x="1159.541016" xlink:href="#DejaVuSans-32"/>
      <use x="1191.328125" xlink:href="#DejaVuSans-86"/>
      <use x="1259.626953" xlink:href="#DejaVuSans-97"/>
      <use x="1320.90625" xlink:href="#DejaVuSans-108"/>
      <use x="1348.689453" xlink:href="#DejaVuSans-117"/>
      <use x="1412.068359" xlink:href="#DejaVuSans-101"/>
     </g>
    </g>
   </g>
   <g id="line2d_16">
    <defs>
     <path d="M -3 0 
L 3 0 
M 0 3 
L 0 -3 
" id="me18d340b12" style="stroke:#ff7f0e;"/>
    </defs>
    <g clip-path="url(#pb59f0b1687)">
     <use style="fill:#ff7f0e;stroke:#ff7f0e;" x="330.50136" xlink:href="#me18d340b12" y="362.644872"/>
     <use style="fill:#ff7f0e;stroke:#ff7f0e;" x="152.034731" xlink:href="#me18d340b12" y="205.283093"/>
     <use style="fill:#ff7f0e;stroke:#ff7f0e;" x="156.874347" xlink:href="#me18d340b12" y="213.246154"/>
     <use style="fill:#ff7f0e;stroke:#ff7f0e;" x="204.209176" xlink:href="#me18d340b12" y="280.268346"/>
     <use style="fill:#ff7f0e;stroke:#ff7f0e;" x="193.889393" xlink:href="#me18d340b12" y="267.336448"/>
     <use style="fill:#ff7f0e;stroke:#ff7f0e;" x="302.245192" xlink:href="#me18d340b12" y="356.397811"/>
     <use style="fill:#ff7f0e;stroke:#ff7f0e;" x="256.372754" xlink:href="#me18d340b12" y="331.300099"/>
     <use style="fill:#ff7f0e;stroke:#ff7f0e;" x="498.109091" xlink:href="#me18d340b12" y="255.31501"/>
     <use style="fill:#ff7f0e;stroke:#ff7f0e;" x="439.663387" xlink:href="#me18d340b12" y="320.802293"/>
     <use style="fill:#ff7f0e;stroke:#ff7f0e;" x="162.304246" xlink:href="#me18d340b12" y="221.935207"/>
     <use style="fill:#ff7f0e;stroke:#ff7f0e;" x="413.669772" xlink:href="#me18d340b12" y="340.274084"/>
     <use style="fill:#ff7f0e;stroke:#ff7f0e;" x="206.413686" xlink:href="#me18d340b12" y="282.909421"/>
     <use style="fill:#ff7f0e;stroke:#ff7f0e;" x="164.264068" xlink:href="#me18d340b12" y="225.007663"/>
     <use style="fill:#ff7f0e;stroke:#ff7f0e;" x="379.818187" xlink:href="#me18d340b12" y="356.722144"/>
     <use style="fill:#ff7f0e;stroke:#ff7f0e;" x="141.425853" xlink:href="#me18d340b12" y="187.106513"/>
     <use style="fill:#ff7f0e;stroke:#ff7f0e;" x="234.442057" xlink:href="#me18d340b12" y="312.761381"/>
     <use style="fill:#ff7f0e;stroke:#ff7f0e;" x="200.519229" xlink:href="#me18d340b12" y="275.752006"/>
     <use style="fill:#ff7f0e;stroke:#ff7f0e;" x="337.974561" xlink:href="#me18d340b12" y="363.12272"/>
     <use style="fill:#ff7f0e;stroke:#ff7f0e;" x="211.55528" xlink:href="#me18d340b12" y="288.903096"/>
     <use style="fill:#ff7f0e;stroke:#ff7f0e;" x="118.058573" xlink:href="#me18d340b12" y="143.578622"/>
     <use style="fill:#ff7f0e;stroke:#ff7f0e;" x="313.692172" xlink:href="#me18d340b12" y="359.774864"/>
     <use style="fill:#ff7f0e;stroke:#ff7f0e;" x="231.031785" xlink:href="#me18d340b12" y="309.498478"/>
     <use style="fill:#ff7f0e;stroke:#ff7f0e;" x="192.013296" xlink:href="#me18d340b12" y="264.884845"/>
     <use style="fill:#ff7f0e;stroke:#ff7f0e;" x="305.231247" xlink:href="#me18d340b12" y="357.389867"/>
     <use style="fill:#ff7f0e;stroke:#ff7f0e;" x="92.290909" xlink:href="#me18d340b12" y="90.010827"/>
     <use style="fill:#ff7f0e;stroke:#ff7f0e;" x="313.415645" xlink:href="#me18d340b12" y="359.706869"/>
     <use style="fill:#ff7f0e;stroke:#ff7f0e;" x="178.352593" xlink:href="#me18d340b12" y="246.100132"/>
     <use style="fill:#ff7f0e;stroke:#ff7f0e;" x="227.273292" xlink:href="#me18d340b12" y="305.783897"/>
     <use style="fill:#ff7f0e;stroke:#ff7f0e;" x="164.667642" xlink:href="#me18d340b12" y="225.63616"/>
     <use style="fill:#ff7f0e;stroke:#ff7f0e;" x="337.880466" xlink:href="#me18d340b12" y="363.119757"/>
     <use style="fill:#ff7f0e;stroke:#ff7f0e;" x="202.222556" xlink:href="#me18d340b12" y="277.851689"/>
     <use style="fill:#ff7f0e;stroke:#ff7f0e;" x="110.405234" xlink:href="#me18d340b12" y="128.27802"/>
     <use style="fill:#ff7f0e;stroke:#ff7f0e;" x="323.769303" xlink:href="#me18d340b12" y="361.793811"/>
     <use style="fill:#ff7f0e;stroke:#ff7f0e;" x="194.590645" xlink:href="#me18d340b12" y="268.244865"/>
     <use style="fill:#ff7f0e;stroke:#ff7f0e;" x="247.325183" xlink:href="#me18d340b12" y="324.164558"/>
     <use style="fill:#ff7f0e;stroke:#ff7f0e;" x="185.315291" xlink:href="#me18d340b12" y="255.879592"/>
     <use style="fill:#ff7f0e;stroke:#ff7f0e;" x="198.137949" xlink:href="#me18d340b12" y="272.773834"/>
     <use style="fill:#ff7f0e;stroke:#ff7f0e;" x="308.430168" xlink:href="#me18d340b12" y="358.365625"/>
     <use style="fill:#ff7f0e;stroke:#ff7f0e;" x="235.864878" xlink:href="#me18d340b12" y="314.092472"/>
     <use style="fill:#ff7f0e;stroke:#ff7f0e;" x="260.757925" xlink:href="#me18d340b12" y="334.499472"/>
     <use style="fill:#ff7f0e;stroke:#ff7f0e;" x="208.506347" xlink:href="#me18d340b12" y="285.376946"/>
     <use style="fill:#ff7f0e;stroke:#ff7f0e;" x="215.55552" xlink:href="#me18d340b12" y="293.405427"/>
     <use style="fill:#ff7f0e;stroke:#ff7f0e;" x="227.799349" xlink:href="#me18d340b12" y="306.311287"/>
     <use style="fill:#ff7f0e;stroke:#ff7f0e;" x="127.053761" xlink:href="#me18d340b12" y="160.903197"/>
     <use style="fill:#ff7f0e;stroke:#ff7f0e;" x="150.547794" xlink:href="#me18d340b12" y="202.795126"/>
     <use style="fill:#ff7f0e;stroke:#ff7f0e;" x="294.128756" xlink:href="#me18d340b12" y="353.304954"/>
     <use style="fill:#ff7f0e;stroke:#ff7f0e;" x="113.792168" xlink:href="#me18d340b12" y="135.112753"/>
     <use style="fill:#ff7f0e;stroke:#ff7f0e;" x="256.237171" xlink:href="#me18d340b12" y="331.198483"/>
     <use style="fill:#ff7f0e;stroke:#ff7f0e;" x="96.36806" xlink:href="#me18d340b12" y="98.875679"/>
     <use style="fill:#ff7f0e;stroke:#ff7f0e;" x="180.820769" xlink:href="#me18d340b12" y="249.6156"/>
    </g>
   </g>
   <g id="patch_3">
    <path d="M 72 378 
L 72 51.84 
" style="fill:none;stroke:#000000;stroke-linecap:square;stroke-linejoin:miter;stroke-width:0.8;"/>
   </g>
   <g id="patch_4">
    <path d="M 518.4 378 
L 518.4 51.84 
" style="fill:none;stroke:#000000;stroke-linecap:square;stroke-linejoin:miter;stroke-width:0.8;"/>
   </g>
   <g id="patch_5">
    <path d="M 72 378 
L 518.4 378 
" style="fill:none;stroke:#000000;stroke-linecap:square;stroke-linejoin:miter;stroke-width:0.8;"/>
   </g>
   <g id="patch_6">
    <path d="M 72 51.84 
L 518.4 51.84 
" style="fill:none;stroke:#000000;stroke-linecap:square;stroke-linejoin:miter;stroke-width:0.8;"/>
   </g>
   <g id="line2d_17">
    <defs>
     <path d="M 0 -3 
L -3 3 
L 3 3 
z
" id="m4c3d50b45d" style="stroke:#008000;stroke-linejoin:miter;"/>
    </defs>
    <g clip-path="url(#pb59f0b1687)">
     <use style="fill:#008000;stroke:#008000;stroke-linejoin:miter;" x="330.50136" xlink:href="#m4c3d50b45d" y="329.253691"/>
     <use style="fill:#008000;stroke:#008000;stroke-linejoin:miter;" x="152.034731" xlink:href="#m4c3d50b45d" y="222.931002"/>
     <use style="fill:#008000;stroke:#008000;stroke-linejoin:miter;" x="156.874347" xlink:href="#m4c3d50b45d" y="226.871677"/>
     <use style="fill:#008000;stroke:#008000;stroke-linejoin:miter;" x="204.209176" xlink:href="#m4c3d50b45d" y="329.253691"/>
     <use style="fill:#008000;stroke:#008000;stroke-linejoin:miter;" x="193.889393" xlink:href="#m4c3d50b45d" y="298.870175"/>
     <use style="fill:#008000;stroke:#008000;stroke-linejoin:miter;" x="302.245192" xlink:href="#m4c3d50b45d" y="329.253691"/>
     <use style="fill:#008000;stroke:#008000;stroke-linejoin:miter;" x="256.372754" xlink:href="#m4c3d50b45d" y="329.253691"/>
     <use style="fill:#008000;stroke:#008000;stroke-linejoin:miter;" x="498.109091" xlink:href="#m4c3d50b45d" y="329.253691"/>
     <use style="fill:#008000;stroke:#008000;stroke-linejoin:miter;" x="439.663387" xlink:href="#m4c3d50b45d" y="329.253691"/>
     <use style="fill:#008000;stroke:#008000;stroke-linejoin:miter;" x="162.304246" xlink:href="#m4c3d50b45d" y="224.629695"/>
     <use style="fill:#008000;stroke:#008000;stroke-linejoin:miter;" x="413.669772" xlink:href="#m4c3d50b45d" y="329.253691"/>
     <use style="fill:#008000;stroke:#008000;stroke-linejoin:miter;" x="206.413686" xlink:href="#m4c3d50b45d" y="274.865377"/>
     <use style="fill:#008000;stroke:#008000;stroke-linejoin:miter;" x="164.264068" xlink:href="#m4c3d50b45d" y="238.462128"/>
     <use style="fill:#008000;stroke:#008000;stroke-linejoin:miter;" x="379.818187" xlink:href="#m4c3d50b45d" y="329.253691"/>
     <use style="fill:#008000;stroke:#008000;stroke-linejoin:miter;" x="141.425853" xlink:href="#m4c3d50b45d" y="198.621281"/>
     <use style="fill:#008000;stroke:#008000;stroke-linejoin:miter;" x="234.442057" xlink:href="#m4c3d50b45d" y="329.253691"/>
     <use style="fill:#008000;stroke:#008000;stroke-linejoin:miter;" x="200.519229" xlink:href="#m4c3d50b45d" y="328.543362"/>
     <use style="fill:#008000;stroke:#008000;stroke-linejoin:miter;" x="337.974561" xlink:href="#m4c3d50b45d" y="329.253691"/>
     <use style="fill:#008000;stroke:#008000;stroke-linejoin:miter;" x="211.55528" xlink:href="#m4c3d50b45d" y="329.253691"/>
     <use style="fill:#008000;stroke:#008000;stroke-linejoin:miter;" x="118.058573" xlink:href="#m4c3d50b45d" y="111.189617"/>
     <use style="fill:#008000;stroke:#008000;stroke-linejoin:miter;" x="313.692172" xlink:href="#m4c3d50b45d" y="329.253691"/>
     <use style="fill:#008000;stroke:#008000;stroke-linejoin:miter;" x="231.031785" xlink:href="#m4c3d50b45d" y="329.253691"/>
     <use style="fill:#008000;stroke:#008000;stroke-linejoin:miter;" x="192.013296" xlink:href="#m4c3d50b45d" y="318.509617"/>
     <use style="fill:#008000;stroke:#008000;stroke-linejoin:miter;" x="305.231247" xlink:href="#m4c3d50b45d" y="329.253691"/>
     <use style="fill:#008000;stroke:#008000;stroke-linejoin:miter;" x="92.290909" xlink:href="#m4c3d50b45d" y="66.665455"/>
     <use style="fill:#008000;stroke:#008000;stroke-linejoin:miter;" x="313.415645" xlink:href="#m4c3d50b45d" y="329.253691"/>
     <use style="fill:#008000;stroke:#008000;stroke-linejoin:miter;" x="178.352593" xlink:href="#m4c3d50b45d" y="233.239422"/>
     <use style="fill:#008000;stroke:#008000;stroke-linejoin:miter;" x="227.273292" xlink:href="#m4c3d50b45d" y="329.253691"/>
     <use style="fill:#008000;stroke:#008000;stroke-linejoin:miter;" x="164.667642" xlink:href="#m4c3d50b45d" y="203.41165"/>
     <use style="fill:#008000;stroke:#008000;stroke-linejoin:miter;" x="337.880466" xlink:href="#m4c3d50b45d" y="329.253691"/>
     <use style="fill:#008000;stroke:#008000;stroke-linejoin:miter;" x="202.222556" xlink:href="#m4c3d50b45d" y="292.724454"/>
     <use style="fill:#008000;stroke:#008000;stroke-linejoin:miter;" x="110.405234" xlink:href="#m4c3d50b45d" y="93.013958"/>
     <use style="fill:#008000;stroke:#008000;stroke-linejoin:miter;" x="323.769303" xlink:href="#m4c3d50b45d" y="329.253691"/>
     <use style="fill:#008000;stroke:#008000;stroke-linejoin:miter;" x="194.590645" xlink:href="#m4c3d50b45d" y="275.247993"/>
     <use style="fill:#008000;stroke:#008000;stroke-linejoin:miter;" x="247.325183" xlink:href="#m4c3d50b45d" y="329.253691"/>
     <use style="fill:#008000;stroke:#008000;stroke-linejoin:miter;" x="185.315291" xlink:href="#m4c3d50b45d" y="265.526573"/>
     <use style="fill:#008000;stroke:#008000;stroke-linejoin:miter;" x="198.137949" xlink:href="#m4c3d50b45d" y="294.646553"/>
     <use style="fill:#008000;stroke:#008000;stroke-linejoin:miter;" x="308.430168" xlink:href="#m4c3d50b45d" y="329.253691"/>
     <use style="fill:#008000;stroke:#008000;stroke-linejoin:miter;" x="235.864878" xlink:href="#m4c3d50b45d" y="329.253691"/>
     <use style="fill:#008000;stroke:#008000;stroke-linejoin:miter;" x="260.757925" xlink:href="#m4c3d50b45d" y="329.253691"/>
     <use style="fill:#008000;stroke:#008000;stroke-linejoin:miter;" x="208.506347" xlink:href="#m4c3d50b45d" y="301.208322"/>
     <use style="fill:#008000;stroke:#008000;stroke-linejoin:miter;" x="215.55552" xlink:href="#m4c3d50b45d" y="329.253691"/>
     <use style="fill:#008000;stroke:#008000;stroke-linejoin:miter;" x="227.799349" xlink:href="#m4c3d50b45d" y="329.253691"/>
     <use style="fill:#008000;stroke:#008000;stroke-linejoin:miter;" x="127.053761" xlink:href="#m4c3d50b45d" y="116.552906"/>
     <use style="fill:#008000;stroke:#008000;stroke-linejoin:miter;" x="150.547794" xlink:href="#m4c3d50b45d" y="193.911627"/>
     <use style="fill:#008000;stroke:#008000;stroke-linejoin:miter;" x="294.128756" xlink:href="#m4c3d50b45d" y="329.253691"/>
     <use style="fill:#008000;stroke:#008000;stroke-linejoin:miter;" x="113.792168" xlink:href="#m4c3d50b45d" y="84.747843"/>
     <use style="fill:#008000;stroke:#008000;stroke-linejoin:miter;" x="256.237171" xlink:href="#m4c3d50b45d" y="329.253691"/>
     <use style="fill:#008000;stroke:#008000;stroke-linejoin:miter;" x="96.36806" xlink:href="#m4c3d50b45d" y="83.312061"/>
     <use style="fill:#008000;stroke:#008000;stroke-linejoin:miter;" x="180.820769" xlink:href="#m4c3d50b45d" y="277.117349"/>
    </g>
   </g>
   <g id="legend_1">
    <g id="patch_7">
     <path d="M 309.975 103.874375 
L 511.4 103.874375 
Q 513.4 103.874375 513.4 101.874375 
L 513.4 58.84 
Q 513.4 56.84 511.4 56.84 
L 309.975 56.84 
Q 307.975 56.84 307.975 58.84 
L 307.975 101.874375 
Q 307.975 103.874375 309.975 103.874375 
z
" style="fill:#ffffff;opacity:0.8;stroke:#cccccc;stroke-linejoin:miter;"/>
    </g>
    <g id="line2d_18"/>
    <g id="line2d_19">
     <g>
      <use style="fill:#008000;stroke:#008000;stroke-linejoin:miter;" x="321.975" xlink:href="#m4c3d50b45d" y="64.938437"/>
     </g>
    </g>
    <g id="text_17">
     <!-- Cashflow -->
     <defs>
      <path d="M 54.890625 33.015625 
L 54.890625 0 
L 45.90625 0 
L 45.90625 32.71875 
Q 45.90625 40.484375 42.875 44.328125 
Q 39.84375 48.1875 33.796875 48.1875 
Q 26.515625 48.1875 22.3125 43.546875 
Q 18.109375 38.921875 18.109375 30.90625 
L 18.109375 0 
L 9.078125 0 
L 9.078125 75.984375 
L 18.109375 75.984375 
L 18.109375 46.1875 
Q 21.34375 51.125 25.703125 53.5625 
Q 30.078125 56 35.796875 56 
Q 45.21875 56 50.046875 50.171875 
Q 54.890625 44.34375 54.890625 33.015625 
z
" id="DejaVuSans-104"/>
      <path d="M 37.109375 75.984375 
L 37.109375 68.5 
L 28.515625 68.5 
Q 23.6875 68.5 21.796875 66.546875 
Q 19.921875 64.59375 19.921875 59.515625 
L 19.921875 54.6875 
L 34.71875 54.6875 
L 34.71875 47.703125 
L 19.921875 47.703125 
L 19.921875 0 
L 10.890625 0 
L 10.890625 47.703125 
L 2.296875 47.703125 
L 2.296875 54.6875 
L 10.890625 54.6875 
L 10.890625 58.5 
Q 10.890625 67.625 15.140625 71.796875 
Q 19.390625 75.984375 28.609375 75.984375 
z
" id="DejaVuSans-102"/>
      <path d="M 4.203125 54.6875 
L 13.1875 54.6875 
L 24.421875 12.015625 
L 35.59375 54.6875 
L 46.1875 54.6875 
L 57.421875 12.015625 
L 68.609375 54.6875 
L 77.59375 54.6875 
L 63.28125 0 
L 52.6875 0 
L 40.921875 44.828125 
L 29.109375 0 
L 18.5 0 
z
" id="DejaVuSans-119"/>
     </defs>
     <g transform="translate(339.975 68.438437)scale(0.1 -0.1)">
      <use xlink:href="#DejaVuSans-67"/>
      <use x="69.824219" xlink:href="#DejaVuSans-97"/>
      <use x="131.103516" xlink:href="#DejaVuSans-115"/>
      <use x="183.203125" xlink:href="#DejaVuSans-104"/>
      <use x="246.582031" xlink:href="#DejaVuSans-102"/>
      <use x="281.787109" xlink:href="#DejaVuSans-108"/>
      <use x="309.570312" xlink:href="#DejaVuSans-111"/>
      <use x="370.751953" xlink:href="#DejaVuSans-119"/>
     </g>
    </g>
    <g id="line2d_20">
     <path d="M 311.975 79.616562 
L 331.975 79.616562 
" style="fill:none;stroke:#1f77b4;stroke-linecap:square;stroke-width:1.5;"/>
    </g>
    <g id="line2d_21"/>
    <g id="text_18">
     <!-- Fitted Polynomial -->
     <defs>
      <path d="M 9.8125 72.90625 
L 51.703125 72.90625 
L 51.703125 64.59375 
L 19.671875 64.59375 
L 19.671875 43.109375 
L 48.578125 43.109375 
L 48.578125 34.8125 
L 19.671875 34.8125 
L 19.671875 0 
L 9.8125 0 
z
" id="DejaVuSans-70"/>
      <path d="M 45.40625 46.390625 
L 45.40625 75.984375 
L 54.390625 75.984375 
L 54.390625 0 
L 45.40625 0 
L 45.40625 8.203125 
Q 42.578125 3.328125 38.25 0.953125 
Q 33.9375 -1.421875 27.875 -1.421875 
Q 17.96875 -1.421875 11.734375 6.484375 
Q 5.515625 14.40625 5.515625 27.296875 
Q 5.515625 40.1875 11.734375 48.09375 
Q 17.96875 56 27.875 56 
Q 33.9375 56 38.25 53.625 
Q 42.578125 51.265625 45.40625 46.390625 
z
M 14.796875 27.296875 
Q 14.796875 17.390625 18.875 11.75 
Q 22.953125 6.109375 30.078125 6.109375 
Q 37.203125 6.109375 41.296875 11.75 
Q 45.40625 17.390625 45.40625 27.296875 
Q 45.40625 37.203125 41.296875 42.84375 
Q 37.203125 48.484375 30.078125 48.484375 
Q 22.953125 48.484375 18.875 42.84375 
Q 14.796875 37.203125 14.796875 27.296875 
z
" id="DejaVuSans-100"/>
      <path d="M 32.171875 -5.078125 
Q 28.375 -14.84375 24.75 -17.8125 
Q 21.140625 -20.796875 15.09375 -20.796875 
L 7.90625 -20.796875 
L 7.90625 -13.28125 
L 13.1875 -13.28125 
Q 16.890625 -13.28125 18.9375 -11.515625 
Q 21 -9.765625 23.484375 -3.21875 
L 25.09375 0.875 
L 2.984375 54.6875 
L 12.5 54.6875 
L 29.59375 11.921875 
L 46.6875 54.6875 
L 56.203125 54.6875 
z
" id="DejaVuSans-121"/>
     </defs>
     <g transform="translate(339.975 83.116562)scale(0.1 -0.1)">
      <use xlink:href="#DejaVuSans-70"/>
      <use x="57.410156" xlink:href="#DejaVuSans-105"/>
      <use x="85.193359" xlink:href="#DejaVuSans-116"/>
      <use x="124.402344" xlink:href="#DejaVuSans-116"/>
      <use x="163.611328" xlink:href="#DejaVuSans-101"/>
      <use x="225.134766" xlink:href="#DejaVuSans-100"/>
      <use x="288.611328" xlink:href="#DejaVuSans-32"/>
      <use x="320.398438" xlink:href="#DejaVuSans-80"/>
      <use x="380.654297" xlink:href="#DejaVuSans-111"/>
      <use x="441.835938" xlink:href="#DejaVuSans-108"/>
      <use x="469.619141" xlink:href="#DejaVuSans-121"/>
      <use x="528.798828" xlink:href="#DejaVuSans-110"/>
      <use x="592.177734" xlink:href="#DejaVuSans-111"/>
      <use x="653.359375" xlink:href="#DejaVuSans-109"/>
      <use x="750.771484" xlink:href="#DejaVuSans-105"/>
      <use x="778.554688" xlink:href="#DejaVuSans-97"/>
      <use x="839.833984" xlink:href="#DejaVuSans-108"/>
     </g>
    </g>
    <g id="line2d_22"/>
    <g id="line2d_23">
     <g>
      <use style="fill:#ff7f0e;stroke:#ff7f0e;" x="321.975" xlink:href="#me18d340b12" y="94.294687"/>
     </g>
    </g>
    <g id="text_19">
     <!-- Approximated Continuation Value -->
     <defs>
      <path d="M 34.1875 63.1875 
L 20.796875 26.90625 
L 47.609375 26.90625 
z
M 28.609375 72.90625 
L 39.796875 72.90625 
L 67.578125 0 
L 57.328125 0 
L 50.6875 18.703125 
L 17.828125 18.703125 
L 11.1875 0 
L 0.78125 0 
z
" id="DejaVuSans-65"/>
      <path d="M 18.109375 8.203125 
L 18.109375 -20.796875 
L 9.078125 -20.796875 
L 9.078125 54.6875 
L 18.109375 54.6875 
L 18.109375 46.390625 
Q 20.953125 51.265625 25.265625 53.625 
Q 29.59375 56 35.59375 56 
Q 45.5625 56 51.78125 48.09375 
Q 58.015625 40.1875 58.015625 27.296875 
Q 58.015625 14.40625 51.78125 6.484375 
Q 45.5625 -1.421875 35.59375 -1.421875 
Q 29.59375 -1.421875 25.265625 0.953125 
Q 20.953125 3.328125 18.109375 8.203125 
z
M 48.6875 27.296875 
Q 48.6875 37.203125 44.609375 42.84375 
Q 40.53125 48.484375 33.40625 48.484375 
Q 26.265625 48.484375 22.1875 42.84375 
Q 18.109375 37.203125 18.109375 27.296875 
Q 18.109375 17.390625 22.1875 11.75 
Q 26.265625 6.109375 33.40625 6.109375 
Q 40.53125 6.109375 44.609375 11.75 
Q 48.6875 17.390625 48.6875 27.296875 
z
" id="DejaVuSans-112"/>
     </defs>
     <g transform="translate(339.975 97.794687)scale(0.1 -0.1)">
      <use xlink:href="#DejaVuSans-65"/>
      <use x="68.408203" xlink:href="#DejaVuSans-112"/>
      <use x="131.884766" xlink:href="#DejaVuSans-112"/>
      <use x="195.361328" xlink:href="#DejaVuSans-114"/>
      <use x="236.443359" xlink:href="#DejaVuSans-111"/>
      <use x="297.578125" xlink:href="#DejaVuSans-120"/>
      <use x="356.757812" xlink:href="#DejaVuSans-105"/>
      <use x="384.541016" xlink:href="#DejaVuSans-109"/>
      <use x="481.953125" xlink:href="#DejaVuSans-97"/>
      <use x="543.232422" xlink:href="#DejaVuSans-116"/>
      <use x="582.441406" xlink:href="#DejaVuSans-101"/>
      <use x="643.964844" xlink:href="#DejaVuSans-100"/>
      <use x="707.441406" xlink:href="#DejaVuSans-32"/>
      <use x="739.228516" xlink:href="#DejaVuSans-67"/>
      <use x="809.052734" xlink:href="#DejaVuSans-111"/>
      <use x="870.234375" xlink:href="#DejaVuSans-110"/>
      <use x="933.613281" xlink:href="#DejaVuSans-116"/>
      <use x="972.822266" xlink:href="#DejaVuSans-105"/>
      <use x="1000.605469" xlink:href="#DejaVuSans-110"/>
      <use x="1063.984375" xlink:href="#DejaVuSans-117"/>
      <use x="1127.363281" xlink:href="#DejaVuSans-97"/>
      <use x="1188.642578" xlink:href="#DejaVuSans-116"/>
      <use x="1227.851562" xlink:href="#DejaVuSans-105"/>
      <use x="1255.634766" xlink:href="#DejaVuSans-111"/>
      <use x="1316.816406" xlink:href="#DejaVuSans-110"/>
      <use x="1380.195312" xlink:href="#DejaVuSans-32"/>
      <use x="1411.982422" xlink:href="#DejaVuSans-86"/>
      <use x="1480.28125" xlink:href="#DejaVuSans-97"/>
      <use x="1541.560547" xlink:href="#DejaVuSans-108"/>
      <use x="1569.34375" xlink:href="#DejaVuSans-117"/>
      <use x="1632.722656" xlink:href="#DejaVuSans-101"/>
     </g>
    </g>
   </g>
  </g>
 </g>
 <defs>
  <clipPath id="pb59f0b1687">
   <rect height="326.16" width="446.4" x="72" y="51.84"/>
  </clipPath>
 </defs>
</svg>
