<?xml version="1.0" encoding="utf-8" standalone="no"?>
<!DOCTYPE svg PUBLIC "-//W3C//DTD SVG 1.1//EN"
  "http://www.w3.org/Graphics/SVG/1.1/DTD/svg11.dtd">
<!-- Created with matplotlib (https://matplotlib.org/) -->
<svg height="432pt" version="1.1" viewBox="0 0 576 432" width="576pt" xmlns="http://www.w3.org/2000/svg" xmlns:xlink="http://www.w3.org/1999/xlink">
 <defs>
  <style type="text/css">
*{stroke-linecap:butt;stroke-linejoin:round;}
  </style>
 </defs>
 <g id="figure_1">
  <g id="patch_1">
   <path d="M 0 432 
L 576 432 
L 576 0 
L 0 0 
z
" style="fill:#ffffff;"/>
  </g>
  <g id="axes_1">
   <g id="patch_2">
    <path d="M 72 378 
L 518.4 378 
L 518.4 51.84 
L 72 51.84 
z
" style="fill:#ffffff;"/>
   </g>
   <g id="line2d_1">
    <path clip-path="url(#pa4a4fbb789)" d="M 92.290909 77.735012 
L 96.390083 86.789893 
L 100.489256 95.698834 
L 104.58843 104.461838 
L 108.687603 113.078902 
L 112.786777 121.550028 
L 116.88595 129.875216 
L 120.985124 138.054465 
L 125.084298 146.087776 
L 129.183471 153.975148 
L 133.282645 161.716582 
L 137.381818 169.312077 
L 141.480992 176.761633 
L 145.580165 184.065251 
L 149.679339 191.222931 
L 153.778512 198.234672 
L 157.877686 205.100474 
L 161.97686 211.820338 
L 166.076033 218.394264 
L 170.175207 224.822251 
L 174.27438 231.104299 
L 178.373554 237.240409 
L 182.472727 243.23058 
L 186.571901 249.074813 
L 190.671074 254.773108 
L 194.770248 260.325464 
L 198.869421 265.731881 
L 202.968595 270.99236 
L 207.067769 276.1069 
L 211.166942 281.075502 
L 215.266116 285.898165 
L 219.365289 290.57489 
L 223.464463 295.105676 
L 227.563636 299.490524 
L 231.66281 303.729433 
L 235.761983 307.822404 
L 239.861157 311.769436 
L 243.960331 315.57053 
L 248.059504 319.225685 
L 252.158678 322.734901 
L 256.257851 326.098179 
L 260.357025 329.315519 
L 264.456198 332.38692 
L 268.555372 335.312383 
L 272.654545 338.091907 
L 276.753719 340.725492 
L 280.852893 343.213139 
L 284.952066 345.554848 
L 289.05124 347.750618 
L 293.150413 349.800449 
L 297.249587 351.704342 
L 301.34876 353.462297 
L 305.447934 355.074312 
L 309.547107 356.54039 
L 313.646281 357.860529 
L 317.745455 359.034729 
L 321.844628 360.062991 
L 325.943802 360.945314 
L 330.042975 361.681699 
L 334.142149 362.272145 
L 338.241322 362.716653 
L 342.340496 363.015222 
L 346.439669 363.167853 
L 350.538843 363.174545 
L 354.638017 363.035299 
L 358.73719 362.750114 
L 362.836364 362.318991 
L 366.935537 361.741929 
L 371.034711 361.018929 
L 375.133884 360.14999 
L 379.233058 359.135113 
L 383.332231 357.974297 
L 387.431405 356.667542 
L 391.530579 355.214849 
L 395.629752 353.616218 
L 399.728926 351.871648 
L 403.828099 349.98114 
L 407.927273 347.944693 
L 412.026446 345.762307 
L 416.12562 343.433983 
L 420.224793 340.959721 
L 424.323967 338.33952 
L 428.42314 335.57338 
L 432.522314 332.661302 
L 436.621488 329.603285 
L 440.720661 326.39933 
L 444.819835 323.049437 
L 448.919008 319.553604 
L 453.018182 315.911834 
L 457.117355 312.124125 
L 461.216529 308.190477 
L 465.315702 304.110891 
L 469.414876 299.885366 
L 473.51405 295.513903 
L 477.613223 290.996501 
L 481.712397 286.333161 
L 485.81157 281.523882 
L 489.910744 276.568664 
L 494.009917 271.467509 
L 498.109091 266.220414 
" style="fill:none;stroke:#1f77b4;stroke-linecap:square;stroke-width:1.5;"/>
   </g>
   <g id="matplotlib.axis_1">
    <g id="xtick_1">
     <g id="line2d_2">
      <defs>
       <path d="M 0 0 
L 0 3.5 
" id="m3280355c9a" style="stroke:#000000;stroke-width:0.8;"/>
      </defs>
      <g>
       <use style="stroke:#000000;stroke-width:0.8;" x="90.217612" xlink:href="#m3280355c9a" y="378"/>
      </g>
     </g>
     <g id="text_1">
      <!-- 0.50 -->
      <defs>
       <path d="M 31.78125 66.40625 
Q 24.171875 66.40625 20.328125 58.90625 
Q 16.5 51.421875 16.5 36.375 
Q 16.5 21.390625 20.328125 13.890625 
Q 24.171875 6.390625 31.78125 6.390625 
Q 39.453125 6.390625 43.28125 13.890625 
Q 47.125 21.390625 47.125 36.375 
Q 47.125 51.421875 43.28125 58.90625 
Q 39.453125 66.40625 31.78125 66.40625 
z
M 31.78125 74.21875 
Q 44.046875 74.21875 50.515625 64.515625 
Q 56.984375 54.828125 56.984375 36.375 
Q 56.984375 17.96875 50.515625 8.265625 
Q 44.046875 -1.421875 31.78125 -1.421875 
Q 19.53125 -1.421875 13.0625 8.265625 
Q 6.59375 17.96875 6.59375 36.375 
Q 6.59375 54.828125 13.0625 64.515625 
Q 19.53125 74.21875 31.78125 74.21875 
z
" id="DejaVuSans-48"/>
       <path d="M 10.6875 12.40625 
L 21 12.40625 
L 21 0 
L 10.6875 0 
z
" id="DejaVuSans-46"/>
       <path d="M 10.796875 72.90625 
L 49.515625 72.90625 
L 49.515625 64.59375 
L 19.828125 64.59375 
L 19.828125 46.734375 
Q 21.96875 47.46875 24.109375 47.828125 
Q 26.265625 48.1875 28.421875 48.1875 
Q 40.625 48.1875 47.75 41.5 
Q 54.890625 34.8125 54.890625 23.390625 
Q 54.890625 11.625 47.5625 5.09375 
Q 40.234375 -1.421875 26.90625 -1.421875 
Q 22.3125 -1.421875 17.546875 -0.640625 
Q 12.796875 0.140625 7.71875 1.703125 
L 7.71875 11.625 
Q 12.109375 9.234375 16.796875 8.0625 
Q 21.484375 6.890625 26.703125 6.890625 
Q 35.15625 6.890625 40.078125 11.328125 
Q 45.015625 15.765625 45.015625 23.390625 
Q 45.015625 31 40.078125 35.4375 
Q 35.15625 39.890625 26.703125 39.890625 
Q 22.75 39.890625 18.8125 39.015625 
Q 14.890625 38.140625 10.796875 36.28125 
z
" id="DejaVuSans-53"/>
      </defs>
      <g transform="translate(79.0848 392.598437)scale(0.1 -0.1)">
       <use xlink:href="#DejaVuSans-48"/>
       <use x="63.623047" xlink:href="#DejaVuSans-46"/>
       <use x="95.410156" xlink:href="#DejaVuSans-53"/>
       <use x="159.033203" xlink:href="#DejaVuSans-48"/>
      </g>
     </g>
    </g>
    <g id="xtick_2">
     <g id="line2d_3">
      <g>
       <use style="stroke:#000000;stroke-width:0.8;" x="147.970449" xlink:href="#m3280355c9a" y="378"/>
      </g>
     </g>
     <g id="text_2">
      <!-- 0.75 -->
      <defs>
       <path d="M 8.203125 72.90625 
L 55.078125 72.90625 
L 55.078125 68.703125 
L 28.609375 0 
L 18.3125 0 
L 43.21875 64.59375 
L 8.203125 64.59375 
z
" id="DejaVuSans-55"/>
      </defs>
      <g transform="translate(136.837637 392.598437)scale(0.1 -0.1)">
       <use xlink:href="#DejaVuSans-48"/>
       <use x="63.623047" xlink:href="#DejaVuSans-46"/>
       <use x="95.410156" xlink:href="#DejaVuSans-55"/>
       <use x="159.033203" xlink:href="#DejaVuSans-53"/>
      </g>
     </g>
    </g>
    <g id="xtick_3">
     <g id="line2d_4">
      <g>
       <use style="stroke:#000000;stroke-width:0.8;" x="205.723286" xlink:href="#m3280355c9a" y="378"/>
      </g>
     </g>
     <g id="text_3">
      <!-- 1.00 -->
      <defs>
       <path d="M 12.40625 8.296875 
L 28.515625 8.296875 
L 28.515625 63.921875 
L 10.984375 60.40625 
L 10.984375 69.390625 
L 28.421875 72.90625 
L 38.28125 72.90625 
L 38.28125 8.296875 
L 54.390625 8.296875 
L 54.390625 0 
L 12.40625 0 
z
" id="DejaVuSans-49"/>
      </defs>
      <g transform="translate(194.590474 392.598437)scale(0.1 -0.1)">
       <use xlink:href="#DejaVuSans-49"/>
       <use x="63.623047" xlink:href="#DejaVuSans-46"/>
       <use x="95.410156" xlink:href="#DejaVuSans-48"/>
       <use x="159.033203" xlink:href="#DejaVuSans-48"/>
      </g>
     </g>
    </g>
    <g id="xtick_4">
     <g id="line2d_5">
      <g>
       <use style="stroke:#000000;stroke-width:0.8;" x="263.476123" xlink:href="#m3280355c9a" y="378"/>
      </g>
     </g>
     <g id="text_4">
      <!-- 1.25 -->
      <defs>
       <path d="M 19.1875 8.296875 
L 53.609375 8.296875 
L 53.609375 0 
L 7.328125 0 
L 7.328125 8.296875 
Q 12.9375 14.109375 22.625 23.890625 
Q 32.328125 33.6875 34.8125 36.53125 
Q 39.546875 41.84375 41.421875 45.53125 
Q 43.3125 49.21875 43.3125 52.78125 
Q 43.3125 58.59375 39.234375 62.25 
Q 35.15625 65.921875 28.609375 65.921875 
Q 23.96875 65.921875 18.8125 64.3125 
Q 13.671875 62.703125 7.8125 59.421875 
L 7.8125 69.390625 
Q 13.765625 71.78125 18.9375 73 
Q 24.125 74.21875 28.421875 74.21875 
Q 39.75 74.21875 46.484375 68.546875 
Q 53.21875 62.890625 53.21875 53.421875 
Q 53.21875 48.921875 51.53125 44.890625 
Q 49.859375 40.875 45.40625 35.40625 
Q 44.1875 33.984375 37.640625 27.21875 
Q 31.109375 20.453125 19.1875 8.296875 
z
" id="DejaVuSans-50"/>
      </defs>
      <g transform="translate(252.343311 392.598437)scale(0.1 -0.1)">
       <use xlink:href="#DejaVuSans-49"/>
       <use x="63.623047" xlink:href="#DejaVuSans-46"/>
       <use x="95.410156" xlink:href="#DejaVuSans-50"/>
       <use x="159.033203" xlink:href="#DejaVuSans-53"/>
      </g>
     </g>
    </g>
    <g id="xtick_5">
     <g id="line2d_6">
      <g>
       <use style="stroke:#000000;stroke-width:0.8;" x="321.228961" xlink:href="#m3280355c9a" y="378"/>
      </g>
     </g>
     <g id="text_5">
      <!-- 1.50 -->
      <g transform="translate(310.096148 392.598437)scale(0.1 -0.1)">
       <use xlink:href="#DejaVuSans-49"/>
       <use x="63.623047" xlink:href="#DejaVuSans-46"/>
       <use x="95.410156" xlink:href="#DejaVuSans-53"/>
       <use x="159.033203" xlink:href="#DejaVuSans-48"/>
      </g>
     </g>
    </g>
    <g id="xtick_6">
     <g id="line2d_7">
      <g>
       <use style="stroke:#000000;stroke-width:0.8;" x="378.981798" xlink:href="#m3280355c9a" y="378"/>
      </g>
     </g>
     <g id="text_6">
      <!-- 1.75 -->
      <g transform="translate(367.848985 392.598437)scale(0.1 -0.1)">
       <use xlink:href="#DejaVuSans-49"/>
       <use x="63.623047" xlink:href="#DejaVuSans-46"/>
       <use x="95.410156" xlink:href="#DejaVuSans-55"/>
       <use x="159.033203" xlink:href="#DejaVuSans-53"/>
      </g>
     </g>
    </g>
    <g id="xtick_7">
     <g id="line2d_8">
      <g>
       <use style="stroke:#000000;stroke-width:0.8;" x="436.734635" xlink:href="#m3280355c9a" y="378"/>
      </g>
     </g>
     <g id="text_7">
      <!-- 2.00 -->
      <g transform="translate(425.601822 392.598437)scale(0.1 -0.1)">
       <use xlink:href="#DejaVuSans-50"/>
       <use x="63.623047" xlink:href="#DejaVuSans-46"/>
       <use x="95.410156" xlink:href="#DejaVuSans-48"/>
       <use x="159.033203" xlink:href="#DejaVuSans-48"/>
      </g>
     </g>
    </g>
    <g id="xtick_8">
     <g id="line2d_9">
      <g>
       <use style="stroke:#000000;stroke-width:0.8;" x="494.487472" xlink:href="#m3280355c9a" y="378"/>
      </g>
     </g>
     <g id="text_8">
      <!-- 2.25 -->
      <g transform="translate(483.354659 392.598437)scale(0.1 -0.1)">
       <use xlink:href="#DejaVuSans-50"/>
       <use x="63.623047" xlink:href="#DejaVuSans-46"/>
       <use x="95.410156" xlink:href="#DejaVuSans-50"/>
       <use x="159.033203" xlink:href="#DejaVuSans-53"/>
      </g>
     </g>
    </g>
    <g id="text_9">
     <!-- Stock Price at time t-1 -->
     <defs>
      <path d="M 53.515625 70.515625 
L 53.515625 60.890625 
Q 47.90625 63.578125 42.921875 64.890625 
Q 37.9375 66.21875 33.296875 66.21875 
Q 25.25 66.21875 20.875 63.09375 
Q 16.5 59.96875 16.5 54.203125 
Q 16.5 49.359375 19.40625 46.890625 
Q 22.3125 44.4375 30.421875 42.921875 
L 36.375 41.703125 
Q 47.40625 39.59375 52.65625 34.296875 
Q 57.90625 29 57.90625 20.125 
Q 57.90625 9.515625 50.796875 4.046875 
Q 43.703125 -1.421875 29.984375 -1.421875 
Q 24.8125 -1.421875 18.96875 -0.25 
Q 13.140625 0.921875 6.890625 3.21875 
L 6.890625 13.375 
Q 12.890625 10.015625 18.65625 8.296875 
Q 24.421875 6.59375 29.984375 6.59375 
Q 38.421875 6.59375 43.015625 9.90625 
Q 47.609375 13.234375 47.609375 19.390625 
Q 47.609375 24.75 44.3125 27.78125 
Q 41.015625 30.8125 33.5 32.328125 
L 27.484375 33.5 
Q 16.453125 35.6875 11.515625 40.375 
Q 6.59375 45.0625 6.59375 53.421875 
Q 6.59375 63.09375 13.40625 68.65625 
Q 20.21875 74.21875 32.171875 74.21875 
Q 37.3125 74.21875 42.625 73.28125 
Q 47.953125 72.359375 53.515625 70.515625 
z
" id="DejaVuSans-83"/>
      <path d="M 18.3125 70.21875 
L 18.3125 54.6875 
L 36.8125 54.6875 
L 36.8125 47.703125 
L 18.3125 47.703125 
L 18.3125 18.015625 
Q 18.3125 11.328125 20.140625 9.421875 
Q 21.96875 7.515625 27.59375 7.515625 
L 36.8125 7.515625 
L 36.8125 0 
L 27.59375 0 
Q 17.1875 0 13.234375 3.875 
Q 9.28125 7.765625 9.28125 18.015625 
L 9.28125 47.703125 
L 2.6875 47.703125 
L 2.6875 54.6875 
L 9.28125 54.6875 
L 9.28125 70.21875 
z
" id="DejaVuSans-116"/>
      <path d="M 30.609375 48.390625 
Q 23.390625 48.390625 19.1875 42.75 
Q 14.984375 37.109375 14.984375 27.296875 
Q 14.984375 17.484375 19.15625 11.84375 
Q 23.34375 6.203125 30.609375 6.203125 
Q 37.796875 6.203125 41.984375 11.859375 
Q 46.1875 17.53125 46.1875 27.296875 
Q 46.1875 37.015625 41.984375 42.703125 
Q 37.796875 48.390625 30.609375 48.390625 
z
M 30.609375 56 
Q 42.328125 56 49.015625 48.375 
Q 55.71875 40.765625 55.71875 27.296875 
Q 55.71875 13.875 49.015625 6.21875 
Q 42.328125 -1.421875 30.609375 -1.421875 
Q 18.84375 -1.421875 12.171875 6.21875 
Q 5.515625 13.875 5.515625 27.296875 
Q 5.515625 40.765625 12.171875 48.375 
Q 18.84375 56 30.609375 56 
z
" id="DejaVuSans-111"/>
      <path d="M 48.78125 52.59375 
L 48.78125 44.1875 
Q 44.96875 46.296875 41.140625 47.34375 
Q 37.3125 48.390625 33.40625 48.390625 
Q 24.65625 48.390625 19.8125 42.84375 
Q 14.984375 37.3125 14.984375 27.296875 
Q 14.984375 17.28125 19.8125 11.734375 
Q 24.65625 6.203125 33.40625 6.203125 
Q 37.3125 6.203125 41.140625 7.25 
Q 44.96875 8.296875 48.78125 10.40625 
L 48.78125 2.09375 
Q 45.015625 0.34375 40.984375 -0.53125 
Q 36.96875 -1.421875 32.421875 -1.421875 
Q 20.0625 -1.421875 12.78125 6.34375 
Q 5.515625 14.109375 5.515625 27.296875 
Q 5.515625 40.671875 12.859375 48.328125 
Q 20.21875 56 33.015625 56 
Q 37.15625 56 41.109375 55.140625 
Q 45.0625 54.296875 48.78125 52.59375 
z
" id="DejaVuSans-99"/>
      <path d="M 9.078125 75.984375 
L 18.109375 75.984375 
L 18.109375 31.109375 
L 44.921875 54.6875 
L 56.390625 54.6875 
L 27.390625 29.109375 
L 57.625 0 
L 45.90625 0 
L 18.109375 26.703125 
L 18.109375 0 
L 9.078125 0 
z
" id="DejaVuSans-107"/>
      <path id="DejaVuSans-32"/>
      <path d="M 19.671875 64.796875 
L 19.671875 37.40625 
L 32.078125 37.40625 
Q 38.96875 37.40625 42.71875 40.96875 
Q 46.484375 44.53125 46.484375 51.125 
Q 46.484375 57.671875 42.71875 61.234375 
Q 38.96875 64.796875 32.078125 64.796875 
z
M 9.8125 72.90625 
L 32.078125 72.90625 
Q 44.34375 72.90625 50.609375 67.359375 
Q 56.890625 61.8125 56.890625 51.125 
Q 56.890625 40.328125 50.609375 34.8125 
Q 44.34375 29.296875 32.078125 29.296875 
L 19.671875 29.296875 
L 19.671875 0 
L 9.8125 0 
z
" id="DejaVuSans-80"/>
      <path d="M 41.109375 46.296875 
Q 39.59375 47.171875 37.8125 47.578125 
Q 36.03125 48 33.890625 48 
Q 26.265625 48 22.1875 43.046875 
Q 18.109375 38.09375 18.109375 28.8125 
L 18.109375 0 
L 9.078125 0 
L 9.078125 54.6875 
L 18.109375 54.6875 
L 18.109375 46.1875 
Q 20.953125 51.171875 25.484375 53.578125 
Q 30.03125 56 36.53125 56 
Q 37.453125 56 38.578125 55.875 
Q 39.703125 55.765625 41.0625 55.515625 
z
" id="DejaVuSans-114"/>
      <path d="M 9.421875 54.6875 
L 18.40625 54.6875 
L 18.40625 0 
L 9.421875 0 
z
M 9.421875 75.984375 
L 18.40625 75.984375 
L 18.40625 64.59375 
L 9.421875 64.59375 
z
" id="DejaVuSans-105"/>
      <path d="M 56.203125 29.59375 
L 56.203125 25.203125 
L 14.890625 25.203125 
Q 15.484375 15.921875 20.484375 11.0625 
Q 25.484375 6.203125 34.421875 6.203125 
Q 39.59375 6.203125 44.453125 7.46875 
Q 49.3125 8.734375 54.109375 11.28125 
L 54.109375 2.78125 
Q 49.265625 0.734375 44.1875 -0.34375 
Q 39.109375 -1.421875 33.890625 -1.421875 
Q 20.796875 -1.421875 13.15625 6.1875 
Q 5.515625 13.8125 5.515625 26.8125 
Q 5.515625 40.234375 12.765625 48.109375 
Q 20.015625 56 32.328125 56 
Q 43.359375 56 49.78125 48.890625 
Q 56.203125 41.796875 56.203125 29.59375 
z
M 47.21875 32.234375 
Q 47.125 39.59375 43.09375 43.984375 
Q 39.0625 48.390625 32.421875 48.390625 
Q 24.90625 48.390625 20.390625 44.140625 
Q 15.875 39.890625 15.1875 32.171875 
z
" id="DejaVuSans-101"/>
      <path d="M 34.28125 27.484375 
Q 23.390625 27.484375 19.1875 25 
Q 14.984375 22.515625 14.984375 16.5 
Q 14.984375 11.71875 18.140625 8.90625 
Q 21.296875 6.109375 26.703125 6.109375 
Q 34.1875 6.109375 38.703125 11.40625 
Q 43.21875 16.703125 43.21875 25.484375 
L 43.21875 27.484375 
z
M 52.203125 31.203125 
L 52.203125 0 
L 43.21875 0 
L 43.21875 8.296875 
Q 40.140625 3.328125 35.546875 0.953125 
Q 30.953125 -1.421875 24.3125 -1.421875 
Q 15.921875 -1.421875 10.953125 3.296875 
Q 6 8.015625 6 15.921875 
Q 6 25.140625 12.171875 29.828125 
Q 18.359375 34.515625 30.609375 34.515625 
L 43.21875 34.515625 
L 43.21875 35.40625 
Q 43.21875 41.609375 39.140625 45 
Q 35.0625 48.390625 27.6875 48.390625 
Q 23 48.390625 18.546875 47.265625 
Q 14.109375 46.140625 10.015625 43.890625 
L 10.015625 52.203125 
Q 14.9375 54.109375 19.578125 55.046875 
Q 24.21875 56 28.609375 56 
Q 40.484375 56 46.34375 49.84375 
Q 52.203125 43.703125 52.203125 31.203125 
z
" id="DejaVuSans-97"/>
      <path d="M 52 44.1875 
Q 55.375 50.25 60.0625 53.125 
Q 64.75 56 71.09375 56 
Q 79.640625 56 84.28125 50.015625 
Q 88.921875 44.046875 88.921875 33.015625 
L 88.921875 0 
L 79.890625 0 
L 79.890625 32.71875 
Q 79.890625 40.578125 77.09375 44.375 
Q 74.3125 48.1875 68.609375 48.1875 
Q 61.625 48.1875 57.5625 43.546875 
Q 53.515625 38.921875 53.515625 30.90625 
L 53.515625 0 
L 44.484375 0 
L 44.484375 32.71875 
Q 44.484375 40.625 41.703125 44.40625 
Q 38.921875 48.1875 33.109375 48.1875 
Q 26.21875 48.1875 22.15625 43.53125 
Q 18.109375 38.875 18.109375 30.90625 
L 18.109375 0 
L 9.078125 0 
L 9.078125 54.6875 
L 18.109375 54.6875 
L 18.109375 46.1875 
Q 21.1875 51.21875 25.484375 53.609375 
Q 29.78125 56 35.6875 56 
Q 41.65625 56 45.828125 52.96875 
Q 50 49.953125 52 44.1875 
z
" id="DejaVuSans-109"/>
      <path d="M 4.890625 31.390625 
L 31.203125 31.390625 
L 31.203125 23.390625 
L 4.890625 23.390625 
z
" id="DejaVuSans-45"/>
     </defs>
     <g transform="translate(239.455469 406.276563)scale(0.1 -0.1)">
      <use xlink:href="#DejaVuSans-83"/>
      <use x="63.476562" xlink:href="#DejaVuSans-116"/>
      <use x="102.685547" xlink:href="#DejaVuSans-111"/>
      <use x="163.867188" xlink:href="#DejaVuSans-99"/>
      <use x="218.847656" xlink:href="#DejaVuSans-107"/>
      <use x="276.757812" xlink:href="#DejaVuSans-32"/>
      <use x="308.544922" xlink:href="#DejaVuSans-80"/>
      <use x="368.832031" xlink:href="#DejaVuSans-114"/>
      <use x="409.945312" xlink:href="#DejaVuSans-105"/>
      <use x="437.728516" xlink:href="#DejaVuSans-99"/>
      <use x="492.708984" xlink:href="#DejaVuSans-101"/>
      <use x="554.232422" xlink:href="#DejaVuSans-32"/>
      <use x="586.019531" xlink:href="#DejaVuSans-97"/>
      <use x="647.298828" xlink:href="#DejaVuSans-116"/>
      <use x="686.507812" xlink:href="#DejaVuSans-32"/>
      <use x="718.294922" xlink:href="#DejaVuSans-116"/>
      <use x="757.503906" xlink:href="#DejaVuSans-105"/>
      <use x="785.287109" xlink:href="#DejaVuSans-109"/>
      <use x="882.699219" xlink:href="#DejaVuSans-101"/>
      <use x="944.222656" xlink:href="#DejaVuSans-32"/>
      <use x="976.009766" xlink:href="#DejaVuSans-116"/>
      <use x="1015.21875" xlink:href="#DejaVuSans-45"/>
      <use x="1051.302734" xlink:href="#DejaVuSans-49"/>
     </g>
    </g>
   </g>
   <g id="matplotlib.axis_2">
    <g id="ytick_1">
     <g id="line2d_10">
      <defs>
       <path d="M 0 0 
L -3.5 0 
" id="ma40921c82f" style="stroke:#000000;stroke-width:0.8;"/>
      </defs>
      <g>
       <use style="stroke:#000000;stroke-width:0.8;" x="72" xlink:href="#ma40921c82f" y="334.53607"/>
      </g>
     </g>
     <g id="text_10">
      <!-- 0.0 -->
      <g transform="translate(49.096875 338.335289)scale(0.1 -0.1)">
       <use xlink:href="#DejaVuSans-48"/>
       <use x="63.623047" xlink:href="#DejaVuSans-46"/>
       <use x="95.410156" xlink:href="#DejaVuSans-48"/>
      </g>
     </g>
    </g>
    <g id="ytick_2">
     <g id="line2d_11">
      <g>
       <use style="stroke:#000000;stroke-width:0.8;" x="72" xlink:href="#ma40921c82f" y="285.096567"/>
      </g>
     </g>
     <g id="text_11">
      <!-- 0.1 -->
      <g transform="translate(49.096875 288.895786)scale(0.1 -0.1)">
       <use xlink:href="#DejaVuSans-48"/>
       <use x="63.623047" xlink:href="#DejaVuSans-46"/>
       <use x="95.410156" xlink:href="#DejaVuSans-49"/>
      </g>
     </g>
    </g>
    <g id="ytick_3">
     <g id="line2d_12">
      <g>
       <use style="stroke:#000000;stroke-width:0.8;" x="72" xlink:href="#ma40921c82f" y="235.657064"/>
      </g>
     </g>
     <g id="text_12">
      <!-- 0.2 -->
      <g transform="translate(49.096875 239.456283)scale(0.1 -0.1)">
       <use xlink:href="#DejaVuSans-48"/>
       <use x="63.623047" xlink:href="#DejaVuSans-46"/>
       <use x="95.410156" xlink:href="#DejaVuSans-50"/>
      </g>
     </g>
    </g>
    <g id="ytick_4">
     <g id="line2d_13">
      <g>
       <use style="stroke:#000000;stroke-width:0.8;" x="72" xlink:href="#ma40921c82f" y="186.217561"/>
      </g>
     </g>
     <g id="text_13">
      <!-- 0.3 -->
      <defs>
       <path d="M 40.578125 39.3125 
Q 47.65625 37.796875 51.625 33 
Q 55.609375 28.21875 55.609375 21.1875 
Q 55.609375 10.40625 48.1875 4.484375 
Q 40.765625 -1.421875 27.09375 -1.421875 
Q 22.515625 -1.421875 17.65625 -0.515625 
Q 12.796875 0.390625 7.625 2.203125 
L 7.625 11.71875 
Q 11.71875 9.328125 16.59375 8.109375 
Q 21.484375 6.890625 26.8125 6.890625 
Q 36.078125 6.890625 40.9375 10.546875 
Q 45.796875 14.203125 45.796875 21.1875 
Q 45.796875 27.640625 41.28125 31.265625 
Q 36.765625 34.90625 28.71875 34.90625 
L 20.21875 34.90625 
L 20.21875 43.015625 
L 29.109375 43.015625 
Q 36.375 43.015625 40.234375 45.921875 
Q 44.09375 48.828125 44.09375 54.296875 
Q 44.09375 59.90625 40.109375 62.90625 
Q 36.140625 65.921875 28.71875 65.921875 
Q 24.65625 65.921875 20.015625 65.03125 
Q 15.375 64.15625 9.8125 62.3125 
L 9.8125 71.09375 
Q 15.4375 72.65625 20.34375 73.4375 
Q 25.25 74.21875 29.59375 74.21875 
Q 40.828125 74.21875 47.359375 69.109375 
Q 53.90625 64.015625 53.90625 55.328125 
Q 53.90625 49.265625 50.4375 45.09375 
Q 46.96875 40.921875 40.578125 39.3125 
z
" id="DejaVuSans-51"/>
      </defs>
      <g transform="translate(49.096875 190.01678)scale(0.1 -0.1)">
       <use xlink:href="#DejaVuSans-48"/>
       <use x="63.623047" xlink:href="#DejaVuSans-46"/>
       <use x="95.410156" xlink:href="#DejaVuSans-51"/>
      </g>
     </g>
    </g>
    <g id="ytick_5">
     <g id="line2d_14">
      <g>
       <use style="stroke:#000000;stroke-width:0.8;" x="72" xlink:href="#ma40921c82f" y="136.778058"/>
      </g>
     </g>
     <g id="text_14">
      <!-- 0.4 -->
      <defs>
       <path d="M 37.796875 64.3125 
L 12.890625 25.390625 
L 37.796875 25.390625 
z
M 35.203125 72.90625 
L 47.609375 72.90625 
L 47.609375 25.390625 
L 58.015625 25.390625 
L 58.015625 17.1875 
L 47.609375 17.1875 
L 47.609375 0 
L 37.796875 0 
L 37.796875 17.1875 
L 4.890625 17.1875 
L 4.890625 26.703125 
z
" id="DejaVuSans-52"/>
      </defs>
      <g transform="translate(49.096875 140.577277)scale(0.1 -0.1)">
       <use xlink:href="#DejaVuSans-48"/>
       <use x="63.623047" xlink:href="#DejaVuSans-46"/>
       <use x="95.410156" xlink:href="#DejaVuSans-52"/>
      </g>
     </g>
    </g>
    <g id="ytick_6">
     <g id="line2d_15">
      <g>
       <use style="stroke:#000000;stroke-width:0.8;" x="72" xlink:href="#ma40921c82f" y="87.338555"/>
      </g>
     </g>
     <g id="text_15">
      <!-- 0.5 -->
      <g transform="translate(49.096875 91.137773)scale(0.1 -0.1)">
       <use xlink:href="#DejaVuSans-48"/>
       <use x="63.623047" xlink:href="#DejaVuSans-46"/>
       <use x="95.410156" xlink:href="#DejaVuSans-53"/>
      </g>
     </g>
    </g>
    <g id="text_16">
     <!-- Exercise / Continuation Value -->
     <defs>
      <path d="M 9.8125 72.90625 
L 55.90625 72.90625 
L 55.90625 64.59375 
L 19.671875 64.59375 
L 19.671875 43.015625 
L 54.390625 43.015625 
L 54.390625 34.71875 
L 19.671875 34.71875 
L 19.671875 8.296875 
L 56.78125 8.296875 
L 56.78125 0 
L 9.8125 0 
z
" id="DejaVuSans-69"/>
      <path d="M 54.890625 54.6875 
L 35.109375 28.078125 
L 55.90625 0 
L 45.3125 0 
L 29.390625 21.484375 
L 13.484375 0 
L 2.875 0 
L 24.125 28.609375 
L 4.6875 54.6875 
L 15.28125 54.6875 
L 29.78125 35.203125 
L 44.28125 54.6875 
z
" id="DejaVuSans-120"/>
      <path d="M 44.28125 53.078125 
L 44.28125 44.578125 
Q 40.484375 46.53125 36.375 47.5 
Q 32.28125 48.484375 27.875 48.484375 
Q 21.1875 48.484375 17.84375 46.4375 
Q 14.5 44.390625 14.5 40.28125 
Q 14.5 37.15625 16.890625 35.375 
Q 19.28125 33.59375 26.515625 31.984375 
L 29.59375 31.296875 
Q 39.15625 29.25 43.1875 25.515625 
Q 47.21875 21.78125 47.21875 15.09375 
Q 47.21875 7.46875 41.1875 3.015625 
Q 35.15625 -1.421875 24.609375 -1.421875 
Q 20.21875 -1.421875 15.453125 -0.5625 
Q 10.6875 0.296875 5.421875 2 
L 5.421875 11.28125 
Q 10.40625 8.6875 15.234375 7.390625 
Q 20.0625 6.109375 24.8125 6.109375 
Q 31.15625 6.109375 34.5625 8.28125 
Q 37.984375 10.453125 37.984375 14.40625 
Q 37.984375 18.0625 35.515625 20.015625 
Q 33.0625 21.96875 24.703125 23.78125 
L 21.578125 24.515625 
Q 13.234375 26.265625 9.515625 29.90625 
Q 5.8125 33.546875 5.8125 39.890625 
Q 5.8125 47.609375 11.28125 51.796875 
Q 16.75 56 26.8125 56 
Q 31.78125 56 36.171875 55.265625 
Q 40.578125 54.546875 44.28125 53.078125 
z
" id="DejaVuSans-115"/>
      <path d="M 25.390625 72.90625 
L 33.6875 72.90625 
L 8.296875 -9.28125 
L 0 -9.28125 
z
" id="DejaVuSans-47"/>
      <path d="M 64.40625 67.28125 
L 64.40625 56.890625 
Q 59.421875 61.53125 53.78125 63.8125 
Q 48.140625 66.109375 41.796875 66.109375 
Q 29.296875 66.109375 22.65625 58.46875 
Q 16.015625 50.828125 16.015625 36.375 
Q 16.015625 21.96875 22.65625 14.328125 
Q 29.296875 6.6875 41.796875 6.6875 
Q 48.140625 6.6875 53.78125 8.984375 
Q 59.421875 11.28125 64.40625 15.921875 
L 64.40625 5.609375 
Q 59.234375 2.09375 53.4375 0.328125 
Q 47.65625 -1.421875 41.21875 -1.421875 
Q 24.65625 -1.421875 15.125 8.703125 
Q 5.609375 18.84375 5.609375 36.375 
Q 5.609375 53.953125 15.125 64.078125 
Q 24.65625 74.21875 41.21875 74.21875 
Q 47.75 74.21875 53.53125 72.484375 
Q 59.328125 70.75 64.40625 67.28125 
z
" id="DejaVuSans-67"/>
      <path d="M 54.890625 33.015625 
L 54.890625 0 
L 45.90625 0 
L 45.90625 32.71875 
Q 45.90625 40.484375 42.875 44.328125 
Q 39.84375 48.1875 33.796875 48.1875 
Q 26.515625 48.1875 22.3125 43.546875 
Q 18.109375 38.921875 18.109375 30.90625 
L 18.109375 0 
L 9.078125 0 
L 9.078125 54.6875 
L 18.109375 54.6875 
L 18.109375 46.1875 
Q 21.34375 51.125 25.703125 53.5625 
Q 30.078125 56 35.796875 56 
Q 45.21875 56 50.046875 50.171875 
Q 54.890625 44.34375 54.890625 33.015625 
z
" id="DejaVuSans-110"/>
      <path d="M 8.5 21.578125 
L 8.5 54.6875 
L 17.484375 54.6875 
L 17.484375 21.921875 
Q 17.484375 14.15625 20.5 10.265625 
Q 23.53125 6.390625 29.59375 6.390625 
Q 36.859375 6.390625 41.078125 11.03125 
Q 45.3125 15.671875 45.3125 23.6875 
L 45.3125 54.6875 
L 54.296875 54.6875 
L 54.296875 0 
L 45.3125 0 
L 45.3125 8.40625 
Q 42.046875 3.421875 37.71875 1 
Q 33.40625 -1.421875 27.6875 -1.421875 
Q 18.265625 -1.421875 13.375 4.4375 
Q 8.5 10.296875 8.5 21.578125 
z
M 31.109375 56 
z
" id="DejaVuSans-117"/>
      <path d="M 28.609375 0 
L 0.78125 72.90625 
L 11.078125 72.90625 
L 34.1875 11.53125 
L 57.328125 72.90625 
L 67.578125 72.90625 
L 39.796875 0 
z
" id="DejaVuSans-86"/>
      <path d="M 9.421875 75.984375 
L 18.40625 75.984375 
L 18.40625 0 
L 9.421875 0 
z
" id="DejaVuSans-108"/>
     </defs>
     <g transform="translate(43.017187 288.598906)rotate(-90)scale(0.1 -0.1)">
      <use xlink:href="#DejaVuSans-69"/>
      <use x="63.183594" xlink:href="#DejaVuSans-120"/>
      <use x="122.316406" xlink:href="#DejaVuSans-101"/>
      <use x="183.839844" xlink:href="#DejaVuSans-114"/>
      <use x="224.921875" xlink:href="#DejaVuSans-99"/>
      <use x="279.902344" xlink:href="#DejaVuSans-105"/>
      <use x="307.685547" xlink:href="#DejaVuSans-115"/>
      <use x="359.785156" xlink:href="#DejaVuSans-101"/>
      <use x="421.308594" xlink:href="#DejaVuSans-32"/>
      <use x="453.095703" xlink:href="#DejaVuSans-47"/>
      <use x="486.787109" xlink:href="#DejaVuSans-32"/>
      <use x="518.574219" xlink:href="#DejaVuSans-67"/>
      <use x="588.398438" xlink:href="#DejaVuSans-111"/>
      <use x="649.580078" xlink:href="#DejaVuSans-110"/>
      <use x="712.958984" xlink:href="#DejaVuSans-116"/>
      <use x="752.167969" xlink:href="#DejaVuSans-105"/>
      <use x="779.951172" xlink:href="#DejaVuSans-110"/>
      <use x="843.330078" xlink:href="#DejaVuSans-117"/>
      <use x="906.708984" xlink:href="#DejaVuSans-97"/>
      <use x="967.988281" xlink:href="#DejaVuSans-116"/>
      <use x="1007.197266" xlink:href="#DejaVuSans-105"/>
      <use x="1034.980469" xlink:href="#DejaVuSans-111"/>
      <use x="1096.162109" xlink:href="#DejaVuSans-110"/>
      <use x="1159.541016" xlink:href="#DejaVuSans-32"/>
      <use x="1191.328125" xlink:href="#DejaVuSans-86"/>
      <use x="1259.626953" xlink:href="#DejaVuSans-97"/>
      <use x="1320.90625" xlink:href="#DejaVuSans-108"/>
      <use x="1348.689453" xlink:href="#DejaVuSans-117"/>
      <use x="1412.068359" xlink:href="#DejaVuSans-101"/>
     </g>
    </g>
   </g>
   <g id="line2d_16">
    <defs>
     <path d="M -3 0 
L 3 0 
M 0 3 
L 0 -3 
" id="m078e044e50" style="stroke:#ff7f0e;"/>
    </defs>
    <g clip-path="url(#pa4a4fbb789)">
     <use style="fill:#ff7f0e;stroke:#ff7f0e;" x="350.711282" xlink:href="#m078e044e50" y="363.171628"/>
     <use style="fill:#ff7f0e;stroke:#ff7f0e;" x="167.302252" xlink:href="#m078e044e50" y="220.332417"/>
     <use style="fill:#ff7f0e;stroke:#ff7f0e;" x="172.915885" xlink:href="#m078e044e50" y="229.038552"/>
     <use style="fill:#ff7f0e;stroke:#ff7f0e;" x="225.3696" xlink:href="#m078e044e50" y="297.161735"/>
     <use style="fill:#ff7f0e;stroke:#ff7f0e;" x="214.270301" xlink:href="#m078e044e50" y="284.740013"/>
     <use style="fill:#ff7f0e;stroke:#ff7f0e;" x="324.040479" xlink:href="#m078e044e50" y="360.553784"/>
     <use style="fill:#ff7f0e;stroke:#ff7f0e;" x="279.212202" xlink:href="#m078e044e50" y="342.234977"/>
     <use style="fill:#ff7f0e;stroke:#ff7f0e;" x="498.109091" xlink:href="#m078e044e50" y="266.220414"/>
     <use style="fill:#ff7f0e;stroke:#ff7f0e;" x="448.493987" xlink:href="#m078e044e50" y="319.92285"/>
     <use style="fill:#ff7f0e;stroke:#ff7f0e;" x="179.151814" xlink:href="#m078e044e50" y="238.388913"/>
     <use style="fill:#ff7f0e;stroke:#ff7f0e;" x="425.869204" xlink:href="#m078e044e50" y="337.313925"/>
     <use style="fill:#ff7f0e;stroke:#ff7f0e;" x="227.719292" xlink:href="#m078e044e50" y="299.654151"/>
     <use style="fill:#ff7f0e;stroke:#ff7f0e;" x="181.386973" xlink:href="#m078e044e50" y="241.658164"/>
     <use style="fill:#ff7f0e;stroke:#ff7f0e;" x="395.822697" xlink:href="#m078e044e50" y="353.537376"/>
     <use style="fill:#ff7f0e;stroke:#ff7f0e;" x="154.799987" xlink:href="#m078e044e50" y="199.959216"/>
     <use style="fill:#ff7f0e;stroke:#ff7f0e;" x="256.996412" xlink:href="#m078e044e50" y="326.688636"/>
     <use style="fill:#ff7f0e;stroke:#ff7f0e;" x="221.420103" xlink:href="#m078e044e50" y="292.864303"/>
     <use style="fill:#ff7f0e;stroke:#ff7f0e;" x="357.659127" xlink:href="#m078e044e50" y="362.83926"/>
     <use style="fill:#ff7f0e;stroke:#ff7f0e;" x="233.171507" xlink:href="#m078e044e50" y="305.252819"/>
     <use style="fill:#ff7f0e;stroke:#ff7f0e;" x="126.160599" xlink:href="#m078e044e50" y="148.172855"/>
     <use style="fill:#ff7f0e;stroke:#ff7f0e;" x="334.924301" xlink:href="#m078e044e50" y="362.368227"/>
     <use style="fill:#ff7f0e;stroke:#ff7f0e;" x="253.489982" xlink:href="#m078e044e50" y="323.843208"/>
     <use style="fill:#ff7f0e;stroke:#ff7f0e;" x="212.234178" xlink:href="#m078e044e50" y="282.345153"/>
     <use style="fill:#ff7f0e;stroke:#ff7f0e;" x="326.890402" xlink:href="#m078e044e50" y="361.128323"/>
     <use style="fill:#ff7f0e;stroke:#ff7f0e;" x="92.290909" xlink:href="#m078e044e50" y="77.735012"/>
     <use style="fill:#ff7f0e;stroke:#ff7f0e;" x="334.662679" xlink:href="#m078e044e50" y="362.33668"/>
     <use style="fill:#ff7f0e;stroke:#ff7f0e;" x="197.226791" xlink:href="#m078e044e50" y="263.582931"/>
     <use style="fill:#ff7f0e;stroke:#ff7f0e;" x="249.608399" xlink:href="#m078e044e50" y="320.568814"/>
     <use style="fill:#ff7f0e;stroke:#ff7f0e;" x="181.846244" xlink:href="#m078e044e50" y="242.324541"/>
     <use style="fill:#ff7f0e;stroke:#ff7f0e;" x="357.57191" xlink:href="#m078e044e50" y="362.846031"/>
     <use style="fill:#ff7f0e;stroke:#ff7f0e;" x="223.24584" xlink:href="#m078e044e50" y="294.867718"/>
     <use style="fill:#ff7f0e;stroke:#ff7f0e;" x="116.389809" xlink:href="#m078e044e50" y="128.875344"/>
     <use style="fill:#ff7f0e;stroke:#ff7f0e;" x="344.415648" xlink:href="#m078e044e50" y="363.110729"/>
     <use style="fill:#ff7f0e;stroke:#ff7f0e;" x="215.029888" xlink:href="#m078e044e50" y="285.624206"/>
     <use style="fill:#ff7f0e;stroke:#ff7f0e;" x="270.114719" xlink:href="#m078e044e50" y="336.386927"/>
     <use style="fill:#ff7f0e;stroke:#ff7f0e;" x="204.916648" xlink:href="#m078e044e50" y="273.441144"/>
     <use style="fill:#ff7f0e;stroke:#ff7f0e;" x="218.860111" xlink:href="#m078e044e50" y="290.006419"/>
     <use style="fill:#ff7f0e;stroke:#ff7f0e;" x="329.934984" xlink:href="#m078e044e50" y="361.664171"/>
     <use style="fill:#ff7f0e;stroke:#ff7f0e;" x="258.455059" xlink:href="#m078e044e50" y="327.840861"/>
     <use style="fill:#ff7f0e;stroke:#ff7f0e;" x="283.589008" xlink:href="#m078e044e50" y="344.792378"/>
     <use style="fill:#ff7f0e;stroke:#ff7f0e;" x="229.943059" xlink:href="#m078e044e50" y="301.968828"/>
     <use style="fill:#ff7f0e;stroke:#ff7f0e;" x="237.387013" xlink:href="#m078e044e50" y="309.40458"/>
     <use style="fill:#ff7f0e;stroke:#ff7f0e;" x="250.152779" xlink:href="#m078e044e50" y="321.035927"/>
     <use style="fill:#ff7f0e;stroke:#ff7f0e;" x="137.382808" xlink:href="#m078e044e50" y="169.313892"/>
     <use style="fill:#ff7f0e;stroke:#ff7f0e;" x="165.566566" xlink:href="#m078e044e50" y="217.585164"/>
     <use style="fill:#ff7f0e;stroke:#ff7f0e;" x="316.254481" xlink:href="#m078e044e50" y="358.62453"/>
     <use style="fill:#ff7f0e;stroke:#ff7f0e;" x="120.740648" xlink:href="#m078e044e50" y="137.570744"/>
     <use style="fill:#ff7f0e;stroke:#ff7f0e;" x="279.076545" xlink:href="#m078e044e50" y="342.153053"/>
     <use style="fill:#ff7f0e;stroke:#ff7f0e;" x="97.849219" xlink:href="#m078e044e50" y="89.977837"/>
     <use style="fill:#ff7f0e;stroke:#ff7f0e;" x="199.962725" xlink:href="#m078e044e50" y="267.149191"/>
    </g>
   </g>
   <g id="patch_3">
    <path d="M 72 378 
L 72 51.84 
" style="fill:none;stroke:#000000;stroke-linecap:square;stroke-linejoin:miter;stroke-width:0.8;"/>
   </g>
   <g id="patch_4">
    <path d="M 518.4 378 
L 518.4 51.84 
" style="fill:none;stroke:#000000;stroke-linecap:square;stroke-linejoin:miter;stroke-width:0.8;"/>
   </g>
   <g id="patch_5">
    <path d="M 72 378 
L 518.4 378 
" style="fill:none;stroke:#000000;stroke-linecap:square;stroke-linejoin:miter;stroke-width:0.8;"/>
   </g>
   <g id="patch_6">
    <path d="M 72 51.84 
L 518.4 51.84 
" style="fill:none;stroke:#000000;stroke-linecap:square;stroke-linejoin:miter;stroke-width:0.8;"/>
   </g>
   <g id="line2d_17">
    <defs>
     <path d="M 0 -3 
L -3 3 
L 3 3 
z
" id="mc52481c911" style="stroke:#008000;stroke-linejoin:miter;"/>
    </defs>
    <g clip-path="url(#pa4a4fbb789)">
     <use style="fill:#008000;stroke:#008000;stroke-linejoin:miter;" x="350.711282" xlink:href="#mc52481c911" y="334.53607"/>
     <use style="fill:#008000;stroke:#008000;stroke-linejoin:miter;" x="167.302252" xlink:href="#mc52481c911" y="241.150614"/>
     <use style="fill:#008000;stroke:#008000;stroke-linejoin:miter;" x="172.915885" xlink:href="#mc52481c911" y="245.231776"/>
     <use style="fill:#008000;stroke:#008000;stroke-linejoin:miter;" x="225.3696" xlink:href="#mc52481c911" y="334.53607"/>
     <use style="fill:#008000;stroke:#008000;stroke-linejoin:miter;" x="214.270301" xlink:href="#mc52481c911" y="317.821371"/>
     <use style="fill:#008000;stroke:#008000;stroke-linejoin:miter;" x="324.040479" xlink:href="#mc52481c911" y="334.53607"/>
     <use style="fill:#008000;stroke:#008000;stroke-linejoin:miter;" x="279.212202" xlink:href="#mc52481c911" y="334.53607"/>
     <use style="fill:#008000;stroke:#008000;stroke-linejoin:miter;" x="498.109091" xlink:href="#mc52481c911" y="334.53607"/>
     <use style="fill:#008000;stroke:#008000;stroke-linejoin:miter;" x="448.493987" xlink:href="#mc52481c911" y="334.53607"/>
     <use style="fill:#008000;stroke:#008000;stroke-linejoin:miter;" x="179.151814" xlink:href="#mc52481c911" y="242.911369"/>
     <use style="fill:#008000;stroke:#008000;stroke-linejoin:miter;" x="425.869204" xlink:href="#mc52481c911" y="334.53607"/>
     <use style="fill:#008000;stroke:#008000;stroke-linejoin:miter;" x="227.719292" xlink:href="#mc52481c911" y="294.011221"/>
     <use style="fill:#008000;stroke:#008000;stroke-linejoin:miter;" x="181.386973" xlink:href="#mc52481c911" y="257.165654"/>
     <use style="fill:#008000;stroke:#008000;stroke-linejoin:miter;" x="395.822697" xlink:href="#mc52481c911" y="334.53607"/>
     <use style="fill:#008000;stroke:#008000;stroke-linejoin:miter;" x="154.799987" xlink:href="#mc52481c911" y="215.694021"/>
     <use style="fill:#008000;stroke:#008000;stroke-linejoin:miter;" x="256.996412" xlink:href="#mc52481c911" y="334.53607"/>
     <use style="fill:#008000;stroke:#008000;stroke-linejoin:miter;" x="221.420103" xlink:href="#mc52481c911" y="334.53607"/>
     <use style="fill:#008000;stroke:#008000;stroke-linejoin:miter;" x="357.659127" xlink:href="#mc52481c911" y="334.53607"/>
     <use style="fill:#008000;stroke:#008000;stroke-linejoin:miter;" x="233.171507" xlink:href="#mc52481c911" y="334.53607"/>
     <use style="fill:#008000;stroke:#008000;stroke-linejoin:miter;" x="126.160599" xlink:href="#mc52481c911" y="119.407588"/>
     <use style="fill:#008000;stroke:#008000;stroke-linejoin:miter;" x="334.924301" xlink:href="#mc52481c911" y="334.53607"/>
     <use style="fill:#008000;stroke:#008000;stroke-linejoin:miter;" x="253.489982" xlink:href="#mc52481c911" y="334.53607"/>
     <use style="fill:#008000;stroke:#008000;stroke-linejoin:miter;" x="212.234178" xlink:href="#mc52481c911" y="334.53607"/>
     <use style="fill:#008000;stroke:#008000;stroke-linejoin:miter;" x="326.890402" xlink:href="#mc52481c911" y="334.53607"/>
     <use style="fill:#008000;stroke:#008000;stroke-linejoin:miter;" x="92.290909" xlink:href="#mc52481c911" y="66.665455"/>
     <use style="fill:#008000;stroke:#008000;stroke-linejoin:miter;" x="334.662679" xlink:href="#mc52481c911" y="334.53607"/>
     <use style="fill:#008000;stroke:#008000;stroke-linejoin:miter;" x="197.226791" xlink:href="#mc52481c911" y="251.800925"/>
     <use style="fill:#008000;stroke:#008000;stroke-linejoin:miter;" x="249.608399" xlink:href="#mc52481c911" y="334.53607"/>
     <use style="fill:#008000;stroke:#008000;stroke-linejoin:miter;" x="181.846244" xlink:href="#mc52481c911" y="220.749735"/>
     <use style="fill:#008000;stroke:#008000;stroke-linejoin:miter;" x="357.57191" xlink:href="#mc52481c911" y="334.53607"/>
     <use style="fill:#008000;stroke:#008000;stroke-linejoin:miter;" x="223.24584" xlink:href="#mc52481c911" y="311.760139"/>
     <use style="fill:#008000;stroke:#008000;stroke-linejoin:miter;" x="116.389809" xlink:href="#mc52481c911" y="98.243455"/>
     <use style="fill:#008000;stroke:#008000;stroke-linejoin:miter;" x="344.415648" xlink:href="#mc52481c911" y="334.53607"/>
     <use style="fill:#008000;stroke:#008000;stroke-linejoin:miter;" x="215.029888" xlink:href="#mc52481c911" y="294.393642"/>
     <use style="fill:#008000;stroke:#008000;stroke-linejoin:miter;" x="270.114719" xlink:href="#mc52481c911" y="334.53607"/>
     <use style="fill:#008000;stroke:#008000;stroke-linejoin:miter;" x="204.916648" xlink:href="#mc52481c911" y="284.646886"/>
     <use style="fill:#008000;stroke:#008000;stroke-linejoin:miter;" x="218.860111" xlink:href="#mc52481c911" y="313.658323"/>
     <use style="fill:#008000;stroke:#008000;stroke-linejoin:miter;" x="329.934984" xlink:href="#mc52481c911" y="334.53607"/>
     <use style="fill:#008000;stroke:#008000;stroke-linejoin:miter;" x="258.455059" xlink:href="#mc52481c911" y="334.53607"/>
     <use style="fill:#008000;stroke:#008000;stroke-linejoin:miter;" x="283.589008" xlink:href="#mc52481c911" y="334.53607"/>
     <use style="fill:#008000;stroke:#008000;stroke-linejoin:miter;" x="229.943059" xlink:href="#mc52481c911" y="320.121284"/>
     <use style="fill:#008000;stroke:#008000;stroke-linejoin:miter;" x="237.387013" xlink:href="#mc52481c911" y="334.53607"/>
     <use style="fill:#008000;stroke:#008000;stroke-linejoin:miter;" x="250.152779" xlink:href="#mc52481c911" y="334.53607"/>
     <use style="fill:#008000;stroke:#008000;stroke-linejoin:miter;" x="137.382808" xlink:href="#mc52481c911" y="125.565813"/>
     <use style="fill:#008000;stroke:#008000;stroke-linejoin:miter;" x="165.566566" xlink:href="#mc52481c911" y="210.703915"/>
     <use style="fill:#008000;stroke:#008000;stroke-linejoin:miter;" x="316.254481" xlink:href="#mc52481c911" y="334.53607"/>
     <use style="fill:#008000;stroke:#008000;stroke-linejoin:miter;" x="120.740648" xlink:href="#mc52481c911" y="88.457666"/>
     <use style="fill:#008000;stroke:#008000;stroke-linejoin:miter;" x="279.076545" xlink:href="#mc52481c911" y="334.53607"/>
     <use style="fill:#008000;stroke:#008000;stroke-linejoin:miter;" x="97.849219" xlink:href="#mc52481c911" y="86.747075"/>
     <use style="fill:#008000;stroke:#008000;stroke-linejoin:miter;" x="199.962725" xlink:href="#mc52481c911" y="296.260661"/>
    </g>
   </g>
   <g id="legend_1">
    <g id="patch_7">
     <path d="M 309.975 103.874375 
L 511.4 103.874375 
Q 513.4 103.874375 513.4 101.874375 
L 513.4 58.84 
Q 513.4 56.84 511.4 56.84 
L 309.975 56.84 
Q 307.975 56.84 307.975 58.84 
L 307.975 101.874375 
Q 307.975 103.874375 309.975 103.874375 
z
" style="fill:#ffffff;opacity:0.8;stroke:#cccccc;stroke-linejoin:miter;"/>
    </g>
    <g id="line2d_18"/>
    <g id="line2d_19">
     <g>
      <use style="fill:#008000;stroke:#008000;stroke-linejoin:miter;" x="321.975" xlink:href="#mc52481c911" y="64.938437"/>
     </g>
    </g>
    <g id="text_17">
     <!-- (Discounted) Cashflow -->
     <defs>
      <path d="M 31 75.875 
Q 24.46875 64.65625 21.28125 53.65625 
Q 18.109375 42.671875 18.109375 31.390625 
Q 18.109375 20.125 21.3125 9.0625 
Q 24.515625 -2 31 -13.1875 
L 23.1875 -13.1875 
Q 15.875 -1.703125 12.234375 9.375 
Q 8.59375 20.453125 8.59375 31.390625 
Q 8.59375 42.28125 12.203125 53.3125 
Q 15.828125 64.359375 23.1875 75.875 
z
" id="DejaVuSans-40"/>
      <path d="M 19.671875 64.796875 
L 19.671875 8.109375 
L 31.59375 8.109375 
Q 46.6875 8.109375 53.6875 14.9375 
Q 60.6875 21.78125 60.6875 36.53125 
Q 60.6875 51.171875 53.6875 57.984375 
Q 46.6875 64.796875 31.59375 64.796875 
z
M 9.8125 72.90625 
L 30.078125 72.90625 
Q 51.265625 72.90625 61.171875 64.09375 
Q 71.09375 55.28125 71.09375 36.53125 
Q 71.09375 17.671875 61.125 8.828125 
Q 51.171875 0 30.078125 0 
L 9.8125 0 
z
" id="DejaVuSans-68"/>
      <path d="M 45.40625 46.390625 
L 45.40625 75.984375 
L 54.390625 75.984375 
L 54.390625 0 
L 45.40625 0 
L 45.40625 8.203125 
Q 42.578125 3.328125 38.25 0.953125 
Q 33.9375 -1.421875 27.875 -1.421875 
Q 17.96875 -1.421875 11.734375 6.484375 
Q 5.515625 14.40625 5.515625 27.296875 
Q 5.515625 40.1875 11.734375 48.09375 
Q 17.96875 56 27.875 56 
Q 33.9375 56 38.25 53.625 
Q 42.578125 51.265625 45.40625 46.390625 
z
M 14.796875 27.296875 
Q 14.796875 17.390625 18.875 11.75 
Q 22.953125 6.109375 30.078125 6.109375 
Q 37.203125 6.109375 41.296875 11.75 
Q 45.40625 17.390625 45.40625 27.296875 
Q 45.40625 37.203125 41.296875 42.84375 
Q 37.203125 48.484375 30.078125 48.484375 
Q 22.953125 48.484375 18.875 42.84375 
Q 14.796875 37.203125 14.796875 27.296875 
z
" id="DejaVuSans-100"/>
      <path d="M 8.015625 75.875 
L 15.828125 75.875 
Q 23.140625 64.359375 26.78125 53.3125 
Q 30.421875 42.28125 30.421875 31.390625 
Q 30.421875 20.453125 26.78125 9.375 
Q 23.140625 -1.703125 15.828125 -13.1875 
L 8.015625 -13.1875 
Q 14.5 -2 17.703125 9.0625 
Q 20.90625 20.125 20.90625 31.390625 
Q 20.90625 42.671875 17.703125 53.65625 
Q 14.5 64.65625 8.015625 75.875 
z
" id="DejaVuSans-41"/>
      <path d="M 54.890625 33.015625 
L 54.890625 0 
L 45.90625 0 
L 45.90625 32.71875 
Q 45.90625 40.484375 42.875 44.328125 
Q 39.84375 48.1875 33.796875 48.1875 
Q 26.515625 48.1875 22.3125 43.546875 
Q 18.109375 38.921875 18.109375 30.90625 
L 18.109375 0 
L 9.078125 0 
L 9.078125 75.984375 
L 18.109375 75.984375 
L 18.109375 46.1875 
Q 21.34375 51.125 25.703125 53.5625 
Q 30.078125 56 35.796875 56 
Q 45.21875 56 50.046875 50.171875 
Q 54.890625 44.34375 54.890625 33.015625 
z
" id="DejaVuSans-104"/>
      <path d="M 37.109375 75.984375 
L 37.109375 68.5 
L 28.515625 68.5 
Q 23.6875 68.5 21.796875 66.546875 
Q 19.921875 64.59375 19.921875 59.515625 
L 19.921875 54.6875 
L 34.71875 54.6875 
L 34.71875 47.703125 
L 19.921875 47.703125 
L 19.921875 0 
L 10.890625 0 
L 10.890625 47.703125 
L 2.296875 47.703125 
L 2.296875 54.6875 
L 10.890625 54.6875 
L 10.890625 58.5 
Q 10.890625 67.625 15.140625 71.796875 
Q 19.390625 75.984375 28.609375 75.984375 
z
" id="DejaVuSans-102"/>
      <path d="M 4.203125 54.6875 
L 13.1875 54.6875 
L 24.421875 12.015625 
L 35.59375 54.6875 
L 46.1875 54.6875 
L 57.421875 12.015625 
L 68.609375 54.6875 
L 77.59375 54.6875 
L 63.28125 0 
L 52.6875 0 
L 40.921875 44.828125 
L 29.109375 0 
L 18.5 0 
z
" id="DejaVuSans-119"/>
     </defs>
     <g transform="translate(339.975 68.438437)scale(0.1 -0.1)">
      <use xlink:href="#DejaVuSans-40"/>
      <use x="39.013672" xlink:href="#DejaVuSans-68"/>
      <use x="116.015625" xlink:href="#DejaVuSans-105"/>
      <use x="143.798828" xlink:href="#DejaVuSans-115"/>
      <use x="195.898438" xlink:href="#DejaVuSans-99"/>
      <use x="250.878906" xlink:href="#DejaVuSans-111"/>
      <use x="312.060547" xlink:href="#DejaVuSans-117"/>
      <use x="375.439453" xlink:href="#DejaVuSans-110"/>
      <use x="438.818359" xlink:href="#DejaVuSans-116"/>
      <use x="478.027344" xlink:href="#DejaVuSans-101"/>
      <use x="539.550781" xlink:href="#DejaVuSans-100"/>
      <use x="603.027344" xlink:href="#DejaVuSans-41"/>
      <use x="642.041016" xlink:href="#DejaVuSans-32"/>
      <use x="673.828125" xlink:href="#DejaVuSans-67"/>
      <use x="743.652344" xlink:href="#DejaVuSans-97"/>
      <use x="804.931641" xlink:href="#DejaVuSans-115"/>
      <use x="857.03125" xlink:href="#DejaVuSans-104"/>
      <use x="920.410156" xlink:href="#DejaVuSans-102"/>
      <use x="955.615234" xlink:href="#DejaVuSans-108"/>
      <use x="983.398438" xlink:href="#DejaVuSans-111"/>
      <use x="1044.580078" xlink:href="#DejaVuSans-119"/>
     </g>
    </g>
    <g id="line2d_20">
     <path d="M 311.975 79.616562 
L 331.975 79.616562 
" style="fill:none;stroke:#1f77b4;stroke-linecap:square;stroke-width:1.5;"/>
    </g>
    <g id="line2d_21"/>
    <g id="text_18">
     <!-- Fitted Polynomial -->
     <defs>
      <path d="M 9.8125 72.90625 
L 51.703125 72.90625 
L 51.703125 64.59375 
L 19.671875 64.59375 
L 19.671875 43.109375 
L 48.578125 43.109375 
L 48.578125 34.8125 
L 19.671875 34.8125 
L 19.671875 0 
L 9.8125 0 
z
" id="DejaVuSans-70"/>
      <path d="M 32.171875 -5.078125 
Q 28.375 -14.84375 24.75 -17.8125 
Q 21.140625 -20.796875 15.09375 -20.796875 
L 7.90625 -20.796875 
L 7.90625 -13.28125 
L 13.1875 -13.28125 
Q 16.890625 -13.28125 18.9375 -11.515625 
Q 21 -9.765625 23.484375 -3.21875 
L 25.09375 0.875 
L 2.984375 54.6875 
L 12.5 54.6875 
L 29.59375 11.921875 
L 46.6875 54.6875 
L 56.203125 54.6875 
z
" id="DejaVuSans-121"/>
     </defs>
     <g transform="translate(339.975 83.116562)scale(0.1 -0.1)">
      <use xlink:href="#DejaVuSans-70"/>
      <use x="57.410156" xlink:href="#DejaVuSans-105"/>
      <use x="85.193359" xlink:href="#DejaVuSans-116"/>
      <use x="124.402344" xlink:href="#DejaVuSans-116"/>
      <use x="163.611328" xlink:href="#DejaVuSans-101"/>
      <use x="225.134766" xlink:href="#DejaVuSans-100"/>
      <use x="288.611328" xlink:href="#DejaVuSans-32"/>
      <use x="320.398438" xlink:href="#DejaVuSans-80"/>
      <use x="380.654297" xlink:href="#DejaVuSans-111"/>
      <use x="441.835938" xlink:href="#DejaVuSans-108"/>
      <use x="469.619141" xlink:href="#DejaVuSans-121"/>
      <use x="528.798828" xlink:href="#DejaVuSans-110"/>
      <use x="592.177734" xlink:href="#DejaVuSans-111"/>
      <use x="653.359375" xlink:href="#DejaVuSans-109"/>
      <use x="750.771484" xlink:href="#DejaVuSans-105"/>
      <use x="778.554688" xlink:href="#DejaVuSans-97"/>
      <use x="839.833984" xlink:href="#DejaVuSans-108"/>
     </g>
    </g>
    <g id="line2d_22"/>
    <g id="line2d_23">
     <g>
      <use style="fill:#ff7f0e;stroke:#ff7f0e;" x="321.975" xlink:href="#m078e044e50" y="94.294687"/>
     </g>
    </g>
    <g id="text_19">
     <!-- Approximated Continuation Value -->
     <defs>
      <path d="M 34.1875 63.1875 
L 20.796875 26.90625 
L 47.609375 26.90625 
z
M 28.609375 72.90625 
L 39.796875 72.90625 
L 67.578125 0 
L 57.328125 0 
L 50.6875 18.703125 
L 17.828125 18.703125 
L 11.1875 0 
L 0.78125 0 
z
" id="DejaVuSans-65"/>
      <path d="M 18.109375 8.203125 
L 18.109375 -20.796875 
L 9.078125 -20.796875 
L 9.078125 54.6875 
L 18.109375 54.6875 
L 18.109375 46.390625 
Q 20.953125 51.265625 25.265625 53.625 
Q 29.59375 56 35.59375 56 
Q 45.5625 56 51.78125 48.09375 
Q 58.015625 40.1875 58.015625 27.296875 
Q 58.015625 14.40625 51.78125 6.484375 
Q 45.5625 -1.421875 35.59375 -1.421875 
Q 29.59375 -1.421875 25.265625 0.953125 
Q 20.953125 3.328125 18.109375 8.203125 
z
M 48.6875 27.296875 
Q 48.6875 37.203125 44.609375 42.84375 
Q 40.53125 48.484375 33.40625 48.484375 
Q 26.265625 48.484375 22.1875 42.84375 
Q 18.109375 37.203125 18.109375 27.296875 
Q 18.109375 17.390625 22.1875 11.75 
Q 26.265625 6.109375 33.40625 6.109375 
Q 40.53125 6.109375 44.609375 11.75 
Q 48.6875 17.390625 48.6875 27.296875 
z
" id="DejaVuSans-112"/>
     </defs>
     <g transform="translate(339.975 97.794687)scale(0.1 -0.1)">
      <use xlink:href="#DejaVuSans-65"/>
      <use x="68.408203" xlink:href="#DejaVuSans-112"/>
      <use x="131.884766" xlink:href="#DejaVuSans-112"/>
      <use x="195.361328" xlink:href="#DejaVuSans-114"/>
      <use x="236.443359" xlink:href="#DejaVuSans-111"/>
      <use x="297.578125" xlink:href="#DejaVuSans-120"/>
      <use x="356.757812" xlink:href="#DejaVuSans-105"/>
      <use x="384.541016" xlink:href="#DejaVuSans-109"/>
      <use x="481.953125" xlink:href="#DejaVuSans-97"/>
      <use x="543.232422" xlink:href="#DejaVuSans-116"/>
      <use x="582.441406" xlink:href="#DejaVuSans-101"/>
      <use x="643.964844" xlink:href="#DejaVuSans-100"/>
      <use x="707.441406" xlink:href="#DejaVuSans-32"/>
      <use x="739.228516" xlink:href="#DejaVuSans-67"/>
      <use x="809.052734" xlink:href="#DejaVuSans-111"/>
      <use x="870.234375" xlink:href="#DejaVuSans-110"/>
      <use x="933.613281" xlink:href="#DejaVuSans-116"/>
      <use x="972.822266" xlink:href="#DejaVuSans-105"/>
      <use x="1000.605469" xlink:href="#DejaVuSans-110"/>
      <use x="1063.984375" xlink:href="#DejaVuSans-117"/>
      <use x="1127.363281" xlink:href="#DejaVuSans-97"/>
      <use x="1188.642578" xlink:href="#DejaVuSans-116"/>
      <use x="1227.851562" xlink:href="#DejaVuSans-105"/>
      <use x="1255.634766" xlink:href="#DejaVuSans-111"/>
      <use x="1316.816406" xlink:href="#DejaVuSans-110"/>
      <use x="1380.195312" xlink:href="#DejaVuSans-32"/>
      <use x="1411.982422" xlink:href="#DejaVuSans-86"/>
      <use x="1480.28125" xlink:href="#DejaVuSans-97"/>
      <use x="1541.560547" xlink:href="#DejaVuSans-108"/>
      <use x="1569.34375" xlink:href="#DejaVuSans-117"/>
      <use x="1632.722656" xlink:href="#DejaVuSans-101"/>
     </g>
    </g>
   </g>
  </g>
 </g>
 <defs>
  <clipPath id="pa4a4fbb789">
   <rect height="326.16" width="446.4" x="72" y="51.84"/>
  </clipPath>
 </defs>
</svg>
